<svg width="30" height="30" viewBox="0 0 30 30" fill="none" xmlns="http://www.w3.org/2000/svg">
<path d="M13.6946 23.4765H16.3054C16.4762 23.4849 16.6379 23.5565 16.7589 23.6774C16.8798 23.7984 16.9514 23.9601 16.9598 24.1309V26.7417C16.9514 26.9126 16.8798 27.0742 16.7589 27.1952C16.6379 27.3162 16.4762 27.3878 16.3054 27.3961H13.6946C13.5237 27.3878 13.3621 27.3162 13.2411 27.1952C13.1201 27.0742 13.0485 26.9126 13.0402 26.7417V24.1103C13.0534 23.9431 13.1272 23.7864 13.2477 23.6698C13.3681 23.5531 13.527 23.4844 13.6946 23.4765Z" fill="#607D8B"/>
<path d="M21.52 26.0873H8.47985C8.05138 26.0863 7.62694 26.17 7.23083 26.3333C6.83472 26.4966 6.47471 26.7365 6.17141 27.0392C5.86812 27.3418 5.6275 27.7013 5.46332 28.0971C5.29915 28.4928 5.21464 28.9171 5.21464 29.3456C5.22299 29.5164 5.29462 29.6781 5.41558 29.7991C5.53655 29.92 5.69819 29.9917 5.86906 30H24.1102C24.287 30.0002 24.4572 29.9324 24.5855 29.8106C24.7137 29.6887 24.7902 29.5222 24.799 29.3456C24.799 28.9159 24.7141 28.4906 24.549 28.0939C24.384 27.6972 24.1421 27.3371 23.8374 27.0343C23.5326 26.7314 23.171 26.4918 22.7733 26.3293C22.3756 26.1668 21.9497 26.0845 21.52 26.0873ZM3.25827 0H26.7347C27.5989 0 28.4277 0.343287 29.0387 0.954341C29.6498 1.5654 29.9931 2.39416 29.9931 3.25832V21.5201C29.9958 21.9497 29.9135 22.3756 29.751 22.7733C29.5885 23.1711 29.3489 23.5327 29.0461 23.8374C28.7432 24.1422 28.3831 24.3841 27.9864 24.5491C27.5898 24.7141 27.1644 24.7991 26.7347 24.7991H3.25827C2.82863 24.7991 2.40324 24.7141 2.00657 24.5491C1.6099 24.3841 1.24978 24.1422 0.946947 23.8374C0.644112 23.5327 0.404538 23.1711 0.242012 22.7733C0.0794863 22.3756 -0.00278148 21.9497 -5.65274e-05 21.5201V3.25832C-5.65274e-05 2.39416 0.34323 1.5654 0.954284 0.954341C1.56534 0.343287 2.39411 0 3.25827 0V0Z" fill="#455A64"/>
<path d="M3.25837 1.30194H26.7348C27.2537 1.30194 27.7513 1.50806 28.1182 1.87495C28.4851 2.24184 28.6912 2.73945 28.6912 3.25831V19.5637H1.302V3.25831C1.302 3.0014 1.3526 2.747 1.45092 2.50964C1.54924 2.27228 1.69334 2.05661 1.87501 1.87495C2.2419 1.50806 2.73951 1.30194 3.25837 1.30194Z" fill="#FAFAFA"/>
<path d="M25.4879 20.8657C25.3585 20.8657 25.232 20.904 25.1243 20.976C25.0167 21.0479 24.9328 21.1501 24.8833 21.2696C24.8338 21.3892 24.8208 21.5208 24.8461 21.6478C24.8713 21.7747 24.9336 21.8913 25.0252 21.9828C25.1167 22.0743 25.2333 22.1367 25.3602 22.1619C25.4872 22.1872 25.6188 22.1742 25.7384 22.1247C25.8579 22.0752 25.9601 21.9913 26.032 21.8837C26.104 21.776 26.1423 21.6495 26.1423 21.5201C26.1423 21.3465 26.0734 21.1801 25.9507 21.0573C25.8279 20.9346 25.6615 20.8657 25.4879 20.8657Z" fill="#68A1D7"/>
<path d="M14.3077 7.67392H19.5155C19.7528 7.69417 19.9738 7.80273 20.1349 7.97812C20.296 8.15352 20.3853 8.38298 20.3853 8.6211C20.3853 8.85923 20.296 9.08869 20.1349 9.26408C19.9738 9.43948 19.7528 9.54804 19.5155 9.56829H7.20555C7.07438 9.57949 6.94231 9.56331 6.81771 9.5208C6.69311 9.47828 6.5787 9.41035 6.48173 9.3213C6.38475 9.23226 6.30734 9.12404 6.25438 9.00351C6.20142 8.88297 6.17407 8.75276 6.17407 8.6211C6.17407 8.48945 6.20142 8.35923 6.25438 8.2387C6.30734 8.11817 6.38475 8.00995 6.48173 7.9209C6.5787 7.83186 6.69311 7.76392 6.81771 7.72141C6.94231 7.67889 7.07438 7.66272 7.20555 7.67392H12.3996" fill="#BC8F6F"/>
<path d="M13.3641 2.45924C13.2381 2.45741 13.113 2.48065 12.996 2.52761C12.8791 2.57456 12.7727 2.6443 12.6829 2.73275C12.5932 2.82121 12.5219 2.92662 12.4733 3.04287C12.4247 3.15911 12.3996 3.28386 12.3997 3.40987V8.14925C12.4199 8.38651 12.5285 8.60754 12.7039 8.7686C12.8793 8.92966 13.1087 9.01903 13.3468 9.01903C13.585 9.01903 13.8144 8.92966 13.9898 8.7686C14.1652 8.60754 14.2738 8.38651 14.294 8.14925V3.40987C14.2941 3.16129 14.1968 2.92257 14.0229 2.74487C13.8491 2.56718 13.6126 2.46464 13.3641 2.45924Z" fill="#52575F"/>
<path d="M13.0059 2.53503C12.8285 2.60295 12.6758 2.72277 12.5677 2.87885C12.4595 3.03493 12.401 3.22001 12.3997 3.40989V8.14927C12.3999 8.33755 12.4564 8.52147 12.562 8.67737C12.6675 8.83328 12.8173 8.95404 12.9921 9.02413C13.1668 8.95404 13.3166 8.83328 13.4222 8.67737C13.5278 8.52147 13.5843 8.33755 13.5845 8.14927V3.40989C13.5854 3.22318 13.5309 3.0404 13.4279 2.88467C13.3249 2.72894 13.178 2.60726 13.0059 2.53503Z" fill="#666D77"/>
<path d="M19.5155 9.56833V15.7268C19.5139 15.9718 19.4177 16.2068 19.247 16.3827C19.0762 16.5585 18.8442 16.6616 18.5993 16.6705H8.14924C7.89712 16.6705 7.65532 16.5704 7.47704 16.3921C7.29876 16.2138 7.19861 15.972 7.19861 15.7199V9.56833" fill="#BF4653"/>
<path d="M8.14931 16.6705H18.5374C18.5471 16.5927 18.5471 16.5141 18.5374 16.4363V10.2779H7.20557V15.7268C7.20737 15.9765 7.30738 16.2155 7.48398 16.3921C7.66057 16.5687 7.89957 16.6687 8.14931 16.6705Z" fill="#DC6068"/>
<path d="M11.7106 15.2514C11.5279 15.2514 11.3527 15.1788 11.2235 15.0497C11.0943 14.9205 11.0217 14.7453 11.0217 14.5626V11.7107C11.0217 11.528 11.0943 11.3527 11.2235 11.2236C11.3527 11.0944 11.5279 11.0218 11.7106 11.0218C11.8933 11.0218 12.0685 11.0944 12.1977 11.2236C12.3269 11.3527 12.3994 11.528 12.3994 11.7107V14.5557C12.4004 14.6467 12.3832 14.737 12.349 14.8214C12.3148 14.9058 12.2642 14.9825 12.2001 15.0472C12.1361 15.1119 12.0598 15.1633 11.9758 15.1983C11.8918 15.2334 11.8016 15.2514 11.7106 15.2514ZM9.334 15.2514C9.15131 15.2514 8.97609 15.1788 8.84691 15.0497C8.71772 14.9205 8.64514 14.7453 8.64514 14.5626V11.7107C8.64514 11.5225 8.7199 11.342 8.85296 11.2089C8.98602 11.0759 9.16649 11.0011 9.35467 11.0011C9.54285 11.0011 9.72332 11.0759 9.85638 11.2089C9.98945 11.342 10.0642 11.5225 10.0642 11.7107V14.5557C10.0653 14.6503 10.0469 14.7441 10.0102 14.8313C9.97342 14.9185 9.91909 14.9972 9.85058 15.0625C9.78207 15.1278 9.70084 15.1783 9.61196 15.2108C9.52309 15.2433 9.42847 15.2571 9.334 15.2514ZM15.0171 15.2514C14.8344 15.2514 14.6592 15.1788 14.53 15.0497C14.4008 14.9205 14.3283 14.7453 14.3283 14.5626V11.7107C14.3283 11.5225 14.403 11.342 14.5361 11.2089C14.6691 11.0759 14.8496 11.0011 15.0378 11.0011C15.226 11.0011 15.4064 11.0759 15.5395 11.2089C15.6726 11.342 15.7473 11.5225 15.7473 11.7107V14.5557C15.7484 14.6503 15.73 14.7441 15.6933 14.8313C15.6565 14.9185 15.6022 14.9972 15.5337 15.0625C15.4652 15.1278 15.384 15.1783 15.2951 15.2108C15.2062 15.2433 15.1116 15.2571 15.0171 15.2514ZM17.3868 15.2514C17.2041 15.2514 17.0289 15.1788 16.8997 15.0497C16.7705 14.9205 16.698 14.7453 16.698 14.5626V11.7107C16.698 11.5225 16.7727 11.342 16.9058 11.2089C17.0388 11.0759 17.2193 11.0011 17.4075 11.0011C17.5957 11.0011 17.7761 11.0759 17.9092 11.2089C18.0423 11.342 18.117 11.5225 18.117 11.7107V14.5557C18.1181 14.6503 18.0997 14.7441 18.063 14.8313C18.0262 14.9185 17.9719 14.9972 17.9034 15.0625C17.8349 15.1278 17.7537 15.1783 17.6648 15.2108C17.5759 15.2433 17.4813 15.2571 17.3868 15.2514Z" fill="white"/>
<path d="M22.5742 19.0953L19.4192 15.9403L18.3652 16.9943V12.7853H22.5742L21.5202 13.8393L24.6752 16.9943L22.5742 19.0953Z" fill="#4472B2"/>
</svg>
