<svg width="39" height="32" viewBox="0 0 39 32" fill="none" xmlns="http://www.w3.org/2000/svg">
<path d="M11.4279 32C12.9276 32 14.1434 30.7843 14.1434 29.2846C14.1434 27.7849 12.9276 26.5692 11.4279 26.5692C9.92826 26.5692 8.71252 27.7849 8.71252 29.2846C8.71252 30.7843 9.92826 32 11.4279 32Z" fill="#0B4870"/>
<path d="M31.0151 32C32.5148 32 33.7305 30.7843 33.7305 29.2846C33.7305 27.7849 32.5148 26.5692 31.0151 26.5692C29.5154 26.5692 28.2997 27.7849 28.2997 29.2846C28.2997 30.7843 29.5154 32 31.0151 32Z" fill="#0B4870"/>
<path d="M33.8332 24.8542C33.8332 25.1835 33.6996 25.4831 33.4822 25.7007C33.3714 25.8125 33.2394 25.9012 33.0939 25.9615C32.9485 26.0217 32.7925 26.0525 32.6351 26.0519H12.5906C12.3133 26.0524 12.0427 25.9661 11.817 25.8049C11.5913 25.6437 11.4218 25.4159 11.3323 25.1534L11.3104 25.0893L10.8551 23.6559L4.9401 5.08294L4.67446 4.24824C4.47473 3.61743 4.82194 2.94423 5.45321 2.74265C5.75618 2.64645 6.08494 2.67445 6.36729 2.82048C6.64963 2.96652 6.86246 3.21866 6.95903 3.52151L7.17706 4.20572L7.94932 6.62885L8.71255 9.02511L12.6127 21.2754L13.098 22.7971C13.1809 23.0254 13.3253 23.2264 13.5151 23.378C13.705 23.5295 13.933 23.6257 14.1741 23.656H32.635C32.7924 23.6559 32.9482 23.6868 33.0937 23.7469C33.2391 23.8071 33.3713 23.8954 33.4825 24.0067C33.5938 24.118 33.6821 24.2501 33.7423 24.3955C33.8024 24.541 33.8333 24.6968 33.8332 24.8542Z" fill="#D3D3D3"/>
<path d="M33.8328 9.76804V18.1359C33.8328 19.8692 32.4295 21.2748 30.6962 21.2748H12.6125L8.71289 9.02452H33.5204C33.5954 9.02452 33.6684 9.01791 33.7402 9.00482C33.8011 9.2488 33.8328 9.50472 33.8328 9.76804Z" fill="#2A94F4"/>
<path d="M7.68865 3.75447C7.68865 4.08615 7.55496 4.38574 7.33728 4.60145C7.22646 4.71323 7.09452 4.80187 6.94913 4.86219C6.80374 4.92251 6.64781 4.95332 6.49041 4.95283H1.19824C0.537083 4.95283 0 4.41563 0 3.75447C0 3.42302 0.133692 3.12343 0.351375 2.90772C0.462185 2.79592 0.594124 2.70728 0.739513 2.64696C0.884902 2.58664 1.04084 2.55583 1.19824 2.55634H6.49041C7.15157 2.55634 7.68865 3.09377 7.68865 3.75447ZM26.2705 12.1805V17.9902C26.2705 18.6509 25.7326 19.1876 25.0717 19.1876C24.7408 19.1876 24.4415 19.0537 24.2259 18.836C24.114 18.7254 24.0253 18.5937 23.9649 18.4485C23.9045 18.3033 23.8737 18.1475 23.8741 17.9902V12.1805C23.8741 11.5198 24.4109 10.9831 25.0717 10.9831C25.4038 10.9831 25.7031 11.117 25.9188 11.3347C26.0306 11.4453 26.1192 11.577 26.1796 11.7223C26.24 11.8675 26.2709 12.0232 26.2705 12.1805ZM15.9266 12.1805V17.9902C15.9266 18.6509 15.3898 19.1876 14.7278 19.1876C14.5706 19.188 14.4148 19.1571 14.2696 19.0968C14.1243 19.0364 13.9926 18.9478 13.8819 18.836C13.77 18.7254 13.6813 18.5937 13.6209 18.4485C13.5606 18.3033 13.5297 18.1475 13.5302 17.9902V12.1805C13.5302 11.5198 14.0669 10.9831 14.7277 10.9831C15.0598 10.9831 15.3592 11.117 15.5759 11.3347C15.6873 11.4455 15.7757 11.5773 15.8359 11.7225C15.8961 11.8677 15.9269 12.0233 15.9266 12.1805ZM21.0207 12.1805V17.9902C21.0207 18.6509 20.4828 19.1876 19.822 19.1876C19.6646 19.1879 19.5087 19.157 19.3633 19.0966C19.2179 19.0363 19.0859 18.9477 18.9749 18.836C18.7572 18.6215 18.6244 18.321 18.6244 17.9902V12.1805C18.6244 11.5198 19.1611 10.9831 19.8219 10.9831C20.1539 10.9831 20.4533 11.117 20.669 11.3347C20.7808 11.4453 20.8695 11.577 20.9299 11.7222C20.9903 11.8675 21.0212 12.0232 21.0207 12.1805ZM31.676 12.1805V17.9902C31.676 18.6509 31.1393 19.1876 30.4784 19.1876C30.1476 19.1876 29.847 19.0537 29.6313 18.836C29.5195 18.7254 29.4308 18.5937 29.3704 18.4485C29.31 18.3033 29.2792 18.1475 29.2797 17.9902V12.1805C29.2797 11.5198 29.8175 10.9831 30.4784 10.9831C30.8093 10.9831 31.1098 11.117 31.3255 11.3347C31.4369 11.4455 31.5252 11.5774 31.5854 11.7225C31.6455 11.8677 31.6763 12.0234 31.676 12.1805ZM14.9682 24.958C15.0818 25.0669 15.1727 25.1974 15.2354 25.3417C15.2982 25.4861 15.3316 25.6415 15.3337 25.7989C15.3373 25.9562 15.3094 26.1128 15.2519 26.2593C15.1943 26.4058 15.1082 26.5394 14.9985 26.6523L12.8616 28.867C12.4027 29.3426 11.6431 29.356 11.1674 28.8972C11.0537 28.7883 10.9628 28.6579 10.9001 28.5135C10.8373 28.3691 10.804 28.2137 10.8019 28.0563C10.7984 27.899 10.8262 27.7425 10.8838 27.596C10.9413 27.4494 11.0273 27.3158 11.1369 27.2028L13.2739 24.9884C13.7328 24.5127 14.4926 24.4991 14.9682 24.958ZM31.0921 24.6227C31.2494 24.62 31.4058 24.6485 31.552 24.7066C31.6982 24.7648 31.8314 24.8514 31.9439 24.9615C32.0574 25.0706 32.148 25.2013 32.2105 25.3458C32.2729 25.4903 32.306 25.6458 32.3078 25.8033L32.3531 28.8805C32.3627 29.5412 31.8336 30.086 31.1726 30.0957C31.0152 30.0987 30.8589 30.0702 30.7127 30.0121C30.5664 29.9539 30.4332 29.8672 30.3209 29.757C30.2074 29.6479 30.1168 29.5173 30.0542 29.3728C29.9917 29.2283 29.9586 29.0729 29.9567 28.9155L29.9116 25.8384C29.9017 25.1775 30.431 24.6325 31.0921 24.6227ZM34.7179 7.82685C34.7179 8.15783 34.5839 8.45835 34.3661 8.67394C34.1964 8.8458 33.9778 8.96128 33.7402 9.0047C33.6684 9.01779 33.5954 9.02439 33.5204 9.02439H8.71289L7.94966 6.62907H33.5204C34.1811 6.62918 34.7179 7.16615 34.7179 7.82685Z" fill="#0E538C"/>
<path d="M32.7379 11.1907C35.8282 11.1907 38.3333 8.68558 38.3333 5.59535C38.3333 2.50512 35.8282 0 32.7379 0C29.6477 0 27.1426 2.50512 27.1426 5.59535C27.1426 8.68558 29.6477 11.1907 32.7379 11.1907Z" fill="#FFBE55"/>
<path d="M35.8255 5.59535C35.8255 5.86215 35.7177 6.10265 35.543 6.2755C35.4541 6.36537 35.3481 6.43663 35.2313 6.48514C35.1146 6.53365 34.9893 6.55844 34.8629 6.55806H33.7001V7.72086C33.7001 8.25145 33.269 8.68253 32.7375 8.68253C32.6112 8.6829 32.4861 8.65811 32.3695 8.60959C32.2529 8.56108 32.1471 8.48982 32.0583 8.39997C31.9685 8.31123 31.8973 8.20548 31.8488 8.0889C31.8002 7.97232 31.7754 7.84724 31.7758 7.72097V6.55818H30.6131C30.0823 6.55818 29.6505 6.12617 29.6505 5.59535C29.6505 5.3297 29.7579 5.0885 29.933 4.91519C30.0219 4.82536 30.1279 4.75413 30.2447 4.70564C30.3614 4.65715 30.4867 4.63237 30.6131 4.63274H31.7758V3.47099C31.7758 2.93947 32.207 2.50839 32.7376 2.50839C33.0044 2.50839 33.2447 2.6159 33.4177 2.79084C33.5076 2.87979 33.5789 2.98574 33.6274 3.10251C33.6758 3.21929 33.7006 3.34455 33.7002 3.47099V4.63286H34.863C35.3933 4.63286 35.8255 5.06475 35.8255 5.59535Z" fill="#F7F7F7"/>
</svg>
