<svg width="29" height="32" viewBox="0 0 29 32" fill="none" xmlns="http://www.w3.org/2000/svg">
<path d="M23.7419 32H2.06452C1.51697 32 0.991854 31.7825 0.604683 31.3953C0.217511 31.0081 0 30.483 0 29.9355V2.06452C0 1.51697 0.217511 0.991855 0.604683 0.604683C0.991854 0.217511 1.51697 0 2.06452 0H16.5161L23.7419 7.22581V19.6129" fill="#DFE1F0"/>
<path d="M23.7419 7.22581H18.5806C18.0331 7.22581 17.508 7.0083 17.1208 6.62112C16.7336 6.23395 16.5161 5.70883 16.5161 5.16129V0L23.7419 7.22581Z" fill="#AFAEB3"/>
<path d="M22.7097 32C26.1303 32 28.9032 29.2271 28.9032 25.8065C28.9032 22.3859 26.1303 19.6129 22.7097 19.6129C19.2891 19.6129 16.5161 22.3859 16.5161 25.8065C16.5161 29.2271 19.2891 32 22.7097 32Z" fill="#406FB5"/>
<path d="M15.4839 20.129H3.09682C2.95993 20.129 2.82865 20.0747 2.73186 19.9779C2.63507 19.8811 2.58069 19.7498 2.58069 19.6129C2.58069 19.476 2.63507 19.3447 2.73186 19.2479C2.82865 19.1512 2.95993 19.0968 3.09682 19.0968H15.4839C15.6208 19.0968 15.7521 19.1512 15.8489 19.2479C15.9457 19.3447 16 19.476 16 19.6129C16 19.7498 15.9457 19.8811 15.8489 19.9779C15.7521 20.0747 15.6208 20.129 15.4839 20.129ZM19.6129 17.0323H3.09682C2.95993 17.0323 2.82865 16.9779 2.73186 16.8811C2.63507 16.7843 2.58069 16.653 2.58069 16.5161C2.58069 16.3792 2.63507 16.248 2.73186 16.1512C2.82865 16.0544 2.95993 16 3.09682 16H19.6129C19.7498 16 19.8811 16.0544 19.9779 16.1512C20.0747 16.248 20.1291 16.3792 20.1291 16.5161C20.1291 16.653 20.0747 16.7843 19.9779 16.8811C19.8811 16.9779 19.7498 17.0323 19.6129 17.0323ZM13.4194 23.2258H3.09682C2.95993 23.2258 2.82865 23.1714 2.73186 23.0746C2.63507 22.9778 2.58069 22.8466 2.58069 22.7097C2.58069 22.5728 2.63507 22.4415 2.73186 22.3447C2.82865 22.2479 2.95993 22.1935 3.09682 22.1935H13.4194C13.5563 22.1935 13.6876 22.2479 13.7844 22.3447C13.8811 22.4415 13.9355 22.5728 13.9355 22.7097C13.9355 22.8466 13.8811 22.9778 13.7844 23.0746C13.6876 23.1714 13.5563 23.2258 13.4194 23.2258ZM12.3871 26.3226H3.09682C2.95993 26.3226 2.82865 26.2682 2.73186 26.1714C2.63507 26.0746 2.58069 25.9433 2.58069 25.8065C2.58069 25.6696 2.63507 25.5383 2.73186 25.4415C2.82865 25.3447 2.95993 25.2903 3.09682 25.2903H12.3871C12.524 25.2903 12.6553 25.3447 12.7521 25.4415C12.8489 25.5383 12.9033 25.6696 12.9033 25.8065C12.9033 25.9433 12.8489 26.0746 12.7521 26.1714C12.6553 26.2682 12.524 26.3226 12.3871 26.3226ZM13.4194 29.4194H3.09682C2.95993 29.4194 2.82865 29.365 2.73186 29.2682C2.63507 29.1714 2.58069 29.0401 2.58069 28.9032C2.58069 28.7663 2.63507 28.6351 2.73186 28.5383C2.82865 28.4415 2.95993 28.3871 3.09682 28.3871H13.4194C13.5563 28.3871 13.6876 28.4415 13.7844 28.5383C13.8811 28.6351 13.9355 28.7663 13.9355 28.9032C13.9355 29.0401 13.8811 29.1714 13.7844 29.2682C13.6876 29.365 13.5563 29.4194 13.4194 29.4194Z" fill="white"/>
<path d="M21.9799 27.7822C21.9121 27.7823 21.8449 27.7691 21.7822 27.7432C21.7195 27.7174 21.6625 27.6794 21.6145 27.6315L20.1549 26.1719C20.0609 26.0745 20.0089 25.9442 20.01 25.8088C20.0112 25.6735 20.0655 25.5441 20.1612 25.4484C20.2569 25.3527 20.3863 25.2984 20.5217 25.2972C20.657 25.296 20.7874 25.3481 20.8847 25.4421L21.9799 26.5373L24.5348 23.9825C24.6321 23.8885 24.7625 23.8364 24.8978 23.8376C25.0331 23.8388 25.1626 23.8931 25.2583 23.9888C25.354 24.0845 25.4083 24.2139 25.4094 24.3492C25.4106 24.4846 25.3586 24.6149 25.2646 24.7123L22.3453 27.6315C22.2973 27.6794 22.2403 27.7174 22.1776 27.7432C22.1149 27.7691 22.0477 27.7823 21.9799 27.7822Z" fill="#3EB57B"/>
<path d="M8.77417 9.34091V14.1089C8.77334 14.2037 8.7464 14.2965 8.69632 14.377C8.64624 14.4575 8.57495 14.5226 8.49028 14.5653C8.4056 14.608 8.31081 14.6265 8.21631 14.6188C8.12181 14.6111 8.03125 14.5776 7.95456 14.5218L7.01314 13.8374C6.92494 13.7733 6.8187 13.7388 6.70966 13.7388C6.60062 13.7388 6.49437 13.7733 6.40617 13.8374L5.46475 14.5218C5.38807 14.5776 5.2975 14.6111 5.203 14.6188C5.1085 14.6265 5.01371 14.608 4.92904 14.5653C4.84436 14.5226 4.77308 14.4575 4.723 14.377C4.67292 14.2965 4.64598 14.2037 4.64514 14.1089V9.34091H8.77417Z" fill="#E23342"/>
<path d="M7.22586 11.0132C7.22586 10.7281 6.99478 10.497 6.70973 10.497C6.42468 10.497 6.1936 10.7281 6.1936 11.0132V12.0454C6.1936 12.3305 6.42468 12.5616 6.70973 12.5616C6.99478 12.5616 7.22586 12.3305 7.22586 12.0454V11.0132Z" fill="#B72735"/>
<path d="M11.3549 6.70968C11.3549 7.10193 10.7861 7.41471 10.6901 7.776C10.5941 8.13729 10.9234 8.70503 10.7335 9.03226C10.5435 9.35948 9.89322 9.35226 9.62277 9.62168C9.35232 9.89109 9.36574 10.5394 9.03335 10.7324C8.70096 10.9254 8.1518 10.5889 7.77709 10.689C7.40238 10.7892 7.10199 11.3548 6.70974 11.3548C6.31748 11.3548 6.0047 10.7861 5.64341 10.6901C5.28212 10.5941 4.71438 10.9234 4.38716 10.7334C4.05993 10.5435 4.06716 9.89316 3.79774 9.62271C3.52832 9.35226 2.87903 9.36568 2.68393 9.03226C2.48883 8.69884 2.82741 8.15071 2.72729 7.776C2.62716 7.40129 2.06458 7.10193 2.06458 6.70968C2.06458 6.31742 2.63335 6.00464 2.72935 5.64335C2.82535 5.28206 2.49606 4.71432 2.68599 4.38709C2.87593 4.05987 3.52625 4.06709 3.7967 3.79768C4.06716 3.52826 4.05374 2.88 4.38612 2.68697C4.71851 2.49393 5.26767 2.83045 5.64238 2.73032C6.01709 2.63019 6.31748 2.06451 6.70974 2.06451C7.10199 2.06451 7.41477 2.63329 7.77606 2.72929C8.13735 2.82529 8.70509 2.496 9.03232 2.68593C9.35954 2.87587 9.35232 3.52619 9.62174 3.79664C9.89116 4.06709 10.5394 4.05368 10.7324 4.38606C10.9255 4.71845 10.589 5.26761 10.6891 5.64232C10.7892 6.01703 11.3549 6.31742 11.3549 6.70968Z" fill="#FDD331"/>
<path d="M6.70967 9.29032C8.13492 9.29032 9.29032 8.13492 9.29032 6.70967C9.29032 5.28442 8.13492 4.12903 6.70967 4.12903C5.28442 4.12903 4.12903 5.28442 4.12903 6.70967C4.12903 8.13492 5.28442 9.29032 6.70967 9.29032Z" fill="#F59831"/>
</svg>
