<svg width="28" height="32" viewBox="0 0 28 32" fill="none" xmlns="http://www.w3.org/2000/svg">
<path d="M27.5443 29.5696C27.5443 30.9059 26.4502 31.9996 25.1139 31.9996H6.88607C5.54976 31.9996 4.45569 30.9059 4.45569 29.5696V6.88607C4.45569 5.54895 5.54976 4.45569 6.88607 4.45569H25.1147C26.4514 4.45569 27.5451 5.54936 27.5451 6.88607L27.5443 29.5696Z" fill="#DADEE0"/>
<path d="M4.4557 6.88608C4.4557 5.54896 5.54977 4.4557 6.88608 4.4557H23.0894V2.43038C23.0894 1.09367 21.9957 0 20.659 0H2.43038C1.09408 0 0 1.09367 0 2.43038V25.1139C0 26.4502 1.09408 27.5439 2.43038 27.5439H4.4557V6.88608Z" fill="#1BB7EA"/>
<path d="M10.1274 14.3765H22.2785C22.6139 14.3765 22.8861 14.1043 22.8861 13.7689C22.8861 13.4331 22.6139 13.1613 22.2785 13.1613H10.1274C9.79198 13.1613 9.51978 13.4331 9.51978 13.7689C9.51978 14.1043 9.79198 14.3765 10.1274 14.3765ZM10.1274 10.3259H22.2785C22.6139 10.3259 22.8861 10.0537 22.8861 9.71828C22.8861 9.38248 22.6139 9.11069 22.2785 9.11069H10.1274C9.79198 9.11069 9.51978 9.38248 9.51978 9.71828C9.51978 10.0537 9.79198 10.3259 10.1274 10.3259ZM10.1274 18.4271H22.2785C22.6139 18.4271 22.8861 18.1549 22.8861 17.8195C22.8861 17.4838 22.6139 17.212 22.2785 17.212H10.1274C9.79198 17.212 9.51978 17.4838 9.51978 17.8195C9.51978 18.1549 9.79198 18.4271 10.1274 18.4271Z" fill="#A4ABB1"/>
<path d="M15.2992 25.2395C15.3579 25.0033 15.3924 24.7579 15.3924 24.5035C15.3924 22.8253 14.0322 21.4655 12.3544 21.4655C10.6766 21.4655 9.31641 22.8253 9.31641 24.5035C9.31641 26.1817 10.6766 27.5415 12.3544 27.5415C12.6088 27.5415 12.8542 27.507 13.09 27.4479L12.3544 24.5035L15.2992 25.2395Z" fill="#1BB7EA"/>
<path d="M15.2993 25.2395L12.3545 24.5035L13.0901 27.4479C14.1757 27.1769 15.0283 26.3246 15.2993 25.2395Z" fill="#1F4254"/>
<path d="M23.1178 23.0671C23.2247 23.1765 23.2912 23.3256 23.2912 23.4904V27.136C23.2912 27.4714 23.019 27.7436 22.6836 27.7436C22.3482 27.7436 22.076 27.4714 22.076 27.136V24.8604L19.0769 21.8609V21.8625C19.1777 21.971 19.2405 22.1152 19.2405 22.2752V27.136C19.2405 27.4714 18.9683 27.7436 18.6329 27.7436C18.2975 27.7436 18.0253 27.4714 18.0253 27.136V25.905L14.7216 22.6013C15.1405 23.1218 15.3924 23.7829 15.3924 24.5031C15.3924 24.7575 15.3576 25.0029 15.2993 25.2391C15.0283 26.3247 14.176 27.1769 13.0905 27.4475C12.8547 27.5066 12.6092 27.5411 12.3549 27.5411C11.6229 27.5411 10.9513 27.2818 10.4268 26.8508L15.5751 32H25.1139C26.4503 32 27.5443 30.9063 27.5443 29.57V27.4937L23.1178 23.0671Z" fill="#C7CED2"/>
<path d="M20.0506 24.706V27.1364C20.0506 27.4718 20.3228 27.744 20.6582 27.744C20.9936 27.744 21.2658 27.4718 21.2658 27.1364V24.706C21.2658 24.3702 20.9936 24.0984 20.6582 24.0984C20.3228 24.0984 20.0506 24.3702 20.0506 24.706ZM18.0253 22.2756V27.1364C18.0253 27.4718 18.2975 27.744 18.6329 27.744C18.9683 27.744 19.2405 27.4718 19.2405 27.1364V22.2756C19.2405 21.9398 18.9683 21.668 18.6329 21.668C18.2975 21.668 18.0253 21.9398 18.0253 22.2756ZM22.0759 23.4908V27.1364C22.0759 27.4718 22.3481 27.744 22.6835 27.744C23.0189 27.744 23.2911 27.4718 23.2911 27.1364V23.4908C23.2911 23.155 23.0189 22.8832 22.6835 22.8832C22.3481 22.8832 22.0759 23.155 22.0759 23.4908Z" fill="#1F4254"/>
</svg>
