<svg xmlns="http://www.w3.org/2000/svg" viewBox="0 0 64 64"><path fill="#ededed" d="M42.6 15.5c-.53 0-.97-.44-.97-.97V1.94H10.64c-1.01 0-1.83.83-1.83 1.84v56.44c0 1.02.82 1.84 1.83 1.84h42.71c1.02 0 1.84-.82 1.84-1.84V15.5H42.6zM14.69 8.62c0-.53.44-.97.97-.97h12.28c.53 0 .97.44.97.97v12.27c0 .54-.44.97-.97.97H15.66a.97.97 0 0 1-.97-.97V8.62zm0 17.24c0-.53.44-.97.97-.97h12.28c.53 0 .97.44.97.97v12.28c0 .53-.44.96-.97.96H15.66c-.53 0-.97-.43-.97-.96V25.86zm36.96 13.19-8.39 8.39c-.54.54-1.29.85-2.06.85-.78 0-1.51-.3-2.06-.85l-4.49-4.5a2.898 2.898 0 0 1 0-4.12c1.09-1.09 3.01-1.09 4.11 0l2.44 2.45 6.33-6.33a2.897 2.897 0 0 1 4.11 0 2.906 2.906 0 0 1 .01 4.11zm-23.71 3.09c.53 0 .97.43.97.96v12.28c0 .53-.44.97-.97.97H15.66c-.53 0-.97-.44-.97-.97V43.1c0-.53.44-.96.97-.96h12.28z"/><path fill="#f16150" d="M53.82 13.56H43.57V3.31z"/><path fill="#2b2e63" d="M27.94 7.65H15.66c-.53 0-.97.44-.97.97v12.27c0 .54.44.97.97.97h12.28c.53 0 .97-.43.97-.97V8.62c0-.53-.44-.97-.97-.97zm-.97 12.27H16.63V9.59h10.34v10.33z"/><path fill="#53bf9f" d="M16.63 9.59h10.34v10.33H16.63z"/><path fill="#2b2e63" d="M27.94 24.89H15.66c-.53 0-.97.44-.97.97v12.28c0 .53.44.96.97.96h12.28c.53 0 .97-.43.97-.96V25.86c0-.53-.44-.97-.97-.97zm-.97 12.28H16.63V26.83h10.34v10.34z"/><path fill="#53bf9f" d="M16.63 26.83h10.34v10.34H16.63z"/><path fill="#2b2e63" d="M27.94 42.14H15.66c-.53 0-.97.43-.97.96v12.28c0 .53.44.97.97.97h12.28c.53 0 .97-.44.97-.97V43.1c0-.53-.44-.96-.97-.96zm-.97 12.27H16.63V44.07h10.34v10.34z"/><path fill="#53bf9f" d="M16.63 44.07h10.34v10.34H16.63z"/><path fill="#2b2e63" d="M51.64 34.94a2.897 2.897 0 0 0-4.11 0l-6.33 6.33-2.44-2.45c-1.1-1.09-3.02-1.09-4.11 0a2.898 2.898 0 0 0 0 4.12l4.49 4.5c.55.55 1.28.85 2.06.85.77 0 1.52-.31 2.06-.85l8.39-8.39a2.906 2.906 0 0 0-.01-4.11zm-1.37 2.74-8.38 8.39c-.37.36-1.01.36-1.37 0l-4.5-4.5a.961.961 0 0 1-.29-.69c0-.26.1-.5.29-.68.18-.19.42-.29.68-.29.26 0 .5.1.69.29l3.13 3.12c.36.37 1 .37 1.37 0l7.01-7.01c.38-.38 1-.38 1.37 0 .38.38.38.99 0 1.37z"/><path fill="#ffdc7c" d="m50.27 37.68-8.38 8.39c-.37.36-1.01.36-1.37 0l-4.5-4.5a.961.961 0 0 1-.29-.69c0-.26.1-.5.29-.68.18-.19.42-.29.68-.29.26 0 .5.1.69.29l3.13 3.12c.36.37 1 .37 1.37 0l7.01-7.01c.38-.38 1-.38 1.37 0 .38.38.38.99 0 1.37z"/><path d="M57.13 18.22v42c0 2.09-1.69 3.78-3.78 3.78H10.64c-2.08 0-3.77-1.69-3.77-3.78V49.74c.65-.24 1.3-.49 1.94-.74 1.98-.78 3.94-1.59 5.88-2.44.65-.28 1.3-.57 1.94-.87 1.16-.52 2.32-1.07 3.47-1.62 1.28-.63 2.55-1.27 3.81-1.93 11.28-5.87 21.74-13.17 31.28-22.08.65-.6 1.3-1.22 1.94-1.84z" opacity=".07"/><path fill="#2b2e63" d="M57.12 14.49c0-.1-.02-.21-.06-.3-.01-.02-.01-.04-.02-.05-.05-.11-.11-.21-.19-.3L43.29.28c-.09-.08-.19-.14-.3-.19-.01-.01-.02-.01-.04-.02a.866.866 0 0 0-.32-.06c-.01 0-.02-.01-.03-.01H10.64C8.56 0 6.87 1.7 6.87 3.78v56.44c0 2.09 1.69 3.78 3.77 3.78h42.71c2.09 0 3.78-1.69 3.78-3.78V14.53c0-.01-.01-.02-.01-.04zM43.57 3.31l10.25 10.25H43.57V3.31zm11.62 56.91c0 1.02-.82 1.84-1.84 1.84H10.64c-1.01 0-1.83-.82-1.83-1.84V3.78c0-1.01.82-1.84 1.83-1.84h30.99v12.59c0 .53.44.97.97.97h12.59v44.72z"/></svg>