<svg width="24" height="31" viewBox="0 0 24 31" fill="none" xmlns="http://www.w3.org/2000/svg">
<path d="M22.4469 1.07085H1.0689C0.478562 1.07085 0 1.54941 0 2.13974V29.9311C0 30.5214 0.478562 31 1.0689 31H22.4469C23.0372 31 23.5158 30.5214 23.5158 29.9311V2.13974C23.5158 1.54941 23.0372 1.07085 22.4469 1.07085Z" fill="#33383D"/>
<g style="mix-blend-mode:overlay">
<path d="M2.13782 3.20864H21.378V28.8622H2.13782V3.20864Z" fill="#33383D"/>
</g>
<path d="M3.20679 4.23479H20.3092V27.8361H3.20679V4.23479Z" fill="#FEFDF9"/>
<path d="M16.4932 1.22049L16.6429 0.921202C16.6947 0.821342 16.7189 0.709433 16.7129 0.59708C16.7069 0.484728 16.671 0.376023 16.6088 0.28224C16.5467 0.188457 16.4605 0.113011 16.3594 0.0637256C16.2583 0.0144402 16.1458 -0.0068893 16.0336 0.00194905H7.48242C7.37381 0.000951684 7.26679 0.0280223 7.17171 0.0805385C7.07664 0.133055 6.99673 0.209236 6.93975 0.301702C6.88276 0.394168 6.85063 0.499785 6.84645 0.60832C6.84227 0.716855 6.8662 0.824629 6.91591 0.921202L7.06555 1.22049C7.12039 1.32374 7.14545 1.4402 7.13793 1.55686C7.13041 1.67353 7.09061 1.7858 7.02297 1.88116C6.95534 1.97651 6.86253 2.05119 6.75491 2.09685C6.64729 2.14252 6.5291 2.15737 6.41353 2.13975H5.08809C4.99077 2.13819 4.8944 2.15919 4.80655 2.20109C4.71869 2.243 4.64173 2.30467 4.58168 2.38128C4.52164 2.45789 4.48014 2.54736 4.46044 2.64268C4.44074 2.73801 4.44337 2.83659 4.46813 2.93073L5.21636 5.93433C5.25016 6.07276 5.32984 6.19565 5.44242 6.283C5.555 6.37034 5.69384 6.41699 5.83632 6.41534H17.6797C17.8222 6.41699 17.961 6.37034 18.0736 6.283C18.1862 6.19565 18.2659 6.07276 18.2997 5.93433L19.0479 2.93073C19.0727 2.83659 19.0753 2.73801 19.0556 2.64268C19.0359 2.54736 18.9944 2.45789 18.9344 2.38128C18.8743 2.30467 18.7973 2.243 18.7095 2.20109C18.6216 2.15919 18.5253 2.13819 18.4279 2.13975H17.1025C16.9903 2.14858 16.8779 2.12725 16.7767 2.07797C16.6756 2.02868 16.5895 1.95324 16.5273 1.85945C16.4651 1.76567 16.4292 1.65697 16.4232 1.54461C16.4172 1.43226 16.4414 1.32035 16.4932 1.22049Z" fill="#CFCFCF"/>
<path d="M16.4932 1.22049L16.6429 0.921202C16.6947 0.821342 16.7189 0.709433 16.7129 0.59708C16.7069 0.484728 16.671 0.376023 16.6088 0.28224C16.5467 0.188457 16.4605 0.113011 16.3594 0.0637256C16.2583 0.0144402 16.1458 -0.0068893 16.0336 0.00194905H7.48242C7.37381 0.000951684 7.26679 0.0280223 7.17171 0.0805385C7.07664 0.133055 6.99673 0.209236 6.93975 0.301702C6.88276 0.394168 6.85063 0.499785 6.84645 0.60832C6.84227 0.716855 6.8662 0.824629 6.91591 0.921202L7.06555 1.22049C7.12039 1.32374 7.14545 1.4402 7.13793 1.55686C7.13041 1.67353 7.09061 1.7858 7.02297 1.88116C6.95534 1.97651 6.86253 2.05119 6.75491 2.09685C6.64729 2.14252 6.5291 2.15737 6.41353 2.13975H5.08809C4.99077 2.13819 4.8944 2.15919 4.80655 2.20109C4.71869 2.243 4.64173 2.30467 4.58168 2.38128C4.52164 2.45789 4.48014 2.54736 4.46044 2.64268C4.44074 2.73801 4.44337 2.83659 4.46813 2.93073L5.21636 5.93433C5.25016 6.07276 5.32984 6.19565 5.44242 6.283C5.555 6.37034 5.69384 6.41699 5.83632 6.41534H17.6797C17.8222 6.41699 17.961 6.37034 18.0736 6.283C18.1862 6.19565 18.2659 6.07276 18.2997 5.93433L19.0479 2.93073C19.0727 2.83659 19.0753 2.73801 19.0556 2.64268C19.0359 2.54736 18.9944 2.45789 18.9344 2.38128C18.8743 2.30467 18.7973 2.243 18.7095 2.20109C18.6216 2.15919 18.5253 2.13819 18.4279 2.13975H17.1025C16.9903 2.14858 16.8779 2.12725 16.7767 2.07797C16.6756 2.02868 16.5895 1.95324 16.5273 1.85945C16.4651 1.76567 16.4292 1.65697 16.4232 1.54461C16.4172 1.43226 16.4414 1.32035 16.4932 1.22049Z" fill="#CFCFCF"/>
<path d="M8.55125 2.13974H14.9646M6.41345 5.34644H17.1024H6.41345ZM8.55125 1.07085H14.9646H8.55125Z" stroke="#AEAEAF" stroke-width="0.534449" stroke-linecap="round" stroke-linejoin="round"/>
<path d="M8.28407 7.48424H5.61183C5.46425 7.48424 5.3446 7.60388 5.3446 7.75146V10.4237C5.3446 10.5713 5.46425 10.6909 5.61183 10.6909H8.28407C8.43166 10.6909 8.5513 10.5713 8.5513 10.4237V7.75146C8.5513 7.60388 8.43166 7.48424 8.28407 7.48424Z" stroke="#AEAEAF" stroke-width="0.267225" stroke-miterlimit="10"/>
<path d="M8.28407 14.9665H5.61183C5.46425 14.9665 5.3446 15.0862 5.3446 15.2338V17.906C5.3446 18.0536 5.46425 18.1732 5.61183 18.1732H8.28407C8.43166 18.1732 8.5513 18.0536 8.5513 17.906V15.2338C8.5513 15.0862 8.43166 14.9665 8.28407 14.9665Z" stroke="#AEAEAF" stroke-width="0.267225" stroke-miterlimit="10"/>
<path d="M8.28407 22.4488H5.61183C5.46425 22.4488 5.3446 22.5685 5.3446 22.716V25.3883C5.3446 25.5359 5.46425 25.6555 5.61183 25.6555H8.28407C8.43166 25.6555 8.5513 25.5359 8.5513 25.3883V22.716C8.5513 22.5685 8.43166 22.4488 8.28407 22.4488Z" stroke="#AEAEAF" stroke-width="0.267225" stroke-miterlimit="10"/>
<path d="M11.7579 24.5866H18.1713M11.7579 8.55313H18.1713H11.7579ZM11.7579 11.7598H18.1713H11.7579ZM11.7579 14.9665H18.1713H11.7579ZM11.7579 18.1732H18.1713H11.7579ZM11.7579 21.3799H18.1713H11.7579Z" stroke="#AEAEAF" stroke-width="0.267225" stroke-miterlimit="10"/>
<path d="M8.5513 14.9665L5.3446 18.1732M5.3446 7.48424L8.5513 10.6909L5.3446 7.48424ZM8.5513 7.48424L5.3446 10.6909L8.5513 7.48424ZM5.3446 22.4488L8.5513 25.6555L5.3446 22.4488ZM8.5513 22.4488L5.3446 25.6555L8.5513 22.4488ZM5.3446 14.9665L8.5513 18.1732L5.3446 14.9665Z" stroke="#BE1E2D" stroke-width="0.534449" stroke-linecap="round" stroke-linejoin="round"/>
</svg>
