<svg width="29" height="31" viewBox="0 0 29 31" fill="none" xmlns="http://www.w3.org/2000/svg">
<path d="M-0.00012207 31H28.0241V8.86181C28.0241 5.59177 25.3754 2.94304 22.1054 2.94304H5.91865C2.64861 2.94304 -0.00012207 5.59177 -0.00012207 8.86181V31Z" fill="#F9F9F9"/>
<path d="M-0.00012207 8.46941V11.1835H28.0241V8.46941C28.0241 5.42827 25.5389 2.94304 22.4978 2.94304H5.52625C2.48511 2.94304 -0.00012207 5.42827 -0.00012207 8.46941Z" fill="#77D6FF"/>
<path d="M9.37941 8.51502C10.0562 7.83818 10.0562 6.74083 9.37937 6.06402C8.70253 5.3872 7.60518 5.38722 6.92836 6.06406C6.25155 6.7409 6.25157 7.83825 6.9284 8.51506C7.60524 9.19188 8.7026 9.19186 9.37941 8.51502Z" fill="#60C0E2"/>
<path d="M14.4305 8.97748C15.3621 8.75751 15.9389 7.82401 15.719 6.89246C15.499 5.9609 14.5655 5.38404 13.6339 5.60401C12.7024 5.82398 12.1255 6.75748 12.3455 7.68904C12.5655 8.6206 13.499 9.19745 14.4305 8.97748Z" fill="#60C0E2"/>
<path d="M20.3166 8.97666C21.2481 8.75669 21.825 7.82319 21.605 6.89163C21.385 5.96007 20.4515 5.38322 19.52 5.60319C18.5884 5.82316 18.0116 6.75666 18.2315 7.68822C18.4515 8.61977 19.385 9.19663 20.3166 8.97666Z" fill="#60C0E2"/>
<path d="M8.14232 0C7.45561 0 6.867 0.555907 6.867 1.27532V6.70359C6.867 7.39029 7.42291 7.9789 8.14232 7.9789C8.86173 7.9789 9.41764 7.42299 9.41764 6.70359V1.27532C9.41764 0.588607 8.82903 0 8.14232 0ZM19.9145 0C19.2278 0 18.6392 0.555907 18.6392 1.27532V6.70359C18.6392 7.39029 19.1951 7.9789 19.9145 7.9789C20.6339 7.9789 21.1898 7.42299 21.1898 6.70359V1.27532C21.1898 0.588607 20.6012 0 19.9145 0ZM14.0284 0C13.3417 0 12.7531 0.555907 12.7531 1.27532V6.70359C12.7531 7.39029 13.309 7.9789 14.0284 7.9789C14.7478 7.9789 15.3037 7.42299 15.3037 6.70359V1.27532C15.3037 0.588607 14.7151 0 14.0284 0Z" fill="#DEF4FF"/>
<path d="M22.0399 27.174L19.8163 29.1361C19.6528 29.2996 19.3585 29.1688 19.3257 28.9399L19.0641 25.9641C19.0641 25.9314 19.0641 25.866 19.0968 25.8333L23.7403 14.3555C23.8057 14.192 23.9692 14.1266 24.1327 14.192L26.6179 15.2057C26.7814 15.2711 26.8468 15.4346 26.7814 15.5981L22.1053 27.0432C22.1053 27.1086 22.0726 27.1413 22.0399 27.174Z" fill="#FFDB86"/>
<path d="M25.637 18.3449L22.6286 17.135L23.6423 14.6498C23.7731 14.3555 24.1001 14.2247 24.3944 14.3228L26.3564 15.1076C26.6508 15.2384 26.7816 15.5654 26.6835 15.8597L25.637 18.3449Z" fill="#F27D75"/>
<path d="M22.1053 27.0432C22.0726 27.1086 22.0399 27.1413 22.0072 27.174L19.7836 29.1688C19.6201 29.3323 19.3258 29.2015 19.293 28.9726L19.0641 25.9641C19.0641 25.9314 19.0641 25.866 19.0968 25.8333V25.8006L22.1053 27.0432Z" fill="#FCE5B9"/>
<path d="M19.5874 14.519H15.3036V17.2331H19.5874V14.519Z" fill="#F27D75"/>
<path d="M19.5874 18.9008H15.3036V21.615H19.5874V18.9008Z" fill="#F27D75"/>
<path d="M7.58637 14.519H3.30261V17.2331H7.58637V14.519Z" fill="#A4E7FF"/>
<path d="M13.7013 14.519H9.41754V17.2331H13.7013V14.519Z" fill="#A4E7FF"/>
<path d="M7.58637 18.9008H3.30261V21.615H7.58637V18.9008Z" fill="#A4E7FF"/>
<path d="M13.7013 18.9008H9.41754V21.615H13.7013V18.9008Z" fill="#A4E7FF"/>
<path d="M7.58637 23.2827H3.30261V25.9968H7.58637V23.2827Z" fill="#A4E7FF"/>
<path d="M13.7013 23.2827H9.41754V25.9968H13.7013V23.2827Z" fill="#A4E7FF"/>
</svg>
