<svg width="29" height="31" viewBox="0 0 29 31" fill="none" xmlns="http://www.w3.org/2000/svg">
<path d="M22.5794 1.87123H2.80674L2.49487 30.3763L23.515 30.0644V26.5916L23.1109 22.9686L23.515 20.3082V2.80684C23.515 2.29013 23.0961 1.87123 22.5794 1.87123Z" fill="#CDE2FF"/>
<path d="M21.6538 29.1288L21.644 28.1932L2.80695 1.87123C2.29024 1.87123 1.87134 2.29013 1.87134 2.80684V30.0644C1.87134 30.5811 2.29024 31 2.80695 31H22.5796C23.0963 31 23.5152 30.5811 23.5152 30.0644H20.7182C21.2349 30.0644 21.6538 29.6455 21.6538 29.1288Z" fill="#9EC8FC"/>
<path d="M23.5152 20.3082L21.6439 14.9295L19.0732 13.8328L23.5152 26.5916V20.3082Z" fill="#9EC8FC"/>
<path d="M20.7083 0H0.935651L0.623779 28.505L21.6439 28.1932V21.2168L20.8451 14.5644L21.6439 12.0227V0.935614C21.6439 0.418905 21.225 0 20.7083 0Z" fill="#EDF6FF"/>
<path d="M21.6438 12.0227L19.7285 9.62909C19.4872 9.32445 18.9968 9.49511 18.9968 9.88383V13.382C18.9968 13.5355 19.0226 13.6878 19.073 13.8328L21.6438 21.2168V12.0227Z" fill="#CDE2FF"/>
<path d="M17.9014 25.8541H3.74247C3.48411 25.8541 3.27466 25.6447 3.27466 25.3863C3.27466 25.128 3.48411 24.9185 3.74247 24.9185H17.9014C18.1598 24.9185 18.3692 25.128 18.3692 25.3863C18.3692 25.6447 18.1598 25.8541 17.9014 25.8541Z" fill="#7E8B96"/>
<path d="M17.9014 23.0473H3.74247C3.48411 23.0473 3.27466 22.8378 3.27466 22.5795C3.27466 22.3211 3.48411 22.1117 3.74247 22.1117H17.9014C18.1598 22.1117 18.3692 22.3211 18.3692 22.5795C18.3692 22.8378 18.1598 23.0473 17.9014 23.0473Z" fill="#7E8B96"/>
<path d="M17.9014 20.2404H3.74247C3.48411 20.2404 3.27466 20.031 3.27466 19.7726C3.27466 19.5143 3.48411 19.3048 3.74247 19.3048H17.9014C18.1598 19.3048 18.3692 19.5143 18.3692 19.7726C18.3692 20.031 18.1598 20.2404 17.9014 20.2404Z" fill="#7E8B96"/>
<path d="M16.6539 17.4336H3.74247C3.48411 17.4336 3.27466 17.2241 3.27466 16.9658C3.27466 16.7074 3.48411 16.498 3.74247 16.498H16.6539C16.9123 16.498 17.1217 16.7074 17.1217 16.9658C17.1217 17.2241 16.9123 17.4336 16.6539 17.4336Z" fill="#7E8B96"/>
<path d="M17.9014 14.6268H3.74247C3.48411 14.6268 3.27466 14.4173 3.27466 14.159C3.27466 13.9006 3.48411 13.6911 3.74247 13.6911H17.9014C18.1598 13.6911 18.3692 13.9006 18.3692 14.159C18.3692 14.4173 18.1598 14.6268 17.9014 14.6268Z" fill="#7E8B96"/>
<path d="M17.9014 11.8199H3.74247C3.48411 11.8199 3.27466 11.6105 3.27466 11.3521C3.27466 11.0938 3.48411 10.8843 3.74247 10.8843H17.9014C18.1598 10.8843 18.3692 11.0938 18.3692 11.3521C18.3692 11.6105 18.1598 11.8199 17.9014 11.8199Z" fill="#7E8B96"/>
<path d="M3.74247 9.01308C3.4848 9.01308 3.27553 8.80468 3.27466 8.54683C3.27379 8.28848 3.48255 8.07834 3.74091 8.07746L13.0347 8.04628C13.2949 8.04515 13.5032 8.25417 13.504 8.51252C13.5049 8.77088 13.2961 8.98102 13.0378 8.98189L3.74403 9.01308C3.74353 9.01308 3.74297 9.01308 3.74247 9.01308Z" fill="#7E8B96"/>
<path d="M15.4361 4.33501H6.2078C5.94944 4.33501 5.73999 4.12556 5.73999 3.8672C5.73999 3.60885 5.94944 3.39939 6.2078 3.39939H15.4361C15.6944 3.39939 15.9039 3.60885 15.9039 3.8672C15.9039 4.12556 15.6944 4.33501 15.4361 4.33501Z" fill="#7E8B96"/>
<path d="M0.935614 27.2575V0C0.418905 0 0 0.418905 0 0.935614V28.1932C0 28.7099 0.418905 29.1288 0.935614 29.1288H20.7082C21.225 29.1288 21.6439 28.7099 21.6439 28.1932H1.87123C1.35452 28.1932 0.935614 27.7743 0.935614 27.2575Z" fill="#CDE2FF"/>
<path d="M20.6642 8.69347L20.3523 9.85569L20.6642 11.2129L21.9526 10.3196L20.6642 8.69347Z" fill="#7E8B96"/>
<path d="M19.9326 8.94821V11.0228L20.6643 11.2129V8.69347C20.4229 8.38884 19.9326 8.55949 19.9326 8.94821Z" fill="#5F6C75"/>
<path d="M21.9526 10.3196L20.6642 10.7638L20.145 12.2655C20.1496 12.5022 20.9746 13.0265 20.9746 13.0265L23.0569 11.836C23.0064 11.691 22.932 11.5556 22.8367 11.4353L21.9526 10.3196Z" fill="#E0BBA4"/>
<path d="M20.8301 12.6113C20.7671 12.4302 20.6689 12.1765 20.6643 11.9397V10.7638L19.9326 11.0228V12.4463C19.9326 12.5998 19.9584 12.7522 20.0088 12.8972L20.9746 13.0265L20.8301 12.6113Z" fill="#D8AB8C"/>
<path d="M20.8301 12.6113L25.5441 27.4138C25.6473 27.7102 26.125 27.7098 26.8042 27.4734C27.8111 27.1228 28.1629 26.5021 28.1629 26.5021L23.0569 11.836L20.8301 12.6113Z" fill="#FFD064"/>
<path d="M25.8654 27.0455L20.83 12.6113L20.0088 12.8972L25.1147 27.5632C25.2827 28.0458 26.1013 28.1995 26.943 27.9064C27.7847 27.6134 28.3308 26.9847 28.1629 26.5021C28.1629 26.5021 27.8727 26.7604 27.1936 26.9969C26.5143 27.2333 25.9685 27.3419 25.8654 27.0455Z" fill="#EBB044"/>
</svg>
