<svg width="31" height="31" viewBox="0 0 31 31" fill="none" xmlns="http://www.w3.org/2000/svg">
<path d="M31 19.2414H0V31H31V19.2414Z" fill="#B39A7C"/>
<path d="M22.9828 21.3793H7.48279V28.3276H22.9828V21.3793Z" fill="white"/>
<path d="M10.6897 9.08621L11.2241 11.2241H1.06897L1.60345 9.08621H2.67242L3.2069 8.01724H4.27587L6.4138 9.08621H10.6897Z" fill="#5BCBFA"/>
<path d="M11.5822 13.8966L10.6897 19.2414H1.23466L1.06897 13.8966H11.5822Z" fill="#E1ECFD"/>
<path d="M12.0259 11.2241L11.5823 13.8966H1.06903H0.534546V11.2241H1.06903H11.2242H12.0259Z" fill="#2488FF"/>
<path d="M17.1035 5.87931V19.2414H10.6897L13.8966 0H17.1035V1.60345L16.0345 2.67241V4.81034L17.1035 5.87931Z" fill="#D9CCBC"/>
<path d="M21.3793 15.5C21.6626 15.5008 21.934 15.6137 22.1343 15.814C22.3345 16.0143 22.4474 16.2857 22.4483 16.569C22.4462 16.8518 22.3329 17.1225 22.1329 17.3225C21.9329 17.5225 21.6622 17.6358 21.3793 17.6379H18.7069V17.1034C18.7069 16.5369 18.7336 16.0024 18.7764 15.5H21.3793ZM21.3793 11.7586C21.6626 11.7595 21.934 11.8724 22.1343 12.0726C22.3345 12.2729 22.4474 12.5443 22.4483 12.8276C22.4462 13.1104 22.3329 13.3811 22.1329 13.5811C21.9329 13.7812 21.6622 13.8945 21.3793 13.8966H19.0276C19.1833 13.1515 19.4424 12.4319 19.7973 11.7586H21.3793Z" fill="#FF9811"/>
<path d="M21.3793 17.6379C21.6622 17.6358 21.9329 17.5225 22.1329 17.3225C22.3329 17.1225 22.4462 16.8518 22.4483 16.569C22.4474 16.2857 22.3345 16.0143 22.1343 15.814C21.934 15.6137 21.6626 15.5008 21.3793 15.5H18.7764C18.8248 14.9606 18.9087 14.4249 19.0276 13.8966H21.3793C21.6622 13.8945 21.9329 13.7812 22.1329 13.5811C22.3329 13.3811 22.4462 13.1104 22.4483 12.8276C22.4474 12.5443 22.3345 12.2729 22.1343 12.0726C21.934 11.8724 21.6626 11.7595 21.3793 11.7586H19.7973C20.5776 10.3262 21.716 9.62069 22.9828 9.62069C23.3469 9.61886 23.7086 9.68035 24.0517 9.80241C25.8957 10.4545 27.2586 12.8703 27.2586 17.1034V19.2414H18.7069V17.6379H21.3793Z" fill="#FFB655"/>
<path d="M29.3966 17.1034V19.2414H27.2587V17.1034C27.2587 12.8703 25.8957 10.4545 24.0518 9.80241C24.3949 9.68035 24.7566 9.61886 25.1207 9.62069C27.4831 9.62069 29.3966 12.0847 29.3966 17.1034Z" fill="#EE8700"/>
<path d="M10.1551 22.9828H9.08618V24.0517H10.1551V22.9828Z" fill="#1A6FB0"/>
<path d="M20.8448 22.9828H11.2241V24.0517H20.8448V22.9828Z" fill="#1A6FB0"/>
<path d="M13.362 25.1207H9.08618V26.1897H13.362V25.1207Z" fill="#1A6FB0"/>
</svg>
