<svg width="31" height="31" viewBox="0 0 31 31" fill="none" xmlns="http://www.w3.org/2000/svg">
<g clip-path="url(#clip0_207_1059)">
<path d="M1.54395 19.3447H29.4561V30.5459H1.54395V19.3447Z" fill="#F7F7F7"/>
<path d="M27.6396 19.3447H29.4561V30.5459H27.6396V19.3447Z" fill="#EEEEEE"/>
<path d="M30.0615 18.2991H0.938477C0.670964 18.2991 0.454102 18.5159 0.454102 18.7834V19.7685C0.454102 20.0361 0.670964 20.2529 0.938477 20.2529H30.0615C30.329 20.2529 30.5459 20.0361 30.5459 19.7685V18.7834C30.5459 18.5159 30.329 18.2991 30.0615 18.2991Z" fill="#CECECE"/>
<path d="M26.4287 14.6663H4.57129C4.30378 14.6663 4.08691 14.8831 4.08691 15.1506V16.1357C4.08691 16.4032 4.30378 16.6201 4.57129 16.6201H26.4287C26.6962 16.6201 26.9131 16.4032 26.9131 16.1357V15.1506C26.9131 14.8831 26.6962 14.6663 26.4287 14.6663Z" fill="#CECECE"/>
<path d="M26.4287 14.6663H24.6123C24.7408 14.6663 24.864 14.7173 24.9548 14.8081C25.0456 14.899 25.0967 15.0222 25.0967 15.1506V16.1357C25.0967 16.2642 25.0456 16.3874 24.9548 16.4782C24.864 16.5691 24.7408 16.6201 24.6123 16.6201H26.4287C26.5572 16.6201 26.6804 16.5691 26.7712 16.4782C26.8621 16.3874 26.9131 16.2642 26.9131 16.1357V15.1506C26.9131 15.0222 26.8621 14.899 26.7712 14.8081C26.6804 14.7173 26.5572 14.6663 26.4287 14.6663ZM30.0615 18.2991H28.2451C28.3736 18.2991 28.4968 18.3501 28.5876 18.4409C28.6785 18.5318 28.7295 18.655 28.7295 18.7834V19.7685C28.7295 19.897 28.6785 20.0202 28.5876 20.1111C28.4968 20.2019 28.3736 20.2529 28.2451 20.2529H30.0615C30.19 20.2529 30.3132 20.2019 30.404 20.1111C30.4949 20.0202 30.5459 19.897 30.5459 19.7685V18.7834C30.5459 18.655 30.4949 18.5318 30.404 18.4409C30.3132 18.3501 30.19 18.2991 30.0615 18.2991Z" fill="#BEBEBE"/>
<path d="M30.5459 31H0.454102C0.333666 31 0.218164 30.9521 0.133003 30.8669C0.0478427 30.7818 0 30.6663 0 30.5458C0 30.4254 0.0478427 30.3099 0.133003 30.2248C0.218164 30.1396 0.333666 30.0917 0.454102 30.0917H30.5459C30.6663 30.0917 30.7818 30.1396 30.867 30.2248C30.9522 30.3099 31 30.4254 31 30.5458C31 30.6663 30.9522 30.7818 30.867 30.8669C30.7818 30.9521 30.6663 31 30.5459 31ZM17.9346 22.2576H13.0654C12.945 22.2576 12.8295 22.2097 12.7443 22.1246C12.6592 22.0394 12.6113 21.9239 12.6113 21.8035V19.9732C12.6116 19.6484 12.7408 19.337 12.9704 19.1074C13.2001 18.8778 13.5114 18.7486 13.8362 18.7483H17.1662C17.491 18.7486 17.8024 18.8778 18.032 19.1074C18.2616 19.337 18.3908 19.6484 18.3911 19.9732V21.8035C18.3911 21.8633 18.3793 21.9226 18.3563 21.9778C18.3333 22.0331 18.2997 22.0832 18.2573 22.1254C18.2148 22.1676 18.1645 22.201 18.1091 22.2237C18.0537 22.2464 17.9944 22.2579 17.9346 22.2576V22.2576ZM13.5195 21.3494H17.4805V19.9732C17.4805 19.8892 17.4471 19.8086 17.3877 19.7492C17.3284 19.6899 17.2478 19.6565 17.1638 19.6565H13.8337C13.7498 19.6565 13.6692 19.6899 13.6098 19.7492C13.5505 19.8086 13.5171 19.8892 13.5171 19.9732L13.5195 21.3494Z" fill="#676E87"/>
<path d="M19.495 20.8954H11.5046C11.1194 20.8954 10.8071 21.2077 10.8071 21.5929V27.2661C10.8071 27.6513 11.1194 27.9636 11.5046 27.9636H19.495C19.8802 27.9636 20.1925 27.6513 20.1925 27.2661V21.5929C20.1925 21.2077 19.8802 20.8954 19.495 20.8954Z" fill="#FFC166"/>
<path d="M19.4962 20.8954H18.2192C18.4042 20.8954 18.5816 20.9689 18.7124 21.0997C18.8433 21.2305 18.9167 21.4079 18.9167 21.5929V27.2661C18.9167 27.4511 18.8433 27.6285 18.7124 27.7593C18.5816 27.8901 18.4042 27.9636 18.2192 27.9636H19.4962C19.6812 27.9636 19.8586 27.8901 19.9894 27.7593C20.1202 27.6285 20.1937 27.4511 20.1937 27.2661V21.5929C20.1937 21.4079 20.1202 21.2305 19.9894 21.0997C19.8586 20.9689 19.6812 20.8954 19.4962 20.8954V20.8954Z" fill="#FFB74E"/>
<path d="M20.1931 23.0163L15.9615 25.127C15.8159 25.1902 15.6588 25.2228 15.5001 25.2228C15.3414 25.2228 15.1844 25.1902 15.0388 25.127L10.8071 23.0157V21.5929C10.8071 21.408 10.8805 21.2307 11.0112 21.0999C11.1419 20.9691 11.3191 20.8955 11.504 20.8954H19.4962C19.6812 20.8954 19.8586 20.9689 19.9894 21.0997C20.1202 21.2305 20.1937 21.4079 20.1937 21.5929L20.1931 23.0163Z" fill="#FFAE36"/>
<path d="M18.2192 20.8954C18.4042 20.8954 18.5816 20.9689 18.7124 21.0997C18.8433 21.2305 18.9167 21.4079 18.9167 21.5929V23.6515L20.1931 23.0145V21.5929C20.1926 21.4537 20.1505 21.3179 20.072 21.203C20.0593 21.1842 20.0459 21.1666 20.032 21.1491C19.9749 21.0799 19.905 21.0223 19.8262 20.9795C19.8062 20.9686 19.7862 20.959 19.7656 20.9499C19.6798 20.9137 19.5875 20.8952 19.4944 20.8954H18.2192Z" fill="#FFA41F"/>
<path d="M16.0249 24.2744H14.9744C14.7403 24.2744 14.5505 24.4642 14.5505 24.6982V25.7487C14.5505 25.9828 14.7403 26.1726 14.9744 26.1726H16.0249C16.2589 26.1726 16.4487 25.9828 16.4487 25.7487V24.6982C16.4487 24.4642 16.2589 24.2744 16.0249 24.2744Z" fill="#676E87"/>
<path d="M16.0256 24.2744H15.2312C15.3436 24.2744 15.4514 24.3191 15.5309 24.3985C15.6104 24.478 15.655 24.5858 15.655 24.6982V25.7487C15.655 25.8611 15.6104 25.9689 15.5309 26.0484C15.4514 26.1279 15.3436 26.1726 15.2312 26.1726H16.0256C16.138 26.1726 16.2458 26.1279 16.3253 26.0484C16.4048 25.9689 16.4494 25.8611 16.4494 25.7487V24.6982C16.4494 24.5858 16.4048 24.478 16.3253 24.3985C16.2458 24.3191 16.138 24.2744 16.0256 24.2744Z" fill="#595F74"/>
<path d="M15.5 5.77979C16.574 5.77979 17.6375 5.99133 18.6298 6.40235C19.6221 6.81337 20.5237 7.4158 21.2832 8.17526C22.0426 8.93472 22.6451 9.83633 23.0561 10.8286C23.4671 11.8209 23.6786 12.8844 23.6786 13.9585V14.6669H7.32129V13.9585C7.32129 11.7893 8.18297 9.70906 9.71677 8.17526C11.2506 6.64146 13.3308 5.77979 15.5 5.77979V5.77979Z" fill="#EEEEEE"/>
<path d="M15.5 5.77979C15.1966 5.77999 14.8934 5.79677 14.5918 5.83004C16.5912 6.05371 18.438 7.00635 19.7792 8.50588C21.1205 10.0054 21.8621 11.9466 21.8623 13.9585V14.6662H23.6787V13.9585C23.6787 11.7893 22.817 9.70906 21.2832 8.17526C19.7494 6.64146 17.6691 5.77979 15.5 5.77979V5.77979Z" fill="#DEDEDE"/>
</g>
<defs>
<clipPath id="clip0_207_1059">
<rect width="31" height="31" fill="white"/>
</clipPath>
</defs>
</svg>
