<svg id="Layer_5" enable-background="new 0 0 64 64" height="512" viewBox="0 0 64 64" width="512" xmlns="http://www.w3.org/2000/svg"><g fill="#f0bc5e"><path d="m40 28.826c0-2.665 2.161-4.826 4.826-4.826h3.174v-7h-21v14h13z"/><path d="m54 2h-50c-1.105 0-2 .895-2 2v7h54v-7c0-1.105-.895-2-2-2z"/><path d="m5 23h16v5h-16z"/></g><path d="m57.174 23h-.174v-19c0-1.654-1.346-3-3-3h-50c-1.654 0-3 1.346-3 3v40c0 1.654 1.346 3 3 3h42v3c0 2.414 1.721 4.434 4 4.899v4.101c0 1.103-.897 2-2 2s-2-.897-2-2v-3c0-2.206-1.794-4-4-4s-4 1.794-4 4v1c0 1.103-.897 2-2 2s-2-.897-2-2v-3c0-2.206-1.794-4-4-4s-4 1.794-4 4v9h2v-9c0-1.103.897-2 2-2s2 .897 2 2v3c0 2.206 1.794 4 4 4s4-1.794 4-4v-1c0-1.103.897-2 2-2s2 .897 2 2v3c0 2.206 1.794 4 4 4s4-1.794 4-4v-4.101c2.279-.465 4-2.484 4-4.899v-8.36c0-1.699 1.141-3.212 2.774-3.679 2.489-.711 4.226-3.014 4.226-5.601v-3.534c0-3.213-2.613-5.826-5.826-5.826zm2.079 2.622c-2.199 2.152-5.148 3.378-8.253 3.378-3.104 0-6.055-1.226-8.253-3.378.6-.39 1.312-.622 2.079-.622h12.348c.767 0 1.479.232 2.079.622zm-20.2 7.378h-14.053v-18h26v8h-2v-6h-2v6h-2v-6h-2v6.297c-.745.247-1.422.64-2 1.146v-7.443h-2v11.826.174 3.36c0 .217.029.428.053.64zm-35.053 12c-.552 0-1-.449-1-1v-40c0-.551.448-1 1-1h50c.552 0 1 .449 1 1v19h-2v-10h-30v22h16.645c.721 1.407 1.995 2.509 3.58 2.961 1.634.467 2.775 1.98 2.775 3.679v3.36zm57-12.64c0 1.699-1.141 3.212-2.774 3.679-2.489.711-4.226 3.014-4.226 5.601v8.36c0 1.654-1.346 3-3 3s-3-1.346-3-3v-8.36c0-2.587-1.737-4.891-4.226-5.602-1.633-.466-2.774-1.979-2.774-3.678v-3.36-.174c0-.615.16-1.188.419-1.704 2.562 2.474 5.984 3.878 9.581 3.878s7.018-1.404 9.581-3.878c.26.516.419 1.089.419 1.704z"/><path d="m50 38h2v4h-2z"/><path d="m50 44h2v2h-2z"/><path d="m9 5h2v2h-2z"/><path d="m13 5h2v2h-2z"/><path d="m5 5h2v2h-2z"/><path d="m27 17h2v10h-2z"/><path d="m27 29h2v2h-2z"/><path d="m31 17h2v14h-2z"/><path d="m35 17h2v10h-2z"/><path d="m35 29h2v2h-2z"/><path d="m5 21h16v-8h-16zm2-6h12v4h-12z"/><path d="m5 43h16v-12h-16zm2-10h12v8h-12z"/><path d="m5 23h2v2h-2z"/><path d="m9 23h12v2h-12z"/><path d="m5 27h16v2h-16z"/><path d="m23 43h8v-6h-8zm2-4h4v2h-4z"/><path d="m33 43h8v-6h-8zm2-4h4v2h-4z"/></svg>