<svg id="Capa_1" enable-background="new 0 0 512 512" height="512" viewBox="0 0 512 512" width="512" xmlns="http://www.w3.org/2000/svg"><g><g><path d="m271 467v30c0 8.399-6.599 15-15 15s-15-6.601-15-15v-30c0-8.401 6.599-15 15-15s15 6.599 15 15z" fill="#5f5166"/></g><path d="m271 467v30c0 8.399-6.599 15-15 15v-60c8.401 0 15 6.599 15 15z" fill="#45354d"/><g><path d="m15 90c-8.291 0-15-6.709-15-15v-60c0-8.291 6.709-15 15-15h61c8.291 0 15 6.709 15 15s-6.709 15-15 15h-46v45c0 8.291-6.709 15-15 15z" fill="#ff7f40"/></g><g><path d="m497 90c-8.291 0-15-6.709-15-15v-45h-46c-8.291 0-15-6.709-15-15s6.709-15 15-15h61c8.291 0 15 6.709 15 15v60c0 8.291-6.709 15-15 15z" fill="#f25a3c"/></g><g><path d="m76 271h-61c-8.291 0-15-6.709-15-15v-60c0-8.291 6.709-15 15-15s15 6.709 15 15v45h46c8.291 0 15 6.709 15 15s-6.709 15-15 15z" fill="#ff7f40"/></g><g><path d="m497 271h-61c-8.291 0-15-6.709-15-15s6.709-15 15-15h46v-45c0-8.291 6.709-15 15-15s15 6.709 15 15v60c0 8.291-6.709 15-15 15z" fill="#f25a3c"/></g><g><path d="m76 211c-8.291 0-15-6.709-15-15v-121c0-8.291 6.709-15 15-15s15 6.709 15 15v121c0 8.291-6.709 15-15 15z" fill="#5f5166"/></g><g><path d="m136 181c-8.291 0-15-6.709-15-15v-91c0-8.291 6.709-15 15-15s15 6.709 15 15v91c0 8.291-6.709 15-15 15z" fill="#5f5166"/></g><g><path d="m196 222.807c-8.291 0-15-6.709-15-15v-132.807c0-8.291 6.709-15 15-15s15 6.709 15 15v132.807c0 8.291-6.709 15-15 15z" fill="#5f5166"/></g><g><path d="m271 75v121c0 8.399-6.599 15-15 15s-15-6.601-15-15v-121c0-8.401 6.599-15 15-15s15 6.599 15 15z" fill="#5f5166"/></g><g><path d="m316 222.807c-8.291 0-15-6.709-15-15v-132.807c0-8.291 6.709-15 15-15s15 6.709 15 15v132.807c0 8.291-6.709 15-15 15z" fill="#45354d"/></g><g><path d="m376 181c-8.291 0-15-6.709-15-15v-91c0-8.291 6.709-15 15-15s15 6.709 15 15v91c0 8.291-6.709 15-15 15z" fill="#45354d"/></g><g><path d="m436 211c-8.291 0-15-6.709-15-15v-121c0-8.291 6.709-15 15-15s15 6.709 15 15v121c0 8.291-6.709 15-15 15z" fill="#45354d"/></g><path d="m256 211v-151c8.401 0 15 6.599 15 15v121c0 8.399-6.599 15-15 15z" fill="#45354d"/><g><path d="m356.201 215.2c-1.201-1.501-36.301-34.2-100.201-34.2s-99 32.699-100.201 34.2c-2.999 2.699-4.799 6.6-4.799 10.8v17.699c0 24.6 7.8 48.6 22.2 68.701 25.201 34.499 37.8 69.6 37.8 104.099v20.801c0 24.598 20.099 44.7 45 44.7s45-20.101 45-44.7v-20.801c0-34.499 12.599-69.6 37.8-104.099 14.399-20.101 22.2-44.101 22.2-68.701v-17.699c0-4.2-1.8-8.101-4.799-10.8z" fill="#edf1f9"/></g><path d="m361 226v17.699c0 24.6-7.8 48.6-22.2 68.701-25.201 34.499-37.8 69.6-37.8 104.099v20.801c0 24.598-20.099 44.7-45 44.7v-301c63.9 0 99 32.699 100.201 34.2 2.999 2.699 4.799 6.6 4.799 10.8z" fill="#d8e0f0"/><g><path d="m301 256c0 8.399-6.599 15-15 15h-60c-8.401 0-15-6.601-15-15 0-8.401 6.599-15 15-15h60c8.401 0 15 6.599 15 15z" fill="#ff7f40"/></g><path d="m301 256c0 8.399-6.599 15-15 15h-30v-30h30c8.401 0 15 6.599 15 15z" fill="#f25a3c"/></g></svg>