<svg width="29" height="29" viewBox="0 0 29 29" fill="none" xmlns="http://www.w3.org/2000/svg">
<path fill-rule="evenodd" clip-rule="evenodd" d="M0.876965 0H14.1627C14.4108 0 14.6244 0.0910779 14.796 0.270289L20.0432 5.74709C20.2058 5.91667 20.2869 6.11882 20.2869 6.35382C20.2869 13.6102 20.2869 20.8666 20.2869 28.123C20.2869 28.606 19.893 29 19.4099 29H0.876965C0.393935 28.9999 0 28.606 0 28.1229V0.876965C0 0.393935 0.393935 0 0.876965 0Z" fill="#ECEFF1"/>
<path fill-rule="evenodd" clip-rule="evenodd" d="M10.1436 0H14.1628C14.4109 0 14.6244 0.0911346 14.7961 0.270289L20.0434 5.74709C20.2059 5.91673 20.2871 6.11888 20.2871 6.35382C20.2871 13.6102 20.2871 20.8666 20.2871 28.123C20.2871 28.606 19.8931 29 19.4101 29H10.1436V0Z" fill="#D1D1D6"/>
<path fill-rule="evenodd" clip-rule="evenodd" d="M14.5371 0.0809937C14.6316 0.12574 14.7181 0.18895 14.7961 0.27023L20.0433 5.74703C20.118 5.82497 20.1754 5.90976 20.2158 6.00146H14.5371V0.0809937Z" fill="#B1B1B5"/>
<path fill-rule="evenodd" clip-rule="evenodd" d="M4.97982 20.8452H6.09054C6.25157 20.8452 6.38286 20.9765 6.38286 21.1375V24.2827C6.38286 24.4437 6.25157 24.575 6.09054 24.575H4.97982C4.81874 24.575 4.6875 24.4437 4.6875 24.2827V21.1375C4.6875 20.9765 4.81879 20.8452 4.97982 20.8452Z" fill="#00DDC1"/>
<path fill-rule="evenodd" clip-rule="evenodd" d="M5.53516 20.8452H6.09052C6.25155 20.8452 6.38284 20.9765 6.38284 21.1375V24.2827C6.38284 24.4437 6.25155 24.575 6.09052 24.575H5.53516V20.8452Z" fill="#00BAA0"/>
<path fill-rule="evenodd" clip-rule="evenodd" d="M8.65829 18.7507C9.02855 18.7507 9.39881 18.7507 9.76901 18.7507C9.93004 18.7507 10.0613 18.882 10.0613 19.043C10.0613 20.7896 10.0613 22.5361 10.0613 24.2827C10.0613 24.4437 9.93004 24.575 9.76901 24.575C9.39875 24.575 9.02855 24.575 8.65829 24.575C8.49726 24.575 8.36597 24.4437 8.36597 24.2827C8.36597 22.5361 8.36597 20.7896 8.36597 19.043C8.36597 18.882 8.49732 18.7507 8.65829 18.7507Z" fill="#FFD944"/>
<path fill-rule="evenodd" clip-rule="evenodd" d="M9.21362 18.7507C9.39872 18.7507 9.58388 18.7507 9.76898 18.7507C9.93001 18.7507 10.0613 18.882 10.0613 19.043C10.0613 20.7896 10.0613 22.5361 10.0613 24.2827C10.0613 24.4437 9.93001 24.575 9.76898 24.575C9.58388 24.575 9.39872 24.575 9.21362 24.575C9.21362 22.6335 9.21362 20.6921 9.21362 18.7507Z" fill="#FFC107"/>
<path fill-rule="evenodd" clip-rule="evenodd" d="M12.3365 17.0022C12.7067 17.0022 13.077 17.0022 13.4472 17.0022C13.6083 17.0022 13.7396 17.1335 13.7396 17.2946C13.7396 19.624 13.7396 21.9533 13.7396 24.2827C13.7396 24.4437 13.6083 24.575 13.4472 24.575C13.077 24.575 12.7068 24.575 12.3365 24.575C12.1755 24.575 12.0442 24.4437 12.0442 24.2827C12.0442 21.9533 12.0442 19.624 12.0442 17.2946C12.0442 17.1335 12.1755 17.0022 12.3365 17.0022Z" fill="#00DDC1"/>
<path fill-rule="evenodd" clip-rule="evenodd" d="M12.8921 17.0022C13.0772 17.0022 13.2623 17.0022 13.4474 17.0022C13.6085 17.0022 13.7398 17.1335 13.7398 17.2946C13.7398 19.624 13.7398 21.9533 13.7398 24.2827C13.7398 24.4437 13.6085 24.575 13.4474 24.575C13.2623 24.575 13.0772 24.575 12.8921 24.575C12.8921 22.0508 12.8921 19.5265 12.8921 17.0022Z" fill="#00BAA0"/>
<path fill-rule="evenodd" clip-rule="evenodd" d="M16.015 15.0808H17.1256C17.2866 15.0808 17.418 15.2121 17.418 15.3731V24.2826C17.418 24.4437 17.2866 24.575 17.1256 24.575H16.015C15.854 24.575 15.7227 24.4436 15.7227 24.2826V15.3731C15.7226 15.2121 15.8539 15.0808 16.015 15.0808Z" fill="#FFD944"/>
<path fill-rule="evenodd" clip-rule="evenodd" d="M16.5703 15.0808H17.1257C17.2866 15.0808 17.418 15.2121 17.418 15.3731V24.2826C17.418 24.4437 17.2866 24.575 17.1257 24.575H16.5703V15.0808Z" fill="#FFC107"/>
<path fill-rule="evenodd" clip-rule="evenodd" d="M2.40112 11.6105C2.40112 11.3522 2.61052 11.1428 2.86886 11.1428C3.1272 11.1428 3.3366 11.3522 3.3366 11.6105V25.6918H17.4179C17.6762 25.6918 17.8856 25.9012 17.8856 26.1595C17.8856 26.4179 17.6762 26.6273 17.4179 26.6273H2.86886C2.61052 26.6273 2.40112 26.4179 2.40112 26.1595V11.6105Z" fill="#697C86"/>
<path fill-rule="evenodd" clip-rule="evenodd" d="M15.0482 12.1521C14.7909 12.1653 14.5717 11.9672 14.5586 11.71C14.5455 11.4527 14.7435 11.2334 15.0008 11.2203L16.3955 11.1446C16.6528 11.1315 16.872 11.3295 16.8851 11.5868C16.8867 11.6173 16.8853 11.6472 16.8811 11.6763L16.6802 13.0585C16.6439 13.3138 16.4075 13.4913 16.1522 13.455C15.8969 13.4187 15.7194 13.1822 15.7557 12.9269L15.7711 12.8204C14.1627 14.2069 12.491 15.3619 10.8048 16.327C8.81427 17.4664 6.79883 18.3431 4.84111 19.0249C4.59789 19.1096 4.33208 18.9812 4.24729 18.738C4.16255 18.4948 4.29096 18.229 4.53412 18.1442C6.43565 17.482 8.39717 16.6282 10.3407 15.5158C11.9656 14.5858 13.5747 13.4761 15.1212 12.1482L15.0482 12.1521Z" fill="#697C86"/>
<path fill-rule="evenodd" clip-rule="evenodd" d="M8.35438 3.64845L9.20716 5.53146L11.2616 5.76063C11.3782 5.77366 11.4709 5.84916 11.5072 5.96086C11.5435 6.07255 11.5129 6.18804 11.4262 6.26717L9.8988 7.66013L10.3157 9.6848C10.3393 9.79984 10.2962 9.91125 10.2012 9.98024C10.1062 10.0493 9.98687 10.0559 9.88486 9.99779L8.08811 8.97566L6.29136 9.99779C6.1893 10.0559 6.06995 10.0492 5.97502 9.98024C5.88004 9.91119 5.83688 9.79978 5.86055 9.6848L6.27743 7.66013L4.75006 6.26717C4.66329 6.18804 4.63276 6.07249 4.66906 5.96086C4.70531 5.84916 4.79798 5.77366 4.91471 5.76069L6.96907 5.53152L7.82185 3.64845C7.87027 3.54151 7.9707 3.47672 8.08811 3.47672C8.20553 3.47672 8.30595 3.54146 8.35438 3.64845Z" fill="#FFD944"/>
<path fill-rule="evenodd" clip-rule="evenodd" d="M8.35416 3.64845L9.20694 5.53146L11.2613 5.76063C11.378 5.77366 11.4707 5.84916 11.5069 5.96086C11.5432 6.07255 11.5127 6.18804 11.4259 6.26717L9.89857 7.66013L10.3154 9.6848C10.3391 9.79984 10.296 9.91125 10.201 9.98024C10.106 10.0493 9.98665 10.0559 9.88464 9.99779L8.08789 8.97566V3.47672C8.20531 3.47672 8.30573 3.54146 8.35416 3.64845Z" fill="#FFC107"/>
<path fill-rule="evenodd" clip-rule="evenodd" d="M23.5097 16.9595C24.2464 17.1042 24.9309 17.3941 25.5325 17.798L25.7758 17.6899L26.6112 17.3189L27.0755 17.7832L27.5398 18.2475L27.1688 19.0828L27.0609 19.3259C27.4649 19.9275 27.7548 20.6123 27.8995 21.3491L28.1469 21.4443L28.9999 21.7727V22.4293V23.0859L28.1469 23.4143L27.8992 23.5097C27.7545 24.2463 27.4646 24.9308 27.0607 25.5324L27.1688 25.7758L27.5397 26.6111L27.0755 27.0755L26.6111 27.5397L25.7758 27.1688L25.5327 27.0608C24.9311 27.4648 24.2463 27.7547 23.5095 27.8994L23.4143 28.1469L23.086 28.9999H22.4294H21.7728L21.4444 28.1469L21.3491 27.8992C20.6124 27.7545 19.9279 27.4645 19.3264 27.0607L19.083 27.1688L18.2476 27.5398L17.7833 27.0755L17.319 26.6112L17.69 25.7758L17.798 25.5329C17.394 24.9312 17.1041 24.2464 16.9594 23.5097L16.7119 23.4144L15.8589 23.086V22.4294V21.7728L16.7119 21.4444L16.9596 21.3491C17.1042 20.6124 17.3942 19.9278 17.7981 19.3262L17.6901 19.083L17.3191 18.2476L17.7834 17.7833L18.2477 17.319L19.0831 17.69L19.3264 17.7981C19.9281 17.3942 20.6126 17.1043 21.3492 16.9596L21.4445 16.7119L21.7729 15.8589H22.4295H23.0862L23.4145 16.7119L23.5097 16.9595ZM22.4294 19.3413C20.7239 19.3413 19.3413 20.7239 19.3413 22.4294C19.3413 24.1348 20.7239 25.5174 22.4294 25.5174C24.1348 25.5174 25.5174 24.1348 25.5174 22.4294C25.5174 20.7239 24.1348 19.3413 22.4294 19.3413Z" fill="#ECEFF1"/>
<path fill-rule="evenodd" clip-rule="evenodd" d="M23.5097 16.9595C24.2464 17.1042 24.9309 17.3941 25.5325 17.798L25.7759 17.6899L26.6112 17.3189L27.0756 17.7832L27.5398 18.2475L27.1688 19.0828L27.0609 19.3259C27.4649 19.9275 27.7548 20.6123 27.8995 21.3491L28.147 21.4443L29 21.7727V22.4293V23.0859L28.147 23.4143L27.8992 23.5097C27.7545 24.2463 27.4646 24.9308 27.0607 25.5324L27.1688 25.7758L27.5398 26.6111L27.0755 27.0755L26.6112 27.5398L25.7758 27.1688L25.5328 27.0608C24.9311 27.4648 24.2464 27.7547 23.5096 27.8994L23.4144 28.1469L23.0861 28.9999H22.4294V25.5174C24.1349 25.5174 25.5175 24.1348 25.5175 22.4294C25.5175 20.7239 24.1349 19.3413 22.4294 19.3413V15.8588H23.0861L23.4144 16.7118L23.5097 16.9595Z" fill="#D1D1D6"/>
</svg>
