<svg width="29" height="31" viewBox="0 0 29 31" fill="none" xmlns="http://www.w3.org/2000/svg">
<path fill-rule="evenodd" clip-rule="evenodd" d="M22.6226 16.7832C24.0103 16.7832 25.1353 17.5741 25.1353 19.398C25.1353 21.2218 24.0103 22.7003 22.6226 22.7003C21.2348 22.7003 20.1099 21.2218 20.1099 19.398C20.1099 17.5741 21.2349 16.7832 22.6226 16.7832Z" fill="#F6DCCD"/>
<path fill-rule="evenodd" clip-rule="evenodd" d="M22.6226 16.7832C24.0103 16.7832 25.1353 17.5741 25.1353 19.398C25.1353 21.2218 24.0103 22.7003 22.6226 22.7003H22.6222V16.7832H22.6226Z" fill="#F1CBBC"/>
<path fill-rule="evenodd" clip-rule="evenodd" d="M17.8919 31H27.3532C27.823 31 28.2063 30.6168 28.2063 30.147V25.9278C28.2063 24.6852 27.0995 23.9796 25.8403 23.6672C23.726 23.1427 21.5824 23.1073 19.4049 23.6672C18.1486 23.9902 17.0389 24.6845 17.0389 25.9278V30.147C17.0389 30.6168 17.4221 31 17.8919 31Z" fill="#FFD944"/>
<path fill-rule="evenodd" clip-rule="evenodd" d="M22.6221 31H27.3532C27.823 31 28.2063 30.6168 28.2063 30.147V25.9278C28.2063 24.6852 27.0995 23.9796 25.8403 23.6672C24.7752 23.403 23.7027 23.263 22.6221 23.2605V31ZM19.1212 31H20.0311V27.0938C20.0311 26.8425 19.8274 26.6388 19.5762 26.6388C19.3249 26.6388 19.1212 26.8425 19.1212 27.0938V31Z" fill="#FFC107"/>
<path fill-rule="evenodd" clip-rule="evenodd" d="M25.2141 31H26.1239V27.0938C26.1239 26.8425 25.9203 26.6388 25.669 26.6388C25.4177 26.6388 25.2141 26.8425 25.2141 27.0938V31Z" fill="#FAAB23"/>
<path fill-rule="evenodd" clip-rule="evenodd" d="M5.58375 16.7832C6.97142 16.7832 8.09642 17.5741 8.09642 19.398C8.09642 21.2218 6.97142 22.7003 5.58375 22.7003C4.19598 22.7003 3.07109 21.2218 3.07109 19.398C3.07109 17.5741 4.19603 16.7832 5.58375 16.7832Z" fill="#F6DCCD"/>
<path fill-rule="evenodd" clip-rule="evenodd" d="M5.58375 16.7832C6.97141 16.7832 8.09641 17.5741 8.09641 19.398C8.09641 21.2218 6.97141 22.7003 5.58375 22.7003H5.58331V16.7832H5.58375Z" fill="#F1CBBC"/>
<path fill-rule="evenodd" clip-rule="evenodd" d="M0.853093 31H10.3144C10.7842 31 11.1674 30.6168 11.1674 30.147V25.9278C11.1674 24.6852 10.0607 23.9796 8.80145 23.6672C6.68714 23.1427 4.54358 23.1073 2.36603 23.6672C1.10976 23.9902 7.62939e-05 24.6845 7.62939e-05 25.9278V30.147C7.62939e-05 30.6168 0.383284 31 0.853093 31Z" fill="#FFD944"/>
<path fill-rule="evenodd" clip-rule="evenodd" d="M5.58332 31H10.3144C10.7842 31 11.1674 30.6168 11.1674 30.147V25.9278C11.1674 24.6852 10.0607 23.9796 8.80147 23.6672C7.73636 23.403 6.66386 23.263 5.58332 23.2605V31ZM2.0824 31H2.99227V27.0938C2.99227 26.8425 2.7886 26.6388 2.53733 26.6388C2.28612 26.6388 2.0824 26.8425 2.0824 27.0938V31Z" fill="#FFC107"/>
<path fill-rule="evenodd" clip-rule="evenodd" d="M8.1752 31H9.08507V27.0938C9.08507 26.8425 8.8814 26.6388 8.63014 26.6388C8.37887 26.6388 8.1752 26.8425 8.1752 27.0938V31Z" fill="#FAAB23"/>
<path d="M18.8726 14.3081C21.5066 11.674 21.5065 7.40335 18.8724 4.76933C16.2383 2.1353 11.9676 2.13537 9.33358 4.76949C6.69956 7.40361 6.69963 11.6743 9.33375 14.3083C11.9679 16.9423 16.2385 16.9423 18.8726 14.3081Z" fill="#00DDC1"/>
<path fill-rule="evenodd" clip-rule="evenodd" d="M14.1032 2.79383C17.8283 2.79383 20.8482 5.81365 20.8482 9.5388C20.8482 13.2639 17.8283 16.2838 14.1032 16.2838V2.79383Z" fill="#00BAA0"/>
<path fill-rule="evenodd" clip-rule="evenodd" d="M14.3622 6.02586L15.3631 8.23591L17.7743 8.50486C17.8878 8.51753 17.9779 8.59097 18.0132 8.6996C18.0485 8.80819 18.0188 8.92057 17.9344 8.99753L16.1418 10.6324L16.6311 13.0087C16.6542 13.1205 16.6122 13.229 16.5197 13.2961C16.4274 13.3632 16.3113 13.3696 16.2121 13.3131L14.1032 12.1135L11.9944 13.3131C11.8951 13.3696 11.7791 13.3632 11.6867 13.2961C11.5944 13.2289 11.5524 13.1205 11.5754 13.0087L12.0647 10.6324L10.2721 8.99759C10.1877 8.92063 10.158 8.80824 10.1933 8.69966C10.2286 8.59102 10.3187 8.51759 10.4322 8.50492L12.8434 8.23597L13.8442 6.02591C13.8913 5.9219 13.989 5.85888 14.1032 5.85888C14.2174 5.85888 14.3151 5.92185 14.3622 6.02586Z" fill="#FFD944"/>
<path fill-rule="evenodd" clip-rule="evenodd" d="M14.3622 6.02586L15.3631 8.23591L17.7743 8.50486C17.8878 8.51753 17.9779 8.59097 18.0132 8.6996C18.0485 8.80819 18.0188 8.92057 17.9344 8.99753L16.1418 10.6324L16.6311 13.0087C16.6541 13.1205 16.6122 13.229 16.5197 13.2961C16.4273 13.3632 16.3113 13.3696 16.212 13.3131L14.1032 12.1135V5.85888C14.2174 5.85888 14.3151 5.92185 14.3622 6.02586Z" fill="#FFC107"/>
</svg>
