<svg width="31" height="31" viewBox="0 0 31 31" fill="none" xmlns="http://www.w3.org/2000/svg">
<g clip-path="url(#clip0_205_682)">
<path d="M8.23438 3.39062H1.45312C1.1962 3.39063 0.949791 3.49269 0.768115 3.67437C0.586439 3.85604 0.484375 4.10245 0.484375 4.35938V8.23438C0.484375 8.4913 0.586439 8.73771 0.768115 8.91938C0.949791 9.10106 1.1962 9.20312 1.45312 9.20312H2.73284C2.89784 9.2032 3.06009 9.24543 3.20419 9.32579C3.3483 9.40615 3.46949 9.52198 3.55628 9.66231L4.01934 10.4102C4.10622 10.5504 4.22746 10.6661 4.37156 10.7463C4.51566 10.8265 4.67785 10.8686 4.84278 10.8686C5.00771 10.8686 5.1699 10.8265 5.31401 10.7463C5.45811 10.6661 5.57934 10.5504 5.66622 10.4102L6.12928 9.66231C6.21607 9.52198 6.33726 9.40615 6.48137 9.32579C6.62548 9.24543 6.78772 9.2032 6.95272 9.20312H8.23438C8.4913 9.20312 8.73771 9.10106 8.91938 8.91938C9.10106 8.73771 9.20312 8.4913 9.20312 8.23438V4.35938C9.20312 4.10245 9.10106 3.85604 8.91938 3.67437C8.73771 3.49269 8.4913 3.39063 8.23438 3.39062V3.39062Z" fill="#FBDE53"/>
<path d="M7.26562 7.75H2.42188C2.29341 7.75 2.17021 7.69897 2.07937 7.60813C1.98853 7.51729 1.9375 7.39409 1.9375 7.26562C1.9375 7.13716 1.98853 7.01396 2.07937 6.92312C2.17021 6.83228 2.29341 6.78125 2.42188 6.78125H7.26562C7.39409 6.78125 7.51729 6.83228 7.60813 6.92312C7.69897 7.01396 7.75 7.13716 7.75 7.26562C7.75 7.39409 7.69897 7.51729 7.60813 7.60813C7.51729 7.69897 7.39409 7.75 7.26562 7.75ZM7.26562 5.8125H2.42188C2.29341 5.8125 2.17021 5.76147 2.07937 5.67063C1.98853 5.57979 1.9375 5.45659 1.9375 5.32812C1.9375 5.19966 1.98853 5.07646 2.07937 4.98562C2.17021 4.89478 2.29341 4.84375 2.42188 4.84375H7.26562C7.39409 4.84375 7.51729 4.89478 7.60813 4.98562C7.69897 5.07646 7.75 5.19966 7.75 5.32812C7.75 5.45659 7.69897 5.57979 7.60813 5.67063C7.51729 5.76147 7.39409 5.8125 7.26562 5.8125Z" fill="#D9D8DA"/>
<path d="M29.5469 3.39062H22.7656C22.5087 3.39063 22.2623 3.49269 22.0806 3.67437C21.8989 3.85604 21.7969 4.10245 21.7969 4.35938V8.23438C21.7969 8.4913 21.8989 8.73771 22.0806 8.91938C22.2623 9.10106 22.5087 9.20312 22.7656 9.20312H24.0453C24.2103 9.2032 24.3726 9.24543 24.5167 9.32579C24.6608 9.40615 24.782 9.52198 24.8688 9.66231L25.3318 10.4102C25.4187 10.5504 25.54 10.6661 25.6841 10.7463C25.8282 10.8265 25.9904 10.8686 26.1553 10.8686C26.3202 10.8686 26.4824 10.8265 26.6265 10.7463C26.7706 10.6661 26.8918 10.5504 26.9787 10.4102L27.4418 9.66231C27.5286 9.52198 27.6498 9.40615 27.7939 9.32579C27.938 9.24543 28.1002 9.2032 28.2652 9.20312H29.5469C29.8038 9.20312 30.0502 9.10106 30.2319 8.91938C30.4136 8.73771 30.5156 8.4913 30.5156 8.23438V4.35938C30.5156 4.10245 30.4136 3.85604 30.2319 3.67437C30.0502 3.49269 29.8038 3.39063 29.5469 3.39062V3.39062Z" fill="#ED456A"/>
<path d="M28.5781 7.75H23.7344C23.6059 7.75 23.4827 7.69897 23.3919 7.60813C23.301 7.51729 23.25 7.39409 23.25 7.26562C23.25 7.13716 23.301 7.01396 23.3919 6.92312C23.4827 6.83228 23.6059 6.78125 23.7344 6.78125H28.5781C28.7066 6.78125 28.8298 6.83228 28.9206 6.92312C29.0115 7.01396 29.0625 7.13716 29.0625 7.26562C29.0625 7.39409 29.0115 7.51729 28.9206 7.60813C28.8298 7.69897 28.7066 7.75 28.5781 7.75ZM28.5781 5.8125H23.7344C23.6059 5.8125 23.4827 5.76147 23.3919 5.67063C23.301 5.57979 23.25 5.45659 23.25 5.32812C23.25 5.19966 23.301 5.07646 23.3919 4.98562C23.4827 4.89478 23.6059 4.84375 23.7344 4.84375H28.5781C28.7066 4.84375 28.8298 4.89478 28.9206 4.98562C29.0115 5.07646 29.0625 5.19966 29.0625 5.32812C29.0625 5.45659 29.0115 5.57979 28.9206 5.67063C28.8298 5.76147 28.7066 5.8125 28.5781 5.8125Z" fill="#D9D8DA"/>
<path d="M18.8906 0.484375H12.1094C11.8524 0.484375 11.606 0.586439 11.4244 0.768115C11.2427 0.949791 11.1406 1.1962 11.1406 1.45312V5.32812C11.1406 5.58505 11.2427 5.83146 11.4244 6.01313C11.606 6.19481 11.8524 6.29688 12.1094 6.29688H13.3891C13.5541 6.29695 13.7163 6.33918 13.8604 6.41954C14.0045 6.4999 14.1257 6.61573 14.2125 6.75606L14.6756 7.50394C14.7625 7.64413 14.8837 7.75981 15.0278 7.84004C15.1719 7.92026 15.3341 7.96237 15.499 7.96237C15.664 7.96237 15.8262 7.92026 15.9703 7.84004C16.1144 7.75981 16.2356 7.64413 16.3225 7.50394L16.7855 6.75606C16.8723 6.61573 16.9935 6.4999 17.1376 6.41954C17.2817 6.33918 17.444 6.29695 17.609 6.29688H18.8906C19.1476 6.29688 19.394 6.19481 19.5756 6.01313C19.7573 5.83146 19.8594 5.58505 19.8594 5.32812V1.45312C19.8594 1.1962 19.7573 0.949791 19.5756 0.768115C19.394 0.586439 19.1476 0.484375 18.8906 0.484375Z" fill="#82C8EC"/>
<path d="M17.9219 4.84375H13.0781C12.9497 4.84375 12.8265 4.79272 12.7356 4.70188C12.6448 4.61104 12.5938 4.48784 12.5938 4.35938C12.5938 4.23091 12.6448 4.10771 12.7356 4.01687C12.8265 3.92603 12.9497 3.875 13.0781 3.875H17.9219C18.0503 3.875 18.1735 3.92603 18.2644 4.01687C18.3552 4.10771 18.4062 4.23091 18.4062 4.35938C18.4062 4.48784 18.3552 4.61104 18.2644 4.70188C18.1735 4.79272 18.0503 4.84375 17.9219 4.84375ZM17.9219 2.90625H13.0781C12.9497 2.90625 12.8265 2.85522 12.7356 2.76438C12.6448 2.67354 12.5938 2.55034 12.5938 2.42188C12.5938 2.29341 12.6448 2.17021 12.7356 2.07937C12.8265 1.98853 12.9497 1.9375 13.0781 1.9375H17.9219C18.0503 1.9375 18.1735 1.98853 18.2644 2.07937C18.3552 2.17021 18.4062 2.29341 18.4062 2.42188C18.4062 2.55034 18.3552 2.67354 18.2644 2.76438C18.1735 2.85522 18.0503 2.90625 17.9219 2.90625Z" fill="#D9D8DA"/>
<path d="M16.9531 18.8906C18.2378 18.8906 19.4698 19.4009 20.3782 20.3093C21.2866 21.2177 21.7969 22.4497 21.7969 23.7344V27.6094H9.20312V23.7344C9.20313 22.4497 9.71345 21.2177 10.6218 20.3093C11.5302 19.4009 12.7622 18.8906 14.0469 18.8906H16.9531Z" fill="#ED456A"/>
<path d="M16.9531 16.9531V18.4062C16.9531 18.7916 16.8 19.1613 16.5275 19.4338C16.255 19.7063 15.8854 19.8594 15.5 19.8594C15.1146 19.8594 14.745 19.7063 14.4725 19.4338C14.2 19.1613 14.0469 18.7916 14.0469 18.4062V16.9531H16.9531Z" fill="#FCC37A"/>
<path d="M18.8905 14.5313C18.8905 15.4305 18.5333 16.2929 17.8974 16.9288C17.2616 17.5647 16.3992 17.9219 15.4999 17.9219C14.6007 17.9219 13.7382 17.5647 13.1024 16.9288C12.4665 16.2929 12.1093 15.4305 12.1093 14.5313C12.1077 14.4569 12.1109 14.3824 12.119 14.3084C12.177 13.464 12.5487 12.6718 13.1612 12.0875C13.7736 11.5032 14.5824 11.1691 15.4287 11.1509C16.2749 11.1327 17.0974 11.4317 17.7344 11.9891C18.3714 12.5465 18.7769 13.322 18.8712 14.1631C18.8809 14.2891 18.8905 14.4053 18.8905 14.5313Z" fill="#FFD9AA"/>
<path d="M18.8713 14.1631L18.4063 14.0469L15.6357 13.2622C15.2201 13.1437 14.7768 13.1676 14.3763 13.33L12.5938 14.0469L12.1191 14.3084C12.1771 13.464 12.5489 12.6718 13.1613 12.0875C13.7738 11.5032 14.5826 11.1691 15.4288 11.1509C16.2751 11.1327 17.0975 11.4317 17.7346 11.9891C18.3716 12.5465 18.7771 13.322 18.8713 14.1631V14.1631Z" fill="#57565D"/>
<path d="M5.32812 19.8594H2.42188V22.7656H5.32812V19.8594Z" fill="#FCC37A"/>
<path d="M28.5781 19.8594H25.6719V22.7656H28.5781V19.8594Z" fill="#FCC37A"/>
<path d="M7.26566 17.4375C7.2678 18.2069 7.00756 18.9541 6.52788 19.5558C6.0482 20.1574 5.37775 20.5775 4.62715 20.7469C3.87656 20.9162 3.09067 20.8245 2.39917 20.4871C1.70766 20.1496 1.15186 19.5865 0.823476 18.8906H0.813789C0.594638 18.4377 0.481974 17.9407 0.484414 17.4375C0.486643 16.663 0.753947 15.9126 1.24187 15.3112C1.72978 14.7097 2.40891 14.2934 3.16628 14.1315C3.92366 13.9696 4.71363 14.0719 5.4048 14.4213C6.09597 14.7708 6.64669 15.3463 6.96535 16.0522C7.16387 16.487 7.2663 16.9595 7.26566 17.4375V17.4375Z" fill="#FFD9AA"/>
<path d="M13.0782 26.1562C13.0782 26.5416 12.9251 26.9112 12.6525 27.1838C12.38 27.4563 12.0104 27.6094 11.625 27.6094H6.2969C6.03997 27.6094 5.79357 27.7114 5.61189 27.8931C5.43022 28.0748 5.32815 28.3212 5.32815 28.5781V30.5156H0.484402V23.7344C0.483048 23.48 0.532961 23.2279 0.631162 22.9932C0.729362 22.7585 0.873838 22.5461 1.05596 22.3684C1.23359 22.1863 1.44608 22.0418 1.68076 21.9436C1.91544 21.8454 2.16751 21.7955 2.4219 21.7969H4.65003C5.09057 21.7961 5.51802 21.9466 5.86096 22.2231L8.96096 24.7031H11.625C12.0104 24.7031 12.38 24.8562 12.6525 25.1287C12.9251 25.4012 13.0782 25.7709 13.0782 26.1562Z" fill="#55BB8C"/>
<path d="M6.96517 16.0522L2.80924 16.8756C2.69983 16.898 2.6015 16.9574 2.53088 17.0439C2.46027 17.1304 2.42171 17.2386 2.42174 17.3503V18.4063C2.42174 18.5347 2.3707 18.6579 2.27986 18.7488C2.18903 18.8396 2.06582 18.8906 1.93736 18.8906H0.81361C0.603976 18.4838 0.478877 18.0387 0.445851 17.5822C0.412825 17.1258 0.472557 16.6673 0.621446 16.2345C0.770335 15.8018 1.0053 15.4036 1.31218 15.0641C1.61906 14.7245 1.99151 14.4506 2.40708 14.2589C2.82264 14.0671 3.27273 13.9615 3.73021 13.9483C4.1877 13.9352 4.64311 14.0148 5.069 14.1824C5.4949 14.3499 5.88246 14.602 6.20834 14.9233C6.53422 15.2447 6.79167 15.6287 6.96517 16.0522V16.0522Z" fill="#57565D"/>
<path d="M23.7344 17.4375C23.7323 18.2069 23.9925 18.9541 24.4722 19.5558C24.9518 20.1574 25.6223 20.5775 26.3729 20.7469C27.1235 20.9162 27.9094 20.8245 28.6009 20.4871C29.2924 20.1496 29.8482 19.5865 30.1766 18.8906H30.1863C30.4054 18.4377 30.5181 17.9407 30.5156 17.4375C30.5134 16.663 30.2461 15.9126 29.7582 15.3112C29.2703 14.7097 28.5911 14.2934 27.8338 14.1315C27.0764 13.9696 26.2864 14.0719 25.5953 14.4213C24.9041 14.7708 24.3534 15.3463 24.0347 16.0522C23.8362 16.487 23.7337 16.9595 23.7344 17.4375V17.4375Z" fill="#FFD9AA"/>
<path d="M24.0346 16.0522L28.1877 16.8756C28.2971 16.898 28.3954 16.9574 28.466 17.0439C28.5366 17.1304 28.5752 17.2386 28.5752 17.3503V18.4063C28.5752 18.5347 28.6262 18.6579 28.717 18.7488C28.8079 18.8396 28.9311 18.8906 29.0596 18.8906H30.1833C30.3929 18.4838 30.518 18.0387 30.5511 17.5822C30.5841 17.1258 30.5244 16.6673 30.3755 16.2345C30.2266 15.8018 29.9916 15.4036 29.6847 15.0641C29.3779 14.7245 29.0054 14.4506 28.5898 14.2589C28.1743 14.0671 27.7242 13.9615 27.2667 13.9483C26.8092 13.9352 26.3538 14.0148 25.9279 14.1824C25.502 14.3499 25.1144 14.602 24.7886 14.9233C24.4627 15.2447 24.2052 15.6287 24.0317 16.0522H24.0346Z" fill="#57565D"/>
<path d="M30.5156 23.7344V30.5156H25.6719V28.5781C25.6719 28.3212 25.5698 28.0748 25.3881 27.8931C25.2065 27.7114 24.9601 27.6094 24.7031 27.6094H19.375C18.9896 27.6094 18.62 27.4563 18.3475 27.1838C18.075 26.9113 17.9219 26.5416 17.9219 26.1563C17.9219 25.7709 18.075 25.4013 18.3475 25.1287C18.62 24.8562 18.9896 24.7031 19.375 24.7031H22.0391L25.1391 22.2231C25.482 21.9466 25.9095 21.7961 26.35 21.7969H28.5781C29.0908 21.8007 29.5814 22.006 29.9439 22.3686C30.3065 22.7311 30.5118 23.2217 30.5156 23.7344Z" fill="#82C8EC"/>
<path d="M5.8125 27.6094H25.1875C25.316 27.6094 25.4392 27.6604 25.53 27.7512C25.6208 27.8421 25.6719 27.9653 25.6719 28.0938V30.5156H5.32812V28.0938C5.32812 27.9653 5.37916 27.8421 5.47 27.7512C5.56083 27.6604 5.68404 27.6094 5.8125 27.6094V27.6094Z" fill="#57565D"/>
<path d="M13.0781 26.1562C13.0781 26.5416 12.925 26.9113 12.6525 27.1838C12.38 27.4563 12.0104 27.6094 11.625 27.6094H10.1719V24.7031H11.625C12.0104 24.7031 12.38 24.8562 12.6525 25.1287C12.925 25.4012 13.0781 25.7709 13.0781 26.1562ZM20.8281 24.7031V27.6094H19.375C18.9896 27.6094 18.62 27.4563 18.3475 27.1838C18.075 26.9113 17.9219 26.5416 17.9219 26.1562C17.9219 25.7709 18.075 25.4012 18.3475 25.1287C18.62 24.8562 18.9896 24.7031 19.375 24.7031H20.8281Z" fill="#FFD9AA"/>
<path d="M10.1719 24.7031H9.20312V27.6094H10.1719V24.7031Z" fill="#3EB57B"/>
<path d="M21.7969 24.7031H20.8281V27.6094H21.7969V24.7031Z" fill="#54BBE8"/>
</g>
<defs>
<clipPath id="clip0_205_682">
<rect width="31" height="31" fill="white"/>
</clipPath>
</defs>
</svg>
