<svg width="22" height="31" viewBox="0 0 22 31" fill="none" xmlns="http://www.w3.org/2000/svg">
<path d="M8.92945 0.293238L7.83936 2.73402H13.2996L12.2096 0.293238C12.1299 0.11483 11.9529 0 11.7575 0H9.38163C9.18626 0 9.00913 0.11483 8.92945 0.293238Z" fill="#F7934E"/>
<path d="M21.1392 4.50297V30.0097C21.1392 30.5566 20.6959 31 20.1489 31H0.989846C0.442908 31 -0.000488281 30.5566 -0.000488281 30.0097V4.50297C-0.000488281 3.95603 0.442908 3.51263 0.989846 3.51263H20.1489C20.6959 3.51263 21.1392 3.95603 21.1392 4.50297Z" fill="#4D5760"/>
<path d="M19.901 5.24552V29.2659C19.901 29.5395 19.6806 29.7624 19.4069 29.7624H1.73189C1.45824 29.7624 1.23779 29.5395 1.23779 29.2659V5.24552C1.23779 4.97187 1.45818 4.75148 1.73189 4.75148H19.4069C19.6806 4.75148 19.901 4.97187 19.901 5.24552Z" fill="#E6F5FF"/>
<path d="M16.5857 3.22921V5.17309C16.5857 5.44656 16.364 5.66829 16.0905 5.66829H5.04818C4.77471 5.66829 4.55298 5.44662 4.55298 5.17309V3.22921C4.55298 2.95574 4.77465 2.73402 5.04818 2.73402H16.0905C16.364 2.73402 16.5857 2.95574 16.5857 3.22921Z" fill="#FDBB48"/>
<path d="M5.76144 9.59741C5.76144 10.5437 4.99308 11.312 4.0468 11.312C3.09698 11.312 2.32861 10.5436 2.32861 9.59741C2.32861 8.64759 3.09698 7.87923 4.0468 7.87923C4.99302 7.87929 5.76144 8.64759 5.76144 9.59741Z" fill="#44B19A"/>
<path d="M3.74041 10.2987C3.6938 10.2987 3.64749 10.281 3.61198 10.2455L3.17846 9.812C3.1075 9.74104 3.1075 9.62609 3.17846 9.55513C3.24942 9.48417 3.36438 9.48417 3.43534 9.55513L3.74041 9.8602L4.65478 8.94583C4.72574 8.87487 4.84069 8.87487 4.91166 8.94583C4.98262 9.01679 4.98262 9.13175 4.91166 9.20271L3.86885 10.2455C3.8334 10.281 3.78703 10.2987 3.74041 10.2987Z" fill="white"/>
<path d="M18.8103 8.59591H6.90039C6.80008 8.59591 6.71875 8.51458 6.71875 8.41427C6.71875 8.31396 6.80008 8.23263 6.90039 8.23263H18.8103C18.9106 8.23263 18.9919 8.31396 18.9919 8.41427C18.9919 8.51458 18.9105 8.59591 18.8103 8.59591ZM18.8103 9.77728H6.90039C6.80008 9.77728 6.71875 9.69595 6.71875 9.59564C6.71875 9.49533 6.80008 9.414 6.90039 9.414H18.8103C18.9106 9.414 18.9919 9.49533 18.9919 9.59564C18.9919 9.69595 18.9105 9.77728 18.8103 9.77728ZM15.0175 10.9587H6.90039C6.80008 10.9587 6.71875 10.8774 6.71875 10.7771C6.71875 10.6768 6.80008 10.5954 6.90039 10.5954H15.0175C15.1178 10.5954 15.1992 10.6768 15.1992 10.7771C15.1992 10.8774 15.1178 10.9587 15.0175 10.9587Z" fill="#626B72"/>
<path d="M5.76144 15.0104C5.76144 15.9567 4.99308 16.725 4.0468 16.725C3.09698 16.725 2.32861 15.9566 2.32861 15.0104C2.32861 14.0606 3.09698 13.2922 4.0468 13.2922C4.99302 13.2923 5.76144 14.0606 5.76144 15.0104Z" fill="#44B19A"/>
<path d="M3.74041 15.7117C3.6938 15.7117 3.64749 15.6939 3.61198 15.6585L3.17846 15.2251C3.1075 15.1541 3.1075 15.0392 3.17846 14.9682C3.24942 14.8972 3.36438 14.8972 3.43534 14.9682L3.74041 15.2732L4.65478 14.3588C4.72574 14.2879 4.84069 14.2879 4.91166 14.3588C4.98262 14.4298 4.98262 14.5447 4.91166 14.6157L3.86885 15.6585C3.8334 15.6939 3.78703 15.7117 3.74041 15.7117Z" fill="white"/>
<path d="M18.8103 14.0089H6.90039C6.80008 14.0089 6.71875 13.9276 6.71875 13.8273C6.71875 13.727 6.80008 13.6456 6.90039 13.6456H18.8103C18.9106 13.6456 18.9919 13.727 18.9919 13.8273C18.9919 13.9276 18.9105 14.0089 18.8103 14.0089ZM18.8103 15.1903H6.90039C6.80008 15.1903 6.71875 15.109 6.71875 15.0086C6.71875 14.9083 6.80008 14.827 6.90039 14.827H18.8103C18.9106 14.827 18.9919 14.9083 18.9919 15.0086C18.9919 15.109 18.9105 15.1903 18.8103 15.1903ZM15.0175 16.3717H6.90039C6.80008 16.3717 6.71875 16.2903 6.71875 16.19C6.71875 16.0897 6.80008 16.0084 6.90039 16.0084H15.0175C15.1178 16.0084 15.1992 16.0897 15.1992 16.19C15.1992 16.2903 15.1178 16.3717 15.0175 16.3717Z" fill="#626B72"/>
<path d="M5.76144 20.4234C5.76144 21.3697 4.99308 22.138 4.0468 22.138C3.09698 22.138 2.32861 21.3696 2.32861 20.4234C2.32861 19.4736 3.09698 18.7052 4.0468 18.7052C4.99302 18.7053 5.76144 19.4737 5.76144 20.4234Z" fill="#44B19A"/>
<path d="M3.74041 21.1247C3.6938 21.1247 3.64749 21.1069 3.61198 21.0715L3.17846 20.6381C3.1075 20.5671 3.1075 20.4522 3.17846 20.3812C3.24942 20.3102 3.36438 20.3102 3.43534 20.3812L3.74041 20.6862L4.65478 19.772C4.72574 19.701 4.84069 19.701 4.91166 19.772C4.98262 19.8429 4.98262 19.9579 4.91166 20.0288L3.86885 21.0715C3.8334 21.1069 3.78703 21.1247 3.74041 21.1247Z" fill="white"/>
<path d="M18.8103 19.422H6.90039C6.80008 19.422 6.71875 19.3407 6.71875 19.2403C6.71875 19.14 6.80008 19.0587 6.90039 19.0587H18.8103C18.9106 19.0587 18.9919 19.14 18.9919 19.2403C18.9919 19.3406 18.9105 19.422 18.8103 19.422ZM18.8103 20.6034H6.90039C6.80008 20.6034 6.71875 20.522 6.71875 20.4217C6.71875 20.3214 6.80008 20.2401 6.90039 20.2401H18.8103C18.9106 20.2401 18.9919 20.3214 18.9919 20.4217C18.9919 20.522 18.9105 20.6034 18.8103 20.6034ZM15.0175 21.7846H6.90039C6.80008 21.7846 6.71875 21.7033 6.71875 21.603C6.71875 21.5027 6.80008 21.4213 6.90039 21.4213H15.0175C15.1178 21.4213 15.1992 21.5027 15.1992 21.603C15.1992 21.7033 15.1178 21.7846 15.0175 21.7846Z" fill="#626B72"/>
<path d="M5.76144 25.8365C5.76144 26.7828 4.99308 27.5511 4.0468 27.5511C3.09698 27.5511 2.32861 26.7827 2.32861 25.8365C2.32861 24.8867 3.09698 24.1183 4.0468 24.1183C4.99302 24.1183 5.76144 24.8867 5.76144 25.8365Z" fill="#44B19A"/>
<path d="M3.74041 26.5377C3.6938 26.5377 3.64749 26.52 3.61198 26.4845L3.17846 26.051C3.1075 25.9801 3.1075 25.8651 3.17846 25.7941C3.24942 25.7232 3.36438 25.7232 3.43534 25.7941L3.74041 26.0992L4.65478 25.1848C4.72574 25.1139 4.84069 25.1139 4.91166 25.1848C4.98262 25.2558 4.98262 25.3708 4.91166 25.4417L3.86885 26.4845C3.8334 26.52 3.78703 26.5377 3.74041 26.5377Z" fill="white"/>
<path d="M18.8103 24.8349H6.90039C6.80008 24.8349 6.71875 24.7536 6.71875 24.6533C6.71875 24.553 6.80008 24.4716 6.90039 24.4716H18.8103C18.9106 24.4716 18.9919 24.553 18.9919 24.6533C18.9919 24.7536 18.9105 24.8349 18.8103 24.8349ZM18.8103 26.0164H6.90039C6.80008 26.0164 6.71875 25.935 6.71875 25.8347C6.71875 25.7344 6.80008 25.6531 6.90039 25.6531H18.8103C18.9106 25.6531 18.9919 25.7344 18.9919 25.8347C18.9919 25.935 18.9105 26.0164 18.8103 26.0164ZM15.0175 27.1977H6.90039C6.80008 27.1977 6.71875 27.1164 6.71875 27.0161C6.71875 26.9158 6.80008 26.8344 6.90039 26.8344H15.0175C15.1178 26.8344 15.1992 26.9158 15.1992 27.0161C15.1992 27.1164 15.1178 27.1977 15.0175 27.1977Z" fill="#626B72"/>
</svg>
