<svg width="21" height="32" viewBox="0 0 21 32" fill="none" xmlns="http://www.w3.org/2000/svg">
<path d="M19 5.5H2C0.89543 5.5 0 6.39543 0 7.5V29.5C0 30.6046 0.89543 31.5 2 31.5H19C20.1046 31.5 21 30.6046 21 29.5V7.5C21 6.39543 20.1046 5.5 19 5.5Z" fill="#DFE1F1"/>
<path d="M13 3.5V3C13 2.6717 12.9353 2.34661 12.8097 2.04329C12.6841 1.73998 12.4999 1.46438 12.2678 1.23223C12.0356 1.00009 11.76 0.815938 11.4567 0.690301C11.1534 0.564664 10.8283 0.5 10.5 0.5C9.83696 0.5 9.20107 0.763392 8.73223 1.23223C8.26339 1.70107 8 2.33696 8 3V3.5H7C6.46957 3.5 5.96086 3.71071 5.58579 4.08579C5.21071 4.46086 5 4.96957 5 5.5C5 6.03043 5.21071 6.53914 5.58579 6.91421C5.96086 7.28929 6.46957 7.5 7 7.5H14C14.5304 7.5 15.0391 7.28929 15.4142 6.91421C15.7893 6.53914 16 6.03043 16 5.5C16 4.96957 15.7893 4.46086 15.4142 4.08579C15.0391 3.71071 14.5304 3.5 14 3.5H13ZM9 17.5V18.5C9 18.7652 8.89464 19.0196 8.70711 19.2071C8.51957 19.3946 8.26522 19.5 8 19.5H4C3.73478 19.5 3.48043 19.3946 3.29289 19.2071C3.10536 19.0196 3 18.7652 3 18.5V14.5C3 14.2348 3.10536 13.9804 3.29289 13.7929C3.48043 13.6054 3.73478 13.5 4 13.5H8L9 17.5ZM9 26.5V27.5C9 27.7652 8.89464 28.0196 8.70711 28.2071C8.51957 28.3946 8.26522 28.5 8 28.5H4C3.73478 28.5 3.48043 28.3946 3.29289 28.2071C3.10536 28.0196 3 27.7652 3 27.5V23.5C3 23.2348 3.10536 22.9804 3.29289 22.7929C3.48043 22.6054 3.73478 22.5 4 22.5H8" fill="#DFE1F1"/>
<path d="M13 3.5V3C13 2.6717 12.9353 2.34661 12.8097 2.04329C12.6841 1.73998 12.4999 1.46438 12.2678 1.23223C12.0356 1.00009 11.76 0.815938 11.4567 0.690301C11.1534 0.564664 10.8283 0.5 10.5 0.5C9.83696 0.5 9.20107 0.763392 8.73223 1.23223C8.26339 1.70107 8 2.33696 8 3V3.5H7C6.46957 3.5 5.96086 3.71071 5.58579 4.08579C5.21071 4.46086 5 4.96957 5 5.5C5 6.03043 5.21071 6.53914 5.58579 6.91421C5.96086 7.28929 6.46957 7.5 7 7.5H14C14.5304 7.5 15.0391 7.28929 15.4142 6.91421C15.7893 6.53914 16 6.03043 16 5.5C16 4.96957 15.7893 4.46086 15.4142 4.08579C15.0391 3.71071 14.5304 3.5 14 3.5H13Z" fill="#AFAEB3"/>
<path d="M9 17.5V18.5C9 18.7652 8.89464 19.0196 8.70711 19.2071C8.51957 19.3946 8.26522 19.5 8 19.5H4C3.73478 19.5 3.48043 19.3946 3.29289 19.2071C3.10536 19.0196 3 18.7652 3 18.5V14.5C3 14.2348 3.10536 13.9804 3.29289 13.7929C3.48043 13.6054 3.73478 13.5 4 13.5H8C8.26522 13.5 8.51957 13.6054 8.70711 13.7929C8.89464 13.9804 9 14.2348 9 14.5V17.5Z" fill="white"/>
<path d="M6.50008 18.035C6.43438 18.0351 6.36929 18.0223 6.30855 17.9972C6.24781 17.9722 6.1926 17.9354 6.14608 17.889L4.61008 16.354C4.519 16.2597 4.46861 16.1334 4.46975 16.0023C4.47088 15.8712 4.52347 15.7458 4.61617 15.6531C4.70888 15.5604 4.83428 15.5078 4.96538 15.5067C5.09648 15.5055 5.22278 15.5559 5.31708 15.647L6.50008 16.828L9.68208 13.646C9.77638 13.5549 9.90269 13.5045 10.0338 13.5057C10.1649 13.5068 10.2903 13.5594 10.383 13.6521C10.4757 13.7448 10.5283 13.8702 10.5294 14.0013C10.5306 14.1324 10.4802 14.2587 10.3891 14.353L6.85308 17.888C6.75954 17.9818 6.63258 18.0347 6.50008 18.035Z" fill="#55BB8C"/>
<path d="M9 26.5V27.5C9 27.7652 8.89464 28.0196 8.70711 28.2071C8.51957 28.3946 8.26522 28.5 8 28.5H4C3.73478 28.5 3.48043 28.3946 3.29289 28.2071C3.10536 28.0196 3 27.7652 3 27.5V23.5C3 23.2348 3.10536 22.9804 3.29289 22.7929C3.48043 22.6054 3.73478 22.5 4 22.5H8C8.26522 22.5 8.51957 22.6054 8.70711 22.7929C8.89464 22.9804 9 23.2348 9 23.5V26.5Z" fill="white"/>
<path d="M6.50008 27.035C6.43438 27.0351 6.36929 27.0223 6.30855 26.9972C6.24781 26.9722 6.1926 26.9354 6.14608 26.889L4.61008 25.354C4.519 25.2597 4.46861 25.1334 4.46975 25.0023C4.47088 24.8712 4.52347 24.7458 4.61617 24.6531C4.70888 24.5604 4.83428 24.5078 4.96538 24.5067C5.09648 24.5055 5.22278 24.5559 5.31708 24.647L6.50008 25.828L9.68208 22.646C9.77638 22.5549 9.90269 22.5045 10.0338 22.5057C10.1649 22.5068 10.2903 22.5594 10.383 22.6521C10.4757 22.7448 10.5283 22.8702 10.5294 23.0013C10.5306 23.1324 10.4802 23.2587 10.3891 23.353L6.85308 26.888C6.75954 26.9818 6.63258 27.0347 6.50008 27.035Z" fill="#55BB8C"/>
<path d="M13 11H7C6.86739 11 6.74021 10.9473 6.64645 10.8536C6.55268 10.7598 6.5 10.6326 6.5 10.5C6.5 10.3674 6.55268 10.2402 6.64645 10.1464C6.74021 10.0527 6.86739 10 7 10H13C13.1326 10 13.2598 10.0527 13.3536 10.1464C13.4473 10.2402 13.5 10.3674 13.5 10.5C13.5 10.6326 13.4473 10.7598 13.3536 10.8536C13.2598 10.9473 13.1326 11 13 11ZM18 16H12C11.8674 16 11.7402 15.9473 11.6464 15.8536C11.5527 15.7598 11.5 15.6326 11.5 15.5C11.5 15.3674 11.5527 15.2402 11.6464 15.1464C11.7402 15.0527 11.8674 15 12 15H18C18.1326 15 18.2598 15.0527 18.3536 15.1464C18.4473 15.2402 18.5 15.3674 18.5 15.5C18.5 15.6326 18.4473 15.7598 18.3536 15.8536C18.2598 15.9473 18.1326 16 18 16ZM18 18H12C11.8674 18 11.7402 17.9473 11.6464 17.8536C11.5527 17.7598 11.5 17.6326 11.5 17.5C11.5 17.3674 11.5527 17.2402 11.6464 17.1464C11.7402 17.0527 11.8674 17 12 17H18C18.1326 17 18.2598 17.0527 18.3536 17.1464C18.4473 17.2402 18.5 17.3674 18.5 17.5C18.5 17.6326 18.4473 17.7598 18.3536 17.8536C18.2598 17.9473 18.1326 18 18 18ZM18 25H12C11.8674 25 11.7402 24.9473 11.6464 24.8536C11.5527 24.7598 11.5 24.6326 11.5 24.5C11.5 24.3674 11.5527 24.2402 11.6464 24.1464C11.7402 24.0527 11.8674 24 12 24H18C18.1326 24 18.2598 24.0527 18.3536 24.1464C18.4473 24.2402 18.5 24.3674 18.5 24.5C18.5 24.6326 18.4473 24.7598 18.3536 24.8536C18.2598 24.9473 18.1326 25 18 25ZM18 27H12C11.8674 27 11.7402 26.9473 11.6464 26.8536C11.5527 26.7598 11.5 26.6326 11.5 26.5C11.5 26.3674 11.5527 26.2402 11.6464 26.1464C11.7402 26.0527 11.8674 26 12 26H18C18.1326 26 18.2598 26.0527 18.3536 26.1464C18.4473 26.2402 18.5 26.3674 18.5 26.5C18.5 26.6326 18.4473 26.7598 18.3536 26.8536C18.2598 26.9473 18.1326 27 18 27Z" fill="white"/>
</svg>
