<svg width="26" height="29" viewBox="0 0 26 29" fill="none" xmlns="http://www.w3.org/2000/svg">
<path d="M25.5692 6.93478V28.9668H5.3953C4.43306 28.9668 3.63672 28.1705 3.63672 27.2082V0H18.6344L25.5692 6.93478Z" fill="#AAB5E3"/>
<path d="M11.7328 23.7906C11.7328 25.8146 10.8038 27.7391 9.17791 28.9668H5.3953C4.43306 28.9668 3.63672 28.1705 3.63672 27.2082V17.4863C7.1207 16.6236 10.671 18.7471 11.5337 22.2643C11.6665 22.762 11.7328 23.2597 11.7328 23.7906Z" fill="#9192CA"/>
<path d="M25.5691 6.93477V20.0412C25.5691 20.8043 24.9387 21.4348 24.1755 21.4348H12.7945C12.0313 21.4348 11.4341 20.8375 11.4341 20.0744V1.45995C11.4341 0.663607 12.0645 0.0331726 12.8609 0.0331726H18.6343L25.5691 6.93477Z" fill="#C3D3E8"/>
<path d="M25.5693 6.93478H18.6345V0L25.5693 6.93478Z" fill="#9697CA"/>
<path d="M14.3541 16.7563H12.0315V20.3398H14.3541V16.7563Z" fill="#3FB9F6"/>
<path d="M10.1068 13.1728H7.78418V20.3066H10.1068V13.1728Z" fill="#FFD850"/>
<path d="M10.1068 19.4771V20.3066H7.78418V17.8181C8.68006 18.1831 9.4764 18.7471 10.1068 19.4771Z" fill="#FFB050"/>
<path d="M18.568 13.1728H16.2454V20.3066H18.568V13.1728Z" fill="#52B69A"/>
<path d="M22.7821 10.4188H20.4595V20.3398H22.7821V10.4188Z" fill="#F84070"/>
<path d="M24.4079 20.6716H8.5475C8.34842 20.6716 8.2157 20.5389 8.2157 20.3398C8.2157 20.1407 8.34842 20.008 8.5475 20.008H24.4079C24.607 20.008 24.7397 20.1407 24.7397 20.3398C24.7397 20.5389 24.607 20.6716 24.4079 20.6716ZM10.0075 2.18994H5.82668C5.6276 2.18994 5.49487 2.05721 5.49487 1.85813C5.49487 1.65904 5.6276 1.52632 5.82668 1.52632H10.0075C10.2065 1.52632 10.3393 1.65904 10.3393 1.85813C10.3393 2.05721 10.2065 2.18994 10.0075 2.18994ZM11.4342 4.34669H5.82668C5.6276 4.34669 5.49487 4.21396 5.49487 4.01488C5.49487 3.8158 5.6276 3.68307 5.82668 3.68307H11.4342C11.6333 3.68307 11.766 3.8158 11.766 4.01488C11.766 4.21396 11.6333 4.34669 11.4342 4.34669ZM13.6905 6.53662H11.0361C10.837 6.53662 10.7043 6.4039 10.7043 6.20481C10.7043 6.00573 10.837 5.873 11.0361 5.873H13.6905C13.8896 5.873 14.0223 6.00573 14.0223 6.20481C14.0223 6.4039 13.8564 6.53662 13.6905 6.53662ZM11.9651 8.69337H5.82668C5.6276 8.69337 5.49487 8.56065 5.49487 8.36156C5.49487 8.16248 5.6276 8.02975 5.82668 8.02975H11.9651C12.1642 8.02975 12.2969 8.16248 12.2969 8.36156C12.2969 8.56065 12.1642 8.69337 11.9651 8.69337ZM13.6905 2.18994H12.2306C12.0315 2.18994 11.8988 2.05721 11.8988 1.85813C11.8988 1.65904 12.0315 1.52632 12.2306 1.52632H13.6905C13.8896 1.52632 14.0223 1.65904 14.0223 1.85813C14.0223 2.05721 13.8564 2.18994 13.6905 2.18994ZM13.6905 4.34669H12.9605C12.7615 4.34669 12.6287 4.21396 12.6287 4.01488C12.6287 3.8158 12.7615 3.68307 12.9605 3.68307H13.6905C13.8896 3.68307 14.0223 3.8158 14.0223 4.01488C14.0223 4.21396 13.8564 4.34669 13.6905 4.34669ZM8.77977 6.53662H5.82668C5.6276 6.53662 5.49487 6.4039 5.49487 6.20481C5.49487 6.00573 5.6276 5.873 5.82668 5.873H8.77977C8.97885 5.873 9.11158 6.00573 9.11158 6.20481C9.11158 6.4039 8.97885 6.53662 8.77977 6.53662ZM13.6905 15.1968H12.7283C12.5292 15.1968 12.3965 15.0641 12.3965 14.865C12.3965 14.6659 12.5292 14.5332 12.7283 14.5332H13.6905C13.8896 14.5332 14.0223 14.6659 14.0223 14.865C14.0223 15.0641 13.8564 15.1968 13.6905 15.1968ZM17.9045 11.6465H16.9422C16.7432 11.6465 16.6104 11.5137 16.6104 11.3147C16.6104 11.1156 16.7432 10.9828 16.9422 10.9828H17.9045C18.1036 10.9828 18.2363 11.1156 18.2363 11.3147C18.2363 11.5137 18.0704 11.6465 17.9045 11.6465ZM22.1184 8.992H21.1562C20.9571 8.992 20.8244 8.85927 20.8244 8.66019C20.8244 8.4611 20.9571 8.32838 21.1562 8.32838H22.1184C22.3175 8.32838 22.4503 8.4611 22.4503 8.66019C22.4503 8.85927 22.2843 8.992 22.1184 8.992ZM9.4102 11.5137H8.44796C8.24888 11.5137 8.11615 11.381 8.11615 11.1819C8.11615 10.9828 8.24888 10.8501 8.44796 10.8501H9.4102C9.60929 10.8501 9.74201 10.9828 9.74201 11.1819C9.74201 11.381 9.60929 11.5137 9.4102 11.5137ZM22.8152 23.0938H18.369C18.1699 23.0938 18.0372 22.9611 18.0372 22.762C18.0372 22.5629 18.1699 22.4302 18.369 22.4302H22.7821C22.9811 22.4302 23.1139 22.5629 23.1139 22.762C23.1139 22.9611 22.9811 23.0938 22.8152 23.0938ZM22.8152 24.8192H20.3267C20.1276 24.8192 19.9949 24.6865 19.9949 24.4874C19.9949 24.2883 20.1276 24.1556 20.3267 24.1556H22.8152C23.0143 24.1556 23.147 24.2883 23.147 24.4874C23.147 24.6865 22.9811 24.8192 22.8152 24.8192Z" fill="#465091"/>
<path d="M10.4056 23.7906C10.4056 26.6442 8.08293 29 5.22938 29C3.73624 29 2.30947 28.3696 1.31405 27.2414C-1.73858 23.7906 0.882697 18.349 5.52801 18.6144C8.28201 18.7803 10.4056 21.0698 10.4056 23.7906Z" fill="#FF8D50"/>
<path d="M5.22936 27.6064C7.33677 27.6064 9.04515 25.898 9.04515 23.7906C9.04515 21.6832 7.33677 19.9748 5.22936 19.9748C3.12196 19.9748 1.41357 21.6832 1.41357 23.7906C1.41357 25.898 3.12196 27.6064 5.22936 27.6064Z" fill="#FFD850"/>
<path d="M5.2293 26.611C3.66981 26.611 2.40894 25.3501 2.40894 23.7906C2.40894 22.2311 3.66981 20.9702 5.2293 20.9702C6.7888 20.9702 8.04967 22.2311 8.04967 23.7574C8.04967 25.3501 6.7888 26.611 5.2293 26.611Z" fill="#FFF173"/>
<path d="M5.56105 23.4588H4.89744C4.86425 23.4588 4.83107 23.4256 4.83107 23.3924V22.9611C4.83107 22.7952 4.9638 22.6625 5.1297 22.6625H5.2956C5.46151 22.6625 5.59423 22.7952 5.59423 22.9611C5.59423 23.1602 5.72695 23.2929 5.92604 23.2929C6.49011 23.2929 6.32421 22.2311 5.52787 22.032V21.667C5.52787 21.468 5.39515 21.3352 5.19606 21.3352C4.99698 21.3352 4.86425 21.468 4.86425 21.667V22.032C4.4329 22.1316 4.13428 22.5297 4.13428 22.9611V23.3924C4.13428 23.7906 4.46609 24.1224 4.86425 24.1224H5.52787C5.56105 24.1224 5.59423 24.1556 5.59423 24.1888V24.6201C5.59423 24.786 5.46151 24.9188 5.2956 24.9188H5.1297C4.9638 24.9188 4.83107 24.786 4.83107 24.6201C4.83107 24.421 4.69835 24.2883 4.49927 24.2883C3.93519 24.2883 4.1011 25.3501 4.89744 25.5492V25.9474C4.89744 26.1464 5.03016 26.2792 5.22924 26.2792C5.42833 26.2792 5.56105 26.1464 5.56105 25.9474V25.5824C5.9924 25.4828 6.29103 25.0847 6.29103 24.6533V24.222C6.29103 23.7906 5.95922 23.4588 5.56105 23.4588Z" fill="#FF8D50"/>
<path d="M5.56123 18.6144V19.9748C5.56123 20.1739 5.42851 20.3066 5.22942 20.3066C5.03034 20.3066 4.89762 20.1739 4.89762 19.9748V18.6144C5.0967 18.6144 5.32897 18.6144 5.56123 18.6144ZM5.56123 27.6064V29C5.32897 29 5.12988 29 4.89762 29V27.6064C4.89762 27.4073 5.03034 27.2746 5.22942 27.2746C5.42851 27.2746 5.56123 27.4073 5.56123 27.6064ZM10.4056 24.1224H9.04521C8.84613 24.1224 8.71341 23.9897 8.71341 23.7906C8.71341 23.5915 8.84613 23.4588 9.04521 23.4588H10.4056C10.4388 23.6911 10.4388 23.8902 10.4056 24.1224ZM1.74544 23.7906C1.74544 23.9897 1.61272 24.1224 1.41363 24.1224H0.0532227C0.0532227 23.8902 0.0532227 23.6911 0.0532227 23.4588H1.44682C1.61272 23.4588 1.74544 23.6247 1.74544 23.7906ZM9.11158 20.373L8.14933 21.3352C8.08297 21.4016 8.01661 21.4348 7.91707 21.4348C7.71798 21.4348 7.58526 21.2689 7.58526 21.103C7.58526 21.0034 7.61844 20.9371 7.6848 20.8707L8.64705 19.9085C8.81295 20.0412 8.97885 20.2071 9.11158 20.373ZM2.77405 26.7105L1.8118 27.7059C1.6459 27.5732 1.48 27.4073 1.34727 27.2414L2.3427 26.246C2.47542 26.1133 2.6745 26.1133 2.80723 26.246C2.90677 26.3787 2.90677 26.611 2.77405 26.7105ZM9.11158 27.2414C8.97885 27.4073 8.81295 27.5732 8.64705 27.7059L7.6848 26.7437C7.55208 26.611 7.55208 26.4119 7.6848 26.2792C7.81753 26.1464 8.01661 26.1464 8.14933 26.2792L9.11158 27.2414ZM2.77405 21.3352C2.64132 21.468 2.44224 21.468 2.30952 21.3352L1.34727 20.3398C1.48 20.1739 1.6459 20.008 1.8118 19.8753L2.77405 20.8707C2.90677 21.0034 2.90677 21.2357 2.77405 21.3352Z" fill="#FFD850"/>
</svg>
