<svg width="21" height="29" viewBox="0 0 21 29" fill="none" xmlns="http://www.w3.org/2000/svg">
<path d="M20.7703 5.50411V29H0V0H15.2658L20.7703 5.50411Z" fill="#EBEBEB"/>
<path d="M20.7702 5.50411H15.2656V0L20.7702 5.50411Z" fill="#455C6C"/>
<path d="M2.48853 4.69029H13.4714V5.50411H2.48853V4.69029ZM2.48853 6.77195H13.4714V7.58576H2.48853V6.77195ZM2.48853 8.8536H18.018V9.66742H2.48853V8.8536ZM2.48853 10.9353H18.018V11.7491H2.48853V10.9353ZM2.48853 13.0169H10.2533V13.8307H2.48853V13.0169ZM2.48853 15.0986H10.2533V15.9124H2.48853V15.0986ZM2.48853 17.1802H10.2533V17.994H2.48853V17.1802ZM2.48853 19.2619H18.018V20.0757H2.48853V19.2619ZM2.48853 21.3435H18.018V22.1574H2.48853V21.3435ZM2.48853 23.4252H18.018V24.239H2.48853V23.4252ZM2.48853 25.5073H18.018V26.3211H2.48853V25.5073Z" fill="#788D9A"/>
<path d="M16.8716 17.3103C17.2377 16.7797 17.4334 16.1501 17.4326 15.5055C17.4329 14.7255 17.1457 13.9728 16.626 13.3912L14.2449 15.5055L16.8716 17.3103Z" fill="#E6AC42"/>
<path d="M16.6258 13.3912C16.3456 13.0743 16.0049 12.8164 15.6238 12.6329C15.2426 12.4494 14.8286 12.3438 14.4061 12.3223C13.9836 12.3009 13.5611 12.364 13.1633 12.508C12.7655 12.6521 12.4005 12.8741 12.0896 13.161L14.2447 15.5055L16.6258 13.3912Z" fill="#64C6BE"/>
<path d="M14.2447 15.5055L13.5781 18.6225C14.1953 18.755 14.838 18.7009 15.4244 18.4673C16.0108 18.2336 16.5145 17.8309 16.8714 17.3103L14.2447 15.5055Z" fill="#989898"/>
<path d="M12.0898 13.161C11.7642 13.4586 11.5042 13.8208 11.3264 14.2245C11.1485 14.6281 11.0566 15.0644 11.0566 15.5055C11.056 15.9242 11.1382 16.339 11.2985 16.7259C11.4588 17.1128 11.694 17.4641 11.9905 17.7598L14.2448 15.5055L12.0898 13.161Z" fill="#5CAED7"/>
<path d="M11.9905 17.7598C12.4253 18.1947 12.9768 18.4944 13.5782 18.6225L14.2448 15.5055L11.9905 17.7598Z" fill="#CA3941"/>
</svg>
