<svg width="31" height="31" viewBox="0 0 31 31" fill="none" xmlns="http://www.w3.org/2000/svg">
<g clip-path="url(#clip0_208_1164)">
<path fill-rule="evenodd" clip-rule="evenodd" d="M25.1875 2.90625C25.1875 2.13547 24.8813 1.39625 24.3363 0.851219C23.7913 0.306192 23.052 6.46729e-07 22.2812 6.46729e-07H2.90625C2.52452 -0.000254092 2.14649 0.0747475 1.79378 0.22071C1.44106 0.366672 1.12058 0.580737 0.850658 0.850658C0.580737 1.12058 0.366672 1.44106 0.22071 1.79378C0.0747475 2.14649 -0.000254092 2.52452 6.46729e-07 2.90625V15.5C6.46729e-07 16.2708 0.306192 17.01 0.851219 17.555C1.39625 18.1001 2.13547 18.4062 2.90625 18.4062H22.2812C22.663 18.4065 23.041 18.3315 23.3937 18.1855C23.7464 18.0396 24.0669 17.8255 24.3368 17.5556C24.6068 17.2857 24.8208 16.9652 24.9668 16.6125C25.1128 16.2598 25.1878 15.8817 25.1875 15.5V2.90625Z" fill="#F6B541"/>
<path fill-rule="evenodd" clip-rule="evenodd" d="M0.740132 0.96875C0.263448 1.50153 -7.29301e-05 2.19135 1.51399e-08 2.90625V15.5C1.51399e-08 16.2711 0.306123 17.0103 0.851529 17.5547C1.12121 17.8248 1.44151 18.039 1.79409 18.1851C2.14666 18.3312 2.5246 18.4064 2.90625 18.4062H22.2812C23.0524 18.4062 23.7915 18.1001 24.336 17.5547C24.606 17.285 24.8202 16.9647 24.9664 16.6122C25.1125 16.2596 25.1876 15.8817 25.1875 15.5V2.90625C25.1875 2.18937 24.923 1.50059 24.4474 0.96875L13.8938 6.24554C13.4902 6.44764 13.0451 6.55287 12.5938 6.55287C12.1424 6.55287 11.6973 6.44764 11.2937 6.24554L0.740132 0.96875Z" fill="#FDCE66"/>
<path fill-rule="evenodd" clip-rule="evenodd" d="M25.0218 13.9985C24.9806 13.8171 24.8881 13.6514 24.7553 13.5212C24.6225 13.391 24.4551 13.3018 24.2729 13.2642C23.0744 13.0153 21.8376 13.0153 20.6391 13.2642C20.457 13.3018 20.2895 13.391 20.1568 13.5212C20.024 13.6514 19.9315 13.8171 19.8903 13.9985L19.4718 15.8372C19.1599 15.9854 18.8615 16.1598 18.5767 16.3545C18.5767 16.3525 16.7748 15.7965 16.7748 15.7965C16.5971 15.7417 16.4075 15.7391 16.2284 15.7889C16.0493 15.8387 15.8883 15.9388 15.7644 16.0774C14.9511 16.9924 14.333 18.0637 13.948 19.2258C13.8898 19.4022 13.8835 19.5916 13.9299 19.7714C13.9762 19.9512 14.0733 20.1139 14.2095 20.2401L15.592 21.5218C15.5655 21.8662 15.5655 22.212 15.592 22.5564L14.2095 23.8371C14.0731 23.9634 13.9759 24.1263 13.9296 24.3063C13.8832 24.4863 13.8896 24.6759 13.948 24.8523C14.333 26.0144 14.9511 27.0858 15.7644 28.0008C16.0172 28.2817 16.4125 28.3941 16.7748 28.2817L18.5767 27.7257C18.8615 27.9184 19.1599 28.0918 19.4718 28.241L19.8903 30.0797C19.9315 30.2611 20.024 30.4268 20.1568 30.557C20.2895 30.6872 20.457 30.7764 20.6391 30.814C21.8373 31.0628 23.0738 31.0628 24.2719 30.814C24.4543 30.7766 24.6219 30.6874 24.7549 30.5572C24.8879 30.427 24.9805 30.2612 25.0218 30.0797L25.4403 28.241C25.7512 28.0918 26.0506 27.9184 26.3354 27.7237C26.3354 27.7257 28.1373 28.2807 28.1373 28.2807C28.4996 28.3941 28.8939 28.2827 29.1467 27.9998C29.9604 27.0849 30.5788 26.0136 30.9641 24.8514C31.0223 24.675 31.0286 24.4857 30.9822 24.3058C30.9358 24.126 30.8387 23.9633 30.7025 23.8371L29.3191 22.5564C29.3456 22.212 29.3456 21.8662 29.3191 21.5218L30.7025 20.2401C30.8387 20.1139 30.9358 19.9512 30.9822 19.7714C31.0286 19.5916 31.0223 19.4022 30.9641 19.2258C30.5788 18.0637 29.9604 16.9923 29.1467 16.0774C29.0228 15.9388 28.8618 15.8387 28.6827 15.7889C28.5036 15.7391 28.314 15.7417 28.1363 15.7965L26.3344 16.3525C26.0497 16.1586 25.7508 15.9864 25.4403 15.8372L25.0218 13.9985Z" fill="#4A7ED3"/>
<path d="M22.456 25.5653C24.4035 25.5653 25.9823 23.9865 25.9823 22.039C25.9823 20.0915 24.4035 18.5127 22.456 18.5127C20.5085 18.5127 18.9297 20.0915 18.9297 22.039C18.9297 23.9865 20.5085 25.5653 22.456 25.5653Z" fill="#E6E6E6"/>
</g>
<defs>
<clipPath id="clip0_208_1164">
<rect width="31" height="31" fill="white"/>
</clipPath>
</defs>
</svg>
