<svg width="31" height="31" viewBox="0 0 31 31" fill="none" xmlns="http://www.w3.org/2000/svg">
<path d="M20.2227 31H3.09516C2.05375 31 1.21094 30.1572 1.21094 29.1158V1.88422C1.21578 0.842813 2.05859 0 3.09516 0H20.2227C21.2641 0 22.1069 0.842813 22.1069 1.88422V29.1206C22.102 30.1572 21.2592 31 20.2227 31Z" fill="#365470"/>
<path d="M20.7119 3.13875V26.0109C20.7119 26.2628 20.4987 26.4711 20.2372 26.4711H3.08061C2.81904 26.4711 2.60107 26.2628 2.60107 26.0109V3.13875C2.60107 2.88688 2.81904 2.68344 3.08061 2.68344H20.2323C20.4987 2.68344 20.7119 2.88688 20.7119 3.13875Z" fill="#7CA3C2"/>
<path d="M13.1508 28.7331C13.1508 29.5566 12.4823 30.225 11.6589 30.225C10.8354 30.225 10.167 29.5566 10.167 28.7331C10.167 27.9097 10.8354 27.2413 11.6589 27.2413C12.4823 27.2413 13.1508 27.9097 13.1508 28.7331ZM13.9354 1.09953H9.38232C9.2467 1.09953 9.14014 1.2061 9.14014 1.34172C9.14014 1.47735 9.2467 1.58391 9.38232 1.58391H13.9354C14.0711 1.58391 14.1776 1.47735 14.1776 1.34172C14.1776 1.2061 14.0711 1.09953 13.9354 1.09953Z" fill="#214056"/>
<path d="M20.7119 26.0109C20.7119 26.2628 20.4987 26.4711 20.2372 26.4711H3.08061C2.81904 26.4711 2.60107 26.2628 2.60107 26.0109V3.13875C2.60107 2.88688 2.81904 2.68344 3.08061 2.68344L20.7119 26.0109Z" fill="#6C99B7"/>
<path d="M16.4784 15.5048V21.8889C16.4784 22.0245 16.585 22.1311 16.7206 22.1311H29.542C29.6776 22.1311 29.7842 22.0245 29.7842 21.8889V7.72578C29.7842 6.74734 28.9898 5.95781 28.0162 5.95781H14.7104L16.4784 15.5048Z" fill="#F4F2F2"/>
<path d="M16.4784 15.5048H12.9425V7.72094C12.9425 6.7425 13.7369 5.95297 14.7105 5.95297C15.6889 5.95297 16.4784 6.74735 16.4784 7.72094V15.5048ZM4.23828 6.19516H11.16C11.2956 6.19516 11.4022 6.0886 11.4022 5.95297C11.4022 5.81735 11.2956 5.71078 11.16 5.71078H4.23828C4.10266 5.71078 3.99609 5.81735 3.99609 5.95297C3.99609 6.0886 4.1075 6.19516 4.23828 6.19516ZM4.23828 9.05297H11.16C11.2956 9.05297 11.4022 8.94641 11.4022 8.81078C11.4022 8.67516 11.2956 8.5686 11.16 8.5686H4.23828C4.10266 8.5686 3.99609 8.67516 3.99609 8.81078C3.99609 8.94641 4.1075 9.05297 4.23828 9.05297ZM4.23828 11.9156H11.16C11.2956 11.9156 11.4022 11.8091 11.4022 11.6734C11.4022 11.5378 11.2956 11.4313 11.16 11.4313H4.23828C4.10266 11.4313 3.99609 11.5378 3.99609 11.6734C3.99609 11.8091 4.1075 11.9156 4.23828 11.9156ZM4.23828 14.7734H11.16C11.2956 14.7734 11.4022 14.6669 11.4022 14.5313C11.4022 14.3956 11.2956 14.2891 11.16 14.2891H4.23828C4.10266 14.2891 3.99609 14.3956 3.99609 14.5313C3.99609 14.6669 4.1075 14.7734 4.23828 14.7734ZM4.23828 17.6361H14.5312C14.6669 17.6361 14.7734 17.5295 14.7734 17.3939C14.7734 17.2583 14.6669 17.1517 14.5312 17.1517H4.23828C4.10266 17.1517 3.99609 17.2583 3.99609 17.3939C3.99609 17.5247 4.1075 17.6361 4.23828 17.6361ZM14.5312 20.0095H4.23828C4.10266 20.0095 3.99609 20.1161 3.99609 20.2517C3.99609 20.3873 4.10266 20.4939 4.23828 20.4939H14.5312C14.6669 20.4939 14.7734 20.3873 14.7734 20.2517C14.7734 20.1209 14.662 20.0095 14.5312 20.0095ZM14.5312 22.8722H4.23828C4.10266 22.8722 3.99609 22.9788 3.99609 23.1144C3.99609 23.25 4.10266 23.3566 4.23828 23.3566H14.5312C14.6669 23.3566 14.7734 23.25 14.7734 23.1144C14.7734 22.9788 14.662 22.8722 14.5312 22.8722Z" fill="#E9E9E9"/>
<path d="M27.2119 14.7396C27.6227 12.4868 26.1295 10.3276 23.8767 9.91676C21.624 9.50595 19.4647 10.9991 19.0539 13.2519C18.6431 15.5047 20.1363 17.6639 22.389 18.0747C24.6418 18.4855 26.8011 16.9924 27.2119 14.7396Z" fill="#EAAE6E"/>
<path d="M26.3643 13.9984C26.3643 15.7858 24.916 17.2341 23.1287 17.2341C21.3413 17.2341 19.8931 15.7858 19.8931 13.9984C19.8931 12.2111 21.3413 10.7628 23.1287 10.7628C24.916 10.7628 26.3643 12.2111 26.3643 13.9984Z" fill="#F0BB73"/>
<path d="M23.7196 14.0275L23.3514 13.858V12.3952C23.6517 12.4436 23.8842 12.7052 23.8842 13.0345C23.8842 13.1556 23.9811 13.2428 24.1022 13.2428C24.2233 13.2428 24.3202 13.1363 24.3202 13.0152C24.3202 12.4581 23.8891 12.0028 23.3466 11.9544V11.6928C23.3466 11.5717 23.2497 11.4749 23.1286 11.4749C23.0075 11.4749 22.9106 11.5717 22.9106 11.6928V11.9544C22.6588 11.9786 22.4311 12.0803 22.2567 12.2595C22.0533 12.4581 21.9419 12.7342 21.9419 13.0394C21.9516 13.4463 22.1841 13.7999 22.5474 13.9645L22.9155 14.1341V15.5969C22.6152 15.5484 22.3827 15.2869 22.3827 14.972V14.9575C22.3827 14.8364 22.2858 14.7444 22.1647 14.7444C22.0436 14.7444 21.9467 14.8509 21.9467 14.972C21.9467 15.5291 22.3778 15.9844 22.9203 16.0377V16.2992C22.9203 16.4203 23.0172 16.5172 23.1383 16.5172C23.2594 16.5172 23.3563 16.4203 23.3563 16.2992V16.0377C23.8988 15.9892 24.3299 15.5291 24.3299 14.9527C24.3153 14.5506 24.1022 14.2261 23.7196 14.0275ZM22.7266 13.5722C22.5135 13.4753 22.3827 13.267 22.3778 13.02C22.3778 12.8553 22.4456 12.6906 22.5667 12.5744C22.6588 12.4775 22.7847 12.4291 22.9106 12.4097V13.6594L22.7266 13.5722ZM23.3514 15.6017V14.3424L23.5258 14.4247C23.7583 14.5409 23.8794 14.725 23.8842 14.9769C23.8842 15.2917 23.6517 15.5533 23.3514 15.6017Z" fill="white"/>
</svg>
