<svg width="36" height="31" viewBox="0 0 36 31" fill="none" xmlns="http://www.w3.org/2000/svg">
<path d="M31.0001 0H15.5001C14.8887 0 14.393 0.495685 14.393 1.10714V25.4643C14.393 26.0757 14.8887 26.5714 15.5001 26.5714H31.0001C31.6116 26.5714 32.1073 26.0757 32.1073 25.4643V1.10714C32.1073 0.495685 31.6116 0 31.0001 0Z" fill="#50D9D7"/>
<path d="M31 3.32143V23.25C30.4128 23.25 29.8496 23.4833 29.4343 23.8985C29.019 24.3138 28.7857 24.877 28.7857 25.4643H17.7143C17.7143 24.877 17.481 24.3138 17.0658 23.8985C16.6505 23.4833 16.0873 23.25 15.5 23.25V3.32143C16.0873 3.32143 16.6505 3.08814 17.0658 2.67288C17.481 2.25762 17.7143 1.6944 17.7143 1.10714H28.7857C28.7857 1.6944 29.019 2.25762 29.4343 2.67288C29.8496 3.08814 30.4128 3.32143 31 3.32143Z" fill="#00BEBD"/>
<path d="M28.7858 13.2857C28.7863 14.2839 28.5169 15.2636 28.0062 16.1212C27.4954 16.9787 26.7623 17.6823 25.8844 18.1573C25.0065 18.6323 24.0165 18.8611 23.0192 18.8195C22.022 18.7778 21.0545 18.4673 20.2192 17.9209C19.384 17.3744 18.712 16.6122 18.2745 15.715C17.837 14.8179 17.6502 13.8191 17.7338 12.8245C17.8175 11.8298 18.1686 10.8763 18.7498 10.0649C19.3311 9.25344 20.121 8.61426 21.0358 8.215C21.878 7.84742 22.7985 7.6953 23.7142 7.77233C24.6298 7.84937 25.512 8.15315 26.2809 8.65627C27.0499 9.15939 27.6815 9.84602 28.1188 10.6542C28.5561 11.4624 28.7853 12.3668 28.7858 13.2857Z" fill="#50D9D7"/>
<path d="M26.5715 13.0089V14.9464C26.5715 15.0932 26.5132 15.234 26.4094 15.3379C26.3056 15.4417 26.1648 15.5 26.0179 15.5C25.8711 15.5 25.7303 15.4417 25.6265 15.3379C25.5227 15.234 25.4644 15.0932 25.4644 14.9464V13.0089C25.4644 12.7887 25.3769 12.5775 25.2212 12.4218C25.0654 12.2661 24.8542 12.1786 24.634 12.1786C24.4138 12.1786 24.2026 12.2661 24.0469 12.4218C23.8911 12.5775 23.8036 12.7887 23.8036 13.0089V13.5625C23.8036 14.0764 23.5995 14.5692 23.2362 14.9325C22.8728 15.2959 22.38 15.5 21.8661 15.5C21.3523 15.5 20.8595 15.2959 20.4961 14.9325C20.1328 14.5692 19.9286 14.0764 19.9286 13.5625V11.625C19.9286 11.4782 19.987 11.3374 20.0908 11.2336C20.1946 11.1297 20.3354 11.0714 20.4822 11.0714C20.629 11.0714 20.7698 11.1297 20.8737 11.2336C20.9775 11.3374 21.0358 11.4782 21.0358 11.625V13.5625C21.0358 13.7827 21.1233 13.9939 21.279 14.1496C21.4347 14.3054 21.6459 14.3929 21.8661 14.3929C22.0864 14.3929 22.2976 14.3054 22.4533 14.1496C22.609 13.9939 22.6965 13.7827 22.6965 13.5625V13.0089C22.6965 12.4951 22.9006 12.0023 23.264 11.6389C23.6273 11.2756 24.1202 11.0714 24.634 11.0714C25.1479 11.0714 25.6407 11.2756 26.004 11.6389C26.3674 12.0023 26.5715 12.4951 26.5715 13.0089Z" fill="#FDFDFD"/>
<path d="M27.1251 13.8393H26.0179C25.8711 13.8393 25.7303 13.781 25.6265 13.6772C25.5227 13.5733 25.4644 13.4325 25.4644 13.2857C25.4644 13.1389 25.5227 12.9981 25.6265 12.8943C25.7303 12.7905 25.8711 12.7321 26.0179 12.7321H27.1251C27.2719 12.7321 27.4127 12.7905 27.5165 12.8943C27.6203 12.9981 27.6786 13.1389 27.6786 13.2857C27.6786 13.4325 27.6203 13.5733 27.5165 13.6772C27.4127 13.781 27.2719 13.8393 27.1251 13.8393Z" fill="#FDFDFD"/>
<path d="M22.6964 5.53571V3.32142C22.6964 3.17461 22.7547 3.0338 22.8585 2.92999C22.9624 2.82618 23.1032 2.76785 23.25 2.76785C23.3968 2.76785 23.5376 2.82618 23.6414 2.92999C23.7452 3.0338 23.8036 3.17461 23.8036 3.32142V5.53571C23.8036 5.68253 23.7452 5.82333 23.6414 5.92714C23.5376 6.03096 23.3968 6.08928 23.25 6.08928C23.1032 6.08928 22.9624 6.03096 22.8585 5.92714C22.7547 5.82333 22.6964 5.68253 22.6964 5.53571ZM22.6964 23.25V21.0357C22.6964 20.8889 22.7547 20.7481 22.8585 20.6443C22.9624 20.5405 23.1032 20.4821 23.25 20.4821C23.3968 20.4821 23.5376 20.5405 23.6414 20.6443C23.7452 20.7481 23.8036 20.8889 23.8036 21.0357V23.25C23.8036 23.3968 23.7452 23.5376 23.6414 23.6414C23.5376 23.7452 23.3968 23.8036 23.25 23.8036C23.1032 23.8036 22.9624 23.7452 22.8585 23.6414C22.7547 23.5376 22.6964 23.3968 22.6964 23.25Z" fill="#50D9D7"/>
<path d="M26.0179 28.7857H18.2679C17.9622 28.7857 17.7144 29.0335 17.7144 29.3393V30.4464C17.7144 30.7521 17.9622 31 18.2679 31H26.0179C26.3237 31 26.5715 30.7521 26.5715 30.4464V29.3393C26.5715 29.0335 26.3237 28.7857 26.0179 28.7857Z" fill="#D8890B"/>
<path d="M26.0179 26.5714H18.2679C17.9622 26.5714 17.7144 26.8193 17.7144 27.125V28.2321C17.7144 28.5379 17.9622 28.7857 18.2679 28.7857H26.0179C26.3237 28.7857 26.5715 28.5379 26.5715 28.2321V27.125C26.5715 26.8193 26.3237 26.5714 26.0179 26.5714Z" fill="#EA9807"/>
<path d="M34.875 28.7857H27.125C26.8193 28.7857 26.5714 29.0335 26.5714 29.3393V30.4464C26.5714 30.7521 26.8193 31 27.125 31H34.875C35.1807 31 35.4286 30.7521 35.4286 30.4464V29.3393C35.4286 29.0335 35.1807 28.7857 34.875 28.7857Z" fill="#EA9807"/>
<path d="M34.875 26.5714H27.125C26.8193 26.5714 26.5714 26.8193 26.5714 27.125V28.2321C26.5714 28.5379 26.8193 28.7857 27.125 28.7857H34.875C35.1807 28.7857 35.4286 28.5379 35.4286 28.2321V27.125C35.4286 26.8193 35.1807 26.5714 34.875 26.5714Z" fill="#FFAC00"/>
<path d="M21.0358 25.4643V26.5714H15.5001C15.2065 26.5714 14.9249 26.4548 14.7172 26.2472C14.5096 26.0395 14.393 25.7579 14.393 25.4643V3.32143H15.5001V23.25C16.0874 23.25 16.6506 23.4833 17.0659 23.8985C17.4811 24.3138 17.7144 24.877 17.7144 25.4643H21.0358Z" fill="#00BEBD"/>
<path d="M21.0357 18.3564V25.4643H17.7143C17.7143 24.877 17.481 24.3138 17.0658 23.8985C16.6505 23.4833 16.0873 23.25 15.5 23.25V3.32143H18.2679C19.002 3.32143 19.706 3.61304 20.2251 4.13211C20.7441 4.65119 21.0357 5.3552 21.0357 6.08928V8.215C20.0502 8.64663 19.2118 9.3561 18.6231 10.2567C18.0344 11.1572 17.7208 12.2098 17.7208 13.2857C17.7208 14.3616 18.0344 15.4142 18.6231 16.3148C19.2118 17.2153 20.0502 17.9248 21.0357 18.3564Z" fill="#00AAA8"/>
<path d="M26.0179 24.3571H18.2679C17.9622 24.3571 17.7144 24.605 17.7144 24.9107V26.0179C17.7144 26.3236 17.9622 26.5714 18.2679 26.5714H26.0179C26.3237 26.5714 26.5715 26.3236 26.5715 26.0179V24.9107C26.5715 24.605 26.3237 24.3571 26.0179 24.3571Z" fill="#FFAC00"/>
<path d="M19.9286 11.625V13.5625C19.9285 13.9283 20.0326 14.2865 20.2287 14.5953C20.4247 14.9041 20.7047 15.1507 21.0357 15.3062V18.3564C20.0502 17.9248 19.2118 17.2153 18.623 16.3148C18.0343 15.4142 17.7208 14.3616 17.7208 13.2857C17.7208 12.2098 18.0343 11.1572 18.623 10.2567C19.2118 9.3561 20.0502 8.64663 21.0357 8.215V11.625C21.0357 11.4782 20.9774 11.3374 20.8736 11.2336C20.7697 11.1297 20.6289 11.0714 20.4821 11.0714C20.3353 11.0714 20.1945 11.1297 20.0907 11.2336C19.9869 11.3374 19.9286 11.4782 19.9286 11.625Z" fill="#00BEBD"/>
<path d="M21.0358 11.625V15.3062C20.7047 15.1507 20.4248 14.9041 20.2288 14.5953C20.0327 14.2865 19.9286 13.9283 19.9286 13.5625V11.625C19.9286 11.4782 19.987 11.3374 20.0908 11.2336C20.1946 11.1297 20.3354 11.0714 20.4822 11.0714C20.629 11.0714 20.7698 11.1297 20.8737 11.2336C20.9775 11.3374 21.0358 11.4782 21.0358 11.625Z" fill="#F3F3F3"/>
<path d="M21.0358 26.5714V28.7857H18.2679C18.1211 28.7857 17.9803 28.7274 17.8765 28.6236C17.7727 28.5198 17.7144 28.379 17.7144 28.2321V27.125C17.7144 26.9782 17.7727 26.8374 17.8765 26.7336C17.9803 26.6297 18.1211 26.5714 18.2679 26.5714H21.0358Z" fill="#D8890B"/>
<path d="M21.0358 24.3571V26.5714H18.2679C18.1211 26.5714 17.9803 26.5131 17.8765 26.4093C17.7727 26.3055 17.7144 26.1647 17.7144 26.0179V24.9107C17.7144 24.7639 17.7727 24.6231 17.8765 24.5193C17.9803 24.4155 18.1211 24.3571 18.2679 24.3571H21.0358Z" fill="#EA9807"/>
<path d="M18.2679 28.7857H21.0358C21.1357 29.5671 20.9381 30.3575 20.4822 31H18.2679C18.1211 31 17.9803 30.9417 17.8765 30.8379C17.7727 30.734 17.7144 30.5932 17.7144 30.4464V29.3393C17.7144 29.1925 17.7727 29.0517 17.8765 28.9478C17.9803 28.844 18.1211 28.7857 18.2679 28.7857Z" fill="#C97B0A"/>
<path d="M18.2679 4.42857H1.66074C0.743558 4.42857 3.05176e-05 5.1721 3.05176e-05 6.08929V29.3393C3.05176e-05 30.2565 0.743558 31 1.66074 31H18.2679C19.1851 31 19.9286 30.2565 19.9286 29.3393V6.08929C19.9286 5.1721 19.1851 4.42857 18.2679 4.42857Z" fill="#93E6E5"/>
<path d="M2.21431 6.08929H17.7143C17.8611 6.08929 18.0019 6.14761 18.1057 6.25142C18.2096 6.35524 18.2679 6.49604 18.2679 6.64286V12.1786H1.66074V6.64286C1.66074 6.49604 1.71906 6.35524 1.82287 6.25142C1.92669 6.14761 2.06749 6.08929 2.21431 6.08929Z" fill="white"/>
<path d="M4.42859 13.2857H2.21431C1.90858 13.2857 1.66074 13.5336 1.66074 13.8393V16.0536C1.66074 16.3593 1.90858 16.6071 2.21431 16.6071H4.42859C4.73432 16.6071 4.98216 16.3593 4.98216 16.0536V13.8393C4.98216 13.5336 4.73432 13.2857 4.42859 13.2857Z" fill="#50D9D7"/>
<path d="M8.85721 13.2857H6.64293C6.3372 13.2857 6.08936 13.5336 6.08936 13.8393V16.0536C6.08936 16.3593 6.3372 16.6071 6.64293 16.6071H8.85721C9.16294 16.6071 9.41078 16.3593 9.41078 16.0536V13.8393C9.41078 13.5336 9.16294 13.2857 8.85721 13.2857Z" fill="#50D9D7"/>
<path d="M13.2858 13.2857H11.0715C10.7658 13.2857 10.518 13.5336 10.518 13.8393V16.0536C10.518 16.3593 10.7658 16.6071 11.0715 16.6071H13.2858C13.5916 16.6071 13.8394 16.3593 13.8394 16.0536V13.8393C13.8394 13.5336 13.5916 13.2857 13.2858 13.2857Z" fill="#50D9D7"/>
<path d="M17.7143 13.2857H15.5C15.1943 13.2857 14.9464 13.5336 14.9464 13.8393V16.0536C14.9464 16.3593 15.1943 16.6071 15.5 16.6071H17.7143C18.02 16.6071 18.2678 16.3593 18.2678 16.0536V13.8393C18.2678 13.5336 18.02 13.2857 17.7143 13.2857Z" fill="white"/>
<path d="M4.42859 17.7143H2.21431C1.90858 17.7143 1.66074 17.9621 1.66074 18.2679V20.4821C1.66074 20.7879 1.90858 21.0357 2.21431 21.0357H4.42859C4.73432 21.0357 4.98216 20.7879 4.98216 20.4821V18.2679C4.98216 17.9621 4.73432 17.7143 4.42859 17.7143Z" fill="#50D9D7"/>
<path d="M8.85721 17.7143H6.64293C6.3372 17.7143 6.08936 17.9621 6.08936 18.2679V20.4821C6.08936 20.7879 6.3372 21.0357 6.64293 21.0357H8.85721C9.16294 21.0357 9.41078 20.7879 9.41078 20.4821V18.2679C9.41078 17.9621 9.16294 17.7143 8.85721 17.7143Z" fill="#50D9D7"/>
<path d="M13.2858 17.7143H11.0715C10.7658 17.7143 10.518 17.9621 10.518 18.2679V20.4821C10.518 20.7879 10.7658 21.0357 11.0715 21.0357H13.2858C13.5916 21.0357 13.8394 20.7879 13.8394 20.4821V18.2679C13.8394 17.9621 13.5916 17.7143 13.2858 17.7143Z" fill="#50D9D7"/>
<path d="M17.7143 17.7143H15.5C15.1943 17.7143 14.9464 17.9621 14.9464 18.2679V20.4821C14.9464 20.7879 15.1943 21.0357 15.5 21.0357H17.7143C18.02 21.0357 18.2678 20.7879 18.2678 20.4821V18.2679C18.2678 17.9621 18.02 17.7143 17.7143 17.7143Z" fill="white"/>
<path d="M4.42859 22.1429H2.21431C1.90858 22.1429 1.66074 22.3907 1.66074 22.6964V24.9107C1.66074 25.2164 1.90858 25.4643 2.21431 25.4643H4.42859C4.73432 25.4643 4.98216 25.2164 4.98216 24.9107V22.6964C4.98216 22.3907 4.73432 22.1429 4.42859 22.1429Z" fill="#50D9D7"/>
<path d="M8.85721 22.1429H6.64293C6.3372 22.1429 6.08936 22.3907 6.08936 22.6964V24.9107C6.08936 25.2164 6.3372 25.4643 6.64293 25.4643H8.85721C9.16294 25.4643 9.41078 25.2164 9.41078 24.9107V22.6964C9.41078 22.3907 9.16294 22.1429 8.85721 22.1429Z" fill="#50D9D7"/>
<path d="M13.2858 22.1429H11.0715C10.7658 22.1429 10.518 22.3907 10.518 22.6964V24.9107C10.518 25.2164 10.7658 25.4643 11.0715 25.4643H13.2858C13.5916 25.4643 13.8394 25.2164 13.8394 24.9107V22.6964C13.8394 22.3907 13.5916 22.1429 13.2858 22.1429Z" fill="#50D9D7"/>
<path d="M4.42859 26.5714H2.21431C1.90858 26.5714 1.66074 26.8193 1.66074 27.125V29.3393C1.66074 29.645 1.90858 29.8929 2.21431 29.8929H4.42859C4.73432 29.8929 4.98216 29.645 4.98216 29.3393V27.125C4.98216 26.8193 4.73432 26.5714 4.42859 26.5714Z" fill="#50D9D7"/>
<path d="M8.85721 26.5714H6.64293C6.3372 26.5714 6.08936 26.8193 6.08936 27.125V29.3393C6.08936 29.645 6.3372 29.8929 6.64293 29.8929H8.85721C9.16294 29.8929 9.41078 29.645 9.41078 29.3393V27.125C9.41078 26.8193 9.16294 26.5714 8.85721 26.5714Z" fill="#50D9D7"/>
<path d="M13.2858 26.5714H11.0715C10.7658 26.5714 10.518 26.8193 10.518 27.125V29.3393C10.518 29.645 10.7658 29.8929 11.0715 29.8929H13.2858C13.5916 29.8929 13.8394 29.645 13.8394 29.3393V27.125C13.8394 26.8193 13.5916 26.5714 13.2858 26.5714Z" fill="#50D9D7"/>
<path d="M17.7143 22.1429H15.5C15.1943 22.1429 14.9464 22.3907 14.9464 22.6964V29.3393C14.9464 29.645 15.1943 29.8929 15.5 29.8929H17.7143C18.02 29.8929 18.2678 29.645 18.2678 29.3393V22.6964C18.2678 22.3907 18.02 22.1429 17.7143 22.1429Z" fill="#FFAC00"/>
</svg>
