<svg width="27" height="31" viewBox="0 0 27 31" fill="none" xmlns="http://www.w3.org/2000/svg">
<path d="M0 0H22.7755V29.102H0V0Z" fill="#E3E4E5"/>
<path d="M18.3469 0V12.3272C18.3469 13.6993 18.0767 15.058 17.5516 16.3256C17.0265 17.5933 16.2569 18.7451 15.2867 19.7153C14.3165 20.6855 13.1647 21.4551 11.8971 21.9802C10.6294 22.5053 9.27076 22.7755 7.89867 22.7755H0V0H18.3469Z" fill="#EDEDED"/>
<path d="M13.9182 5.69388H12.6529V4.42858C12.6529 4.093 12.5195 3.77116 12.2823 3.53387C12.045 3.29658 11.7231 3.16327 11.3875 3.16327C11.052 3.16327 10.7301 3.29658 10.4928 3.53387C10.2555 3.77116 10.1222 4.093 10.1222 4.42858V5.69388H8.85693V4.42858C8.85693 3.75742 9.12355 3.11375 9.59813 2.63916C10.0727 2.16458 10.7164 1.89796 11.3875 1.89796C12.0587 1.89796 12.7024 2.16458 13.177 2.63916C13.6515 3.11375 13.9182 3.75742 13.9182 4.42858V5.69388Z" fill="#EDD056"/>
<path d="M17.7141 11.3877H5.06104C5.06104 9.70985 5.72758 8.10067 6.91403 6.91422C8.10049 5.72776 9.70967 5.06122 11.3876 5.06122C11.4951 5.06122 11.5963 5.06122 11.6976 5.06754H11.7102C13.3299 5.1518 14.8556 5.8543 15.9727 7.03022C17.0897 8.20614 17.713 9.76583 17.7141 11.3877Z" fill="#EDD364"/>
<path d="M17.7143 11.3878H5.69385C5.69336 9.76538 6.31616 8.20482 7.43353 7.02857C8.55091 5.85233 10.0775 5.15029 11.6977 5.06755H11.7104C13.3301 5.15181 14.8558 5.85431 15.9728 7.03023C17.0899 8.20614 17.7132 9.76584 17.7143 11.3878V11.3878Z" fill="#F4DB73"/>
<path d="M15.0184 9.48347C14.9165 9.48352 14.8162 9.45898 14.7259 9.41195C14.6356 9.36492 14.5579 9.29678 14.4996 9.21333C14.0052 8.50807 13.2868 7.99078 12.4612 7.74557C12.3037 7.69528 12.1722 7.58535 12.0947 7.43931C12.0173 7.29327 12.0001 7.12271 12.0468 6.96414C12.0935 6.80557 12.2004 6.67158 12.3447 6.59084C12.4889 6.5101 12.659 6.48904 12.8186 6.53215C13.9204 6.8581 14.8793 7.54762 15.539 8.48831C15.6053 8.58311 15.6443 8.69426 15.6519 8.80969C15.6594 8.92511 15.6351 9.04039 15.5817 9.14299C15.5283 9.24558 15.4478 9.33157 15.3489 9.3916C15.25 9.45163 15.1366 9.48341 15.0209 9.48347H15.0184Z" fill="#F9E8A5"/>
<path d="M18.9796 11.3878V12.6531C18.9631 13.0033 18.809 13.3328 18.5506 13.5698C18.2923 13.8068 17.9507 13.9321 17.6004 13.9184H5.17508C4.82476 13.9321 4.4832 13.8068 4.22486 13.5698C3.96651 13.3328 3.81232 13.0033 3.7959 12.6531V11.3878H18.9796Z" fill="#F4DA6C"/>
<path d="M18.9797 11.3878V12.6531C18.9633 13.0033 18.8091 13.3328 18.5508 13.5698C18.2924 13.8068 17.9509 13.9321 17.6005 13.9184H5.80789C5.45757 13.9321 5.11601 13.8068 4.85767 13.5698C4.59932 13.3328 4.44514 13.0033 4.42871 12.6531V11.3878H18.9797Z" fill="#F9E17A"/>
<path d="M3.16309 15.8163H6.32635V17.0816H3.16309V15.8163ZM3.16309 18.3469H6.32635V19.6122H3.16309V18.3469ZM3.16309 20.8776H6.32635V22.1429H3.16309V20.8776ZM7.59166 15.8163H19.6121V17.0816H7.59166V15.8163ZM7.59166 18.3469H19.6121V19.6122H7.59166V18.3469ZM7.59166 20.8776H19.6121V22.1429H7.59166V20.8776ZM3.16309 23.4082H6.32635V24.6735H3.16309V23.4082ZM7.59166 23.4082H15.1835V24.6735H7.59166V23.4082ZM3.16309 25.9388H6.32635V27.2041H3.16309V25.9388ZM7.59166 25.9388H15.1835V27.2041H7.59166V25.9388Z" fill="#CCCCCC"/>
<path d="M4.95241 0.741469C5.18742 0.506388 5.46644 0.31991 5.77353 0.192687C6.08063 0.0654635 6.40978 -1.21155e-05 6.74218 1.68153e-09H7.59184C6.92068 1.68153e-09 6.27701 0.266617 5.80242 0.741199C5.32784 1.21578 5.06122 1.85945 5.06122 2.53061V5.06122H2.53061C1.85945 5.06122 1.21578 5.32784 0.741199 5.80242C0.266617 6.27701 1.68154e-09 6.92068 1.68153e-09 7.59184V6.74218C-1.21155e-05 6.40978 0.0654634 6.08063 0.192687 5.77353C0.31991 5.46644 0.506388 5.18742 0.741469 4.95241L4.95241 0.741469Z" fill="#D8D8D8"/>
<path d="M0 7.59184C0.334813 7.59433 0.655208 7.72843 0.891962 7.96519C1.12872 8.20194 1.26282 8.52234 1.26531 8.85715V13.9184C1.2643 14.2536 1.13067 14.5749 0.8936 14.812C0.656526 15.049 0.335272 15.1827 0 15.1837V7.59184ZM0 15.8163C0.334813 15.8188 0.655208 15.9529 0.891962 16.1897C1.12872 16.4264 1.26282 16.7468 1.26531 17.0816V18.3469C1.2643 18.6822 1.13067 19.0035 0.8936 19.2405C0.656526 19.4776 0.335272 19.6112 0 19.6123V15.8163Z" fill="#F9F9F9"/>
<path d="M26.5716 18.3469V31H20.8777V27.2737C20.8785 26.8204 20.7194 26.3813 20.4285 26.0337L20.0236 25.5529C19.7221 25.2528 19.5172 24.8695 19.4352 24.452V24.4457C19.4046 24.3065 19.3897 24.1644 19.391 24.0218C19.3902 23.4499 19.1627 22.9016 18.7583 22.4971L17.5879 21.3267L17.1514 20.8965C17.0337 20.779 16.9404 20.6395 16.8767 20.4859C16.813 20.3323 16.7803 20.1676 16.7803 20.0013C16.7803 19.8351 16.813 19.6704 16.8767 19.5168C16.9404 19.3632 17.0337 19.2236 17.1514 19.1061C17.2685 18.9891 17.4076 18.8965 17.5607 18.8335C17.7138 18.7705 17.8779 18.7385 18.0434 18.7392C18.1563 18.739 18.2688 18.7517 18.3787 18.7771L18.4736 18.8151C18.4846 18.8141 18.4955 18.8163 18.5052 18.8214C18.5508 18.8421 18.5952 18.8654 18.6381 18.891C18.7507 18.9451 18.8534 19.0178 18.9418 19.1061L22.7314 22.7755H22.7757V14.551L26.5716 18.3469Z" fill="#FCB18B"/>
<path d="M26.5712 18.3469V31H21.51V27.2737C21.5108 26.8204 21.3517 26.3813 21.0608 26.0337L20.6559 25.5529C20.3544 25.2528 20.1495 24.8694 20.0676 24.452V24.4457C20.0369 24.3065 20.022 24.1643 20.0233 24.0218C20.0225 23.4499 19.795 22.9016 19.3906 22.4971L18.2202 21.3267L17.7837 20.8965C17.6661 20.779 17.5727 20.6395 17.509 20.4859C17.4454 20.3323 17.4126 20.1676 17.4126 20.0013C17.4126 19.835 17.4454 19.6704 17.509 19.5168C17.5727 19.3632 17.6661 19.2236 17.7837 19.1061C17.9465 18.942 18.1528 18.8278 18.3784 18.7771L18.4733 18.8151C18.4842 18.8141 18.4952 18.8163 18.5049 18.8214C18.5505 18.8421 18.5948 18.8654 18.6378 18.891C18.7504 18.9451 18.8531 19.0178 18.9414 19.1061L22.731 22.7755H23.408V15.1837L26.5712 18.3469Z" fill="#FCC1A7"/>
</svg>
