<svg width="27" height="31" viewBox="0 0 27 31" fill="none" xmlns="http://www.w3.org/2000/svg">
<path d="M0 0H22.7755V29.102H0V0Z" fill="#E3E4E5"/>
<path d="M18.3469 0V12.3272C18.3469 13.6993 18.0767 15.058 17.5516 16.3256C17.0265 17.5933 16.2569 18.7451 15.2867 19.7153C14.3165 20.6855 13.1647 21.4551 11.8971 21.9802C10.6294 22.5053 9.27076 22.7755 7.89867 22.7755H0V0H18.3469Z" fill="#EDEDED"/>
<path d="M13.9183 5.69388H12.653V4.42857C12.653 4.09299 12.5197 3.77116 12.2824 3.53386C12.0451 3.29657 11.7233 3.16326 11.3877 3.16326C11.0521 3.16326 10.7303 3.29657 10.493 3.53386C10.2557 3.77116 10.1224 4.09299 10.1224 4.42857V5.69388H8.85712V4.42857C8.85712 3.75741 9.12373 3.11374 9.59832 2.63916C10.0729 2.16458 10.7166 1.89796 11.3877 1.89796C12.0589 1.89796 12.7026 2.16458 13.1771 2.63916C13.6517 3.11374 13.9183 3.75741 13.9183 4.42857V5.69388Z" fill="#EDD056"/>
<path d="M17.7143 11.3878H5.06122C5.06122 9.70985 5.72776 8.10068 6.91422 6.91422C8.10067 5.72777 9.70985 5.06122 11.3877 5.06122C11.4953 5.06122 11.5965 5.06122 11.6977 5.06755H11.7104C13.3301 5.15181 14.8558 5.85431 15.9729 7.03023C17.0899 8.20614 17.7132 9.76584 17.7143 11.3878Z" fill="#EDD364"/>
<path d="M17.7143 11.3878H5.69385C5.69336 9.76538 6.31616 8.20482 7.43353 7.02858C8.55091 5.85233 10.0775 5.15029 11.6977 5.06755H11.7104C13.3301 5.15181 14.8558 5.85431 15.9728 7.03023C17.0899 8.20615 17.7132 9.76584 17.7143 11.3878Z" fill="#F4DB73"/>
<path d="M15.0185 9.48347C14.9167 9.48352 14.8164 9.45898 14.7261 9.41195C14.6358 9.36492 14.5581 9.29678 14.4998 9.21333C14.0054 8.50807 13.287 7.99078 12.4614 7.74557C12.3039 7.69528 12.1724 7.58535 12.0949 7.43931C12.0175 7.29326 12.0003 7.12271 12.047 6.96414C12.0937 6.80556 12.2006 6.67157 12.3449 6.59084C12.4891 6.5101 12.6592 6.48903 12.8188 6.53214C13.9206 6.8581 14.8795 7.54761 15.5392 8.48831C15.6055 8.5831 15.6445 8.69426 15.652 8.80968C15.6596 8.92511 15.6353 9.04039 15.5819 9.14299C15.5285 9.24558 15.4479 9.33157 15.3491 9.3916C15.2502 9.45163 15.1368 9.48341 15.0211 9.48347H15.0185Z" fill="#F9E8A5"/>
<path d="M18.9796 11.3878V12.6531C18.9631 13.0033 18.809 13.3328 18.5506 13.5698C18.2923 13.8068 17.9507 13.9321 17.6004 13.9184H5.17508C4.82476 13.9321 4.4832 13.8068 4.22486 13.5698C3.96651 13.3328 3.81232 13.0033 3.7959 12.6531V11.3878H18.9796Z" fill="#F4DA6C"/>
<path d="M18.9796 11.3878V12.6531C18.9632 13.0033 18.809 13.3328 18.5507 13.5698C18.2923 13.8068 17.9508 13.9321 17.6004 13.9184H5.80777C5.45745 13.9321 5.11589 13.8068 4.85755 13.5698C4.5992 13.3328 4.44501 13.0033 4.42859 12.6531V11.3878H18.9796Z" fill="#F9E17A"/>
<path d="M3.16327 15.8163H6.32653V17.0816H3.16327V15.8163ZM3.16327 18.3469H6.32653V19.6122H3.16327V18.3469ZM3.16327 20.8776H6.32653V22.1429H3.16327V20.8776ZM7.59184 15.8163H19.6122V17.0816H7.59184V15.8163ZM7.59184 18.3469H19.6122V19.6122H7.59184V18.3469ZM7.59184 20.8776H19.6122V22.1429H7.59184V20.8776ZM3.16327 23.4082H6.32653V24.6735H3.16327V23.4082ZM7.59184 23.4082H15.1837V24.6735H7.59184V23.4082ZM3.16327 25.9388H6.32653V27.2041H3.16327V25.9388ZM7.59184 25.9388H15.1837V27.2041H7.59184V25.9388Z" fill="#CCCCCC"/>
<path d="M4.95241 0.741469C5.18742 0.506388 5.46644 0.31991 5.77353 0.192687C6.08063 0.0654635 6.40978 -1.21155e-05 6.74218 1.68153e-09H7.59184C6.92068 1.68153e-09 6.27701 0.266617 5.80242 0.741199C5.32784 1.21578 5.06122 1.85945 5.06122 2.53061V5.06122H2.53061C1.85945 5.06122 1.21578 5.32784 0.741199 5.80242C0.266617 6.27701 1.68154e-09 6.92068 1.68153e-09 7.59184V6.74218C-1.21155e-05 6.40978 0.0654634 6.08063 0.192687 5.77353C0.31991 5.46644 0.506388 5.18742 0.741469 4.95241L4.95241 0.741469Z" fill="#D8D8D8"/>
<path d="M0 7.59184C0.334813 7.59432 0.655208 7.72843 0.891962 7.96518C1.12872 8.20194 1.26282 8.52233 1.26531 8.85714V13.9184C1.2643 14.2536 1.13067 14.5749 0.8936 14.812C0.656526 15.049 0.335272 15.1827 0 15.1837V7.59184ZM0 15.8163C0.334813 15.8188 0.655208 15.9529 0.891962 16.1897C1.12872 16.4264 1.26282 16.7468 1.26531 17.0816V18.3469C1.2643 18.6822 1.13067 19.0035 0.8936 19.2405C0.656526 19.4776 0.335272 19.6112 0 19.6122V15.8163Z" fill="#F9F9F9"/>
<path d="M26.5715 18.3469V31H20.8776V27.2737C20.8783 26.8204 20.7193 26.3813 20.4284 26.0337L20.0235 25.5529C19.722 25.2528 19.5171 24.8694 19.4351 24.452V24.4457C19.4044 24.3065 19.3896 24.1643 19.3908 24.0218C19.3901 23.4499 19.1626 22.9016 18.7582 22.4971L17.5878 21.3267L17.1512 20.8965C17.0336 20.779 16.9403 20.6395 16.8766 20.4859C16.8129 20.3323 16.7802 20.1676 16.7802 20.0013C16.7802 19.835 16.8129 19.6704 16.8766 19.5168C16.9403 19.3632 17.0336 19.2236 17.1512 19.1061C17.2684 18.9891 17.4075 18.8965 17.5606 18.8335C17.7137 18.7705 17.8777 18.7385 18.0433 18.7392C18.1561 18.7389 18.2687 18.7517 18.3786 18.7771L18.4735 18.8151C18.4844 18.8141 18.4954 18.8163 18.5051 18.8214C18.5507 18.8421 18.595 18.8654 18.638 18.891C18.7506 18.9451 18.8533 19.0178 18.9417 19.1061L22.7312 22.7755H22.7755V14.551L26.5715 18.3469Z" fill="#FCB18B"/>
<path d="M26.5714 18.3469V31H21.5102V27.2737C21.511 26.8204 21.3519 26.3813 21.061 26.0337L20.6561 25.5529C20.3546 25.2528 20.1497 24.8694 20.0678 24.452V24.4457C20.0371 24.3065 20.0222 24.1643 20.0235 24.0218C20.0227 23.4499 19.7952 22.9016 19.3908 22.4971L18.2204 21.3267L17.7839 20.8965C17.6662 20.779 17.5729 20.6395 17.5092 20.4859C17.4456 20.3323 17.4128 20.1676 17.4128 20.0013C17.4128 19.835 17.4456 19.6704 17.5092 19.5168C17.5729 19.3632 17.6662 19.2236 17.7839 19.1061C17.9467 18.942 18.153 18.8278 18.3786 18.7771L18.4735 18.8151C18.4844 18.8141 18.4954 18.8163 18.5051 18.8214C18.5507 18.8421 18.595 18.8654 18.638 18.891C18.7506 18.9451 18.8533 19.0178 18.9416 19.1061L22.7312 22.7755H23.4082V15.1837L26.5714 18.3469Z" fill="#FCC1A7"/>
</svg>
