<svg width="31" height="31" viewBox="0 0 31 31" fill="none" xmlns="http://www.w3.org/2000/svg">
<path d="M31 0H0V26.7241H31V0Z" fill="#E0F6FF"/>
<path d="M31 0H0V4.27586H31V0Z" fill="#25B1FA"/>
<path d="M2.67236 1.60345H1.60339V2.67241H2.67236V1.60345Z" fill="#F2FBFF"/>
<path d="M4.8103 1.60345H3.74133V2.67241H4.8103V1.60345Z" fill="#F2FBFF"/>
<path d="M6.94824 1.60345H5.87927V2.67241H6.94824V1.60345Z" fill="#F2FBFF"/>
<path d="M29.3966 1.60345H26.1897V2.67241H29.3966V1.60345Z" fill="#F2FBFF"/>
<path d="M23.7846 20.8448C26.2936 20.8448 28.3277 18.8108 28.3277 16.3017C28.3277 13.7926 26.2936 11.7586 23.7846 11.7586C21.2755 11.7586 19.2415 13.7926 19.2415 16.3017C19.2415 18.8108 21.2755 20.8448 23.7846 20.8448Z" fill="#FAC850"/>
<path d="M25.1206 22.9828V18.0388C25.1206 17.5072 24.9095 16.9974 24.5336 16.6215C24.1577 16.2457 23.6479 16.0345 23.1163 16.0345H22.4482V24.5862L20.6628 24.1398C20.3673 24.066 20.0588 24.0604 19.7609 24.1236C19.4629 24.1868 19.1833 24.3171 18.9432 24.5045C18.7031 24.6919 18.5089 24.9316 18.3754 25.2054C18.2418 25.4791 18.1724 25.7797 18.1724 26.0843V26.7241L22.4482 28.3276V31H31V24.9871C31 24.4555 30.7888 23.9457 30.4129 23.5698C30.037 23.1939 29.5272 22.9828 28.9956 22.9828H25.1206Z" fill="#FFD4CF"/>
<path d="M18.0159 10.5331L17.26 9.77723L21.0014 6.03585C21.051 5.98622 21.1099 5.94685 21.1748 5.91999C21.2396 5.89313 21.3091 5.87931 21.3793 5.87931H29.3966V6.94828H21.6007L18.0159 10.5331Z" fill="#80DAFF"/>
<path d="M23.5173 8.01724H21.9138V9.08621H23.5173V8.01724Z" fill="#80DAFF"/>
<path d="M29.3965 8.01724H24.5862V9.08621H29.3965V8.01724Z" fill="#80DAFF"/>
<path d="M15.0374 12.8288C15.0193 11.8801 14.6424 11.0661 13.9329 10.6564C12.6546 9.91846 10.7809 10.7709 9.74778 12.5605C8.71463 14.3502 8.91326 16.3989 10.1915 17.1371C11.1339 17.6812 12.4002 17.3607 13.4145 16.4373C13.6561 16.6919 13.9565 16.8832 14.2895 16.9941C14.6224 17.1051 14.9775 17.1324 15.3235 17.0737C15.6694 17.0149 15.9956 16.8719 16.2732 16.6573C16.5509 16.4426 16.7714 16.1629 16.9153 15.8429C17.0593 15.5229 17.1222 15.1723 17.0986 14.8222C17.075 14.472 16.9656 14.1331 16.78 13.8353C16.5945 13.5374 16.3384 13.2899 16.0345 13.1144C15.7306 12.9389 15.3882 12.841 15.0374 12.8292V12.8288Z" fill="#31CAD0"/>
<path d="M13.0656 13.9863L9.85864 16.1242L10.4516 17.0137L13.6585 14.8757L13.0656 13.9863Z" fill="#8AE6DA"/>
<path d="M10.6897 11.2241H4.27588V23.5172H10.6897V11.2241Z" fill="#80DAFF"/>
<path d="M10.6897 11.2241H4.27588L4.81036 9.0862H10.1552L10.6897 11.2241Z" fill="#25B1FA"/>
<path d="M10.1551 7.48276H4.8103V9.08621H10.1551V7.48276Z" fill="#80DAFF"/>
<path d="M11.2241 23.5172H5.87927V16.7026C5.87927 16.5254 5.94966 16.3555 6.07496 16.2302C6.20025 16.1049 6.37018 16.0345 6.54738 16.0345H11.2241V23.5172Z" fill="#CC6D3D"/>
<path d="M16.5691 16.0345H11.2242C10.9407 16.0345 10.6688 16.1471 10.4684 16.3476C10.2679 16.548 10.1553 16.8199 10.1553 17.1035C10.1553 17.387 10.2679 17.6589 10.4684 17.8593C10.6688 18.0598 10.9407 18.1724 11.2242 18.1724V23.5172H16.5691V18.1724C16.8526 18.1724 17.1245 18.0598 17.3249 17.8593C17.5254 17.6589 17.638 17.387 17.638 17.1035C17.638 16.8199 17.5254 16.548 17.3249 16.3476C17.1245 16.1471 16.8526 16.0345 16.5691 16.0345Z" fill="#F7B17C"/>
<path d="M4.54311 23.5172C5.87145 23.5172 6.94828 22.0815 6.94828 20.3103C6.94828 18.5392 5.87145 17.1034 4.54311 17.1034C3.21477 17.1034 2.13794 18.5392 2.13794 20.3103C2.13794 22.0815 3.21477 23.5172 4.54311 23.5172Z" fill="#FBB8B0"/>
<path d="M13.3622 18.7069H12.2932V19.7759H13.3622V18.7069Z" fill="#CC6D3D"/>
<path d="M14.431 20.8448H13.3621V21.9138H14.431V20.8448Z" fill="#CC6D3D"/>
</svg>
