<svg width="27" height="30" viewBox="0 0 27 30" fill="none" xmlns="http://www.w3.org/2000/svg">
<path d="M26.2825 6.75952L19.0906 29.3124C18.9252 29.8312 18.3705 30.1176 17.8517 29.9522L0.686612 24.4784C0.167881 24.313 -0.118557 23.7583 0.0468649 23.2395L7.23889 0.686612C7.40431 0.167881 7.95894 -0.118557 8.47773 0.0468649L25.6428 5.52067C26.1616 5.6861 26.448 6.24073 26.2825 6.75952Z" fill="#E5E3E5"/>
<path opacity="0.08" d="M26.282 6.75788L19.0892 29.3134C18.9244 29.8301 18.3701 30.119 17.8503 29.9532L16.6136 29.5588C17.1333 29.7245 17.6877 29.4357 17.8525 28.9191L25.0452 6.36345C25.21 5.84683 24.9252 5.29038 24.4055 5.1246L25.6422 5.51898C26.162 5.68475 26.4468 6.24126 26.282 6.75788Z" fill="black"/>
<path d="M23.1591 3.16354V26.8355C23.1591 27.3799 22.7177 27.8214 22.1732 27.8214H4.15643C3.61195 27.8214 3.17053 27.3799 3.17053 26.8355V3.16354C3.17053 2.61905 3.61195 2.17764 4.15643 2.17764H22.1732C22.7177 2.17764 23.1591 2.61905 23.1591 3.16354Z" fill="#F2F0F0"/>
<path opacity="0.08" d="M23.158 3.16219V26.8369C23.158 27.3791 22.7176 27.8228 22.1721 27.8228H20.874C21.4195 27.8228 21.8599 27.3791 21.8599 26.8369V3.16219C21.8599 2.61993 21.4195 2.17628 20.874 2.17628H22.1721C22.7176 2.17628 23.158 2.61993 23.158 3.16219Z" fill="black"/>
<path d="M20.7837 4.14809H14.9078C14.66 4.14809 14.4592 4.34894 14.4592 4.59666V4.59995C14.4592 4.84767 14.66 5.04852 14.9078 5.04852H20.8181C21.0734 5.04852 21.2773 4.83904 21.268 4.58153C21.2591 4.33357 21.0318 4.14809 20.7837 4.14809ZM20.7878 6.75084H14.9078C14.66 6.75084 14.4592 6.95169 14.4592 7.19941C14.4592 7.44713 14.66 7.64798 14.9078 7.64798H20.8181C21.0729 7.64798 21.2764 7.43939 21.2681 7.18257C21.2601 6.93603 21.0346 6.75084 20.7878 6.75084ZM20.8181 9.3503H14.9078C14.66 9.3503 14.4592 9.55115 14.4592 9.79887C14.4592 10.0466 14.66 10.2474 14.9078 10.2474H20.7878C21.0345 10.2474 21.2601 10.0623 21.2681 9.81571C21.2764 9.55901 21.0729 9.3503 20.8181 9.3503ZM21.2689 12.3995C21.2689 12.6478 21.0675 12.8492 20.8191 12.8492H5.51047C5.2621 12.8492 5.06072 12.6478 5.06072 12.3995C5.06072 12.1511 5.2621 11.9497 5.51047 11.9497H20.8192C21.0675 11.9497 21.2689 12.1511 21.2689 12.3995ZM21.2689 14.9995C21.2689 15.2479 21.0675 15.4492 20.8191 15.4492H5.51047C5.2621 15.4492 5.06072 15.2479 5.06072 14.9995C5.06072 14.7511 5.2621 14.5498 5.51047 14.5498H20.8192C21.0675 14.5498 21.2689 14.7511 21.2689 14.9995ZM21.2689 17.5996C21.2689 17.848 21.0675 18.0494 20.8191 18.0494H5.51047C5.2621 18.0494 5.06072 17.848 5.06072 17.5996C5.06072 17.3512 5.2621 17.1499 5.51047 17.1499H20.8192C21.0675 17.1499 21.2689 17.3512 21.2689 17.5996ZM11.8654 20.2001C11.8654 19.9524 11.6645 19.7516 11.4168 19.7516H5.51041C5.26064 19.7516 5.0602 19.952 5.0602 20.1985C5.0602 20.4483 5.26064 20.6487 5.51041 20.6487H11.4168C11.6645 20.6487 11.8654 20.4478 11.8654 20.2001ZM11.8654 22.7996C11.8654 22.5519 11.6645 22.351 11.4168 22.351H5.51041C5.26064 22.351 5.0602 22.5515 5.0602 22.8012C5.0602 23.0477 5.26064 23.2482 5.51041 23.2482H11.4168C11.6645 23.2482 11.8654 23.0474 11.8654 22.7996ZM11.8654 25.3991C11.8654 25.1514 11.6645 24.9505 11.4168 24.9505H5.51041C5.26064 24.9505 5.0602 25.151 5.0602 25.4008C5.0602 25.6472 5.26064 25.851 5.51041 25.851H11.4168C11.6645 25.851 11.8654 25.6501 11.8654 25.4024V25.3991Z" fill="#E5E3E5"/>
<path d="M13.0833 9.59186V4.80672C13.0833 4.44373 12.789 4.14944 12.426 4.14944H5.71795C5.35497 4.14944 5.06067 4.44368 5.06067 4.80672V9.5918C5.06067 9.95479 5.35491 10.2491 5.71795 10.2491H12.426C12.789 10.2491 13.0833 9.95485 13.0833 9.59186Z" fill="#F96464"/>
<path d="M21.2689 25.1923V20.4072C21.2689 20.0442 20.9746 19.7499 20.6116 19.7499H13.9036C13.5406 19.7499 13.2463 20.0442 13.2463 20.4072V25.1923C13.2463 25.5553 13.5405 25.8496 13.9036 25.8496H20.6116C20.9746 25.8496 21.2689 25.5553 21.2689 25.1923Z" fill="#66D5F2"/>
<path opacity="0.08" d="M13.0821 4.80537V9.59028C13.0821 9.95503 12.7896 10.2476 12.4248 10.2476H11.5112C11.8727 10.2476 12.1685 9.95508 12.1685 9.59028V4.80537C12.1685 4.44385 11.8727 4.14809 11.5112 4.14809H12.4248C12.7896 4.14809 13.0821 4.44385 13.0821 4.80537ZM21.2683 20.4088V25.1937C21.2683 25.5552 20.9758 25.851 20.611 25.851H19.6941C20.0589 25.851 20.3514 25.5552 20.3514 25.1937V20.4088C20.3514 20.044 20.0589 19.7515 19.6941 19.7515H20.611C20.9758 19.7516 21.2683 20.044 21.2683 20.4088Z" fill="black"/>
<path opacity="0.4" d="M6.35141 5.37039V6.12393C6.35141 6.30167 6.20734 6.44574 6.0296 6.44574C5.85186 6.44574 5.70779 6.30167 5.70779 6.12393V5.37039C5.70779 5.19265 5.85186 5.04858 6.0296 5.04858C6.20734 5.04852 6.35141 5.19265 6.35141 5.37039ZM14.6189 20.9705V21.7241C14.6189 21.9018 14.4748 22.0459 14.2971 22.0459C14.1194 22.0459 13.9753 21.9018 13.9753 21.7241V20.9705C13.9753 20.7928 14.1194 20.6487 14.2971 20.6487C14.4748 20.6487 14.6189 20.7928 14.6189 20.9705Z" fill="white"/>
</svg>
