<svg width="31" height="31" viewBox="0 0 31 31" fill="none" xmlns="http://www.w3.org/2000/svg">
<path d="M31 19.2414H0V31H31V19.2414Z" fill="#B39A7C"/>
<path d="M22.9829 21.3793H7.48291V28.3276H22.9829V21.3793Z" fill="white"/>
<path d="M10.6895 9.08621L11.224 11.2241H1.06885L1.60333 9.08621H2.6723L3.20678 8.01724H4.27574L6.41368 9.08621H10.6895Z" fill="#5BCBFA"/>
<path d="M11.5821 13.8965L10.6895 19.2414H1.23454L1.06885 13.8965H11.5821Z" fill="#E1ECFD"/>
<path d="M12.026 11.2241L11.5824 13.8966H1.06915H0.534668V11.2241H1.06915H11.2243H12.026Z" fill="#2488FF"/>
<path d="M17.1032 5.87931V19.2414H10.6895L13.8963 0H17.1032V1.60345L16.0343 2.67241V4.81034L17.1032 5.87931Z" fill="#D9CCBC"/>
<path d="M21.3794 15.5C21.6627 15.5008 21.9341 15.6137 22.1344 15.814C22.3347 16.0143 22.4476 16.2857 22.4484 16.569C22.4463 16.8518 22.333 17.1225 22.133 17.3225C21.933 17.5225 21.6623 17.6358 21.3794 17.6379H18.707V17.1034C18.707 16.5369 18.7338 16.0024 18.7765 15.5H21.3794ZM21.3794 11.7586C21.6627 11.7595 21.9341 11.8724 22.1344 12.0726C22.3347 12.2729 22.4476 12.5443 22.4484 12.8276C22.4463 13.1104 22.333 13.3811 22.133 13.5811C21.933 13.7812 21.6623 13.8945 21.3794 13.8966H19.0277C19.1834 13.1515 19.4425 12.4319 19.7974 11.7586H21.3794Z" fill="#FF9811"/>
<path d="M21.3794 17.6379C21.6623 17.6358 21.933 17.5225 22.133 17.3225C22.333 17.1225 22.4463 16.8518 22.4484 16.569C22.4476 16.2857 22.3347 16.0143 22.1344 15.814C21.9341 15.6137 21.6627 15.5008 21.3794 15.5H18.7765C18.8249 14.9606 18.9088 14.4249 19.0277 13.8966H21.3794C21.6623 13.8945 21.933 13.7812 22.133 13.5811C22.333 13.3811 22.4463 13.1104 22.4484 12.8276C22.4476 12.5443 22.3347 12.2729 22.1344 12.0726C21.9341 11.8724 21.6627 11.7595 21.3794 11.7586H19.7974C20.5777 10.3262 21.7162 9.62069 22.9829 9.62069C23.3471 9.61886 23.7088 9.68035 24.0519 9.80241C25.8958 10.4545 27.2588 12.8703 27.2588 17.1034V19.2414H18.707V17.6379H21.3794Z" fill="#FFB655"/>
<path d="M29.3966 17.1034V19.2414H27.2587V17.1034C27.2587 12.8703 25.8957 10.4545 24.0518 9.80241C24.3949 9.68035 24.7566 9.61886 25.1207 9.62069C27.4831 9.62069 29.3966 12.0847 29.3966 17.1034Z" fill="#EE8700"/>
<path d="M10.1554 22.9828H9.08643V24.0517H10.1554V22.9828Z" fill="#1A6FB0"/>
<path d="M20.8448 22.9828H11.2241V24.0517H20.8448V22.9828Z" fill="#1A6FB0"/>
<path d="M13.3623 25.1207H9.08643V26.1896H13.3623V25.1207Z" fill="#1A6FB0"/>
</svg>
