<svg width="31" height="31" viewBox="0 0 31 31" fill="none" xmlns="http://www.w3.org/2000/svg">
<g clip-path="url(#clip0_205_442)">
<path d="M24.6305 10.4606L28.5781 5.32812L26.1563 4.35938L23.6162 9.86284" fill="#8DBF00"/>
<path d="M24.8364 10.6601L28.5782 7.75L30.0313 9.6875L25.3867 11.4739" fill="#82AB00"/>
<path d="M6.75696 12.5453C6.4421 12.8602 6.0683 13.1099 5.65691 13.2803C5.24552 13.4507 4.80459 13.5385 4.3593 13.5385C3.46001 13.5385 2.59755 13.1812 1.96165 12.5453C1.32575 11.9094 0.968506 11.047 0.968506 10.1477C0.968506 9.24836 1.32575 8.3859 1.96165 7.75L6.75696 12.5453Z" fill="#F9CB5D"/>
<path d="M1.45313 9.66328C1.45297 10.2753 1.61846 10.8759 1.93204 11.4015C2.24563 11.9271 2.69562 12.3579 3.23428 12.6485C3.77294 12.939 4.38019 13.0783 4.99162 13.0516C5.60305 13.0249 6.19585 12.8332 6.70715 12.4969L2.01162 7.79843C1.64582 8.35146 1.45153 9.00022 1.45313 9.66328V9.66328Z" fill="#FFE1AE"/>
<path d="M6.84966 3.87969L6.71265 4.8387L9.92917 5.29825L10.0662 4.33924L6.84966 3.87969Z" fill="#8DBF00"/>
<path d="M16.0042 16.4688C17.1866 14.3098 18.6708 12.3304 20.412 10.5904V10.5904C20.9894 10.0128 21.7725 9.68804 22.5892 9.6875V9.6875C23.4068 9.6875 24.1908 10.0123 24.7689 10.5904C25.347 11.1685 25.6718 11.9525 25.6718 12.7701V12.7701C25.6718 13.1749 25.5921 13.5757 25.4372 13.9497C25.2823 14.3237 25.0552 14.6635 24.7689 14.9498V14.9498C24.238 15.4806 23.6857 15.987 23.1119 16.4688" fill="#F79B31"/>
<path d="M23.5405 10.6563C23.1357 10.6562 22.7348 10.7359 22.3608 10.8908C21.9868 11.0457 21.647 11.2728 21.3608 11.5591C19.8853 13.0346 18.5936 14.6831 17.5139 16.4688H23.1118C23.6853 15.9873 24.2377 15.4809 24.7689 14.9498C25.2606 14.4592 25.5717 13.8166 25.6515 13.1267C25.7312 12.4367 25.575 11.7401 25.2082 11.1503C24.7117 10.828 24.1325 10.6564 23.5405 10.6563V10.6563Z" fill="#FCB732"/>
<path d="M28.5781 16.4688H2.42188C2.42196 19.0849 3.20667 21.6409 4.67458 23.8064C6.1425 25.9719 8.22615 27.6474 10.6562 28.6164V30.0312H20.3438V28.6164C22.7739 27.6474 24.8575 25.9719 26.3254 23.8064C27.7933 21.6409 28.578 19.0849 28.5781 16.4688V16.4688Z" fill="#0059BE"/>
<path d="M28.5781 16.4688H3.875C3.87508 19.0849 4.65979 21.6409 6.12771 23.8064C7.59562 25.9719 9.67927 27.6474 12.1094 28.6164V30.0312H20.3438V28.6164C22.7739 27.6474 24.8575 25.9719 26.3254 23.8064C27.7933 21.6409 28.578 19.0849 28.5781 16.4688V16.4688Z" fill="#006BDB"/>
<path d="M2.42188 16.4688C2.42135 17.8354 2.63547 19.1937 3.05641 20.4939L3.39063 20.8281L5.8125 18.4062L8.23438 20.8281L10.6563 18.4062L13.0781 20.8281L15.5 18.4062L17.9219 20.8281L20.3438 18.4062L22.7656 20.8281L25.1875 18.4062L27.6094 20.8281L27.9436 20.4939C28.3645 19.1937 28.5787 17.8354 28.5781 16.4688H2.42188Z" fill="#66C3E9"/>
<path d="M5.8125 18.4062L8.23438 20.8281L10.6562 18.4062L13.0781 20.8281L15.5 18.4062L17.9219 20.8281L20.3438 18.4062L22.7656 20.8281L25.1875 18.4062L27.6094 20.8281L27.9436 20.4939C28.3645 19.1937 28.5787 17.8354 28.5781 16.4688H3.875C3.87688 17.6224 4.03162 18.7706 4.33516 19.8836L5.8125 18.4062Z" fill="#8ADEF9"/>
<path d="M11.1406 14.0469C11.6757 14.0469 12.1094 13.6132 12.1094 13.0781C12.1094 12.5431 11.6757 12.1094 11.1406 12.1094C10.6056 12.1094 10.1719 12.5431 10.1719 13.0781C10.1719 13.6132 10.6056 14.0469 11.1406 14.0469Z" fill="#916658"/>
<path d="M14.5312 2.90625C15.0663 2.90625 15.5 2.47253 15.5 1.9375C15.5 1.40247 15.0663 0.96875 14.5312 0.96875C13.9962 0.96875 13.5625 1.40247 13.5625 1.9375C13.5625 2.47253 13.9962 2.90625 14.5312 2.90625Z" fill="#916658"/>
<path d="M3.875 5.8125C4.41003 5.8125 4.84375 5.37878 4.84375 4.84375C4.84375 4.30872 4.41003 3.875 3.875 3.875C3.33997 3.875 2.90625 4.30872 2.90625 4.84375C2.90625 5.37878 3.33997 5.8125 3.875 5.8125Z" fill="#916658"/>
<path d="M18.4062 5.8125V4.90091C18.4063 4.54477 18.3233 4.19353 18.1641 3.875V3.875C18.0048 3.55647 17.9219 3.20523 17.9219 2.84909V1.45313C18.3633 1.60015 18.758 1.86129 19.0659 2.21006C19.3739 2.55883 19.5841 2.98283 19.6753 3.43906L19.8594 4.35938C20.1415 3.51306 20.6827 2.77696 21.4065 2.25536C22.1302 1.73375 22.9997 1.45309 23.8918 1.45313H24.2188C24.2188 2.15833 23.9969 2.84567 23.5846 3.41777C23.1722 3.98988 22.5904 4.41776 21.9214 4.6408L21.3125 4.84375L23.7344 5.32812L22.4774 6.27072C22.0357 6.60207 21.4985 6.78122 20.9463 6.78125C20.5502 6.78137 20.1594 6.68916 19.8051 6.51194L18.4062 5.8125Z" fill="#719301"/>
<path d="M10.4393 6.60591C11.2721 6.81407 12.0533 7.19109 12.7345 7.7136C13.4156 8.2361 13.9822 8.89295 14.399 9.64342L15.5 11.625V9.48842C15.5001 7.74157 14.8752 6.05232 13.7383 4.72605V4.72605C13.3794 4.3072 12.934 3.97098 12.4329 3.74047C11.9317 3.50996 11.3866 3.39062 10.835 3.39063V3.39063C10.4022 3.39063 9.98712 3.56255 9.68109 3.86859C9.37505 4.17462 9.20313 4.58969 9.20313 5.02248V5.02248C9.20306 5.38647 9.32469 5.74003 9.54868 6.02694C9.77266 6.31385 10.0861 6.51764 10.4393 6.60591V6.60591Z" fill="#E73844"/>
<path d="M10.3506 4.35938C9.9303 4.35969 9.52647 4.52289 9.22395 4.81469C9.21258 4.88344 9.20562 4.95285 9.20313 5.02248C9.20306 5.38647 9.32469 5.74003 9.54868 6.02694C9.77266 6.31385 10.0861 6.51764 10.4393 6.60591C11.2721 6.81407 12.0533 7.19109 12.7345 7.7136C13.4156 8.2361 13.9822 8.89295 14.399 9.64342L15.0156 10.7531V10.4572C15.0157 8.71032 14.3908 7.02107 13.254 5.6948C12.895 5.27595 12.4496 4.93973 11.9485 4.70922C11.4473 4.47871 10.9022 4.35937 10.3506 4.35938V4.35938Z" fill="#FF4D55"/>
<path d="M4.35937 13.5383C4.52154 13.5371 4.68341 13.5243 4.84375 13.5V10.632L3.875 9.66328H1.00701C0.955996 9.98419 0.955996 10.3111 1.00701 10.632H3.19009L1.64687 12.1762C1.84144 12.4359 2.07206 12.6666 2.33178 12.8611L3.875 11.3169V13.5C4.03533 13.5243 4.19721 13.5371 4.35937 13.5383V13.5383Z" fill="#F9CB5D"/>
<path d="M20.97 15.3581L22.0806 16.4688H23.1119C23.1729 16.4174 23.2315 16.3627 23.2921 16.3104L21.6549 14.6732L20.97 15.3581Z" fill="#F79B31"/>
<path d="M23.1083 11.2826L22.4233 11.9676L23.8766 13.4209L24.5616 12.7359L23.1083 11.2826Z" fill="#F79B31"/>
<path d="M21.6549 12.7357L19.9679 11.0481C19.7447 11.2825 19.5261 11.5207 19.312 11.7626L20.97 13.4206L21.6549 12.7357Z" fill="#F79B31"/>
</g>
<defs>
<clipPath id="clip0_205_442">
<rect width="31" height="31" fill="white"/>
</clipPath>
</defs>
</svg>
