<svg width="31" height="31" viewBox="0 0 31 31" fill="none" xmlns="http://www.w3.org/2000/svg">
<path d="M3.875 14.8542L4.52083 14.2083L15.5 3.22917L26.4792 14.2083V14.8542H3.875Z" fill="#616161"/>
<path d="M3.22925 14.5313C3.22929 14.6585 3.2544 14.7845 3.30314 14.9021C3.35188 15.0196 3.42329 15.1264 3.51331 15.2164C3.60333 15.3064 3.71018 15.3777 3.82777 15.4264C3.94536 15.475 4.07138 15.5 4.19864 15.5C4.3259 15.5 4.45191 15.4749 4.56947 15.4261C4.68702 15.3774 4.79383 15.306 4.88379 15.2159C4.97374 15.1259 5.04509 15.0191 5.09375 14.9015C5.14241 14.7839 5.16744 14.6579 5.16739 14.5306C5.16731 14.2736 5.06513 14.0271 4.88333 13.8455C4.70153 13.6638 4.45501 13.5618 4.198 13.5619C3.94098 13.5619 3.69453 13.6641 3.51285 13.8459C3.33118 14.0277 3.22916 14.2742 3.22925 14.5313V14.5313Z" fill="#616161"/>
<path d="M4.52075 13.2396C4.52079 13.3668 4.5459 13.4928 4.59464 13.6104C4.64338 13.728 4.7148 13.8348 4.80482 13.9247C4.89483 14.0147 5.00169 14.086 5.11928 14.1347C5.23686 14.1834 5.36289 14.2084 5.49015 14.2083C5.61741 14.2083 5.74341 14.1832 5.86097 14.1344C5.97853 14.0857 6.08533 14.0143 6.17529 13.9243C6.26525 13.8343 6.33659 13.7274 6.38525 13.6098C6.43392 13.4922 6.45894 13.3662 6.4589 13.2389C6.45881 12.9819 6.35663 12.7355 6.17483 12.5538C5.99304 12.3721 5.74652 12.2701 5.4895 12.2702C5.23249 12.2703 4.98603 12.3725 4.80436 12.5542C4.62268 12.736 4.52067 12.9826 4.52075 13.2396V13.2396Z" fill="#616161"/>
<path d="M5.8125 11.9479C5.81254 12.0752 5.83765 12.2012 5.88639 12.3187C5.93513 12.4363 6.00655 12.5431 6.09656 12.6331C6.18658 12.723 6.29343 12.7944 6.41102 12.843C6.52861 12.8917 6.65464 12.9167 6.7819 12.9167C6.90916 12.9166 7.03516 12.8915 7.15272 12.8428C7.27028 12.794 7.37708 12.7226 7.46704 12.6326C7.557 12.5426 7.62834 12.4357 7.677 12.3181C7.72566 12.2005 7.75069 12.0745 7.75065 11.9473C7.75056 11.6903 7.64838 11.4438 7.46658 11.2621C7.28479 11.0804 7.03826 10.9784 6.78125 10.9785C6.52424 10.9786 6.27778 11.0808 6.09611 11.2626C5.91443 11.4444 5.81241 11.6909 5.8125 11.9479Z" fill="#616161"/>
<path d="M7.10425 10.6563C7.10429 10.7835 7.1294 10.9095 7.17814 11.0271C7.22688 11.1446 7.29829 11.2514 7.38831 11.3414C7.47833 11.4314 7.58518 11.5027 7.70277 11.5514C7.82036 11.6 7.94638 11.625 8.07364 11.625C8.2009 11.625 8.32691 11.5999 8.44447 11.5511C8.56202 11.5024 8.66883 11.431 8.75879 11.3409C8.84874 11.2509 8.92009 11.1441 8.96875 11.0265C9.01741 10.9089 9.04244 10.7829 9.04239 10.6556C9.04231 10.3986 8.94013 10.1521 8.75833 9.97047C8.57653 9.78879 8.33001 9.68677 8.073 9.68686C7.81598 9.68694 7.56953 9.78913 7.38785 9.97092C7.20618 10.1527 7.10416 10.3992 7.10425 10.6563V10.6563Z" fill="#616161"/>
<path d="M8.39575 9.36458C8.39579 9.49184 8.4209 9.61785 8.46964 9.73541C8.51838 9.85296 8.5898 9.95977 8.67981 10.0497C8.76983 10.1397 8.87669 10.211 8.99428 10.2597C9.11186 10.3084 9.23789 10.3334 9.36515 10.3333C9.49241 10.3333 9.61841 10.3082 9.73597 10.2594C9.85353 10.2107 9.96033 10.1393 10.0503 10.0493C10.1402 9.95925 10.2116 9.8524 10.2603 9.73481C10.3089 9.61722 10.3339 9.4912 10.3339 9.36394C10.3338 9.10692 10.2316 8.86047 10.0498 8.67879C9.86804 8.49712 9.62152 8.3951 9.3645 8.39519C9.10749 8.39527 8.86103 8.49745 8.67936 8.67925C8.49768 8.86105 8.39567 9.10757 8.39575 9.36458V9.36458Z" fill="#616161"/>
<path d="M9.6875 8.07291C9.68759 8.32993 9.78977 8.57638 9.97156 8.75806C10.1534 8.93973 10.3999 9.04175 10.6569 9.04166C10.9139 9.04158 11.1604 8.9394 11.342 8.7576C11.5237 8.5758 11.6257 8.32928 11.6256 8.07227C11.6256 7.94501 11.6005 7.819 11.5518 7.70144C11.503 7.58389 11.4316 7.47708 11.3416 7.38712C11.2516 7.29717 11.1447 7.22582 11.0271 7.17716C10.9095 7.1285 10.7835 7.10347 10.6563 7.10352C10.529 7.10356 10.403 7.12867 10.2854 7.17741C10.1679 7.22615 10.0611 7.29756 9.97111 7.38758C9.88115 7.4776 9.8098 7.58445 9.76114 7.70204C9.71248 7.81963 9.68746 7.94565 9.6875 8.07291V8.07291Z" fill="#616161"/>
<path d="M10.9792 6.78126C10.9793 6.90852 11.0044 7.03452 11.0531 7.15208C11.1019 7.26964 11.1733 7.37644 11.2633 7.4664C11.3533 7.55636 11.4602 7.6277 11.5778 7.67636C11.6954 7.72502 11.8214 7.75005 11.9486 7.75001C12.0759 7.74996 12.2019 7.72485 12.3195 7.67612C12.437 7.62738 12.5438 7.55596 12.6338 7.46594C12.7237 7.37593 12.7951 7.26907 12.8438 7.15148C12.8924 7.03389 12.9174 6.90787 12.9174 6.78061C12.9173 6.5236 12.8151 6.27714 12.6333 6.09547C12.4515 5.91379 12.205 5.81177 11.948 5.81186C11.691 5.81194 11.4445 5.91413 11.2629 6.09592C11.0812 6.27772 10.9792 6.52424 10.9792 6.78126V6.78126Z" fill="#616161"/>
<path d="M12.2708 5.48958C12.2708 5.61684 12.2959 5.74285 12.3446 5.86041C12.3934 5.97796 12.4648 6.08477 12.5548 6.17473C12.6448 6.26468 12.7517 6.33603 12.8693 6.38469C12.9869 6.43335 13.1129 6.45838 13.2401 6.45833C13.3674 6.45829 13.4934 6.43318 13.611 6.38444C13.7285 6.3357 13.8353 6.26429 13.9253 6.17427C14.0152 6.08425 14.0866 5.9774 14.1353 5.85981C14.1839 5.74222 14.2089 5.6162 14.2089 5.48894C14.2088 5.23192 14.1066 4.98547 13.9248 4.80379C13.743 4.62212 13.4965 4.5201 13.2395 4.52019C12.9825 4.52027 12.736 4.62245 12.5544 4.80425C12.3727 4.98605 12.2707 5.23257 12.2708 5.48958Z" fill="#616161"/>
<path d="M13.5625 4.19791C13.5625 4.32517 13.5877 4.45118 13.6364 4.56873C13.6851 4.68629 13.7565 4.7931 13.8466 4.88305C13.9366 4.97301 14.0434 5.04436 14.161 5.09302C14.2786 5.14168 14.4046 5.1667 14.5319 5.16666C14.6592 5.16662 14.7852 5.14151 14.9027 5.09277C15.0203 5.04403 15.1271 4.97262 15.217 4.8826C15.307 4.79258 15.3783 4.68573 15.427 4.56814C15.4757 4.45055 15.5007 4.32453 15.5006 4.19727C15.5006 3.94025 15.3984 3.6938 15.2166 3.51212C15.0348 3.33045 14.7883 3.22843 14.5313 3.22852C14.2742 3.2286 14.0278 3.33078 13.8461 3.51258C13.6644 3.69438 13.5624 3.9409 13.5625 4.19791V4.19791Z" fill="#616161"/>
<path d="M14.5313 3.55208C14.5313 3.8091 14.6335 4.05555 14.8153 4.23723C14.9971 4.4189 15.2436 4.52092 15.5006 4.52083C15.7577 4.52075 16.0041 4.41857 16.1858 4.23677C16.3675 4.05497 16.4695 3.80845 16.4694 3.55144C16.4693 3.29442 16.3671 3.04797 16.1853 2.86629C16.0035 2.68462 15.757 2.5826 15.5 2.58269C15.243 2.58277 14.9965 2.68495 14.8149 2.86675C14.6332 3.04855 14.5312 3.29507 14.5313 3.55208V3.55208ZM27.7708 14.5312C27.7708 14.6585 27.7457 14.7845 27.6969 14.9021C27.6482 15.0196 27.5768 15.1264 27.4868 15.2164C27.3968 15.3063 27.2899 15.3777 27.1723 15.4264C27.0547 15.475 26.9287 15.5 26.8014 15.5C26.6742 15.5 26.5482 15.4748 26.4306 15.4261C26.3131 15.3774 26.2063 15.306 26.1163 15.2159C26.0263 15.1259 25.955 15.0191 25.9063 14.9015C25.8577 14.7839 25.8326 14.6579 25.8327 14.5306C25.8328 14.2736 25.935 14.0271 26.1167 13.8455C26.2985 13.6638 26.5451 13.5618 26.8021 13.5619C27.0591 13.5619 27.3056 13.6641 27.4872 13.8459C27.6689 14.0277 27.7709 14.2742 27.7708 14.5312V14.5312Z" fill="#616161"/>
<path d="M26.4792 13.2396C26.4791 13.3668 26.454 13.4928 26.4053 13.6104C26.3565 13.728 26.2851 13.8348 26.1951 13.9247C26.1051 14.0147 25.9982 14.086 25.8806 14.1347C25.763 14.1834 25.637 14.2084 25.5098 14.2083C25.3825 14.2083 25.2565 14.1832 25.1389 14.1344C25.0214 14.0857 24.9146 14.0143 24.8246 13.9243C24.7347 13.8343 24.6633 13.7274 24.6147 13.6098C24.566 13.4922 24.541 13.3662 24.541 13.2389C24.5411 12.9819 24.6433 12.7355 24.8251 12.5538C25.0069 12.3721 25.2534 12.2701 25.5104 12.2702C25.7674 12.2703 26.0139 12.3725 26.1956 12.5542C26.3772 12.736 26.4792 12.9826 26.4792 13.2396Z" fill="#616161"/>
<path d="M25.1874 11.9479C25.1874 12.0752 25.1623 12.2012 25.1135 12.3187C25.0648 12.4363 24.9934 12.5431 24.9034 12.6331C24.8133 12.723 24.7065 12.7944 24.5889 12.843C24.4713 12.8917 24.3453 12.9167 24.218 12.9167C24.0908 12.9166 23.9647 12.8915 23.8472 12.8428C23.7296 12.794 23.6228 12.7226 23.5329 12.6326C23.4429 12.5426 23.3716 12.4357 23.3229 12.3181C23.2742 12.2005 23.2492 12.0745 23.2493 11.9473C23.2494 11.6903 23.3515 11.4438 23.5333 11.2621C23.7151 11.0804 23.9616 10.9784 24.2187 10.9785C24.4757 10.9786 24.7221 11.0808 24.9038 11.2626C25.0855 11.4444 25.1875 11.6909 25.1874 11.9479Z" fill="#616161"/>
<path d="M23.8959 10.6563C23.8958 10.9133 23.7936 11.1597 23.6118 11.3414C23.43 11.5231 23.1835 11.6251 22.9265 11.625C22.6695 11.6249 22.423 11.5227 22.2414 11.3409C22.0597 11.1591 21.9577 10.9126 21.9578 10.6556C21.9578 10.3986 22.06 10.1521 22.2418 9.97047C22.4236 9.78879 22.6701 9.68677 22.9272 9.68686C23.1842 9.68694 23.4306 9.78913 23.6123 9.97092C23.794 10.1527 23.896 10.3992 23.8959 10.6563Z" fill="#616161"/>
<path d="M22.6042 9.36458C22.6041 9.49184 22.579 9.61785 22.5303 9.73541C22.4815 9.85296 22.4101 9.95977 22.3201 10.0497C22.2301 10.1397 22.1232 10.211 22.0056 10.2597C21.888 10.3084 21.762 10.3334 21.6348 10.3333C21.5075 10.3333 21.3815 10.3082 21.2639 10.2594C21.1464 10.2107 21.0396 10.1393 20.9496 10.0493C20.8597 9.95925 20.7883 9.8524 20.7397 9.73481C20.691 9.61722 20.666 9.4912 20.666 9.36394C20.6661 9.10692 20.7683 8.86047 20.9501 8.67879C21.1319 8.49712 21.3784 8.3951 21.6354 8.39519C21.8924 8.39527 22.1389 8.49745 22.3206 8.67925C22.5022 8.86105 22.6042 9.10757 22.6042 9.36458V9.36458Z" fill="#616161"/>
<path d="M21.3124 8.07291C21.3124 8.20017 21.2873 8.32618 21.2385 8.44373C21.1898 8.56129 21.1184 8.6681 21.0284 8.75805C20.9383 8.84801 20.8315 8.91936 20.7139 8.96802C20.5963 9.01668 20.4703 9.0417 20.343 9.04166C20.2158 9.04162 20.0898 9.01651 19.9722 8.96777C19.8546 8.91903 19.7478 8.84761 19.6579 8.7576C19.5679 8.66758 19.4966 8.56073 19.4479 8.44314C19.3992 8.32555 19.3742 8.19953 19.3743 8.07227C19.3744 7.81525 19.4765 7.5688 19.6583 7.38712C19.8401 7.20545 20.0866 7.10343 20.3437 7.10352C20.6007 7.1036 20.8471 7.20578 21.0288 7.38758C21.2105 7.56938 21.3125 7.8159 21.3124 8.07291V8.07291Z" fill="#616161"/>
<path d="M20.0209 6.78126C20.0208 7.03827 19.9186 7.28472 19.7368 7.4664C19.555 7.64807 19.3085 7.75009 19.0515 7.75001C18.7945 7.74992 18.548 7.64774 18.3664 7.46594C18.1847 7.28415 18.0827 7.03762 18.0828 6.78061C18.0828 6.5236 18.185 6.27714 18.3668 6.09547C18.4568 6.00551 18.5637 5.93416 18.6813 5.8855C18.7989 5.83684 18.9249 5.81182 19.0522 5.81186C19.1794 5.8119 19.3054 5.83701 19.423 5.88575C19.5405 5.93449 19.6473 6.00591 19.7373 6.09592C19.8273 6.18594 19.8986 6.29279 19.9473 6.41038C19.9959 6.52797 20.021 6.65399 20.0209 6.78126V6.78126Z" fill="#616161"/>
<path d="M18.7292 5.48958C18.7291 5.7466 18.6269 5.99305 18.4451 6.17473C18.2633 6.3564 18.0168 6.45842 17.7598 6.45833C17.5028 6.45825 17.2563 6.35607 17.0746 6.17427C16.8929 5.99247 16.7909 5.74595 16.791 5.48894C16.7911 5.23192 16.8933 4.98547 17.0751 4.80379C17.2569 4.62212 17.5034 4.5201 17.7604 4.52019C18.0174 4.52027 18.2639 4.62245 18.4456 4.80425C18.6272 4.98605 18.7292 5.23257 18.7292 5.48958V5.48958Z" fill="#616161"/>
<path d="M17.4374 4.19791C17.4374 4.32517 17.4123 4.45118 17.3635 4.56873C17.3148 4.68629 17.2434 4.7931 17.1533 4.88305C17.0633 4.97301 16.9565 5.04436 16.8389 5.09302C16.7213 5.14168 16.5953 5.1667 16.468 5.16666C16.3408 5.16662 16.2148 5.14151 16.0972 5.09277C15.9796 5.04403 15.8728 4.97262 15.7829 4.8826C15.6929 4.79258 15.6216 4.68573 15.5729 4.56814C15.5242 4.45055 15.4992 4.32453 15.4993 4.19727C15.4994 3.94025 15.6015 3.6938 15.7833 3.51212C15.9651 3.33045 16.2116 3.22843 16.4687 3.22852C16.7257 3.2286 16.9721 3.33078 17.1538 3.51258C17.3355 3.69438 17.4375 3.9409 17.4374 4.19791V4.19791Z" fill="#616161"/>
<path d="M14.2083 5.48958C14.2083 5.61684 14.2334 5.74285 14.2821 5.86041C14.3309 5.97796 14.4023 6.08477 14.4923 6.17473C14.5823 6.26468 14.6892 6.33603 14.8068 6.38469C14.9244 6.43335 15.0504 6.45838 15.1776 6.45833C15.3049 6.45829 15.4309 6.43318 15.5485 6.38444C15.666 6.3357 15.7728 6.26429 15.8628 6.17427C15.9527 6.08425 16.0241 5.9774 16.0728 5.85981C16.1214 5.74222 16.1464 5.6162 16.1464 5.48894C16.1463 5.23192 16.0441 4.98547 15.8623 4.80379C15.6805 4.62212 15.434 4.5201 15.177 4.52019C14.92 4.52027 14.6735 4.62245 14.4919 4.80425C14.3102 4.98605 14.2082 5.23257 14.2083 5.48958V5.48958ZM16.7916 8.71875C16.7917 8.97576 16.8939 9.22222 17.0756 9.40389C17.2574 9.58557 17.504 9.68759 17.761 9.6875C18.018 9.68741 18.2644 9.58523 18.4461 9.40344C18.6278 9.22164 18.7298 8.97512 18.7297 8.7181C18.7296 8.46109 18.6275 8.21464 18.4457 8.03296C18.2639 7.85128 18.0173 7.74927 17.7603 7.74935C17.5033 7.74944 17.2569 7.85162 17.0752 8.03342C16.8935 8.21521 16.7915 8.46174 16.7916 8.71875V8.71875Z" fill="#424242"/>
<path d="M18.0833 12.5937C18.0833 12.721 18.1084 12.847 18.1571 12.9646C18.2059 13.0821 18.2773 13.1889 18.3673 13.2789C18.4573 13.3688 18.5642 13.4402 18.6818 13.4889C18.7994 13.5375 18.9254 13.5625 19.0526 13.5625C19.1799 13.5625 19.3059 13.5373 19.4235 13.4886C19.541 13.4399 19.6478 13.3684 19.7378 13.2784C19.8277 13.1884 19.8991 13.0816 19.9478 12.964C19.9964 12.8464 20.0214 12.7204 20.0214 12.5931C20.0213 12.3361 19.9191 12.0896 19.7373 11.908C19.5555 11.7263 19.309 11.6243 19.052 11.6243C18.795 11.6244 18.5485 11.7266 18.3669 11.9084C18.1852 12.0902 18.0832 12.3367 18.0833 12.5937V12.5937ZM15.4999 11.3021C15.5 11.4293 15.5251 11.5553 15.5738 11.6729C15.6225 11.7905 15.694 11.8973 15.784 11.9872C15.874 12.0772 15.9809 12.1485 16.0984 12.1972C16.216 12.2458 16.3421 12.2709 16.4693 12.2708C16.5966 12.2708 16.7226 12.2457 16.8401 12.1969C16.9577 12.1482 17.0645 12.0768 17.1545 11.9868C17.2444 11.8967 17.3158 11.7899 17.3644 11.6723C17.4131 11.5547 17.4381 11.4287 17.4381 11.3014C17.438 11.0444 17.3358 10.798 17.154 10.6163C16.9722 10.4346 16.7257 10.3326 16.4687 10.3327C16.2117 10.3328 15.9652 10.4349 15.7835 10.6167C15.6018 10.7985 15.4998 11.0451 15.4999 11.3021ZM14.2083 6.78124C14.2083 6.90851 14.2334 7.03451 14.2821 7.15207C14.3309 7.26963 14.4023 7.37643 14.4923 7.46639C14.5823 7.55634 14.6892 7.62769 14.8068 7.67635C14.9244 7.72501 15.0504 7.75004 15.1776 7.74999C15.3049 7.74995 15.4309 7.72484 15.5485 7.6761C15.666 7.62736 15.7728 7.55595 15.8628 7.46593C15.9527 7.37591 16.0241 7.26906 16.0728 7.15147C16.1214 7.03388 16.1464 6.90786 16.1464 6.7806C16.1463 6.52358 16.0441 6.27713 15.8623 6.09546C15.6805 5.91378 15.434 5.81176 15.177 5.81185C14.92 5.81193 14.6735 5.91412 14.4919 6.09591C14.3102 6.27771 14.2082 6.52423 14.2083 6.78124V6.78124ZM21.3124 12.5937C21.3125 12.721 21.3376 12.847 21.3863 12.9646C21.435 13.0821 21.5065 13.1889 21.5965 13.2789C21.6865 13.3688 21.7934 13.4402 21.9109 13.4889C22.0285 13.5375 22.1546 13.5625 22.2818 13.5625C22.4091 13.5625 22.5351 13.5373 22.6526 13.4886C22.7702 13.4399 22.877 13.3684 22.967 13.2784C23.0569 13.1884 23.1283 13.0816 23.1769 12.964C23.2256 12.8464 23.2506 12.7204 23.2506 12.5931C23.2505 12.3361 23.1483 12.0896 22.9665 11.908C22.7847 11.7263 22.5382 11.6243 22.2812 11.6243C22.0242 11.6244 21.7777 11.7266 21.596 11.9084C21.4144 12.0902 21.3123 12.3367 21.3124 12.5937ZM10.9791 11.9479C10.9791 12.0752 11.0042 12.2012 11.053 12.3187C11.1017 12.4363 11.1731 12.5431 11.2631 12.6331C11.3532 12.723 11.46 12.7944 11.5776 12.843C11.6952 12.8917 11.8212 12.9167 11.9485 12.9167C12.0757 12.9166 12.2017 12.8915 12.3193 12.8428C12.4369 12.794 12.5437 12.7226 12.6336 12.6326C12.7236 12.5426 12.7949 12.4357 12.8436 12.3181C12.8923 12.2005 12.9173 12.0745 12.9172 11.9473C12.9171 11.6903 12.815 11.4438 12.6332 11.2621C12.4514 11.0804 12.2048 10.9784 11.9478 10.9785C11.6908 10.9786 11.4444 11.0808 11.2627 11.2626C11.081 11.4444 10.979 11.6909 10.9791 11.9479V11.9479ZM6.45825 13.8854C6.45834 14.1424 6.56052 14.3889 6.74231 14.5706C6.92411 14.7522 7.17063 14.8542 7.42765 14.8542C7.68466 14.8541 7.93112 14.7519 8.11279 14.5701C8.29447 14.3883 8.39648 14.1418 8.3964 13.8848C8.39636 13.7575 8.37125 13.6315 8.32251 13.5139C8.27377 13.3964 8.20235 13.2896 8.11233 13.1996C8.02232 13.1097 7.91546 13.0383 7.79788 12.9897C7.68029 12.941 7.55426 12.916 7.427 12.916C7.29974 12.9161 7.17374 12.9412 7.05618 12.9899C6.93862 13.0386 6.83182 13.1101 6.74186 13.2001C6.6519 13.2901 6.58056 13.3969 6.53189 13.5145C6.48323 13.6321 6.45821 13.7582 6.45825 13.8854V13.8854ZM10.9791 8.71874C10.9791 8.84601 11.0042 8.97201 11.053 9.08957C11.1017 9.20713 11.1731 9.31393 11.2631 9.40389C11.3532 9.49385 11.46 9.56519 11.5776 9.61385C11.6952 9.66251 11.8212 9.68754 11.9485 9.68749C12.0757 9.68745 12.2017 9.66234 12.3193 9.6136C12.4369 9.56487 12.5437 9.49345 12.6336 9.40343C12.7236 9.31342 12.7949 9.20656 12.8436 9.08897C12.8923 8.97138 12.9173 8.84536 12.9172 8.7181C12.9171 8.46108 12.815 8.21463 12.6332 8.03296C12.4514 7.85128 12.2048 7.74926 11.9478 7.74935C11.6908 7.74943 11.4444 7.85162 11.2627 8.03341C11.081 8.21521 10.979 8.46173 10.9791 8.71874V8.71874ZM19.3749 8.07291C19.375 8.32993 19.4772 8.57638 19.659 8.75806C19.8408 8.93973 20.0873 9.04175 20.3443 9.04166C20.6013 9.04158 20.8478 8.9394 21.0295 8.7576C21.2111 8.5758 21.3132 8.32928 21.3131 8.07227C21.313 7.945 21.2879 7.819 21.2392 7.70144C21.1904 7.58388 21.119 7.47708 21.029 7.38712C20.939 7.29716 20.8321 7.22582 20.7145 7.17716C20.597 7.1285 20.4709 7.10347 20.3437 7.10352C20.2164 7.10356 20.0904 7.12867 19.9728 7.17741C19.8553 7.22614 19.7485 7.29756 19.6585 7.38758C19.5686 7.4776 19.4972 7.58445 19.4486 7.70204C19.3999 7.81963 19.3749 7.94565 19.3749 8.07291V8.07291ZM7.10409 10.6562C7.10413 10.7835 7.12924 10.9095 7.17798 11.0271C7.22672 11.1446 7.29813 11.2514 7.38815 11.3414C7.47817 11.4313 7.58502 11.5027 7.70261 11.5514C7.8202 11.6 7.94622 11.625 8.07348 11.625C8.20074 11.625 8.32675 11.5998 8.4443 11.5511C8.56186 11.5024 8.66867 11.4309 8.75862 11.3409C8.84858 11.2509 8.91993 11.1441 8.96859 11.0265C9.01725 10.9089 9.04227 10.7829 9.04223 10.6556C9.04215 10.3986 8.93996 10.1521 8.75817 9.97046C8.57637 9.78878 8.32985 9.68676 8.07284 9.68685C7.81582 9.68693 7.56937 9.78912 7.38769 9.97091C7.20602 10.1527 7.104 10.3992 7.10409 10.6562V10.6562ZM13.5624 4.19791C13.5625 4.32517 13.5876 4.45118 13.6363 4.56873C13.685 4.68629 13.7565 4.7931 13.8465 4.88305C13.9365 4.97301 14.0434 5.04436 14.1609 5.09302C14.2785 5.14168 14.4046 5.1667 14.5318 5.16666C14.6591 5.16662 14.7851 5.14151 14.9026 5.09277C15.0202 5.04403 15.127 4.97261 15.217 4.8826C15.3069 4.79258 15.3783 4.68573 15.4269 4.56814C15.4756 4.45055 15.5006 4.32453 15.5006 4.19727C15.5005 3.94025 15.3983 3.6938 15.2165 3.51212C15.0347 3.33045 14.7882 3.22843 14.5312 3.22852C14.2742 3.2286 14.0277 3.33078 13.846 3.51258C13.6643 3.69438 13.5623 3.9409 13.5624 4.19791V4.19791Z" fill="#757575"/>
<path d="M12.2708 9.36458C12.2708 9.49184 12.2959 9.61785 12.3446 9.73541C12.3934 9.85296 12.4648 9.95977 12.5548 10.0497C12.6448 10.1397 12.7517 10.211 12.8693 10.2597C12.9869 10.3084 13.1129 10.3334 13.2401 10.3333C13.3674 10.3333 13.4934 10.3082 13.611 10.2594C13.7285 10.2107 13.8353 10.1393 13.9253 10.0493C14.0152 9.95925 14.0866 9.8524 14.1353 9.73481C14.1839 9.61722 14.2089 9.4912 14.2089 9.36394C14.2088 9.10692 14.1066 8.86047 13.9248 8.67879C13.743 8.49712 13.4965 8.3951 13.2395 8.39519C12.9825 8.39527 12.736 8.49745 12.5544 8.67925C12.3727 8.86105 12.2707 9.10757 12.2708 9.36458ZM8.39575 11.9479C8.39579 12.0752 8.4209 12.2012 8.46964 12.3187C8.51838 12.4363 8.5898 12.5431 8.67981 12.6331C8.76983 12.723 8.87669 12.7944 8.99428 12.843C9.11186 12.8917 9.23789 12.9167 9.36515 12.9167C9.49241 12.9166 9.61841 12.8915 9.73597 12.8428C9.85353 12.794 9.96033 12.7226 10.0503 12.6326C10.1402 12.5426 10.2116 12.4357 10.2603 12.3181C10.3089 12.2006 10.3339 12.0745 10.3339 11.9473C10.3338 11.6903 10.2316 11.4438 10.0498 11.2621C9.86804 11.0805 9.62152 10.9784 9.3645 10.9785C9.10749 10.9786 8.86103 11.0808 8.67936 11.2626C8.49768 11.4444 8.39567 11.6909 8.39575 11.9479V11.9479ZM12.2708 13.8854C12.2708 14.0127 12.2959 14.1387 12.3446 14.2562C12.3934 14.3738 12.4648 14.4806 12.5548 14.5706C12.6448 14.6605 12.7517 14.7319 12.8693 14.7805C12.9869 14.8292 13.1129 14.8542 13.2401 14.8542C13.3674 14.8541 13.4934 14.829 13.611 14.7803C13.7285 14.7315 13.8353 14.6601 13.9253 14.5701C14.0152 14.4801 14.0866 14.3732 14.1353 14.2556C14.1839 14.1381 14.2089 14.012 14.2089 13.8848C14.2088 13.6278 14.1066 13.3813 13.9248 13.1996C13.743 13.018 13.4965 12.9159 13.2395 12.916C12.9825 12.9161 12.736 13.0183 12.5544 13.2001C12.3727 13.3819 12.2707 13.6284 12.2708 13.8854ZM14.2083 11.3021C14.2083 11.4293 14.2334 11.5553 14.2821 11.6729C14.3309 11.7905 14.4023 11.8973 14.4923 11.9872C14.5823 12.0772 14.6892 12.1485 14.8068 12.1972C14.9244 12.2459 15.0504 12.2709 15.1776 12.2708C15.3049 12.2708 15.4309 12.2457 15.5485 12.1969C15.666 12.1482 15.7728 12.0768 15.8628 11.9868C15.9527 11.8968 16.0241 11.7899 16.0728 11.6723C16.1214 11.5547 16.1464 11.4287 16.1464 11.3014C16.1463 11.0444 16.0441 10.798 15.8623 10.6163C15.6805 10.4346 15.434 10.3326 15.177 10.3327C14.92 10.3328 14.6735 10.435 14.4919 10.6168C14.3102 10.7985 14.2082 11.0451 14.2083 11.3021V11.3021ZM18.0833 13.8854C18.0833 14.0127 18.1084 14.1387 18.1571 14.2562C18.2059 14.3738 18.2773 14.4806 18.3673 14.5706C18.4573 14.6605 18.5642 14.7319 18.6818 14.7805C18.7994 14.8292 18.9254 14.8542 19.0526 14.8542C19.1799 14.8541 19.3059 14.829 19.4235 14.7803C19.541 14.7315 19.6478 14.6601 19.7378 14.5701C19.8277 14.4801 19.8991 14.3732 19.9478 14.2556C19.9964 14.1381 20.0214 14.012 20.0214 13.8848C20.0213 13.6278 19.9191 13.3813 19.7373 13.1996C19.5555 13.018 19.309 12.9159 19.052 12.916C18.795 12.9161 18.5485 13.0183 18.3669 13.2001C18.1852 13.3819 18.0832 13.6284 18.0833 13.8854V13.8854ZM19.3749 11.3021C19.375 11.5591 19.4772 11.8056 19.659 11.9872C19.8408 12.1689 20.0873 12.2709 20.3443 12.2708C20.6013 12.2707 20.8478 12.1686 21.0295 11.9868C21.2111 11.805 21.3131 11.5585 21.3131 11.3014C21.313 11.0444 21.2108 10.798 21.029 10.6163C20.8472 10.4346 20.6007 10.3326 20.3437 10.3327C20.0867 10.3328 19.8402 10.435 19.6585 10.6168C19.4768 10.7985 19.3748 11.0451 19.3749 11.3021V11.3021ZM22.6041 13.8854C22.6041 14.0127 22.6292 14.1387 22.678 14.2562C22.7267 14.3738 22.7981 14.4806 22.8881 14.5706C22.9782 14.6605 23.085 14.7319 23.2026 14.7805C23.3202 14.8292 23.4462 14.8542 23.5735 14.8542C23.7007 14.8541 23.8267 14.829 23.9443 14.7803C24.0619 14.7315 24.1687 14.6601 24.2586 14.5701C24.3486 14.4801 24.4199 14.3732 24.4686 14.2556C24.5173 14.1381 24.5423 14.012 24.5422 13.8848C24.5421 13.6278 24.44 13.3813 24.2582 13.1996C24.0764 13.018 23.8298 12.9159 23.5728 12.916C23.3158 12.9161 23.0694 13.0183 22.8877 13.2001C22.706 13.3819 22.604 13.6284 22.6041 13.8854V13.8854Z" fill="#424242"/>
<path d="M12.9167 6.78126C12.9168 7.03827 13.0189 7.28472 13.2007 7.4664C13.3825 7.64807 13.629 7.75009 13.8861 7.75001C14.1431 7.74992 14.3895 7.64774 14.5712 7.46594C14.7529 7.28415 14.8549 7.03762 14.8548 6.78061C14.8548 6.65335 14.8297 6.52734 14.7809 6.40979C14.7322 6.29223 14.6608 6.18542 14.5707 6.09547C14.4807 6.00551 14.3739 5.93416 14.2563 5.8855C14.1387 5.83684 14.0127 5.81182 13.8854 5.81186C13.7582 5.8119 13.6321 5.83701 13.5146 5.88575C13.397 5.93449 13.2902 6.00591 13.2003 6.09592C13.0186 6.27772 12.9166 6.52424 12.9167 6.78126V6.78126ZM9.6875 11.3021C9.68754 11.4293 9.71265 11.5554 9.76139 11.6729C9.81013 11.7905 9.88155 11.8973 9.97156 11.9872C10.0616 12.0772 10.1684 12.1485 10.286 12.1972C10.4036 12.2459 10.5296 12.2709 10.6569 12.2708C10.7842 12.2708 10.9102 12.2457 11.0277 12.1969C11.1453 12.1482 11.2521 12.0768 11.342 11.9868C11.432 11.8968 11.5033 11.7899 11.552 11.6723C11.6007 11.5547 11.6257 11.4287 11.6256 11.3014C11.6256 11.0444 11.5234 10.798 11.3416 10.6163C11.1598 10.4346 10.9133 10.3326 10.6563 10.3327C10.3992 10.3328 10.1528 10.435 9.97111 10.6168C9.78943 10.7986 9.68741 11.0451 9.6875 11.3021V11.3021ZM16.7917 13.8854C16.7917 14.0127 16.8168 14.1387 16.8656 14.2562C16.9143 14.3738 16.9857 14.4806 17.0757 14.5706C17.1657 14.6605 17.2726 14.7319 17.3902 14.7805C17.5078 14.8292 17.6338 14.8542 17.7611 14.8542C17.8883 14.8541 18.0143 14.829 18.1319 14.7803C18.2494 14.7315 18.3562 14.6601 18.4462 14.5701C18.5362 14.4801 18.6075 14.3732 18.6562 14.2556C18.7048 14.1381 18.7299 14.012 18.7298 13.8848C18.7297 13.6278 18.6275 13.3813 18.4457 13.1996C18.264 13.018 18.0174 12.9159 17.7604 12.916C17.5034 12.9161 17.2569 13.0183 17.0753 13.2001C16.8936 13.3819 16.7916 13.6284 16.7917 13.8854V13.8854ZM15.5 10.0104C15.5 10.1377 15.5252 10.2637 15.5739 10.3812C15.6226 10.4988 15.694 10.6056 15.7841 10.6956C15.8741 10.7855 15.9809 10.8569 16.0985 10.9055C16.2161 10.9542 16.3421 10.9792 16.4694 10.9792C16.5967 10.9791 16.7227 10.954 16.8402 10.9053C16.9578 10.8565 17.0646 10.7851 17.1545 10.6951C17.2445 10.6051 17.3158 10.4982 17.3645 10.3806C17.4132 10.2631 17.4382 10.137 17.4381 10.0098C17.4381 9.75276 17.3359 9.50631 17.1541 9.32463C16.9723 9.14296 16.7258 9.04094 16.4687 9.04103C16.2117 9.04111 15.9653 9.14329 15.7836 9.32509C15.6019 9.50689 15.4999 9.75341 15.5 10.0104ZM20.0208 11.9479C20.0209 12.0752 20.046 12.2012 20.0947 12.3187C20.1435 12.4363 20.2149 12.5431 20.3049 12.6331C20.3949 12.723 20.5018 12.7944 20.6194 12.843C20.7369 12.8917 20.863 12.9167 20.9902 12.9167C21.1175 12.9166 21.2435 12.8915 21.3611 12.8428C21.4786 12.794 21.5854 12.7226 21.6754 12.6326C21.7653 12.5426 21.8367 12.4357 21.8853 12.3181C21.934 12.2006 21.959 12.0745 21.959 11.9473C21.9589 11.6903 21.8567 11.4438 21.6749 11.2621C21.4931 11.0805 21.2466 10.9784 20.9896 10.9785C20.7326 10.9786 20.4861 11.0808 20.3044 11.2626C20.1228 11.4444 20.0207 11.6909 20.0208 11.9479V11.9479Z" fill="#8D6E63"/>
<path d="M1.93758 14.2083C1.7663 14.2083 1.60203 14.2764 1.48091 14.3975C1.35979 14.5186 1.29175 14.6829 1.29175 14.8542V15.1771C1.29175 20.296 4.73985 24.51 9.68758 26.4792L10.3334 27.125H20.6667L21.3126 26.4792C26.2603 24.51 29.7084 20.296 29.7084 15.1771V14.8542C29.7084 14.6829 29.6404 14.5186 29.5193 14.3975C29.3981 14.2764 29.2339 14.2083 29.0626 14.2083H1.93758Z" fill="#BCAAA4"/>
<path d="M9.6875 26.4792V28.4167H21.3125V26.4792H9.6875Z" fill="#795548"/>
</svg>
