<svg width="31" height="31" viewBox="0 0 31 31" fill="none" xmlns="http://www.w3.org/2000/svg">
<g clip-path="url(#clip0_205_485)">
<path d="M21.0913 12.6904C18.5954 15.1862 19.0224 18.4302 20.6126 20.0205C22.2028 21.6107 25.4468 22.0367 27.9427 19.5408C29.2586 18.2249 29.723 16.1116 29.9162 14.3346C30.1094 12.5577 30.0023 11.0811 30.0023 11.0811C29.9845 10.8407 29.7925 10.6499 29.5519 10.6336C29.5519 10.6336 29.1821 10.6069 28.5907 10.6043C27.9994 10.6023 27.1859 10.623 26.2975 10.7197C24.5206 10.9129 22.4072 11.3744 21.0913 12.6904V12.6904Z" fill="#FFC6A0"/>
<path d="M23.8231 17.3903C24.481 17.058 24.7939 16.5409 25.1826 16.9695C25.5714 17.398 25.2092 18.33 24.5512 18.6623C23.8932 18.9946 22.9147 18.7681 22.8001 18.173C22.7188 17.7514 23.1652 17.7227 23.8231 17.3903V17.3903Z" fill="#FFBA8D"/>
<path d="M21.1773 12.871C21.3285 13.0513 21.6535 13.0276 21.903 12.8181C22.1527 12.6086 22.2324 12.2924 22.0808 12.1123C22.0561 12.0827 22.0258 12.0578 21.991 12.039C21.9785 12.0327 21.9656 12.0265 21.9522 12.0213C21.6479 12.2143 21.3582 12.4263 21.1045 12.678C21.1094 12.7522 21.1344 12.8184 21.1773 12.871V12.871Z" fill="#FFEBDE"/>
<path d="M26.9739 18.5719C24.7287 20.8172 21.8821 20.6938 20.1746 19.4896C20.309 19.6803 20.4529 19.8606 20.6126 20.0204C22.2028 21.6106 25.4468 22.0366 27.9427 19.5407C29.2586 18.2248 29.723 16.1115 29.9162 14.3345C30.1094 12.5576 30.0023 11.081 30.0023 11.081C29.9845 10.8406 29.7925 10.6498 29.552 10.6335C29.552 10.6335 29.2302 10.6262 29.0486 10.6186C29.0693 11.1314 29.0897 12.0571 28.9474 13.3658C28.7542 15.1427 28.2898 17.256 26.9739 18.5719H26.9739Z" fill="#FFAF7A"/>
<path d="M26.2975 10.7197C24.5206 10.9129 22.4072 11.3744 21.0913 12.6904C18.5954 15.1862 19.0224 18.4302 20.6126 20.0205C20.7833 20.1911 20.9763 20.3452 21.1821 20.4869C21.0824 20.4047 20.9853 20.3203 20.8955 20.2305C19.2734 18.6085 18.8379 15.2995 21.3836 12.7537C22.7258 11.4115 24.8814 10.9404 26.6939 10.7434C27.6001 10.6449 28.4294 10.6233 29.0325 10.626C29.3932 10.6277 29.4523 10.6352 29.6191 10.6443C29.597 10.6391 29.5746 10.6354 29.5519 10.6333C29.5519 10.6333 29.1821 10.6068 28.5907 10.6041C27.9994 10.6023 27.1859 10.6231 26.2975 10.7197V10.7197Z" fill="#FFEBDE"/>
<path d="M15.5088 0.968825C15.4918 0.968557 15.4747 0.969189 15.4577 0.970718C15.3558 0.980053 15.2594 1.02145 15.1824 1.08898C15.1824 1.08898 14.0639 2.05916 12.944 3.45224C11.8242 4.84532 10.6555 6.66499 10.6555 8.52598C10.6555 12.0557 13.2514 14.051 15.5003 14.051C17.7492 14.051 20.346 12.0557 20.346 8.52598C20.346 6.66499 19.1774 4.84532 18.0575 3.45224C16.9376 2.05916 15.8191 1.08898 15.8191 1.08898C15.7331 1.01354 15.6232 0.970979 15.5088 0.968825Z" fill="#FFC6A0"/>
<path d="M11.4984 6.10028C11.7403 6.19322 12.0404 5.99656 12.1682 5.6613C12.2962 5.32604 12.2034 4.97932 11.961 4.88742C11.9477 4.88248 11.9342 4.87838 11.9203 4.87512C11.7006 5.22068 11.4974 5.57834 11.3196 5.94796C11.3649 6.01991 11.4263 6.07224 11.4984 6.10028V6.10028Z" fill="#FFEBDE"/>
<path d="M16.3938 8.91707C16.8153 8.28207 16.8322 7.65741 17.4006 7.84388C17.969 8.03034 18.1199 9.05309 17.6983 9.68813C17.2769 10.3231 16.2816 10.6197 15.8743 10.1434C15.5858 9.80601 15.9723 9.55207 16.3938 8.91707Z" fill="#FFBA8D"/>
<path d="M16.1123 1.36618C16.4209 1.69588 16.7486 2.06047 17.0887 2.48348C18.2085 3.87656 19.3772 5.69623 19.3772 7.55722C19.3772 11.0869 16.7804 13.0822 14.5315 13.0822C13.6124 13.0822 12.638 12.7437 11.804 12.1087C12.7677 13.3703 14.1909 14.051 15.5002 14.051C17.7492 14.051 20.346 12.0557 20.346 8.52599C20.346 6.665 19.1773 4.84533 18.0574 3.45225C17.1727 2.35165 16.4445 1.66897 16.1123 1.36618Z" fill="#FFAF7A"/>
<path d="M15.5088 0.968825C15.4918 0.968557 15.4747 0.969189 15.4577 0.970718C15.3558 0.980054 15.2594 1.02145 15.1824 1.08898C15.1824 1.08898 14.0639 2.05916 12.944 3.45224C11.8242 4.84532 10.6555 6.66499 10.6555 8.52598C10.6555 11.0942 12.0311 12.845 13.646 13.6111C12.1342 12.769 10.8977 11.0472 10.8977 8.5941C10.8977 6.7057 12.0839 4.85922 13.2203 3.44562C14.3567 2.03202 15.4918 1.04829 15.4918 1.04829C15.5231 1.02068 15.5577 0.997152 15.5949 0.978286C15.5666 0.972568 15.5377 0.969402 15.5088 0.968825V0.968825Z" fill="#FFEBDE"/>
<path d="M2.40988 10.6044C1.81853 10.6071 1.44963 10.6337 1.44963 10.6337C1.20871 10.6496 1.01625 10.8405 0.998354 11.0812C0.998354 11.0812 0.891263 12.5578 1.08445 14.3347C1.27763 16.1117 1.74202 18.225 3.05793 19.5409C5.55383 22.0368 8.79875 21.6108 10.389 20.0206C11.9792 18.4304 12.4014 15.1864 9.90554 12.6905C8.58962 11.3746 6.48007 10.913 4.70314 10.7198C3.81467 10.6232 3.00123 10.6017 2.40988 10.6044Z" fill="#FFC6A0"/>
<path d="M1.18769 12.9753C1.17692 12.9753 1.1662 12.976 1.15552 12.9771C1.11535 12.9817 1.07621 12.9938 1.03916 13.0131C1.02189 13.0223 1.00514 13.033 0.989014 13.0453C1.00359 13.3887 1.03294 13.7677 1.07132 14.1578C1.14114 14.1998 1.21623 14.218 1.28986 14.2108C1.34838 14.2045 1.4046 14.1823 1.4553 14.1455C1.506 14.1087 1.55018 14.0579 1.58533 13.9961C1.62048 13.9344 1.64589 13.8628 1.66013 13.7855C1.67436 13.7082 1.67714 13.6267 1.66829 13.5457C1.65142 13.3897 1.59244 13.2441 1.50325 13.1382C1.41406 13.0323 1.30129 12.9741 1.18769 12.9753V12.9753Z" fill="#FFEBDE"/>
<path d="M8.06919 16.1084C8.25053 15.337 8.04121 14.7219 8.66279 14.6982C9.28436 14.6745 9.80114 15.617 9.61971 16.3885C9.43836 17.16 8.57527 17.8089 8.00608 17.4918C7.60285 17.2671 7.88784 16.8798 8.06919 16.1084Z" fill="#FFBA8D"/>
<path d="M9.43526 12.2827C11.3599 14.6852 10.8937 17.5783 9.42012 19.0518C7.94615 20.5258 5.05121 20.9949 2.64819 19.0688C2.77505 19.2347 2.91043 19.3935 3.05784 19.5409C5.55373 22.0368 8.79865 21.6108 10.3889 20.0206C11.9791 18.4304 12.4013 15.1864 9.90545 12.6905C9.75856 12.5436 9.60036 12.4091 9.43526 12.2827Z" fill="#FFAF7A"/>
<path d="M1.54613 10.6309C1.53882 10.6314 1.44963 10.6338 1.44963 10.6338C1.20871 10.6496 1.01625 10.8405 0.998354 11.0813C0.998354 11.0813 0.891263 12.5578 1.08445 14.3348C1.27763 16.1117 1.74202 18.225 3.05793 19.541C3.57221 20.0552 4.11886 20.4391 4.6757 20.7207C4.23969 20.4576 3.81225 20.1335 3.40514 19.7264C2.05239 18.3736 1.57442 16.2011 1.37583 14.3745C1.17724 12.5478 1.28785 11.0301 1.28785 11.0301C1.30074 10.8619 1.39796 10.7116 1.54613 10.6309Z" fill="#FFEBDE"/>
<path d="M15.5088 16.9497C15.4918 16.9494 15.4747 16.95 15.4577 16.9516C15.3558 16.9609 15.2594 17.0023 15.1824 17.0698C15.1824 17.0698 14.0639 18.04 12.944 19.4331C11.8242 20.8262 10.6555 22.6458 10.6555 24.5068C10.6555 28.0365 13.2514 30.0318 15.5003 30.0318C17.7492 30.0318 20.346 28.0365 20.346 24.5068C20.346 22.6458 19.1774 20.8262 18.0575 19.4331C16.9376 18.04 15.8191 17.0698 15.8191 17.0698C15.7331 16.9944 15.6232 16.9518 15.5088 16.9497Z" fill="#FFC6A0"/>
<path d="M11.961 20.8683C11.9477 20.8633 11.9342 20.8593 11.9203 20.856C11.7006 21.2015 11.4974 21.5592 11.3196 21.9288C11.3649 22.0008 11.4263 22.0531 11.4984 22.0811C11.7403 22.1741 12.0404 21.9774 12.1682 21.6421C12.2962 21.3069 12.2034 20.9602 11.961 20.8683Z" fill="#FFEBDE"/>
<path d="M16.3938 24.8979C16.8153 24.2629 16.8322 23.6382 17.4006 23.8247C17.969 24.0112 18.1199 25.0339 17.6983 25.669C17.2769 26.304 16.2816 26.6006 15.8743 26.1243C15.5858 25.7868 15.9723 25.5329 16.3938 24.8979Z" fill="#FFBA8D"/>
<path d="M16.1123 17.347C16.4209 17.6767 16.7486 18.0413 17.0887 18.4643C18.2085 19.8574 19.3772 21.6771 19.3772 23.5381C19.3772 27.0678 16.7804 29.0631 14.5315 29.0631C13.6124 29.0631 12.638 28.7246 11.804 28.0896C12.7677 29.3512 14.1909 30.0318 15.5002 30.0318C17.7492 30.0318 20.346 28.0365 20.346 24.5068C20.346 22.6458 19.1773 20.8262 18.0574 19.4331C17.1727 18.3325 16.4445 17.6498 16.1123 17.347Z" fill="#FFAF7A"/>
<path d="M12.944 19.4331C11.8242 20.8262 10.6555 22.6458 10.6555 24.5068C10.6555 27.0751 12.0311 28.8259 13.646 29.5919C12.1342 28.7498 10.8977 27.028 10.8977 24.5749C10.8977 22.6865 12.0839 20.8401 13.2203 19.4265C14.3567 18.0129 15.4918 17.0291 15.4918 17.0291C15.5231 17.0015 15.5577 16.978 15.5949 16.9591C15.5666 16.9534 15.5377 16.9503 15.5088 16.9497C15.4918 16.9494 15.4747 16.95 15.4577 16.9516C15.3558 16.9609 15.2594 17.0023 15.1824 17.0698C15.1824 17.0698 14.0639 18.04 12.944 19.4331V19.4331Z" fill="#FFEBDE"/>
</g>
<defs>
<clipPath id="clip0_205_485">
<rect width="31" height="31" fill="white"/>
</clipPath>
</defs>
</svg>
