<svg width="31" height="31" viewBox="0 0 31 31" fill="none" xmlns="http://www.w3.org/2000/svg">
<path fill-rule="evenodd" clip-rule="evenodd" d="M9.6875 27.5261L11.2239 29.0625C11.9805 29.8191 13.207 29.8191 13.9636 29.0625L15.5058 27.5202L17.0897 29.077C17.8502 29.8249 19.0718 29.8172 19.8235 29.0606L21.3406 27.5319L22.8441 29.046C23.3972 29.6031 24.2313 29.7707 24.9569 29.4723C25.6825 29.1729 26.1562 28.4657 26.1562 27.6801V4.84375C26.1562 4.07262 25.8501 3.33347 25.3047 2.78903C24.7603 2.24362 24.0211 1.9375 23.25 1.9375C19.5377 1.9375 11.4623 1.9375 7.75 1.9375C6.97887 1.9375 6.23972 2.24362 5.69528 2.78903C5.14987 3.33347 4.84375 4.07262 4.84375 4.84375V27.6927C4.84375 28.4764 5.31552 29.1826 6.04014 29.4829C6.7638 29.7823 7.59694 29.6166 8.15106 29.0625L9.6875 27.5261Z" fill="#D1E3EC"/>
<path fill-rule="evenodd" clip-rule="evenodd" d="M9.6875 21.3125H10.6562C11.191 21.3125 11.625 20.8785 11.625 20.3438C11.625 19.809 11.191 19.375 10.6562 19.375H9.6875C9.15275 19.375 8.71875 19.809 8.71875 20.3438C8.71875 20.8785 9.15275 21.3125 9.6875 21.3125ZM14.5312 21.3125H21.3125C21.8472 21.3125 22.2812 20.8785 22.2812 20.3438C22.2812 19.809 21.8472 19.375 21.3125 19.375H14.5312C13.9965 19.375 13.5625 19.809 13.5625 20.3438C13.5625 20.8785 13.9965 21.3125 14.5312 21.3125ZM9.6875 15.5H10.6562C11.191 15.5 11.625 15.066 11.625 14.5312C11.625 13.9965 11.191 13.5625 10.6562 13.5625H9.6875C9.15275 13.5625 8.71875 13.9965 8.71875 14.5312C8.71875 15.066 9.15275 15.5 9.6875 15.5ZM14.5312 15.5H21.3125C21.8472 15.5 22.2812 15.066 22.2812 14.5312C22.2812 13.9965 21.8472 13.5625 21.3125 13.5625H14.5312C13.9965 13.5625 13.5625 13.9965 13.5625 14.5312C13.5625 15.066 13.9965 15.5 14.5312 15.5ZM9.6875 9.6875H10.6562C11.191 9.6875 11.625 9.2535 11.625 8.71875C11.625 8.184 11.191 7.75 10.6562 7.75H9.6875C9.15275 7.75 8.71875 8.184 8.71875 8.71875C8.71875 9.2535 9.15275 9.6875 9.6875 9.6875ZM14.5312 9.6875H21.3125C21.8472 9.6875 22.2812 9.2535 22.2812 8.71875C22.2812 8.184 21.8472 7.75 21.3125 7.75H14.5312C13.9965 7.75 13.5625 8.184 13.5625 8.71875C13.5625 9.2535 13.9965 9.6875 14.5312 9.6875Z" fill="#A2B6C1"/>
</svg>
