<svg width="24" height="31" viewBox="0 0 24 31" fill="none" xmlns="http://www.w3.org/2000/svg">
<path d="M17.3392 1.57738C17.0486 1.57738 16.8137 1.3425 16.8137 1.05193V0.525441C16.8137 0.235398 17.0486 0 17.3392 0C17.6297 0 17.8646 0.235398 17.8646 0.525441V1.05193C17.8646 1.3425 17.6297 1.57738 17.3392 1.57738Z" fill="#656D78"/>
<path d="M11.0344 7.35619C11.3233 7.35619 11.5598 7.59263 11.5598 7.88163V8.40707C11.5598 8.69606 11.3233 8.93251 11.0344 8.93251H4.72905C4.44006 8.93251 4.20361 8.69606 4.20361 8.40707V7.88163C4.20361 7.59263 4.44006 7.35619 4.72905 7.35619H5.2545C5.54349 7.35619 6.01639 7.35619 6.30538 7.35619H9.45803C9.74702 7.35619 10.2199 7.35619 10.5089 7.35619H11.0344ZM21.0177 8.40707C21.0177 8.69606 20.7813 8.93251 20.4923 8.93251H14.187C13.898 8.93251 13.6616 8.69606 13.6616 8.40707V7.88163C13.6616 7.59263 13.898 7.35619 14.187 7.35619H14.7124C15.0014 7.35619 15.4743 7.35619 15.7633 7.35619H18.916C19.205 7.35619 19.6779 7.35619 19.9669 7.35619H20.4923C20.7813 7.35619 21.0177 7.59263 21.0177 7.88163V8.40707Z" fill="#434A54"/>
<path d="M21.0177 29.4237C21.3067 29.4237 21.5431 29.6601 21.5431 29.9491V30.4746C21.5431 30.7636 21.3067 31 21.0177 31H16.8141C16.5251 31 16.2887 30.7636 16.2887 30.4746V29.9491C16.2887 29.6601 16.5251 29.4237 16.8141 29.4237H21.0177ZM8.40707 29.4237C8.69607 29.4237 8.93252 29.6601 8.93252 29.9491V30.4746C8.93252 30.7636 8.69607 31 8.40707 31H4.20354C3.91455 31 3.6781 30.7636 3.6781 30.4746V29.9491C3.6781 29.6601 3.91455 29.4237 4.20354 29.4237H8.40707Z" fill="#545C66"/>
<path d="M22.0686 7.8811H21.0177H13.6615H11.5598H4.20357H3.15269C2.5747 7.8811 2.10181 8.35399 2.10181 8.93198V15.7627V28.8988C2.10181 29.4767 2.5747 29.9496 3.15269 29.9496H3.67813H8.93255H16.2887H21.5431H22.0686C22.6466 29.9496 23.1195 29.4767 23.1195 28.8988V14.1864V8.93198C23.1195 8.35399 22.6466 7.8811 22.0686 7.8811Z" fill="#656D78"/>
<path d="M3.67761 5.77985H12.0857C12.0857 6.65209 11.3816 7.35618 10.5094 7.35618H5.25394C4.3817 7.35618 3.67761 6.65209 3.67761 5.77985Z" fill="#545C66"/>
<path d="M15.2379 0.525436H17.3397H19.4414C20.3137 0.525436 21.0177 1.22953 21.0177 2.10176H13.6616C13.6616 1.22953 14.3657 0.525436 15.2379 0.525436ZM21.0177 2.10176V5.77985C21.0177 6.65208 20.3137 7.35618 19.4414 7.35618H15.2379C14.3657 7.35618 13.6616 6.65208 13.6616 5.77985V2.10176H21.0177ZM15.7633 9.98286C16.3413 9.98286 16.8142 10.4558 16.8142 11.0337C16.8142 11.617 16.3413 12.0846 15.7633 12.0846C15.1801 12.0846 14.7124 11.617 14.7124 11.0337C14.7124 10.4558 15.1801 9.98286 15.7633 9.98286ZM19.9669 9.98286C20.5448 9.98286 21.0177 10.4558 21.0177 11.0337C21.0177 11.617 20.5448 12.0846 19.9669 12.0846C19.3836 12.0846 18.916 11.617 18.916 11.0337C18.916 10.4558 19.3836 9.98286 19.9669 9.98286ZM5.2545 9.98286C5.83248 9.98286 6.30538 10.4558 6.30538 11.0337C6.30538 11.617 5.83248 12.0846 5.2545 12.0846C4.67651 12.0846 4.20361 11.617 4.20361 11.0337C4.20361 10.4558 4.67651 9.98286 5.2545 9.98286ZM9.45803 9.98286C10.036 9.98286 10.5089 10.4558 10.5089 11.0337C10.5089 11.617 10.036 12.0846 9.45803 12.0846C8.88004 12.0846 8.40715 11.617 8.40715 11.0337C8.40715 10.4558 8.88004 9.98286 9.45803 9.98286Z" fill="#CCD1D9"/>
<path d="M20.4923 15.2373C20.7813 15.2373 21.0177 15.4732 21.0177 15.7627V27.3224C21.0177 27.6114 20.7813 27.8479 20.4923 27.8479H4.72905C4.44006 27.8479 4.20361 27.6114 4.20361 27.3224V15.7627C4.20361 15.4732 4.44006 15.2373 4.72905 15.2373H20.4923Z" fill="#5D9CEC"/>
<path d="M13.2528 27.8479H10.6245L12.2024 15.7627H14.8307L13.2528 27.8479Z" fill="#87BCF4"/>
<path d="M11.5593 5.78038H0.525564C0.234994 5.78038 0.00012207 5.54551 0.00012207 5.25494C0.00012207 4.9649 0.234994 4.7295 0.525564 4.7295H11.5593C11.8499 4.7295 12.0848 4.9649 12.0848 5.25494C12.0848 5.54551 11.8499 5.78038 11.5593 5.78038Z" fill="#656D78"/>
<path d="M22.068 2.62827H12.6101C12.3195 2.62827 12.0846 2.39287 12.0846 2.10282C12.0846 1.81225 12.3195 1.57738 12.6101 1.57738H22.068C22.3586 1.57738 22.5935 1.81225 22.5935 2.10282C22.5935 2.39287 22.3586 2.62827 22.068 2.62827ZM5.25495 4.20249C5.06211 4.20301 4.87663 4.09635 4.78415 3.91244C4.66435 3.67284 4.74475 3.38543 4.96175 3.24041C4.95913 3.20362 4.93968 3.10116 4.81726 2.91726C4.53142 2.4885 4.43473 2.08759 4.53089 1.72608C4.64123 1.31256 4.95755 1.13654 5.02008 1.10501C5.28122 0.975752 5.59544 1.08137 5.72469 1.34041C5.84449 1.58001 5.7641 1.8669 5.54709 2.0114C5.54972 2.0487 5.56969 2.15116 5.69159 2.33349C5.97743 2.76225 6.07411 3.16316 5.97796 3.52467C5.86814 3.93872 5.55182 4.11526 5.48982 4.14679C5.41416 4.18515 5.33377 4.20249 5.25495 4.20249ZM7.88111 4.20249C7.68827 4.20301 7.50279 4.09635 7.41031 3.91244C7.29051 3.67284 7.3709 3.38543 7.58791 3.24041C7.58528 3.20362 7.56584 3.10116 7.44341 2.91726C7.15757 2.4885 7.06089 2.08759 7.15705 1.72608C7.26739 1.31256 7.58371 1.13654 7.64623 1.10501C7.9079 0.975752 8.22159 1.08137 8.35085 1.34041C8.47065 1.58001 8.39026 1.8669 8.17325 2.0114C8.17588 2.0487 8.19585 2.15116 8.31775 2.33349C8.60359 2.76225 8.70027 3.16316 8.60411 3.52467C8.4943 3.93872 8.17798 4.11526 8.11598 4.14679C8.04031 4.18515 7.95992 4.20249 7.88111 4.20249ZM10.5073 4.20249C10.3144 4.20301 10.1289 4.09635 10.0365 3.91244C9.91667 3.67284 9.99706 3.38543 10.2141 3.24041C10.2114 3.20362 10.192 3.10116 10.0696 2.91726C9.78373 2.4885 9.68705 2.08759 9.7832 1.72608C9.89355 1.31256 10.2099 1.13654 10.2724 1.10501C10.5335 0.975752 10.8477 1.08137 10.977 1.34041C11.0968 1.58001 11.0164 1.8669 10.7994 2.0114C10.802 2.0487 10.822 2.15116 10.9439 2.33349C11.2297 2.76225 11.3264 3.16316 11.2303 3.52467C11.1205 3.93872 10.8041 4.11526 10.7421 4.14679C10.6665 4.18515 10.5861 4.20249 10.5073 4.20249Z" fill="#E6E9ED"/>
<path d="M21.0177 14.1864C21.3067 14.1864 21.5431 14.4228 21.5431 14.7118V15.2373C21.5431 15.5263 21.3067 15.7627 21.0177 15.7627H4.20354C3.91455 15.7627 3.6781 15.5263 3.6781 15.2373V14.7118C3.6781 14.4228 3.91455 14.1864 4.20354 14.1864H21.0177Z" fill="#AAB2BD"/>
<path d="M12.0848 5.25494H11.5593V5.78038H12.0848V5.25494Z" fill="#656D78"/>
</svg>
