<svg width="29" height="29" viewBox="0 0 29 29" fill="none" xmlns="http://www.w3.org/2000/svg">
<path d="M8.2696 29H22.3165C22.4202 28.9988 22.5194 28.9567 22.5923 28.8829C22.6653 28.8091 22.7062 28.7096 22.7062 28.6058V9.26187L17.8124 2.1614H2.15694C2.105 2.1608 2.05347 2.17058 2.00536 2.19017C1.95726 2.20977 1.91356 2.23879 1.87683 2.27551C1.8401 2.31224 1.81109 2.35594 1.79149 2.40405C1.7719 2.45215 1.76211 2.50368 1.76272 2.55562V23.1094L8.2696 29Z" fill="#F4F2F2"/>
<path d="M6.8014 19.6294H5.13843V21.7727H6.8014V19.6294Z" fill="#D82B5D"/>
<path d="M9.75574 18.3108H8.09277V21.7681H9.75574V18.3108Z" fill="#365470"/>
<path d="M12.7147 16.9967H11.0518V21.7727H12.7147V16.9967Z" fill="#EE9156"/>
<path d="M15.6688 15.6781H14.0059V21.7681H15.6688V15.6781Z" fill="#7CA3C2"/>
<path d="M18.6278 14.3641H16.9648V21.7727H18.6278V14.3641Z" fill="#95CEBE"/>
<path d="M17.6536 11.8447C17.6218 11.7895 17.5698 11.7489 17.5086 11.7314L16.6023 11.4958C16.5423 11.4808 16.4787 11.4902 16.4255 11.5221C16.3724 11.554 16.3342 11.6056 16.3191 11.6657C16.3041 11.7258 16.3136 11.7894 16.3454 11.8425C16.3773 11.8956 16.429 11.9339 16.4891 11.9489L16.8334 12.0395L5.86328 17.9437C5.8372 17.9575 5.81413 17.9764 5.79542 17.9992C5.77671 18.022 5.76272 18.0483 5.75429 18.0765C5.74585 18.1048 5.74313 18.1345 5.74628 18.1638C5.74944 18.1931 5.7584 18.2215 5.77266 18.2473C5.79162 18.2839 5.8202 18.3147 5.85533 18.3362C5.89047 18.3578 5.93081 18.3694 5.97203 18.3697C6.00855 18.3699 6.04449 18.3605 6.07625 18.3425L17.06 12.4156L16.9331 12.7781C16.9232 12.8067 16.9191 12.8369 16.9211 12.867C16.9231 12.8972 16.931 12.9266 16.9445 12.9537C16.9581 12.9807 16.9768 13.0047 16.9998 13.0244C17.0227 13.044 17.0494 13.0589 17.0781 13.0681H17.1506C17.1977 13.0678 17.2436 13.0527 17.2817 13.0251C17.3199 12.9975 17.3485 12.9587 17.3636 12.9141L17.6672 12.0078C17.6827 11.9536 17.6779 11.8956 17.6536 11.8447ZM4.27734 5.65047H15.3653C15.3951 5.65231 15.4249 5.64825 15.4531 5.63854C15.4813 5.62882 15.5073 5.61364 15.5296 5.59385C15.5519 5.57406 15.5701 5.55007 15.5831 5.52324C15.5961 5.49641 15.6037 5.46727 15.6055 5.4375C15.6055 5.37741 15.5816 5.31978 15.5391 5.2773C15.4966 5.23481 15.439 5.21094 15.3789 5.21094H4.27734C4.21726 5.21094 4.15963 5.23481 4.11714 5.2773C4.07465 5.31978 4.05078 5.37741 4.05078 5.4375C4.05425 5.4952 4.07964 5.54939 4.12176 5.58899C4.16388 5.62858 4.21954 5.65057 4.27734 5.65047ZM4.27734 7.67141H15.3653C15.4254 7.67141 15.483 7.64754 15.5255 7.60505C15.568 7.56256 15.5919 7.50493 15.5919 7.44484C15.5919 7.38476 15.568 7.32713 15.5255 7.28464C15.483 7.24215 15.4254 7.21828 15.3653 7.21828H4.27734C4.21726 7.21828 4.15963 7.24215 4.11714 7.28464C4.07465 7.32713 4.05078 7.38476 4.05078 7.44484C4.05078 7.50493 4.07465 7.56256 4.11714 7.60505C4.15963 7.64754 4.21726 7.67141 4.27734 7.67141ZM15.6055 9.46578C15.6055 9.40569 15.5816 9.34807 15.5391 9.30558C15.4966 9.26309 15.439 9.23922 15.3789 9.23922H4.27734C4.21726 9.23922 4.15963 9.26309 4.11714 9.30558C4.07465 9.34807 4.05078 9.40569 4.05078 9.46578C4.05078 9.52587 4.07465 9.5835 4.11714 9.62599C4.15963 9.66847 4.21726 9.69234 4.27734 9.69234H15.3653C15.3962 9.6942 15.4271 9.68971 15.4562 9.67916C15.4853 9.66861 15.5119 9.65222 15.5344 9.63099C15.5569 9.60976 15.5748 9.58415 15.587 9.55574C15.5992 9.52733 15.6055 9.49671 15.6055 9.46578Z" fill="#E9E9E9"/>
<path d="M22.706 0C19.5069 0 16.915 2.07531 16.915 4.63094C16.9228 5.18905 17.045 5.73964 17.2742 6.2486C17.5033 6.75756 17.8345 7.21406 18.2472 7.58984L17.9436 9.7875L19.806 8.64109C20.716 9.05702 21.7054 9.27038 22.706 9.26641C25.8779 9.26641 28.4924 7.19109 28.4924 4.63094C28.4924 2.07078 25.9005 0 22.706 0Z" fill="#7CA3C2"/>
<path d="M25.5743 4.63095C25.5752 5.20131 25.4068 5.75912 25.0905 6.23374C24.7742 6.70835 24.3241 7.07843 23.7974 7.29711C23.2706 7.5158 22.6908 7.57325 22.1313 7.4622C21.5719 7.35114 21.0579 7.07658 20.6546 6.67327C20.2513 6.26996 19.9768 5.75604 19.8657 5.19659C19.7546 4.63714 19.8121 4.05732 20.0308 3.53054C20.2495 3.00376 20.6195 2.55372 21.0942 2.2374C21.5688 1.92108 22.1266 1.75271 22.697 1.7536C23.4597 1.7548 24.1909 2.05834 24.7302 2.59768C25.2696 3.13703 25.5731 3.8682 25.5743 4.63095Z" fill="#F4F2F2"/>
<path d="M22.4705 3.89234C22.4718 3.99946 22.458 4.10623 22.4297 4.20953C22.4091 4.29884 22.3689 4.38243 22.3119 4.45422C22.2584 4.52165 22.1902 4.57591 22.1125 4.61281C22.0218 4.65487 21.9225 4.67505 21.8225 4.67172C21.726 4.67431 21.6301 4.65575 21.5416 4.61734C21.4652 4.58453 21.3982 4.53313 21.3467 4.46781C21.2947 4.39364 21.2563 4.31078 21.2334 4.22313C21.2101 4.11753 21.1995 4.00953 21.2017 3.90141C21.1993 3.79751 21.2115 3.69378 21.238 3.59328C21.2589 3.50493 21.2974 3.42171 21.3513 3.34859C21.4032 3.27513 21.4715 3.21465 21.5506 3.17188C21.642 3.13187 21.7409 3.11179 21.8406 3.11297C21.9454 3.1106 22.0492 3.1323 22.1442 3.17641C22.2214 3.21418 22.2883 3.27017 22.3391 3.33953C22.3884 3.41356 22.4223 3.49678 22.4388 3.58422C22.4623 3.68517 22.473 3.78871 22.4705 3.89234ZM21.8225 6.13078C21.8206 6.1372 21.8171 6.14304 21.8123 6.14778C21.8076 6.15252 21.8017 6.15602 21.7953 6.15797C21.7834 6.16041 21.771 6.16041 21.7591 6.15797H21.7047H21.6277H21.5461C21.5461 6.15797 21.5099 6.15797 21.5008 6.13078C21.4917 6.10359 21.5008 6.13078 21.5008 6.09453C21.4983 6.07953 21.4983 6.06422 21.5008 6.04922L23.5534 3.10844C23.5598 3.09579 23.5691 3.0849 23.5806 3.07672H23.6214H23.6758H23.7619H23.8389C23.8537 3.07267 23.8694 3.07267 23.8842 3.07672C23.8874 3.08304 23.8891 3.09003 23.8891 3.09711C23.8891 3.10419 23.8874 3.11118 23.8842 3.1175C23.8879 3.13238 23.8879 3.14793 23.8842 3.16281L21.8225 6.13078ZM22.1488 3.90141C22.1562 3.82607 22.1562 3.75018 22.1488 3.67484C22.1424 3.61722 22.1239 3.56161 22.0944 3.51172C22.0709 3.47003 22.0364 3.43556 21.9947 3.41203C21.9498 3.38944 21.8999 3.37853 21.8497 3.38031C21.8009 3.3785 21.7525 3.38943 21.7092 3.41203C21.6681 3.43263 21.6347 3.46602 21.6141 3.50719C21.5845 3.55542 21.566 3.60957 21.5597 3.66578C21.552 3.73959 21.552 3.814 21.5597 3.88781C21.5518 3.97373 21.5518 4.06018 21.5597 4.14609C21.57 4.20408 21.5916 4.25948 21.6231 4.30922C21.6471 4.34716 21.6818 4.37712 21.7228 4.39531C21.7666 4.41019 21.8125 4.41785 21.8588 4.41797C21.911 4.42004 21.9628 4.40748 22.0083 4.38172C22.0496 4.35918 22.0828 4.32434 22.1034 4.28203C22.1288 4.2307 22.1456 4.17562 22.1533 4.11891C22.1569 4.04639 22.1553 3.97371 22.1488 3.90141ZM24.215 5.365C24.216 5.47359 24.2023 5.58182 24.1742 5.68672C24.1517 5.77533 24.1116 5.85854 24.0564 5.93141C23.9998 5.99742 23.9304 6.05136 23.8525 6.09C23.7622 6.12796 23.665 6.14648 23.567 6.14438C23.4696 6.14565 23.3728 6.12874 23.2816 6.09453C23.206 6.06031 23.1405 6.00726 23.0913 5.94047C23.0349 5.87062 22.996 5.78827 22.978 5.70031C22.9532 5.59335 22.9411 5.48385 22.9417 5.37406C22.941 5.26996 22.9547 5.16626 22.9825 5.06594C23.0034 4.97759 23.042 4.89437 23.0958 4.82125C23.1472 4.75186 23.216 4.69718 23.2952 4.66266C23.3859 4.6206 23.4852 4.60042 23.5852 4.60375C23.6881 4.60001 23.7904 4.62017 23.8842 4.66266C23.964 4.69856 24.0317 4.75679 24.0791 4.83031C24.1309 4.90183 24.1664 4.98379 24.1833 5.07047C24.2033 5.1674 24.2139 5.26603 24.215 5.365ZM23.8933 5.365C23.901 5.28967 23.901 5.21376 23.8933 5.13844C23.8827 5.08038 23.8644 5.02399 23.8389 4.97078C23.8154 4.92909 23.7809 4.89462 23.7392 4.87109C23.6943 4.8485 23.6445 4.8376 23.5942 4.83938C23.5454 4.83756 23.497 4.8485 23.4538 4.87109C23.4136 4.8931 23.3806 4.92611 23.3586 4.96625C23.3292 5.01495 23.3092 5.06875 23.2997 5.12484C23.2943 5.19876 23.2943 5.27297 23.2997 5.34688C23.2913 5.43277 23.2913 5.51927 23.2997 5.60516C23.3092 5.66337 23.3308 5.71895 23.3631 5.76828C23.3871 5.80622 23.4218 5.83618 23.4628 5.85438C23.506 5.87139 23.5524 5.87911 23.5988 5.87703C23.6506 5.88048 23.7023 5.8695 23.7483 5.84531C23.7899 5.82111 23.8231 5.78474 23.8434 5.74109C23.8687 5.69136 23.8856 5.63776 23.8933 5.5825C23.8962 5.51451 23.8947 5.44639 23.8888 5.37859L23.8933 5.365Z" fill="#7CA3C2"/>
<path d="M8.30125 22.6381H0.530156C0.237359 22.6381 0 22.8755 0 23.1683V24.2286C0 24.5214 0.237359 24.7587 0.530156 24.7587H8.30125C8.59405 24.7587 8.83141 24.5214 8.83141 24.2286V23.1683C8.83141 22.8755 8.59405 22.6381 8.30125 22.6381Z" fill="#F0BB73"/>
<path d="M8.83141 23.9658V24.2286C8.83141 24.3692 8.77555 24.504 8.67613 24.6035C8.5767 24.7029 8.44186 24.7587 8.30125 24.7587H0.530156C0.38955 24.7587 0.254703 24.7029 0.155279 24.6035C0.0558556 24.504 0 24.3692 0 24.2286V23.9658C0 24.1064 0.0558556 24.2412 0.155279 24.3407C0.254703 24.4401 0.38955 24.4959 0.530156 24.4959H8.30125C8.44186 24.4959 8.5767 24.4401 8.67613 24.3407C8.77555 24.2412 8.83141 24.1064 8.83141 23.9658Z" fill="#EAAE6E"/>
<path d="M8.30125 26.8794H0.530156C0.237359 26.8794 0 27.1167 0 27.4095V28.4698C0 28.7626 0.237359 29 0.530156 29H8.30125C8.59405 29 8.83141 28.7626 8.83141 28.4698V27.4095C8.83141 27.1167 8.59405 26.8794 8.30125 26.8794Z" fill="#F0BB73"/>
<path d="M8.83141 28.207V28.4698C8.83022 28.6101 8.77399 28.7442 8.67482 28.8434C8.57565 28.9426 8.44149 28.9988 8.30125 29H0.530156C0.38955 29 0.254703 28.9441 0.155279 28.8447C0.0558556 28.7453 0 28.6105 0 28.4698V28.207C0 28.3476 0.0558556 28.4825 0.155279 28.5819C0.254703 28.6813 0.38955 28.7372 0.530156 28.7372H8.30125C8.44186 28.7372 8.5767 28.6813 8.67613 28.5819C8.77555 28.4825 8.83141 28.3476 8.83141 28.207Z" fill="#EAAE6E"/>
<path d="M9.74656 24.7587H1.97547C1.68267 24.7587 1.44531 24.9961 1.44531 25.2889V26.3492C1.44531 26.642 1.68267 26.8794 1.97547 26.8794H9.74656C10.0394 26.8794 10.2767 26.642 10.2767 26.3492V25.2889C10.2767 24.9961 10.0394 24.7587 9.74656 24.7587Z" fill="#F0BB73"/>
<path d="M10.2768 26.0864V26.3492C10.2768 26.4898 10.2209 26.6247 10.1215 26.7241C10.0221 26.8235 9.88724 26.8794 9.74663 26.8794H1.97554C1.83493 26.8794 1.70008 26.8235 1.60066 26.7241C1.50124 26.6247 1.44538 26.4898 1.44538 26.3492V26.0864C1.44538 26.227 1.50124 26.3619 1.60066 26.4613C1.70008 26.5607 1.83493 26.6166 1.97554 26.6166H9.74663C9.88724 26.6166 10.0221 26.5607 10.1215 26.4613C10.2209 26.3619 10.2768 26.227 10.2768 26.0864ZM7.78913 23.2589C7.74666 23.2601 7.70632 23.2778 7.6767 23.3083C7.64708 23.3387 7.63052 23.3795 7.63054 23.422V23.9748C7.6266 23.9982 7.62781 24.0222 7.63408 24.0451C7.64034 24.0679 7.65153 24.0892 7.66684 24.1073C7.68215 24.1254 7.70123 24.1399 7.72274 24.1499C7.74425 24.1599 7.76768 24.1651 7.7914 24.1651C7.81511 24.1651 7.83854 24.1599 7.86005 24.1499C7.88156 24.1399 7.90064 24.1254 7.91595 24.1073C7.93127 24.0892 7.94245 24.0679 7.94872 24.0451C7.95499 24.0222 7.95619 23.9982 7.95226 23.9748V23.422C7.95226 23.3788 7.93507 23.3373 7.90448 23.3067C7.87389 23.2761 7.83239 23.2589 7.78913 23.2589ZM6.08991 23.2589C6.04665 23.2589 6.00516 23.2761 5.97457 23.3067C5.94397 23.3373 5.92679 23.3788 5.92679 23.422V23.9748C5.92679 24.0181 5.94397 24.0596 5.97457 24.0902C6.00516 24.1208 6.04665 24.138 6.08991 24.138C6.11113 24.138 6.13213 24.1337 6.15167 24.1255C6.17121 24.1172 6.1889 24.1051 6.20369 24.0899C6.21848 24.0747 6.23006 24.0567 6.23776 24.0369C6.24546 24.0172 6.24911 23.9961 6.24851 23.9748V23.422C6.24911 23.4008 6.24546 23.3797 6.23776 23.36C6.23006 23.3402 6.21848 23.3222 6.20369 23.307C6.1889 23.2917 6.17121 23.2797 6.15167 23.2714C6.13213 23.2631 6.11113 23.2589 6.08991 23.2589ZM4.41335 23.2589C4.37088 23.2601 4.33054 23.2778 4.30092 23.3083C4.2713 23.3387 4.25474 23.3795 4.25476 23.422V23.9748C4.25082 23.9982 4.25202 24.0222 4.25829 24.0451C4.26456 24.0679 4.27574 24.0892 4.29106 24.1073C4.30637 24.1254 4.32545 24.1399 4.34696 24.1499C4.36847 24.1599 4.3919 24.1651 4.41562 24.1651C4.43933 24.1651 4.46276 24.1599 4.48427 24.1499C4.50578 24.1399 4.52486 24.1254 4.54017 24.1073C4.55549 24.0892 4.56667 24.0679 4.57294 24.0451C4.57921 24.0222 4.58041 23.9982 4.57647 23.9748V23.422C4.57647 23.3788 4.55929 23.3373 4.5287 23.3067C4.4981 23.2761 4.45661 23.2589 4.41335 23.2589ZM2.72772 23.2589C2.68446 23.2589 2.64297 23.2761 2.61238 23.3067C2.58179 23.3373 2.5646 23.3788 2.5646 23.422V23.9748C2.56066 23.9982 2.56187 24.0222 2.56814 24.0451C2.57441 24.0679 2.58559 24.0892 2.6009 24.1073C2.61621 24.1254 2.63529 24.1399 2.6568 24.1499C2.67831 24.1599 2.70174 24.1651 2.72546 24.1651C2.74917 24.1651 2.7726 24.1599 2.79411 24.1499C2.81563 24.1399 2.8347 24.1254 2.85002 24.1073C2.86533 24.0892 2.87651 24.0679 2.88278 24.0451C2.88905 24.0222 2.89026 23.9982 2.88632 23.9748V23.422C2.88633 23.3795 2.86977 23.3387 2.84015 23.3083C2.81053 23.2778 2.7702 23.2601 2.72772 23.2589ZM1.03757 23.2589C0.995095 23.2601 0.954758 23.2778 0.92514 23.3083C0.895521 23.3387 0.878958 23.3795 0.878975 23.422V23.9748C0.875036 23.9982 0.876243 24.0222 0.882513 24.0451C0.888782 24.0679 0.899963 24.0892 0.915276 24.1073C0.930589 24.1254 0.949666 24.1399 0.971178 24.1499C0.99269 24.1599 1.01612 24.1651 1.03983 24.1651C1.06355 24.1651 1.08698 24.1599 1.10849 24.1499C1.13 24.1399 1.14908 24.1254 1.16439 24.1073C1.1797 24.0892 1.19089 24.0679 1.19716 24.0451C1.20342 24.0222 1.20463 23.9982 1.20069 23.9748V23.422C1.20069 23.3788 1.18351 23.3373 1.15292 23.3067C1.12232 23.2761 1.08083 23.2589 1.03757 23.2589ZM7.78913 27.5002C7.74666 27.5013 7.70632 27.519 7.6767 27.5495C7.64708 27.58 7.63052 27.6208 7.63054 27.6633V28.2161C7.6266 28.2395 7.62781 28.2634 7.63408 28.2863C7.64034 28.3092 7.65153 28.3304 7.66684 28.3485C7.68215 28.3666 7.70123 28.3812 7.72274 28.3912C7.74425 28.4011 7.76768 28.4063 7.7914 28.4063C7.81511 28.4063 7.83854 28.4011 7.86005 28.3912C7.88156 28.3812 7.90064 28.3666 7.91595 28.3485C7.93127 28.3304 7.94245 28.3092 7.94872 28.2863C7.95499 28.2634 7.95619 28.2395 7.95226 28.2161V27.6633C7.95226 27.62 7.93507 27.5785 7.90448 27.5479C7.87389 27.5173 7.83239 27.5002 7.78913 27.5002ZM6.08991 27.5002C6.04665 27.5002 6.00516 27.5173 5.97457 27.5479C5.94397 27.5785 5.92679 27.62 5.92679 27.6633V28.2161C5.92679 28.2594 5.94397 28.3009 5.97457 28.3314C6.00516 28.362 6.04665 28.3792 6.08991 28.3792C6.11113 28.3792 6.13213 28.375 6.15167 28.3667C6.17121 28.3585 6.1889 28.3464 6.20369 28.3312C6.21848 28.316 6.23006 28.2979 6.23776 28.2782C6.24546 28.2584 6.24911 28.2373 6.24851 28.2161V27.6633C6.24911 27.6421 6.24546 27.621 6.23776 27.6012C6.23006 27.5814 6.21848 27.5634 6.20369 27.5482C6.1889 27.533 6.17121 27.5209 6.15167 27.5127C6.13213 27.5044 6.11113 27.5002 6.08991 27.5002ZM4.41335 27.5002C4.37088 27.5013 4.33054 27.519 4.30092 27.5495C4.2713 27.58 4.25474 27.6208 4.25476 27.6633V28.2161C4.25082 28.2395 4.25202 28.2634 4.25829 28.2863C4.26456 28.3092 4.27574 28.3304 4.29106 28.3485C4.30637 28.3666 4.32545 28.3812 4.34696 28.3912C4.36847 28.4011 4.3919 28.4063 4.41562 28.4063C4.43933 28.4063 4.46276 28.4011 4.48427 28.3912C4.50578 28.3812 4.52486 28.3666 4.54017 28.3485C4.55549 28.3304 4.56667 28.3092 4.57294 28.2863C4.57921 28.2634 4.58041 28.2395 4.57647 28.2161V27.6633C4.57647 27.62 4.55929 27.5785 4.5287 27.5479C4.4981 27.5173 4.45661 27.5002 4.41335 27.5002ZM2.72772 27.5002C2.68446 27.5002 2.64297 27.5173 2.61238 27.5479C2.58179 27.5785 2.5646 27.62 2.5646 27.6633V28.2161C2.56066 28.2395 2.56187 28.2634 2.56814 28.2863C2.57441 28.3092 2.58559 28.3304 2.6009 28.3485C2.61621 28.3666 2.63529 28.3812 2.6568 28.3912C2.67831 28.4011 2.70174 28.4063 2.72546 28.4063C2.74917 28.4063 2.7726 28.4011 2.79411 28.3912C2.81563 28.3812 2.8347 28.3666 2.85002 28.3485C2.86533 28.3304 2.87651 28.3092 2.88278 28.2863C2.88905 28.2634 2.89026 28.2395 2.88632 28.2161V27.6633C2.88633 27.6208 2.86977 27.58 2.84015 27.5495C2.81053 27.519 2.7702 27.5013 2.72772 27.5002ZM1.03757 27.5002C0.995095 27.5013 0.954758 27.519 0.92514 27.5495C0.895521 27.58 0.878958 27.6208 0.878975 27.6633V28.2161C0.875036 28.2395 0.876243 28.2634 0.882513 28.2863C0.888782 28.3092 0.899963 28.3304 0.915276 28.3485C0.930589 28.3666 0.949666 28.3812 0.971178 28.3912C0.99269 28.4011 1.01612 28.4063 1.03983 28.4063C1.06355 28.4063 1.08698 28.4011 1.10849 28.3912C1.13 28.3812 1.14908 28.3666 1.16439 28.3485C1.1797 28.3304 1.19089 28.3092 1.19716 28.2863C1.20342 28.2634 1.20463 28.2395 1.20069 28.2161V27.6633C1.20069 27.62 1.18351 27.5785 1.15292 27.5479C1.12232 27.5173 1.08083 27.5002 1.03757 27.5002Z" fill="#EAAE6E"/>
<path d="M9.26187 25.375C9.21861 25.375 9.17712 25.3922 9.14653 25.4228C9.11594 25.4534 9.09875 25.4949 9.09875 25.5381V26.0909C9.09476 26.1145 9.09601 26.1387 9.1024 26.1617C9.10879 26.1848 9.12017 26.2062 9.13574 26.2243C9.1513 26.2425 9.17067 26.257 9.19247 26.2668C9.21427 26.2767 9.23796 26.2816 9.26187 26.2813C9.28309 26.2813 9.30409 26.277 9.32363 26.2688C9.34317 26.2605 9.36086 26.2484 9.37565 26.2332C9.39044 26.218 9.40202 26.2 9.40972 26.1802C9.41742 26.1604 9.42107 26.1393 9.42047 26.1181V25.5427C9.4217 25.5211 9.41852 25.4995 9.4111 25.4792C9.40368 25.4589 9.3922 25.4403 9.37735 25.4246C9.3625 25.4089 9.34459 25.3964 9.32473 25.3879C9.30488 25.3794 9.28349 25.375 9.26187 25.375ZM7.71219 26.0955V25.5427C7.71613 25.5193 7.71492 25.4953 7.70865 25.4724C7.70238 25.4496 7.6912 25.4283 7.67589 25.4102C7.66057 25.3921 7.6415 25.3776 7.61998 25.3676C7.59847 25.3576 7.57504 25.3524 7.55133 25.3524C7.52761 25.3524 7.50418 25.3576 7.48267 25.3676C7.46116 25.3776 7.44208 25.3921 7.42677 25.4102C7.41146 25.4283 7.40028 25.4496 7.39401 25.4724C7.38774 25.4953 7.38653 25.5193 7.39047 25.5427V26.0955C7.38653 26.1189 7.38774 26.1428 7.39401 26.1657C7.40028 26.1886 7.41146 26.2098 7.42677 26.2279C7.44208 26.246 7.46116 26.2606 7.48267 26.2705C7.50418 26.2805 7.52761 26.2857 7.55133 26.2857C7.57504 26.2857 7.59847 26.2805 7.61998 26.2705C7.6415 26.2606 7.66057 26.246 7.67589 26.2279C7.6912 26.2098 7.70238 26.1886 7.70865 26.1657C7.71492 26.1428 7.71613 26.1189 7.71219 26.0955ZM6.02203 26.0955V25.5427C6.02597 25.5193 6.02476 25.4953 6.01849 25.4724C6.01222 25.4496 6.00104 25.4283 5.98573 25.4102C5.97042 25.3921 5.95134 25.3776 5.92983 25.3676C5.90832 25.3576 5.88489 25.3524 5.86117 25.3524C5.83746 25.3524 5.81403 25.3576 5.79252 25.3676C5.771 25.3776 5.75193 25.3921 5.73661 25.4102C5.7213 25.4283 5.71012 25.4496 5.70385 25.4724C5.69758 25.4953 5.69637 25.5193 5.70031 25.5427V26.0955C5.69637 26.1189 5.69758 26.1428 5.70385 26.1657C5.71012 26.1886 5.7213 26.2098 5.73661 26.2279C5.75193 26.246 5.771 26.2606 5.79252 26.2705C5.81403 26.2805 5.83746 26.2857 5.86117 26.2857C5.88489 26.2857 5.90832 26.2805 5.92983 26.2705C5.95134 26.2606 5.97042 26.246 5.98573 26.2279C6.00104 26.2098 6.01222 26.1886 6.01849 26.1657C6.02476 26.1428 6.02597 26.1189 6.02203 26.0955ZM4.33641 26.0955V25.5427C4.34034 25.5193 4.33914 25.4953 4.33287 25.4724C4.3266 25.4496 4.31542 25.4283 4.3001 25.4102C4.28479 25.3921 4.26571 25.3776 4.2442 25.3676C4.22269 25.3576 4.19926 25.3524 4.17555 25.3524C4.15183 25.3524 4.1284 25.3576 4.10689 25.3676C4.08538 25.3776 4.0663 25.3921 4.05099 25.4102C4.03568 25.4283 4.0245 25.4496 4.01823 25.4724C4.01196 25.4953 4.01075 25.5193 4.01469 25.5427V26.0955C4.01075 26.1189 4.01196 26.1428 4.01823 26.1657C4.0245 26.1886 4.03568 26.2098 4.05099 26.2279C4.0663 26.246 4.08538 26.2606 4.10689 26.2705C4.1284 26.2805 4.15183 26.2857 4.17555 26.2857C4.19926 26.2857 4.22269 26.2805 4.2442 26.2705C4.26571 26.2606 4.28479 26.246 4.3001 26.2279C4.31542 26.2098 4.3266 26.1886 4.33287 26.1657C4.33914 26.1428 4.34034 26.1189 4.33641 26.0955ZM2.64625 26.0955V25.5427C2.65019 25.5193 2.64898 25.4953 2.64271 25.4724C2.63644 25.4496 2.62526 25.4283 2.60995 25.4102C2.59464 25.3921 2.57556 25.3776 2.55405 25.3676C2.53253 25.3576 2.50911 25.3524 2.48539 25.3524C2.46168 25.3524 2.43825 25.3576 2.41673 25.3676C2.39522 25.3776 2.37615 25.3921 2.36083 25.4102C2.34552 25.4283 2.33434 25.4496 2.32807 25.4724C2.3218 25.4953 2.32059 25.5193 2.32453 25.5427V26.0955C2.32059 26.1189 2.3218 26.1428 2.32807 26.1657C2.33434 26.1886 2.34552 26.2098 2.36083 26.2279C2.37615 26.246 2.39522 26.2606 2.41673 26.2705C2.43825 26.2805 2.46168 26.2857 2.48539 26.2857C2.50911 26.2857 2.53253 26.2805 2.55405 26.2705C2.57556 26.2606 2.59464 26.246 2.60995 26.2279C2.62526 26.2098 2.63644 26.1886 2.64271 26.1657C2.64898 26.1428 2.65019 26.1189 2.64625 26.0955Z" fill="#EAAE6E"/>
</svg>
