<svg width="32" height="31" viewBox="0 0 32 31" fill="none" xmlns="http://www.w3.org/2000/svg">
<path d="M11.8173 7.97241C11.7341 7.99644 11.6608 8.04647 11.6082 8.11527C11.5556 8.18407 11.5264 8.26801 11.5251 8.35461V11.0991C11.5251 11.6411 11.8101 12.1212 12.2448 12.404V14.4957C12.3327 15.7424 12.8127 16.614 13.4821 17.1495C13.403 17.7685 13.1381 18.1255 12.6947 18.4545C12.1707 18.8432 11.4077 19.1455 10.603 19.4888C9.79833 19.8329 8.94324 20.246 8.28608 20.9737C7.62893 21.7007 7.20642 22.7199 7.20642 24.1897V24.4603L7.43171 24.5502C9.49171 25.4442 10.5325 25.902 11.0522 26.1244C11.3127 26.2352 11.4293 26.2972 11.5028 26.3267C11.5387 26.3411 11.5531 26.3375 11.5927 26.349C11.6028 26.349 11.6179 26.3677 11.6374 26.3713H11.6604C11.7194 26.3951 11.8454 26.4476 12.0872 26.5512C12.5939 26.7672 13.6009 27.1954 15.6415 28.0808L15.7991 28.1484L15.956 28.0808C17.1679 27.5641 18.3827 27.0543 19.6002 26.5512C19.8543 26.4469 19.9839 26.3742 20.0501 26.349H20.0724C20.1113 26.3418 20.1465 26.3317 20.1624 26.3267C20.1933 26.3166 20.194 26.3187 20.23 26.3043C20.302 26.2748 20.4474 26.2122 20.7022 26.1021C21.2118 25.8811 22.2281 25.4334 24.2565 24.5495L24.481 24.4603V24.1904C24.481 22.7551 24.0542 21.7446 23.4014 21.0413C22.7485 20.3374 21.9021 19.9595 21.1067 19.6234C20.3121 19.288 19.5542 18.9886 19.0381 18.5891C18.5306 18.1975 18.2391 17.7462 18.2276 16.8796C18.9272 16.3016 19.4124 15.489 19.4426 14.4957V10.9868C19.4426 9.73009 18.4911 8.69218 17.2833 8.69218H12.9646C12.7177 8.69218 12.5148 8.65187 12.4248 8.60221C12.3355 8.55255 12.3125 8.54463 12.3125 8.35461C12.3147 8.11421 12.0505 7.90977 11.8173 7.97311V7.97241Z" fill="#435270"/>
<path d="M15.8434 18.4702C15.261 18.4702 14.7891 18.9422 14.7891 19.5246C14.7891 19.8318 14.9228 20.0992 15.1476 20.2969C15.1641 20.3163 15.4132 20.4965 15.3008 20.8444L14.4315 25.6093L15.8434 26.337L17.2825 25.618L16.4297 20.8444C16.3173 20.4238 16.578 20.2969 16.578 20.2969C16.7795 20.1011 16.8978 19.8124 16.8978 19.5246C16.8978 18.9431 16.4258 18.4702 15.8434 18.4702Z" fill="#E8E8F0"/>
<path d="M15.4828 0.00193811C14.6746 0.00193811 13.8703 0.105627 13.0699 0.229666C10.8866 4.44602 10.3836 4.23186 6.04712 3.29091C5.52286 3.695 4.98601 4.07003 4.50536 4.55068C3.90454 5.15149 3.41033 5.81045 2.92774 6.47716C4.31155 10.7672 3.69813 10.9406 0.169808 13.2363C-0.0566026 14.7561 -0.0566026 16.3011 0.169808 17.8209C4.17103 19.8889 3.81733 20.4722 2.92774 24.5801C3.40936 25.2487 3.90454 25.9057 4.50536 26.5065C4.98407 26.9862 5.51705 27.3632 6.04034 27.7663C10.5193 26.2953 10.6676 27.1422 13.0631 30.8285C14.4333 31.0417 15.8181 31.0475 17.1951 30.8935C19.4831 26.4339 20.2021 26.9087 24.777 27.8748C25.3507 27.4417 25.9379 27.0298 26.4612 26.5075C26.8643 26.1044 27.1686 25.646 27.5185 25.2119C25.967 19.759 26.2868 20.2988 30.8288 17.3693C30.9014 16.7569 31.01 16.1454 31.01 15.5281C31.01 14.9147 30.9005 14.3071 30.8288 13.6966C25.9777 11.0123 26.4128 10.9445 27.5185 5.8434C27.1696 5.40926 26.8643 4.95478 26.4612 4.55068C25.9379 4.02836 25.3507 3.6136 24.777 3.18141C19.9608 4.69119 19.7428 4.12526 17.1883 0.162801C16.6195 0.0998126 16.0545 0 15.4828 0V0.00193811ZM15.5061 5.95775C18.0364 5.95775 20.4631 6.96286 22.2524 8.75199C24.0418 10.5411 25.0471 12.9677 25.0474 15.4981C25.0474 16.7512 24.8005 17.9919 24.321 19.1496C23.8414 20.3073 23.1385 21.3591 22.2524 22.2452C21.3664 23.1312 20.3144 23.8339 19.1567 24.3134C17.999 24.7928 16.7582 25.0395 15.5051 25.0394C12.9749 25.0389 10.5485 24.0334 8.75962 22.2441C6.9707 20.4548 5.96572 18.0283 5.96572 15.4981C5.96598 12.9681 6.97107 10.5418 8.75996 8.75267C10.5489 6.9636 12.9751 5.95826 15.5051 5.95775H15.5061Z" fill="#FFAB48"/>
</svg>
