<svg width="31" height="31" viewBox="0 0 31 31" fill="none" xmlns="http://www.w3.org/2000/svg">
<path d="M16.3838 0.768921C18.0001 0.768731 19.5773 1.26621 20.901 2.19373C22.2247 3.12126 23.2308 4.43386 23.7824 5.95315C24.334 7.47243 24.4045 9.12471 23.9842 10.6854C23.564 12.2462 22.6733 13.6397 21.4334 14.6765L21.4213 14.6644V10.5594C21.4204 9.96228 21.1828 9.38992 20.7606 8.96773C20.3384 8.54553 19.766 8.30794 19.169 8.30701H18.5514L16.965 12.7209L16.9529 12.7511L16.6502 9.96599H16.2869L15.9842 12.7511L15.966 12.6967L14.3615 8.30095H13.5986C13.3028 8.3009 13.0099 8.35913 12.7367 8.4723C12.4634 8.58548 12.215 8.75138 12.0059 8.96054C11.7967 9.1697 11.6308 9.41802 11.5177 9.69131C11.4045 9.96459 11.3463 10.2575 11.3463 10.5533V14.6765C10.4581 13.9389 9.74354 13.0143 9.25373 11.9688C8.76393 10.9233 8.5109 9.78249 8.5127 8.62791C8.5127 4.29275 12.0426 0.768921 16.3838 0.768921ZM18.5332 5.06169V4.20193C18.5324 3.63187 18.3052 3.08548 17.9015 2.68295C17.4979 2.28042 16.9508 2.05474 16.3808 2.05554C15.8107 2.05635 15.2643 2.28357 14.8618 2.68723C14.4593 3.09089 14.2336 3.63792 14.2344 4.20798V5.06775C14.2352 5.63781 14.4624 6.1842 14.8661 6.58673C15.2697 6.98925 15.8168 7.21494 16.3868 7.21414C16.9569 7.21333 17.5033 6.98611 17.9058 6.58245C18.3083 6.17879 18.534 5.63175 18.5332 5.06169V5.06169ZM16.9106 9.73591L17.3404 8.47654L15.5483 8.47048L15.9781 9.73591H16.9106Z" fill="#00EFD1"/>
<path d="M21.4275 14.6705L21.4396 14.6826C20.0259 15.8656 18.2417 16.5149 16.3983 16.5171C14.5548 16.5193 12.7691 15.8744 11.3525 14.6947V10.5714C11.3525 10.2756 11.4107 9.98273 11.5239 9.70944C11.6371 9.43616 11.803 9.18784 12.0121 8.97868C12.2213 8.76952 12.4696 8.60362 12.7429 8.49044C13.0162 8.37727 13.3091 8.31904 13.6049 8.31909H14.3678L15.9723 12.7148L15.9904 12.7693V12.7814L15.7785 14.7673L16.4869 15.2335L17.1771 14.7673L16.9592 12.7693L16.9713 12.739L18.5576 8.32515H19.1752C19.471 8.3251 19.7639 8.38332 20.0372 8.4965C20.3105 8.60967 20.5588 8.77558 20.7679 8.98474C20.9771 9.1939 21.143 9.44221 21.2562 9.7155C21.3694 9.98879 21.4276 10.2817 21.4275 10.5775V14.6705V14.6705ZM18.5334 4.2019V5.06167C18.5334 5.63173 18.3069 6.17844 17.9039 6.58154C17.5008 6.98463 16.954 7.21108 16.384 7.21108C15.8139 7.21108 15.2672 6.98463 14.8641 6.58154C14.461 6.17844 14.2346 5.63173 14.2346 5.06167V4.2019C14.2346 3.63184 14.461 3.08513 14.8641 2.68204C15.2672 2.27895 15.8139 2.05249 16.384 2.05249C16.954 2.05249 17.5008 2.27895 17.9039 2.68204C18.3069 3.08513 18.5334 3.63184 18.5334 4.2019V4.2019Z" fill="#00EFD1"/>
<path d="M17.3408 8.47651L16.9109 9.73589H15.9785L15.5547 8.47046L17.3408 8.47651Z" fill="#00EFD1"/>
<path d="M16.9531 12.7633L17.1711 14.7614L16.4809 15.2276L15.7725 14.7614L15.9844 12.7754L15.9904 12.7633L16.2871 9.97815H16.6564L16.9531 12.7633Z" fill="#00EFD1"/>
<path d="M21.9724 19.3992V20.8402H22.8201V18.9754C22.8204 18.9196 22.8097 18.8643 22.7885 18.8128C22.7674 18.7612 22.7361 18.7143 22.6967 18.6749C22.6573 18.6355 22.6104 18.6043 22.5589 18.5831C22.5073 18.5619 22.452 18.5512 22.3963 18.5515H16.8078V16.8441H15.9601V18.5515H10.3717C10.3159 18.5512 10.2606 18.5619 10.2091 18.5831C10.1575 18.6043 10.1106 18.6355 10.0712 18.6749C10.0318 18.7143 10.0006 18.7612 9.97938 18.8128C9.9582 18.8643 9.94748 18.9196 9.94782 18.9754V20.8099C9.59447 20.9223 9.29362 21.1585 9.10065 21.4752C8.90769 21.7918 8.83561 22.1675 8.89769 22.533C8.95977 22.8986 9.15183 23.2294 9.4385 23.4645C9.72518 23.6997 10.0872 23.8234 10.4578 23.8128C10.8284 23.8022 11.1828 23.658 11.4555 23.4069C11.7283 23.1558 11.9012 22.8145 11.9423 22.446C11.9834 22.0775 11.89 21.7066 11.6793 21.4015C11.4685 21.0964 11.1547 20.8777 10.7955 20.7857V19.3992H15.9601V20.8402H16.8078V19.3992H21.9724Z" fill="#00ACEA"/>
<path d="M14.7009 25.1875H10.7774V23.8737H9.92979V25.1875H6.00636C5.9506 25.1872 5.89533 25.1979 5.84376 25.2191C5.79218 25.2403 5.74532 25.2715 5.70589 25.3109C5.66647 25.3503 5.63526 25.3972 5.61409 25.4488C5.59291 25.5003 5.58218 25.5556 5.58253 25.6114V27.2885H6.43018V26.0352H14.271V27.2885H15.1187V25.6114C15.1197 25.5559 15.1096 25.5008 15.0891 25.4494C15.0685 25.3979 15.0379 25.351 14.999 25.3115C14.96 25.272 14.9136 25.2407 14.8624 25.2194C14.8113 25.1982 14.7563 25.1873 14.7009 25.1875ZM25.4177 27.234V25.6114C25.418 25.5556 25.4073 25.5003 25.3861 25.4488C25.3649 25.3972 25.3337 25.3503 25.2943 25.3109C25.2549 25.2715 25.208 25.2403 25.1565 25.2191C25.1049 25.1979 25.0496 25.1872 24.9939 25.1875H22.8868V23.8737H22.0392V25.1875H19.9321C19.8764 25.1872 19.8211 25.1979 19.7695 25.2191C19.718 25.2403 19.6711 25.2715 19.6317 25.3109C19.5922 25.3503 19.561 25.3972 19.5399 25.4488C19.5187 25.5003 19.508 25.5556 19.5083 25.6114V27.2885H20.356V26.0352H24.564V27.2098C24.2063 27.3025 23.894 27.5213 23.6847 27.8258C23.4753 28.1304 23.383 28.5002 23.4245 28.8674C23.4661 29.2346 23.6387 29.5745 23.9108 29.8246C24.1829 30.0746 24.5361 30.2181 24.9055 30.2286C25.2749 30.2391 25.6357 30.1159 25.9215 29.8816C26.2074 29.6474 26.399 29.3178 26.4613 28.9536C26.5236 28.5893 26.4524 28.2148 26.2606 27.8989C26.0689 27.583 25.7696 27.3469 25.4177 27.234V27.234Z" fill="#00ACEA"/>
<path d="M6.0063 27.1613H6.04868C6.44752 27.1668 6.82796 27.3299 7.10703 27.6149C7.38609 27.8999 7.54114 28.2837 7.53834 28.6826C7.53554 29.0815 7.37513 29.463 7.09209 29.7441C6.80906 30.0251 6.42637 30.1829 6.02749 30.1829C5.62861 30.1829 5.24592 30.0251 4.96288 29.7441C4.67985 29.463 4.51944 29.0815 4.51664 28.6826C4.51384 28.2837 4.66889 27.8999 4.94795 27.6149C5.22702 27.3299 5.60746 27.1668 6.0063 27.1613V27.1613Z" fill="#FEDB41"/>
<path d="M22.3961 20.7373C22.7608 20.7894 23.0901 20.9834 23.3124 21.2771C23.5347 21.5708 23.632 21.9404 23.5832 22.3055C23.5343 22.6706 23.3432 23.0016 23.0514 23.2265C22.7597 23.4514 22.3909 23.5519 22.0254 23.5062C21.6599 23.4605 21.3272 23.2723 21.0998 22.9826C20.8723 22.6928 20.7686 22.3249 20.8111 21.959C20.8536 21.5931 21.0389 21.2588 21.3267 21.0289C21.6144 20.7989 21.9814 20.6919 22.3477 20.7312C22.3634 20.7356 22.3797 20.7376 22.3961 20.7373V20.7373Z" fill="#FEDB41"/>
<path d="M16.3841 20.7373C16.6882 20.7373 16.9856 20.8275 17.2385 20.9965C17.4914 21.1655 17.6885 21.4057 17.8049 21.6867C17.9213 21.9677 17.9518 22.2769 17.8924 22.5752C17.8331 22.8735 17.6866 23.1476 17.4715 23.3626C17.2565 23.5777 16.9824 23.7242 16.6841 23.7835C16.3858 23.8429 16.0766 23.8124 15.7956 23.696C15.5145 23.5796 15.2744 23.3825 15.1054 23.1296C14.9364 22.8767 14.8462 22.5794 14.8462 22.2752C14.8468 21.8675 15.009 21.4767 15.2973 21.1884C15.5856 20.9001 15.9764 20.7379 16.3841 20.7373V20.7373Z" fill="#00EFD1"/>
<path d="M19.9322 27.1614H19.9745C20.3749 27.167 20.7569 27.3307 21.0371 27.6168C21.3173 27.9029 21.4729 28.2882 21.4701 28.6886C21.4673 29.0891 21.3063 29.4722 21.0221 29.7543C20.738 30.0365 20.3538 30.1949 19.9533 30.1949C19.5529 30.1949 19.1687 30.0365 18.8845 29.7543C18.6004 29.4722 18.4394 29.0891 18.4366 28.6886C18.4338 28.2882 18.5894 27.9029 18.8696 27.6168C19.1498 27.3307 19.5317 27.167 19.9322 27.1614V27.1614Z" fill="#FEDB41"/>
<path d="M14.7006 27.1613C15.0591 27.2182 15.3806 27.4145 15.595 27.7074C15.8093 28.0003 15.8993 28.3661 15.8451 28.725C15.791 29.0839 15.5972 29.4069 15.306 29.6235C15.0148 29.8402 14.6497 29.9329 14.2904 29.8816C13.9311 29.8303 13.6066 29.639 13.3877 29.3495C13.1688 29.0599 13.0732 28.6956 13.1217 28.3359C13.1703 27.9762 13.359 27.6503 13.6468 27.4291C13.9346 27.208 14.2982 27.1095 14.6583 27.1553C14.6717 27.1607 14.6862 27.1627 14.7006 27.1613V27.1613Z" fill="#00EFD1"/>
<path d="M14.522 5H13.6331C13.4581 5.00003 13.2848 5.03463 13.1232 5.10183C12.9616 5.16902 12.8148 5.26748 12.6914 5.39156C12.5673 5.51501 12.4688 5.66177 12.4016 5.82338C12.3344 5.985 12.2998 6.1583 12.2998 6.33333V7.22222C12.2998 7.58889 12.4496 7.92222 12.6914 8.164C12.8148 8.28807 12.9616 8.38653 13.1232 8.45373C13.2848 8.52092 13.4581 8.55553 13.6331 8.55556H14.522C14.6971 8.55553 14.8704 8.52092 15.032 8.45373C15.1936 8.38653 15.3403 8.28807 15.4638 8.164C15.5879 8.04054 15.6863 7.89379 15.7535 7.73217C15.8207 7.57055 15.8553 7.39725 15.8554 7.22222V6.33333C15.8553 6.1583 15.8207 5.985 15.7535 5.82338C15.6863 5.66177 15.5879 5.51501 15.4638 5.39156C15.3403 5.26748 15.1936 5.16902 15.032 5.10183C14.8704 5.03463 14.6971 5.00003 14.522 5V5ZM18.9665 5H18.0776C17.9026 5.00003 17.7293 5.03463 17.5676 5.10183C17.406 5.16902 17.2593 5.26748 17.1358 5.39156C17.0117 5.51501 16.9133 5.66177 16.8461 5.82338C16.7789 5.985 16.7443 6.1583 16.7442 6.33333V7.22222C16.7442 7.58889 16.894 7.92222 17.1358 8.164C17.2593 8.28807 17.406 8.38653 17.5676 8.45373C17.7293 8.52092 17.9026 8.55553 18.0776 8.55556H18.9665C19.1415 8.55553 19.3148 8.52092 19.4764 8.45373C19.638 8.38653 19.7848 8.28807 19.9082 8.164C20.0323 8.04054 20.1308 7.89379 20.198 7.73217C20.2652 7.57055 20.2998 7.39725 20.2998 7.22222V6.33333C20.2998 6.1583 20.2652 5.985 20.198 5.82338C20.1308 5.66177 20.0323 5.51501 19.9082 5.39156C19.7848 5.26748 19.638 5.16902 19.4764 5.10183C19.3148 5.03463 19.1415 5.00003 18.9665 5ZM14.522 9.44444H13.6331C13.4581 9.44447 13.2848 9.47908 13.1232 9.54627C12.9616 9.61347 12.8148 9.71193 12.6914 9.836C12.5673 9.95946 12.4688 10.1062 12.4016 10.2678C12.3344 10.4294 12.2998 10.6027 12.2998 10.7778V11.6667C12.2998 12.0333 12.4496 12.3667 12.6914 12.6084C12.8148 12.7325 12.9616 12.831 13.1232 12.8982C13.2848 12.9654 13.4581 13 13.6331 13H14.522C14.6971 13 14.8704 12.9654 15.032 12.8982C15.1936 12.831 15.3403 12.7325 15.4638 12.6084C15.5879 12.485 15.6863 12.3382 15.7535 12.1766C15.8207 12.015 15.8553 11.8417 15.8554 11.6667V10.7778C15.8553 10.6027 15.8207 10.4294 15.7535 10.2678C15.6863 10.1062 15.5879 9.95946 15.4638 9.836C15.3403 9.71193 15.1936 9.61347 15.032 9.54627C14.8704 9.47908 14.6971 9.44447 14.522 9.44444V9.44444ZM18.9665 9.44444H18.0776C17.9026 9.44447 17.7293 9.47908 17.5676 9.54627C17.406 9.61347 17.2593 9.71193 17.1358 9.836C17.0117 9.95946 16.9133 10.1062 16.8461 10.2678C16.7789 10.4294 16.7443 10.6027 16.7442 10.7778V11.6667C16.7442 12.0333 16.894 12.3667 17.1358 12.6084C17.2593 12.7325 17.406 12.831 17.5676 12.8982C17.7293 12.9654 17.9026 13 18.0776 13H18.9665C19.1415 13 19.3148 12.9654 19.4764 12.8982C19.638 12.831 19.7848 12.7325 19.9082 12.6084C20.0323 12.485 20.1308 12.3382 20.198 12.1766C20.2652 12.015 20.2998 11.8417 20.2998 11.6667V10.7778C20.2998 10.6027 20.2652 10.4294 20.198 10.2678C20.1308 10.1062 20.0323 9.95946 19.9082 9.836C19.7848 9.71193 19.638 9.61347 19.4764 9.54627C19.3148 9.47908 19.1415 9.44447 18.9665 9.44444V9.44444Z" fill="#00ACEA"/>
</svg>
