<svg width="31" height="31" viewBox="0 0 31 31" fill="none" xmlns="http://www.w3.org/2000/svg">
<g clip-path="url(#clip0_205_579)">
<path d="M18.9756 11.9303L18.0362 7.18637C17.9893 6.95152 17.8484 6.71667 17.7075 6.52879L12.3999 1.26819C12.1181 0.98637 11.7423 0.845461 11.4135 0.89243L5.02564 1.4091L1.26807 1.87879V8.59546L4.74382 8.97122L11.7423 14.5606C12.165 15.0303 12.9166 15.1242 13.4332 14.7955C14.0438 14.3727 14.2317 13.5273 13.809 12.9167L9.11201 6.85758L11.6014 6.24698L15.4999 8.36061L16.6272 12.5409C16.815 13.2924 17.6605 13.6682 18.365 13.2924C18.8347 12.9636 19.0696 12.447 18.9756 11.9303Z" fill="#D5B79F"/>
<path d="M17.3787 19.8682L17.8954 20.7136L19.0227 20.103L18.5999 19.2576C18.9757 18.9288 19.2106 18.5061 19.3515 18.0833L20.3378 18.1303L20.3848 16.8621L19.3984 16.7682C19.3515 16.4394 19.2575 16.2045 19.1166 15.9697C18.9757 15.7349 18.8348 15.547 18.6939 15.4061L19.2106 14.5606L18.1302 13.903L17.5666 14.7485C17.0969 14.6076 16.5803 14.5606 16.0636 14.7015L15.5469 13.8561L14.4196 14.4667L14.8424 15.3591C14.5606 15.5939 14.2787 15.9697 14.1378 16.4394L13.1515 16.3924L13.1045 17.6606L14.0909 17.7545C14.1378 18.0364 14.2318 18.2712 14.3727 18.5061C14.5136 18.7409 14.6545 18.9288 14.7954 19.0697L14.2787 19.9152L15.359 20.6197L15.9227 19.7742C16.3924 19.9621 16.909 20.0091 17.3787 19.8682ZM15.7348 17.8015C15.453 17.2379 15.6409 16.5333 16.2045 16.2515C16.7681 15.9697 17.4727 16.1576 17.7545 16.7212C18.0363 17.2849 17.8484 17.9894 17.2848 18.2712C16.7212 18.553 16.0166 18.3652 15.7348 17.8015Z" fill="#6FAC43"/>
<path d="M18.5062 16.2985C17.9896 15.3121 16.7684 14.9364 15.782 15.5C14.7956 16.0167 14.4199 17.2379 14.9835 18.2242C15.5002 19.2106 16.7214 19.5864 17.7078 19.0697C18.6941 18.5061 19.0699 17.2849 18.5062 16.2985ZM15.735 17.8015C15.4532 17.2379 15.6411 16.5333 16.2047 16.2515C16.7684 15.9697 17.4729 16.1576 17.7547 16.7212C18.0365 17.2849 17.8487 17.9894 17.285 18.2712C16.7214 18.553 16.0168 18.3652 15.735 17.8015Z" fill="#639C42"/>
<path d="M19.3514 18.0364L20.3377 18.0833L20.3847 16.8151L19.3983 16.7212C19.3514 16.4394 19.2574 16.2045 19.1165 15.9697C18.9756 15.7348 18.8347 15.547 18.6938 15.4061L19.2105 14.5606L18.6468 14.2318L17.8014 15.5939C18.0832 15.7818 18.318 16.0167 18.5059 16.3454C19.0226 17.3318 18.6468 18.553 17.7074 19.0697C17.0499 19.4454 16.2983 19.3515 15.6877 19.0227L14.8423 20.3848L15.359 20.7136L15.9226 19.8682C16.3923 20.0091 16.909 20.0561 17.4256 19.9151L17.9423 20.7606L19.0696 20.15L18.5999 19.2576C18.9286 18.9288 19.2105 18.5061 19.3514 18.0364Z" fill="#639C42"/>
<path d="M17.7547 16.7212C18.0365 17.2848 17.8486 17.9894 17.285 18.2712C16.9092 18.4591 16.4865 18.4591 16.1577 18.2242L15.688 18.9758C16.2986 19.3515 17.0501 19.3985 17.7077 19.0227C18.694 18.5061 19.0698 17.2848 18.5062 16.2985C18.3183 15.9697 18.0834 15.7348 17.8016 15.547L17.3319 16.2985C17.5198 16.3924 17.6607 16.5333 17.7547 16.7212Z" fill="#6FAC43"/>
<path d="M30.5303 22.3576V20.8076L29.2621 20.6667C29.1682 20.197 28.9803 19.7742 28.6985 19.3515L29.497 18.3651L28.4166 17.2848L27.4303 18.0833C27.0545 17.8485 26.5848 17.6606 26.1151 17.5197L25.9742 16.2515H24.4242L24.2833 17.5197C23.8136 17.6136 23.3909 17.8015 22.9682 18.0833L21.9818 17.2848L20.9015 18.3651L21.7 19.3515C21.4182 19.7742 21.2303 20.197 21.1363 20.6667L19.8682 20.8076V22.3576L21.1363 22.4985C21.2303 22.9682 21.4182 23.3909 21.7 23.8136L20.9015 24.8L21.9818 25.8803L22.9682 25.0818C23.3439 25.3167 23.8136 25.5045 24.2833 25.6454L24.4242 26.9136H25.9742L26.1151 25.6454C26.5848 25.5515 27.0076 25.3636 27.4303 25.0818L28.4166 25.8803L29.497 24.8L28.6985 23.8136C28.9333 23.4379 29.1212 22.9682 29.2621 22.4985L30.5303 22.3576ZM25.1757 23.4848C24.1424 23.4848 23.297 22.6394 23.297 21.6061C23.297 20.5727 24.1424 19.7273 25.1757 19.7273C26.2091 19.7273 27.0545 20.5727 27.0545 21.6061C27.0545 22.6394 26.2091 23.4848 25.1757 23.4848Z" fill="#D95239"/>
<path d="M25.176 18.6C23.532 18.6 22.1699 19.9621 22.1699 21.6061C22.1699 23.25 23.532 24.6121 25.176 24.6121C26.8199 24.6121 28.182 23.25 28.182 21.6061C28.182 19.9621 26.8669 18.6 25.176 18.6ZM25.176 23.4849C24.1426 23.4849 23.2972 22.6394 23.2972 21.6061C23.2972 20.5727 24.1426 19.7273 25.176 19.7273C26.2093 19.7273 27.0548 20.5727 27.0548 21.6061C27.0548 22.6394 26.2093 23.4849 25.176 23.4849Z" fill="#E8664A"/>
<path d="M22.2166 21.6061C22.2166 19.9621 23.5788 18.6 25.2227 18.6V16.2515H24.4242L24.2833 17.5197C23.8136 17.6136 23.3909 17.8015 22.9682 18.0833L21.9818 17.2848L20.9015 18.3651L21.7 19.3515C21.4182 19.7742 21.2303 20.197 21.1363 20.6667L19.8682 20.8076V22.3576L21.1363 22.4985C21.2303 22.9682 21.4182 23.3909 21.7 23.8136L20.9015 24.8L21.9818 25.8803L22.9682 25.0818C23.3439 25.3167 23.8136 25.5045 24.2833 25.6454L24.4242 26.9136H25.1757V24.5651C23.5318 24.6121 22.2166 23.25 22.2166 21.6061Z" fill="#E8664A"/>
<path d="M23.8604 22.9212C23.6256 22.6864 23.4377 22.3576 23.3438 21.9818C23.4377 22.3576 23.6256 22.6864 23.8604 22.9212ZM23.3438 21.2303C23.4377 20.8545 23.5786 20.5258 23.8604 20.2909C23.6256 20.5258 23.4377 20.8545 23.3438 21.2303Z" fill="#6FAC43"/>
<path d="M26.8198 20.7136C26.9607 20.9955 27.0547 21.2773 27.0547 21.6061C27.0547 21.2773 26.9607 20.9955 26.8198 20.7136Z" fill="#639C42"/>
<path d="M22.2168 21.6061C22.2168 23.25 23.5789 24.6121 25.2229 24.6121V23.4849C24.988 23.4849 24.7062 23.4379 24.5183 23.3439C24.2835 23.25 24.0956 23.1091 23.9077 22.9212C23.6729 22.6864 23.485 22.3576 23.391 21.9818C23.3441 21.8409 23.3441 21.747 23.3441 21.6061C23.3441 21.4652 23.3441 21.3712 23.391 21.2303C23.485 20.8546 23.6259 20.5258 23.9077 20.2909C24.0956 20.103 24.2835 19.9621 24.5183 19.8682C24.7532 19.7742 24.988 19.7273 25.2229 19.7273V18.6C23.5319 18.6 22.2168 19.9621 22.2168 21.6061Z" fill="#D95239"/>
<path d="M18.0836 28.1818L19.1169 28.8864L20.1033 27.5712L19.1169 26.7727C19.3517 26.2091 19.4457 25.5985 19.3517 24.9879L20.526 24.4712L19.9154 22.9682L18.7411 23.3909C18.5533 23.1091 18.3184 22.8742 17.9896 22.6394C17.7548 22.4515 17.4729 22.3106 17.1911 22.1697L17.332 20.9015L15.6881 20.7136L15.5002 22.0288C14.8896 22.1227 14.279 22.3576 13.7623 22.7803L12.682 22.0288L11.6957 23.3439L12.682 24.1424C12.4472 24.7061 12.3533 25.3167 12.4472 25.9273L11.2729 26.397L11.8836 27.9L13.0578 27.4773C13.2457 27.7591 13.4805 27.9939 13.8093 28.2288C14.0442 28.4167 14.326 28.5576 14.6078 28.6985L14.4669 29.9667L16.1108 30.1545L16.2987 28.8864C16.9563 28.8394 17.5669 28.6045 18.0836 28.1818ZM15.0305 26.6318C14.3729 26.1621 14.232 25.2227 14.7487 24.5652C15.2184 23.9076 16.1578 23.7667 16.8154 24.2833C17.4729 24.753 17.6139 25.6924 17.0972 26.35C16.5805 26.9606 15.6881 27.1015 15.0305 26.6318Z" fill="#53528A"/>
<path d="M17.4729 23.3909C16.3457 22.5455 14.7017 22.7803 13.8563 23.9076C13.0108 25.0349 13.2457 26.6788 14.3729 27.5242C15.5002 28.3697 17.1441 28.1349 17.9896 27.0076C18.8351 25.8803 18.6002 24.2364 17.4729 23.3909ZM15.0305 26.6318C14.3729 26.1621 14.232 25.2227 14.7487 24.5652C15.2184 23.9076 16.1578 23.7667 16.8154 24.2833C17.4729 24.753 17.6138 25.6924 17.0972 26.35C16.5805 26.9606 15.6881 27.1015 15.0305 26.6318Z" fill="#41427E"/>
<path d="M19.3519 24.9879L20.5261 24.4712L19.9155 22.9682L18.7413 23.3909C18.5534 23.1091 18.3186 22.8742 17.9898 22.6394C17.7549 22.4515 17.4731 22.3106 17.1913 22.1697L17.3322 20.9015L16.4867 20.8076L16.2519 22.8273C16.6746 22.8742 17.0973 23.0621 17.4731 23.3439C18.6004 24.1894 18.8352 25.8333 17.9898 26.9606C17.4261 27.7121 16.4867 28.0879 15.5943 27.9939L15.3125 30.0606L16.111 30.1545L16.2989 28.8864C16.9095 28.7924 17.5201 28.5576 18.0367 28.1348L19.0701 28.8394L20.0564 27.5242L19.117 26.7727C19.3519 26.2091 19.4458 25.5985 19.3519 24.9879Z" fill="#41427E"/>
<path d="M16.7686 24.2833C17.4262 24.753 17.5671 25.6924 17.0504 26.35C16.7216 26.7727 16.2049 26.9606 15.6883 26.9136L15.5474 28.0409C16.4398 28.1348 17.3792 27.8061 17.9428 27.0076C18.7883 25.8803 18.5534 24.2364 17.4262 23.3909C17.0504 23.1091 16.6277 22.9682 16.2049 22.8742L16.064 24.0015C16.3458 24.0485 16.5807 24.1424 16.7686 24.2833Z" fill="#53528A"/>
<path d="M4.64992 1.22121H3.42871V9.39393H4.64992V1.22121Z" fill="#E6E6E8"/>
<path d="M4.03942 0.845459H0.469727V9.86364H4.03942V0.845459Z" fill="#465C6A"/>
<path d="M4.03942 5.16667H0.469727V9.81667H4.03942V5.16667Z" fill="#3B4C56"/>
</g>
<defs>
<clipPath id="clip0_205_579">
<rect width="31" height="31" fill="white"/>
</clipPath>
</defs>
</svg>
