<svg width="70" height="70" viewBox="0 0 70 70" fill="none" xmlns="http://www.w3.org/2000/svg">
<g clip-path="url(#clip0_302_114)">
<path d="M48.6241 40.1144C48.3075 40.0024 47.9847 39.8861 47.6617 39.766V33.9827C48.2551 34.1872 48.5622 34.4848 48.6028 34.5263C49.2242 35.2285 50.2969 35.2987 51.0051 34.6819C51.7167 34.0618 51.7909 32.9823 51.1708 32.2707C50.5868 31.6006 49.3763 30.7598 47.6617 30.4732V29.5312C47.6617 28.5875 46.8967 27.8223 45.9528 27.8223C45.0089 27.8223 44.2438 28.5875 44.2438 29.5312V30.6627C44.124 30.6939 44.0033 30.7275 43.8812 30.7643C41.8151 31.3867 40.2721 33.1509 39.8542 35.3685C39.4709 37.4019 40.1303 39.3688 41.5745 40.5016C42.2659 41.0439 43.11 41.541 44.2436 42.0587V49.5664C43.4168 49.4565 42.798 49.1859 41.8292 48.5521C41.0394 48.0352 39.9802 48.2569 39.4634 49.0466C38.9466 49.8363 39.1681 50.8955 39.9579 51.4124C41.6337 52.5086 42.8119 52.8864 44.2436 53.0046V54.1406C44.2436 55.0844 45.0087 55.8496 45.9526 55.8496C46.8965 55.8496 47.6616 55.0844 47.6616 54.1406V52.8449C48.7846 52.5701 49.8059 52.0261 50.6707 51.2315C51.8272 50.1691 52.6077 48.7293 52.8685 47.1779C53.4052 43.988 51.739 41.2155 48.6241 40.1144V40.1144ZM44.2438 38.1999C44.0413 38.0732 43.8522 37.9442 43.6841 37.8122C43.2542 37.475 43.0692 36.7642 43.2131 36.0015C43.3216 35.4257 43.6467 34.7575 44.2438 34.3399V38.1999ZM49.4982 46.6113C49.3318 47.601 48.7096 48.6449 47.6617 49.2103V43.404C49.6656 44.2073 49.6171 45.9043 49.4982 46.6113Z" fill="white"/>
<path d="M69.9207 48.6625C69.3063 43.1777 67.5099 37.7854 64.7257 33.0686C62.5443 29.3732 59.8377 26.1588 56.6516 23.473C58.116 22.3474 59.0625 20.5795 59.0625 18.5938C59.0625 16.54 58.05 14.7194 56.499 13.6014C59.0011 10.8999 60.4297 7.33295 60.4297 3.55472C60.4297 2.79839 60.0134 2.10345 59.3466 1.74648C58.6798 1.38978 57.8707 1.42875 57.2414 1.84834C54.1952 3.87916 50.2582 3.87916 47.212 1.84834C46.5231 1.3891 45.6256 1.3891 44.9367 1.84834C41.8905 3.87916 37.9535 3.87916 34.9073 1.84834C34.278 1.42875 33.4689 1.39115 32.8021 1.74812C32.1353 2.10509 31.7188 2.8014 31.7188 3.55773C31.7188 7.33363 33.1473 10.9001 35.6494 13.6012C34.0985 14.7194 33.0859 16.54 33.0859 18.5938C33.0859 20.5826 34.0353 22.353 35.5038 23.4785C30.4648 27.7457 26.5707 33.3899 24.286 39.7852H7.51953C6.38695 39.7852 5.46875 40.7034 5.46875 41.836V47.9883H2.05078C0.918203 47.9883 0 48.9065 0 50.0391V58.2422C0 59.3748 0.918203 60.293 2.05078 60.293H5.46875V66.4453C5.46875 67.5779 6.38695 68.4961 7.51953 68.4961H32.1289C33.2615 68.4961 34.1797 67.5779 34.1797 66.4453V62.9901C34.5041 63.0143 34.8299 63.0274 35.1564 63.0274H56.9953C60.6992 63.0274 64.2403 61.4428 66.7108 58.6801C69.1574 55.9441 70.3273 52.2929 69.9207 48.6625ZM46.0742 5.94033C49.0861 7.54048 52.5545 7.88953 55.7658 6.98773C55.0227 9.18685 53.5712 11.1113 51.5843 12.4414H40.5642C38.5774 11.1114 37.1262 9.18767 36.383 6.98787C39.5943 7.88953 43.0624 7.54048 46.0742 5.94033V5.94033ZM54.9609 18.5938C54.9609 19.7246 54.041 20.6446 52.9102 20.6446H39.2383C38.1075 20.6446 37.1875 19.7246 37.1875 18.5938C37.1875 17.463 38.1075 16.543 39.2383 16.543H52.9102C54.041 16.543 54.9609 17.463 54.9609 18.5938ZM9.57031 43.8868H30.0781V47.9883H9.57031V43.8868ZM4.10156 56.1914V52.0899H24.6094V56.1914H4.10156ZM30.0781 64.3946H9.57031V60.293H30.0781V64.3946ZM63.6534 55.946C61.96 57.8397 59.5332 58.9258 56.9953 58.9258H35.1564C34.8291 58.9258 34.5032 58.9075 34.1797 58.8722V58.2422C34.1797 57.1096 33.2615 56.1914 32.1289 56.1914H28.7109V52.0899H32.1289C33.2615 52.0899 34.1797 51.1717 34.1797 50.0391V41.836C34.1797 40.7034 33.2615 39.7852 32.1289 39.7852H28.674C31.1546 33.6673 35.3023 28.4116 40.577 24.7461H51.5698C59.5321 30.2713 64.7243 39.1177 65.8446 49.1191C66.1255 51.6272 65.3475 54.0518 63.6534 55.946Z" fill="white"/>
</g>
<defs>
<clipPath id="clip0_302_114">
<rect width="70" height="70" fill="white"/>
</clipPath>
</defs>
</svg>
