<svg width="31" height="31" viewBox="0 0 31 31" fill="none" xmlns="http://www.w3.org/2000/svg">
<path d="M26.2574 10.5957H17.96C17.3975 11.625 16.5287 12.2159 15.5539 12.2159C14.5791 12.2159 13.7108 11.625 13.1484 10.5957H2.90625V2.8457H13.1484C13.7108 1.8164 14.5797 1.22546 15.5539 1.22546C16.5281 1.22546 17.3975 1.8164 17.96 2.8457H28.0332V10.5957H26.2574ZM16.0056 4.68269C16.0056 4.5827 15.9759 4.48495 15.9204 4.40181C15.8648 4.31867 15.7859 4.25387 15.6935 4.21561C15.6011 4.17734 15.4994 4.16733 15.4014 4.18684C15.3033 4.20635 15.2132 4.2545 15.1425 4.3252C15.0718 4.39591 15.0237 4.48599 15.0041 4.58406C14.9846 4.68213 14.9947 4.78378 15.0329 4.87616C15.0712 4.96854 15.136 5.0475 15.2191 5.10305C15.3023 5.15861 15.4 5.18826 15.5 5.18826C15.6341 5.18823 15.7626 5.13495 15.8575 5.04014C15.9523 4.94534 16.0055 4.81677 16.0056 4.68269V4.68269Z" fill="#00ACEA"/>
<path d="M26.459 22.159H4.7832H3.875V19.3466H4.98482H6.88236H24.3598H26.2574H27.3672V22.159H26.459Z" fill="#00ACEA"/>
<path d="M26.459 22.1589H4.7832V29.7878H26.459V22.1589Z" fill="#00EFD1"/>
<path d="M26.2574 10.5957H24.3599V19.3465H26.2574V10.5957Z" fill="#FEDB41"/>
<path d="M18.8421 8.59953H12.1577C12.1729 6.85094 13.6635 5.47168 15.4999 5.47168C17.3363 5.47168 18.827 6.85094 18.8421 8.59953Z" fill="#FEDB41"/>
<path d="M6.8824 10.5957H4.98486V19.3465H6.8824V10.5957Z" fill="#FEDB41"/>
<path d="M15.4999 5.67263C15.3041 5.67263 15.1127 5.61457 14.9499 5.5058C14.7871 5.39702 14.6603 5.24241 14.5853 5.06152C14.5104 4.88064 14.4908 4.68159 14.529 4.48956C14.5672 4.29753 14.6615 4.12114 14.7999 3.9827C14.9384 3.84425 15.1148 3.74997 15.3068 3.71177C15.4988 3.67357 15.6979 3.69318 15.8788 3.7681C16.0596 3.84303 16.2143 3.96991 16.323 4.13271C16.4318 4.2955 16.4899 4.4869 16.4899 4.68269C16.4896 4.94515 16.3852 5.19678 16.1996 5.38237C16.014 5.56795 15.7624 5.67234 15.4999 5.67263V5.67263ZM15.4999 4.6615C15.4957 4.6615 15.4916 4.66274 15.4881 4.66507C15.4847 4.6674 15.4819 4.67071 15.4803 4.67458C15.4787 4.67845 15.4783 4.68271 15.4791 4.68683C15.48 4.69094 15.482 4.69471 15.4849 4.69768C15.4879 4.70064 15.4917 4.70266 15.4958 4.70348C15.4999 4.70429 15.5042 4.70387 15.508 4.70227C15.5119 4.70067 15.5152 4.69795 15.5175 4.69446C15.5199 4.69098 15.5211 4.68688 15.5211 4.68269C15.5211 4.67708 15.5189 4.67169 15.5149 4.66772C15.5109 4.66375 15.5055 4.66152 15.4999 4.6615V4.6615ZM19.4906 9.08384H11.6304C11.5019 9.08384 11.3787 9.03281 11.2879 8.94197C11.197 8.85114 11.146 8.72793 11.146 8.59947C11.146 8.471 11.197 8.3478 11.2879 8.25696C11.3787 8.16613 11.5019 8.11509 11.6304 8.11509H19.4906C19.619 8.11509 19.7422 8.16613 19.8331 8.25696C19.9239 8.3478 19.9749 8.471 19.9749 8.59947C19.9749 8.72793 19.9239 8.85114 19.8331 8.94197C19.7422 9.03281 19.619 9.08384 19.4906 9.08384Z" fill="#F4B844"/>
</svg>
