<svg width="31" height="31" viewBox="0 0 31 31" fill="none" xmlns="http://www.w3.org/2000/svg">
<path d="M1.927 6.24189H3.77025V10.8919H1.927V6.24189ZM5.65538 6.24189H7.49862V10.8919H5.65538V6.24189V6.24189ZM9.34187 6.24189H11.1851V10.8919H9.34187V6.24189V6.24189Z" fill="#85CBE6"/>
<path d="M12.1067 5.78108V6.24189H11.1851H9.34186H7.49861H5.65537H3.77024H1.92699H1.00537V5.78108L5.73915 1.88514C5.99051 1.67568 6.24186 1.59189 6.57699 1.59189C6.87024 1.59189 7.16348 1.67568 7.41483 1.88514L12.1067 5.78108Z" fill="#F59339"/>
<path d="M12.1067 12.7351H1.00537V11.8135C1.00537 11.3108 1.42429 10.8919 1.92699 10.8919H3.77024H5.61348H7.45672H9.29997H11.1432C11.6459 10.8919 12.0648 11.3108 12.0648 11.8135L12.1067 12.7351ZM15.2905 12.7351C17.8459 12.7351 19.9405 14.8297 19.9405 17.3851C19.9405 19.4378 18.6 21.1973 16.7148 21.7838C16.254 21.9095 15.7932 21.9932 15.3324 21.9932C14.8297 21.9932 14.3689 21.9095 13.95 21.7838C12.0648 21.1973 10.7243 19.4378 10.7243 17.3851C10.7243 16.3378 11.0594 15.3743 11.6459 14.6203C11.8973 14.2851 12.2324 13.95 12.5675 13.6986C13.2797 13.0703 14.2432 12.7351 15.2905 12.7351Z" fill="#E26B26"/>
<path d="M28.7797 27.523V28.4865C28.7797 28.9892 28.3608 29.4081 27.8581 29.4081H23.25C22.7473 29.4081 22.3284 28.9892 22.3284 28.4865V27.5649H28.7797V27.523ZM28.7797 20.15V21.0716H22.3284V20.15C22.3284 19.6473 22.7473 19.2284 23.25 19.2284H27.9C28.3608 19.1865 28.7797 19.6054 28.7797 20.15Z" fill="#F59339"/>
<path d="M22.3284 21.0716H28.8216V27.5649H22.3284V21.0716Z" fill="#85CBE6"/>
<path d="M24.6324 26.35L27.7324 23.25L27.0621 22.5797L24.5905 25.0514L24.004 24.4649L23.3337 25.1351L24.6324 26.35Z" fill="white"/>
<path d="M9.34196 25.2189C9.34196 26.35 8.88115 27.3973 8.12709 28.1513C7.37304 28.9054 6.32574 29.3662 5.19466 29.3662C4.06358 29.3662 3.01628 28.9054 2.26223 28.1513C1.50817 27.3973 1.04736 26.35 1.04736 25.2189C1.04736 24.0878 1.50817 23.0405 2.26223 22.2865C3.01628 21.5324 4.06358 21.0716 5.19466 21.0716C6.32574 21.0716 7.37304 21.5324 8.12709 22.2865C8.88115 23.0405 9.34196 24.0878 9.34196 25.2189Z" fill="#85CBE6"/>
<path d="M5.65551 23.3757H4.73389V25.4284L5.78118 26.4757L6.45145 25.8054L5.65551 25.0095V23.3757Z" fill="white"/>
<path d="M17.9297 9.59324V4.94324H29.9527V9.59324C29.9527 10.0959 29.5337 10.5149 29.031 10.5149H18.8932C18.3486 10.5149 17.9297 10.0959 17.9297 9.59324Z" fill="#F59339"/>
<path d="M29.9946 4.02162V4.94324H17.9297V4.02162C17.9297 3.51892 18.3486 3.1 18.8513 3.1H29.031C29.5756 3.1 29.9946 3.51892 29.9946 4.02162Z" fill="#E26B26"/>
<path d="M25.5122 6.32568H28.2771V9.09054H25.5122V6.32568Z" fill="#D4E5A0"/>
<path d="M23.0405 8.16892H23.9621V9.09054H23.0405V8.16892ZM21.1972 8.16892H22.1189V9.09054H21.1972V8.16892ZM19.354 8.16892H20.2756V9.09054H19.354V8.16892ZM19.354 6.32568H24.004V7.2473H19.354V6.32568Z" fill="#E26B26"/>
<path d="M15.7514 15.123V14.1176H14.8298V15.123C14.2852 15.2905 13.9082 15.7932 13.9082 16.3797C13.9082 16.8824 14.2014 17.3432 14.6204 17.5527L15.542 18.0135C15.6677 18.0973 15.7514 18.223 15.7514 18.3486C15.7514 18.5581 15.5839 18.7257 15.3744 18.7257H15.2487C15.0393 18.7257 14.8717 18.5581 14.8717 18.3486V17.8041H13.9501V18.3486C13.9501 18.9351 14.3271 19.4378 14.8717 19.6054V20.6108H15.7933V19.6054C16.3379 19.4378 16.715 18.9351 16.715 18.3486C16.715 17.8459 16.4217 17.3851 16.0028 17.1757L15.0812 16.7149C14.9555 16.6311 14.8717 16.5054 14.8717 16.3797C14.8717 16.1703 15.0393 16.0027 15.2487 16.0027H15.3744C15.5839 16.0027 15.7514 16.1703 15.7514 16.3797V16.4635H16.6731V16.3797C16.6731 15.7514 16.296 15.2905 15.7514 15.123Z" fill="#D4E5A0"/>
</svg>
