<svg width="35" height="31" viewBox="0 0 35 31" fill="none" xmlns="http://www.w3.org/2000/svg">
<path d="M12.1294 1.79418L31.9943 16.5662C30.8857 18.0631 31.1952 20.179 32.6921 21.2933L27.3179 28.5133C25.821 27.4047 23.7051 27.7142 22.5965 29.2111L2.72597 14.4334C3.8402 12.9365 3.52507 10.8206 2.02817 9.71199L7.40237 2.48635C8.89927 3.60059 11.0096 3.28545 12.1294 1.79418Z" fill="#65BC6A"/>
<path d="M34.2566 18.2432C34.5042 18.4289 34.5548 18.7834 34.3691 19.031L32.6921 21.2933C31.1952 20.179 30.8857 18.0631 31.9943 16.5662L34.2566 18.2432ZM27.3179 28.5133L25.641 30.7755C25.4552 31.0231 25.1007 31.0738 24.8531 30.8881L22.5965 29.2111C23.7051 27.7142 25.821 27.4047 27.3179 28.5133ZM20.3849 11.434C22.6246 13.1053 23.0917 16.2792 21.426 18.5246C19.7546 20.7699 16.5808 21.2314 14.341 19.5656C12.0957 17.8943 11.6286 14.7204 13.2943 12.4807C14.9657 10.2353 18.1396 9.76826 20.3849 11.434Z" fill="#398F3E"/>
<path d="M15.0102 18.6613C15.1109 18.7362 15.2291 18.7727 15.3456 18.7727C15.5178 18.7727 15.6871 18.6945 15.7974 18.5459L16.2752 17.9033C16.3135 17.9089 16.3495 17.9196 16.3883 17.9224C16.4294 17.9252 16.4705 17.9269 16.511 17.9269C17.3872 17.9269 18.1295 17.2471 18.1942 16.3603C18.2156 16.0642 18.1587 15.7677 18.0293 15.5015C17.9702 15.3799 17.8965 15.2657 17.8098 15.1616C17.7777 15.1194 17.74 15.0811 17.6967 15.0491C17.5763 14.959 17.4975 14.8279 17.4755 14.6793C17.4536 14.5308 17.4907 14.3822 17.5808 14.2618C17.6703 14.1414 17.8019 14.0626 17.9505 14.0406C18.1002 14.0192 18.2476 14.0564 18.3686 14.1464C18.4491 14.2061 18.5099 14.2832 18.5493 14.3738C18.569 14.4193 18.5825 14.4677 18.5898 14.5161C18.6354 14.824 18.9224 15.035 19.2285 14.9911C19.5358 14.9455 19.7485 14.6602 19.7034 14.3524C19.6821 14.2066 19.6415 14.0643 19.583 13.9286C19.5425 13.8347 19.4834 13.7514 19.4266 13.667L19.8278 13.1273C20.0135 12.878 19.9618 12.5257 19.7119 12.34C19.4632 12.1549 19.1103 12.2061 18.9246 12.4559L18.5279 12.9894C18.2904 12.9157 18.0394 12.8898 17.7873 12.9275C17.341 12.9934 16.9471 13.2286 16.6781 13.5904C16.139 14.3158 16.2696 15.3355 16.9618 15.9027C16.9831 15.9314 17.0017 15.9618 17.0175 15.9939C17.0608 16.0834 17.0794 16.1796 17.0721 16.2798C17.0495 16.5893 16.7716 16.8234 16.4705 16.8003C16.3202 16.7896 16.1835 16.721 16.0856 16.6073C15.9871 16.4936 15.9387 16.3484 15.9499 16.1987C15.9725 15.8887 15.7389 15.6191 15.4294 15.5966C15.1075 15.5758 14.8498 15.8076 14.8273 16.1171C14.7946 16.5668 14.9393 17.0023 15.2347 17.3434C15.2448 17.3552 15.2572 17.3631 15.2673 17.3743L14.8959 17.874C14.7085 18.1239 14.7603 18.4762 15.0102 18.6613ZM2.72602 14.4334L18.3816 26.0766H18.3759L3.07492 21.2089C3.64329 19.4306 2.65849 17.5341 0.880219 16.9658L1.50486 15.0018L1.8819 13.8088L2.72602 14.4334Z" fill="#65BC6A"/>
<path d="M18.376 26.0766L12.8779 24.3265L1.60055 15.9416L1.27979 15.7052L1.50488 15.0018L1.88192 13.8088L2.72604 14.4334L18.376 26.0766Z" fill="#398F3E"/>
<path d="M19.6533 27.022H4.8813C4.8813 25.1593 3.36752 23.6455 1.50484 23.6455V20.708L3.07489 21.2088L18.3759 26.0766H18.3815L19.6533 27.022Z" fill="#65BC6A"/>
<path d="M19.6533 27.022H16.0405L3.07489 22.8971L1.50484 22.3962V20.708L3.07489 21.2088L18.3759 26.0766H18.3815L19.6533 27.022Z" fill="#29752B"/>
<path d="M33.0185 23.6455V26.4593C33.0185 26.7688 32.7653 27.022 32.4558 27.022H30.7563L30.9139 26.5212L31.7524 23.8931C32.1407 23.7299 32.5684 23.6455 33.0185 23.6455Z" fill="#236823"/>
<path d="M33.0186 20.8487V23.6455C32.5684 23.6455 32.1408 23.7299 31.7525 23.8931L32.4953 21.5578V21.5521L32.6922 21.2933L33.0186 20.8487Z" fill="#29752B"/>
<path d="M32.4951 21.5578L31.7523 23.8931L30.9138 26.5212C30.5142 26.3917 30.1034 26.3467 29.7039 26.3692C29.3887 26.3861 29.0792 26.448 28.781 26.5493L32.4951 21.5578Z" fill="#65BC6A"/>
<path d="M30.9138 26.5212L30.7562 27.022L30.0584 29.2054C29.9684 29.4981 29.6476 29.6613 29.355 29.5712L27.0759 28.8453L27.3178 28.5133L28.781 26.5493C29.0792 26.448 29.3887 26.3861 29.7039 26.3692C30.1034 26.3467 30.5142 26.3917 30.9138 26.5212ZM33.0184 11.8279V14.2027L31.8986 13.8425L30.3735 13.3586H30.3679C29.9121 12.7846 29.642 12.0586 29.642 11.2652H32.4557C32.7652 11.2652 33.0184 11.5184 33.0184 11.8279Z" fill="#398F3E"/>
<path d="M30.3682 13.3586L25.6805 11.8673H25.6749L24.8701 11.2652H29.6422C29.6422 12.0586 29.9123 12.7846 30.3682 13.3586Z" fill="#65BC6A"/>
<path d="M5.25847 5.3676L4.05983 6.98268V6.97705L4.63383 5.17064L5.25847 5.3676Z" fill="#398F3E"/>
<path d="M4.88124 27.022H2.06752C1.75801 27.022 1.50477 26.7688 1.50477 26.4593V23.6455C3.36746 23.6455 4.88124 25.1593 4.88124 27.022ZM0.880127 16.9658C2.6584 17.5341 3.6432 19.4306 3.07483 21.2089L1.50477 20.708L0.390539 20.3535C0.0979125 20.2634 -0.0652833 19.9427 0.0247558 19.6501L0.880127 16.9658ZM12.1294 1.78855V1.79418C11.0095 3.28545 8.89923 3.60059 7.40233 2.48635L9.08494 0.229749C9.26501 -0.0234864 9.61954 -0.0741334 9.86715 0.111572L12.1294 1.78855ZM2.02813 9.71199C3.52502 10.8206 3.84016 12.9365 2.72593 14.4334L0.469324 12.7564C0.216089 12.5707 0.165442 12.2162 0.351147 11.9686L2.02813 9.71199Z" fill="#398F3E"/>
<path d="M31.8818 13.8932C31.6399 14.5516 31.6005 15.6039 31.7524 16.3805L25.6804 11.8673L30.3681 13.3586H30.3737L31.8987 13.8425L31.8818 13.8932Z" fill="#65BC6A"/>
<path d="M31.7523 16.3805C31.6003 15.6039 31.6397 14.5516 31.8817 13.8932L31.8986 13.8425L33.0184 14.2027L34.1327 14.5572C34.4253 14.6473 34.5885 14.968 34.4985 15.2606L33.6825 17.8155L31.9942 16.5662L31.7523 16.3805ZM32.4951 21.5578L31.7523 23.8931L30.9138 26.5212C30.5142 26.3917 30.1034 26.3467 29.7039 26.3692C29.3887 26.3861 29.0792 26.448 28.781 26.5493L32.4951 21.5578Z" fill="#398F3E"/>
<path d="M29.7039 26.3692C29.3887 26.3861 29.0792 26.448 28.781 26.5493L27.8074 27.8605L27.3178 28.5133L27.0759 28.8453L28.8935 29.4249L29.355 29.5712C29.6476 29.6613 29.9684 29.4981 30.0584 29.2054L30.7562 27.022L30.8125 26.8419L30.9138 26.5212C30.5142 26.3917 30.1034 26.3467 29.7039 26.3692Z" fill="#29752B"/>
<path d="M30.959 13.5443L30.3737 13.3586H30.3681C30.2443 13.2066 30.1374 13.0434 30.0473 12.869L30.959 13.5443Z" fill="#236823"/>
<path d="M30.3682 13.3586L25.6805 11.8673H25.6749L24.8701 11.2652H27.8921L30.0474 12.869C30.1374 13.0434 30.2444 13.2066 30.3682 13.3586Z" fill="#29752B"/>
<path d="M31.6849 14.8217C31.713 14.591 31.7468 14.3659 31.7974 14.1689L30.9589 13.5443L30.3737 13.3586H30.3681L25.6804 11.8673L31.3416 16.0766L31.7524 16.3805C31.6624 15.9134 31.6399 15.3451 31.6849 14.8217Z" fill="#398F3E"/>
<path d="M33.6321 17.7767L33.745 17.6242L33.6829 17.8162L33.6321 17.7767Z" fill="#398F3E"/>
<path d="M34.2565 15.9922L31.9943 14.3152L31.7974 14.1689C31.7467 14.3659 31.7129 14.591 31.6848 14.8217C31.6398 15.3451 31.6623 15.9134 31.7523 16.3805L31.9943 16.5662L33.6319 17.7761L33.7444 17.6242L34.2622 15.9978L34.2565 15.9922Z" fill="#29752B"/>
</svg>
