<svg width="30" height="30" viewBox="0 0 30 30" fill="none" xmlns="http://www.w3.org/2000/svg">
<path d="M13.6946 23.4765H16.3054C16.4762 23.4848 16.6379 23.5565 16.7589 23.6774C16.8798 23.7984 16.9514 23.96 16.9598 24.1309V26.7417C16.9514 26.9126 16.8798 27.0742 16.7589 27.1952C16.6379 27.3161 16.4762 27.3878 16.3054 27.3961H13.6946C13.5237 27.3878 13.3621 27.3161 13.2411 27.1952C13.1201 27.0742 13.0485 26.9126 13.0402 26.7417V24.1102C13.0534 23.943 13.1272 23.7864 13.2477 23.6697C13.3681 23.5531 13.527 23.4843 13.6946 23.4765Z" fill="#607D8B"/>
<path d="M21.5201 26.0873H8.47988C8.05141 26.0863 7.62697 26.17 7.23086 26.3333C6.83475 26.4966 6.47474 26.7365 6.17145 27.0392C5.86815 27.3418 5.62753 27.7013 5.46335 28.0971C5.29918 28.4928 5.21467 28.9171 5.21467 29.3456C5.22302 29.5164 5.29465 29.6781 5.41561 29.7991C5.53658 29.92 5.69822 29.9917 5.86909 30H24.1102C24.2871 30.0002 24.4573 29.9324 24.5855 29.8106C24.7137 29.6887 24.7902 29.5222 24.7991 29.3456C24.7991 28.9159 24.7141 28.4906 24.5491 28.0939C24.384 27.6972 24.1422 27.3371 23.8374 27.0343C23.5327 26.7314 23.171 26.4918 22.7733 26.3293C22.3756 26.1668 21.9497 26.0845 21.5201 26.0873ZM3.2583 0H26.7348C27.5989 0 28.4277 0.343287 29.0387 0.954341C29.6498 1.5654 29.9931 2.39416 29.9931 3.25832V21.5201C29.9958 21.9497 29.9135 22.3756 29.751 22.7733C29.5885 23.1711 29.3489 23.5327 29.0461 23.8374C28.7432 24.1422 28.3831 24.3841 27.9865 24.5491C27.5898 24.7141 27.1644 24.7991 26.7348 24.7991H3.2583C2.82866 24.7991 2.40327 24.7141 2.0066 24.5491C1.60993 24.3841 1.24981 24.1422 0.946978 23.8374C0.644143 23.5327 0.404568 23.1711 0.242042 22.7733C0.0795168 22.3756 -0.00275096 21.9497 -2.60098e-05 21.5201V3.25832C-2.60098e-05 2.39416 0.343261 1.5654 0.954315 0.954341C1.56537 0.343287 2.39414 0 3.2583 0V0Z" fill="#455A64"/>
<path d="M3.2584 1.30196H26.7349C27.2537 1.30196 27.7513 1.50807 28.1182 1.87496C28.4851 2.24186 28.6912 2.73947 28.6912 3.25833V19.5637H1.30203V3.25833C1.30203 3.00141 1.35264 2.74701 1.45095 2.50966C1.54927 2.2723 1.69337 2.05663 1.87504 1.87496C2.24193 1.50807 2.73954 1.30196 3.2584 1.30196Z" fill="#FAFAFA"/>
<path d="M25.4879 20.8657C25.3585 20.8657 25.232 20.904 25.1244 20.976C25.0168 21.0479 24.9329 21.1501 24.8833 21.2697C24.8338 21.3892 24.8209 21.5208 24.8461 21.6478C24.8714 21.7747 24.9337 21.8913 25.0252 21.9828C25.1167 22.0744 25.2333 22.1367 25.3603 22.1619C25.4872 22.1872 25.6188 22.1742 25.7384 22.1247C25.858 22.0752 25.9602 21.9913 26.0321 21.8837C26.104 21.776 26.1424 21.6495 26.1424 21.5201C26.1424 21.3465 26.0734 21.1801 25.9507 21.0573C25.828 20.9346 25.6615 20.8657 25.4879 20.8657Z" fill="#68A1D7"/>
<path d="M14.3077 7.67392H19.5155C19.7527 7.69418 19.9738 7.80274 20.1348 7.97813C20.2959 8.15353 20.3853 8.38298 20.3853 8.62111C20.3853 8.85924 20.2959 9.08869 20.1348 9.26409C19.9738 9.43948 19.7527 9.54805 19.5155 9.5683H7.20549C7.07432 9.57949 6.94224 9.56332 6.81764 9.52081C6.69305 9.47829 6.57864 9.41036 6.48166 9.32131C6.38469 9.23226 6.30728 9.12405 6.25432 9.00351C6.20136 8.88298 6.17401 8.75276 6.17401 8.62111C6.17401 8.48946 6.20136 8.35924 6.25432 8.23871C6.30728 8.11817 6.38469 8.00996 6.48166 7.92091C6.57864 7.83186 6.69305 7.76393 6.81764 7.72141C6.94224 7.6789 7.07432 7.66273 7.20549 7.67392H12.3995" fill="#BC8F6F"/>
<path d="M13.364 2.45924C13.238 2.45742 13.1129 2.48066 12.996 2.52761C12.8791 2.57457 12.7726 2.6443 12.6829 2.73276C12.5931 2.82122 12.5219 2.92663 12.4733 3.04287C12.4246 3.15912 12.3996 3.28387 12.3996 3.40988V8.14926C12.4198 8.38652 12.5284 8.60754 12.7038 8.76861C12.8792 8.92967 13.1087 9.01904 13.3468 9.01904C13.5849 9.01904 13.8144 8.92967 13.9898 8.76861C14.1652 8.60754 14.2737 8.38652 14.294 8.14926V3.40988C14.294 3.16129 14.1967 2.92258 14.0229 2.74488C13.8491 2.56718 13.6125 2.46465 13.364 2.45924Z" fill="#52575F"/>
<path d="M13.0058 2.53502C12.8285 2.60293 12.6757 2.72276 12.5676 2.87884C12.4594 3.03492 12.4009 3.21999 12.3996 3.40988V8.14926C12.3998 8.33754 12.4563 8.52146 12.5619 8.67736C12.6675 8.83326 12.8173 8.95402 12.992 9.02411C13.1668 8.95402 13.3166 8.83326 13.4221 8.67736C13.5277 8.52146 13.5842 8.33754 13.5844 8.14926V3.40988C13.5854 3.22317 13.5309 3.04038 13.4279 2.88465C13.3249 2.72893 13.178 2.60725 13.0058 2.53502Z" fill="#666D77"/>
<path d="M19.5155 9.56833V15.7268C19.5139 15.9718 19.4177 16.2068 19.247 16.3827C19.0763 16.5585 18.8442 16.6616 18.5993 16.6705H8.14927C7.89715 16.6705 7.65535 16.5704 7.47707 16.3921C7.29879 16.2138 7.19864 15.972 7.19864 15.7199V9.56833" fill="#BF4653"/>
<path d="M8.14925 16.6705H18.5373C18.547 16.5927 18.547 16.5141 18.5373 16.4363V10.2779H7.20551V15.7268C7.20731 15.9765 7.30732 16.2155 7.48391 16.3921C7.66051 16.5687 7.89951 16.6687 8.14925 16.6705Z" fill="#DC6068"/>
<path d="M11.7106 15.2514C11.5279 15.2514 11.3527 15.1788 11.2235 15.0497C11.0943 14.9205 11.0218 14.7453 11.0218 14.5626V11.7107C11.0218 11.528 11.0943 11.3527 11.2235 11.2236C11.3527 11.0944 11.5279 11.0218 11.7106 11.0218C11.8933 11.0218 12.0685 11.0944 12.1977 11.2236C12.3269 11.3527 12.3995 11.528 12.3995 11.7107V14.5557C12.4004 14.6467 12.3832 14.737 12.349 14.8214C12.3148 14.9058 12.2642 14.9825 12.2002 15.0472C12.1361 15.1119 12.0599 15.1633 11.9758 15.1983C11.8918 15.2334 11.8017 15.2514 11.7106 15.2514ZM9.33404 15.2514C9.15134 15.2514 8.97612 15.1788 8.84694 15.0497C8.71775 14.9205 8.64517 14.7453 8.64517 14.5626V11.7107C8.64517 11.5225 8.71993 11.342 8.85299 11.2089C8.98605 11.0759 9.16652 11.0011 9.3547 11.0011C9.54288 11.0011 9.72335 11.0759 9.85641 11.2089C9.98948 11.342 10.0642 11.5225 10.0642 11.7107V14.5557C10.0653 14.6503 10.047 14.7441 10.0102 14.8313C9.97345 14.9185 9.91912 14.9972 9.85061 15.0625C9.7821 15.1278 9.70087 15.1783 9.61199 15.2108C9.52312 15.2433 9.4285 15.2571 9.33404 15.2514ZM15.0172 15.2514C14.8345 15.2514 14.6592 15.1788 14.5301 15.0497C14.4009 14.9205 14.3283 14.7453 14.3283 14.5626V11.7107C14.3283 11.5225 14.403 11.342 14.5361 11.2089C14.6692 11.0759 14.8496 11.0011 15.0378 11.0011C15.226 11.0011 15.4065 11.0759 15.5395 11.2089C15.6726 11.342 15.7474 11.5225 15.7474 11.7107V14.5557C15.7485 14.6503 15.7301 14.7441 15.6933 14.8313C15.6566 14.9185 15.6022 14.9972 15.5337 15.0625C15.4652 15.1278 15.384 15.1783 15.2951 15.2108C15.2062 15.2433 15.1116 15.2571 15.0172 15.2514ZM17.3868 15.2514C17.2042 15.2514 17.0289 15.1788 16.8997 15.0497C16.7706 14.9205 16.698 14.7453 16.698 14.5626V11.7107C16.698 11.5225 16.7727 11.342 16.9058 11.2089C17.0389 11.0759 17.2193 11.0011 17.4075 11.0011C17.5957 11.0011 17.7762 11.0759 17.9092 11.2089C18.0423 11.342 18.117 11.5225 18.117 11.7107V14.5557C18.1182 14.6503 18.0998 14.7441 18.063 14.8313C18.0263 14.9185 17.9719 14.9972 17.9034 15.0625C17.8349 15.1278 17.7537 15.1783 17.6648 15.2108C17.5759 15.2433 17.4813 15.2571 17.3868 15.2514Z" fill="white"/>
<path d="M22.5741 19.0953L19.4191 15.9403L18.3652 16.9943V12.7853H22.5741L21.5202 13.8393L24.6752 16.9943L22.5741 19.0953Z" fill="#4472B2"/>
</svg>
