<svg width="31" height="31" viewBox="0 0 31 31" fill="none" xmlns="http://www.w3.org/2000/svg">
<g clip-path="url(#clip0_207_1089)">
<path d="M8.53711 3.36035H22.4629C22.9446 3.36035 23.4066 3.55172 23.7473 3.89236C24.0879 4.23301 24.2793 4.69502 24.2793 5.17676V11.5342H6.7207V5.17676C6.7207 4.69502 6.91207 4.23301 7.25272 3.89236C7.59336 3.55172 8.05537 3.36035 8.53711 3.36035V3.36035Z" fill="#AEADB3"/>
<path d="M28.7295 10.6562H2.27051C1.26733 10.6562 0.454102 11.4695 0.454102 12.4727V23.0684C0.454102 24.0715 1.26733 24.8848 2.27051 24.8848H28.7295C29.7327 24.8848 30.5459 24.0715 30.5459 23.0684V12.4727C30.5459 11.4695 29.7327 10.6562 28.7295 10.6562Z" fill="#8B8893"/>
<path d="M28.7295 10.6563H26.0049C26.2434 10.6562 26.4796 10.7032 26.7 10.7945C26.9204 10.8858 27.1206 11.0196 27.2893 11.1882C27.458 11.3569 27.5918 11.5571 27.6831 11.7775C27.7743 11.9979 27.8213 12.2341 27.8213 12.4727V23.0684C27.8213 23.3069 27.7743 23.5431 27.6831 23.7635C27.5918 23.9839 27.458 24.1841 27.2893 24.3528C27.1206 24.5215 26.9204 24.6553 26.7 24.7465C26.4796 24.8378 26.2434 24.8848 26.0049 24.8848H28.7295C28.968 24.8848 29.2042 24.8378 29.4246 24.7465C29.645 24.6553 29.8452 24.5215 30.0139 24.3528C30.1826 24.1841 30.3164 23.9839 30.4077 23.7635C30.4989 23.5431 30.5459 23.3069 30.5459 23.0684V12.4727C30.5459 12.2341 30.4989 11.9979 30.4077 11.7775C30.3164 11.5571 30.1826 11.3569 30.0139 11.1882C29.8452 11.0196 29.645 10.8858 29.4246 10.7945C29.2042 10.7032 28.968 10.6562 28.7295 10.6563V10.6563Z" fill="#787681"/>
<path d="M27.3672 14.8945C27.9524 14.8945 28.4268 14.4201 28.4268 13.835C28.4268 13.2498 27.9524 12.7754 27.3672 12.7754C26.782 12.7754 26.3076 13.2498 26.3076 13.835C26.3076 14.4201 26.782 14.8945 27.3672 14.8945Z" fill="white"/>
<path d="M8.14355 19.1025H22.8564C23.3382 19.1025 23.8002 19.2939 24.1408 19.6346C24.4815 19.9752 24.6729 20.4372 24.6729 20.9189V24.8848H6.32715V20.9189C6.32715 20.4372 6.51852 19.9752 6.85916 19.6346C7.1998 19.2939 7.66181 19.1025 8.14355 19.1025V19.1025Z" fill="#AEADB3"/>
<path d="M21.8435 30.5459H9.15674C9.02913 30.5459 8.90296 30.519 8.78644 30.467C8.66992 30.415 8.56568 30.339 8.4805 30.2439C8.39532 30.1489 8.33112 30.037 8.29208 29.9155C8.25304 29.794 8.24004 29.6657 8.25393 29.5388L9.05187 22.251H21.9484L22.7463 29.5388C22.7602 29.6657 22.7472 29.794 22.7081 29.9155C22.6691 30.037 22.6049 30.1489 22.5197 30.2439C22.4346 30.339 22.3303 30.415 22.2138 30.467C22.0973 30.519 21.9711 30.5459 21.8435 30.5459V30.5459Z" fill="#E6EDBF"/>
<path d="M19.2236 25.0361H11.7764C11.6559 25.0361 11.5404 24.9883 11.4553 24.9031C11.3701 24.818 11.3223 24.7025 11.3223 24.582C11.3223 24.4616 11.3701 24.3461 11.4553 24.2609C11.5404 24.1758 11.6559 24.1279 11.7764 24.1279H19.2236C19.3441 24.1279 19.4596 24.1758 19.5447 24.2609C19.6299 24.3461 19.6777 24.4616 19.6777 24.582C19.6777 24.7025 19.6299 24.818 19.5447 24.9031C19.4596 24.9883 19.3441 25.0361 19.2236 25.0361ZM19.2236 26.8525H11.7764C11.6559 26.8525 11.5404 26.8047 11.4553 26.7195C11.3701 26.6344 11.3223 26.5189 11.3223 26.3984C11.3223 26.278 11.3701 26.1625 11.4553 26.0773C11.5404 25.9922 11.6559 25.9443 11.7764 25.9443H19.2236C19.3441 25.9443 19.4596 25.9922 19.5447 26.0773C19.6299 26.1625 19.6777 26.278 19.6777 26.3984C19.6777 26.5189 19.6299 26.6344 19.5447 26.7195C19.4596 26.8047 19.3441 26.8525 19.2236 26.8525ZM19.2236 28.6689H11.7764C11.6559 28.6689 11.5404 28.6211 11.4553 28.5359C11.3701 28.4508 11.3223 28.3353 11.3223 28.2148C11.3223 28.0944 11.3701 27.9789 11.4553 27.8937C11.5404 27.8086 11.6559 27.7607 11.7764 27.7607H19.2236C19.3441 27.7607 19.4596 27.8086 19.5447 27.8937C19.6299 27.9789 19.6777 28.0944 19.6777 28.2148C19.6777 28.3353 19.6299 28.4508 19.5447 28.5359C19.4596 28.6211 19.3441 28.6689 19.2236 28.6689Z" fill="white"/>
<path d="M10.6096 0.454102H20.3904C20.6312 0.454102 20.8623 0.549787 21.0326 0.720108C21.2029 0.890429 21.2986 1.12143 21.2986 1.3623V10.6562H9.70142V1.3623C9.70142 1.12143 9.7971 0.890429 9.96742 0.720108C10.1377 0.549787 10.3687 0.454102 10.6096 0.454102V0.454102Z" fill="#E6EDBF"/>
<path d="M20.3904 0.454102H17.6658C17.9066 0.454102 18.1376 0.549787 18.308 0.720108C18.4783 0.890429 18.574 1.12143 18.574 1.3623V10.6562H21.2986V1.3623C21.2986 1.12143 21.2029 0.890429 21.0326 0.720108C20.8623 0.549787 20.6313 0.454102 20.3904 0.454102V0.454102Z" fill="#D4E49B"/>
<path d="M21.2986 14.2891H9.70142C9.58098 14.2891 9.46548 14.2412 9.38032 14.1561C9.29516 14.0709 9.24731 13.9554 9.24731 13.835C9.24731 13.7145 9.29516 13.599 9.38032 13.5139C9.46548 13.4287 9.58098 13.3809 9.70142 13.3809H21.2986C21.419 13.3809 21.5345 13.4287 21.6197 13.5139C21.7048 13.599 21.7527 13.7145 21.7527 13.835C21.7527 13.9554 21.7048 14.0709 21.6197 14.1561C21.5345 14.2412 21.419 14.2891 21.2986 14.2891Z" fill="white"/>
<path d="M30.5459 16.5596H0.454102V17.4678H30.5459V16.5596Z" fill="white"/>
</g>
<defs>
<clipPath id="clip0_207_1089">
<rect width="31" height="31" fill="white"/>
</clipPath>
</defs>
</svg>
