<svg width="33" height="31" viewBox="0 0 33 31" fill="none" xmlns="http://www.w3.org/2000/svg">
<path d="M32.1482 22.8906C32.1482 22.9256 32.1307 22.9782 32.1044 23.0045L24.144 30.9562C24.1177 30.9825 24.0826 31 24.03 31H9.02975C8.15306 31 7.44293 30.2899 7.44293 29.4132V1.58682C7.44293 0.710125 8.15306 0 9.02975 0H30.5614C31.4381 0 32.1482 0.710125 32.1482 1.58682V22.8906Z" fill="#FCF1D6"/>
<path d="M13.5185 27.388H1.36752C0.613566 27.388 -0.00012207 26.7743 -0.00012207 26.0204V9.10012C-0.00012207 8.34616 0.613566 7.73247 1.36752 7.73247H13.5098C14.2637 7.73247 14.8774 8.34616 14.8774 9.10012V26.0204C14.8774 26.7743 14.2637 27.388 13.5185 27.388Z" fill="#4388FF"/>
<path d="M32.1396 22.9607L24.1178 30.9825C24.1091 30.9912 24.1091 30.9825 24.1091 30.9737V24.5387C24.1091 23.6621 24.8192 22.9519 25.6959 22.9519H32.1308C32.1396 22.9519 32.1396 22.9607 32.1396 22.9607Z" fill="#FCE8BE"/>
<path d="M25.4064 15.0178H17.9545C17.6564 15.0178 17.4197 15.2633 17.4197 15.5526C17.4197 15.8507 17.6652 16.0874 17.9545 16.0874H25.4064C25.7045 16.0874 25.9412 15.8419 25.9412 15.5526C25.95 15.2633 25.7045 15.0178 25.4064 15.0178ZM17.9545 18.209H23.1621C23.4602 18.209 23.6969 17.9635 23.6969 17.6742C23.6969 17.3761 23.4514 17.1394 23.1621 17.1394H17.9545C17.6564 17.1394 17.4197 17.3849 17.4197 17.6742C17.4109 17.9635 17.6564 18.209 17.9545 18.209ZM25.4064 19.2786H17.9545C17.6564 19.2786 17.4197 19.524 17.4197 19.8134C17.4197 20.1114 17.6652 20.3481 17.9545 20.3481H25.4064C25.7045 20.3481 25.9412 20.1027 25.9412 19.8134C25.95 19.5153 25.7045 19.2786 25.4064 19.2786ZM22.7588 21.4265H17.9457C17.6477 21.4265 17.4109 21.672 17.4109 21.9613C17.4109 22.2593 17.6564 22.496 17.9457 22.496H22.7588C23.0569 22.496 23.2936 22.2506 23.2936 21.9613C23.3024 21.6632 23.0569 21.4265 22.7588 21.4265Z" fill="#84C2FF"/>
<path d="M29.2288 7.73247C29.2288 8.93355 28.7905 10.0207 28.0716 10.871C27.1773 11.9143 25.8535 12.5894 24.3719 12.5894C22.8728 12.5894 21.5314 11.9056 20.6372 10.836C19.9446 9.99435 19.515 8.90725 19.515 7.73247C19.515 5.05855 21.6892 2.87557 24.3719 2.87557C27.0546 2.87557 29.2288 5.05855 29.2288 7.73247Z" fill="#7EE0A8"/>
<path d="M28.0805 10.871C27.1863 11.9143 25.8625 12.5894 24.3808 12.5894C22.8817 12.5894 21.5403 11.9055 20.6461 10.836L24.3458 7.76754L28.0805 10.871Z" fill="#FFD154"/>
<path d="M12.0545 13.3696H2.87545C2.42833 13.3696 2.06012 13.0014 2.06012 12.5543V10.9762C2.06012 10.5291 2.42833 10.1609 2.87545 10.1609H12.0545C12.5016 10.1609 12.8698 10.5291 12.8698 10.9762V12.5543C12.8523 13.0014 12.484 13.3696 12.0545 13.3696Z" fill="white"/>
<path d="M4.06761 15.4825H2.26161C2.12134 15.4825 2.0249 15.5877 2.0249 15.7192V17.5252C2.0249 17.6655 2.13011 17.7619 2.26161 17.7619H4.06761C4.20788 17.7619 4.30431 17.6567 4.30431 17.5252V15.7192C4.30431 15.5877 4.19911 15.4825 4.06761 15.4825ZM7.7322 15.4825H5.9262C5.78593 15.4825 5.6895 15.5877 5.6895 15.7192V17.5252C5.6895 17.6655 5.7947 17.7619 5.9262 17.7619H7.7322C7.87247 17.7619 7.96891 17.6567 7.96891 17.5252V15.7192C7.96891 15.5877 7.85494 15.4825 7.7322 15.4825ZM4.06761 19.0682H2.26161C2.12134 19.0682 2.0249 19.1734 2.0249 19.3049V21.1109C2.0249 21.2511 2.13011 21.3476 2.26161 21.3476H4.06761C4.20788 21.3476 4.30431 21.2424 4.30431 21.1109V19.3049C4.30431 19.1734 4.19911 19.0682 4.06761 19.0682ZM7.7322 19.0682H5.9262C5.78593 19.0682 5.6895 19.1734 5.6895 19.3049V21.1109C5.6895 21.2511 5.7947 21.3476 5.9262 21.3476H7.7322C7.87247 21.3476 7.96891 21.2424 7.96891 21.1109V19.3049C7.96891 19.1734 7.85494 19.0682 7.7322 19.0682ZM4.06761 22.6626H2.26161C2.12134 22.6626 2.0249 22.7678 2.0249 22.8993V24.7053C2.0249 24.8456 2.13011 24.942 2.26161 24.942H4.06761C4.20788 24.942 4.30431 24.8368 4.30431 24.7053V22.8993C4.30431 22.7591 4.19911 22.6626 4.06761 22.6626ZM7.7322 22.6626H5.9262C5.78593 22.6626 5.6895 22.7678 5.6895 22.8993V24.7053C5.6895 24.8456 5.7947 24.942 5.9262 24.942H7.7322C7.87247 24.942 7.96891 24.8368 7.96891 24.7053V22.8993C7.96891 22.7591 7.85494 22.6626 7.7322 22.6626Z" fill="#DBF3FF"/>
<path d="M10.3536 17.7706H12.4139C12.598 17.7706 12.747 17.6216 12.747 17.4375V15.8331C12.747 15.649 12.598 15.5 12.4139 15.5H10.3536C10.1695 15.5 10.0205 15.649 10.0205 15.8331V17.4375C10.0205 17.6216 10.1695 17.7706 10.3536 17.7706ZM12.3262 18.7613H10.3799C10.152 18.7613 9.9679 18.9454 9.9679 19.1734V24.5475C9.9679 24.7755 10.152 24.9596 10.3799 24.9596H12.3262C12.5542 24.9596 12.7383 24.7755 12.7383 24.5475V19.1734C12.7383 18.9454 12.5542 18.7613 12.3262 18.7613Z" fill="#FFD154"/>
</svg>
