<svg width="25" height="31" viewBox="0 0 25 31" fill="none" xmlns="http://www.w3.org/2000/svg">
<path fill-rule="evenodd" clip-rule="evenodd" d="M14.9269 0.254009C14.9953 0.178708 15.0779 0.117623 15.1699 0.0742412C15.262 0.0308596 15.3617 0.00603116 15.4633 0.00117346C15.5649 -0.00368424 15.6665 0.0115238 15.7623 0.0459295C15.858 0.0803352 15.9461 0.133265 16.0214 0.201696L24.5466 7.95155C24.6987 8.08983 24.7896 8.28286 24.7994 8.48817C24.8091 8.69349 24.7369 8.89427 24.5987 9.04634C24.5302 9.12164 24.4476 9.18272 24.3555 9.22609C24.2634 9.26945 24.1637 9.29426 24.062 9.29909C23.8567 9.30885 23.6559 9.23664 23.5039 9.09836L14.9786 1.34851C14.9032 1.28007 14.8421 1.19744 14.7986 1.10535C14.7552 1.01326 14.7304 0.913514 14.7255 0.811811C14.7206 0.710108 14.7359 0.608445 14.7703 0.512633C14.8048 0.416822 14.8578 0.328741 14.9263 0.253428L14.9269 0.254009Z" fill="#2B3151"/>
<path fill-rule="evenodd" clip-rule="evenodd" d="M15.7834 0H4.65003C3.20561 0 2.48312 -1.9055e-07 1.91349 0.235989C1.15401 0.550601 0.550601 1.15401 0.235989 1.91349C8.66135e-08 2.48312 0 3.20561 0 4.65003V26.35C0 27.7944 8.66135e-08 28.5169 0.235989 29.0865C0.550655 29.846 1.15404 30.4493 1.91349 30.764C2.48312 31 3.20561 31 4.65003 31H20.1497C21.5942 31 22.3167 31 22.8863 30.764C23.6458 30.4494 24.2492 29.846 24.5638 29.0865C24.7998 28.5169 24.7998 27.7944 24.7998 26.35V8.17649L15.7834 0Z" fill="#D0D2E0"/>
<path d="M15.5003 5.42484V0.774811L24.025 8.52466H18.6002C18.193 8.52474 17.7899 8.44462 17.4137 8.28887C17.0376 8.13312 16.6958 7.9048 16.4079 7.61695C16.12 7.3291 15.8916 6.98735 15.7358 6.61122C15.58 6.2351 15.4998 5.83196 15.4998 5.42484H15.5003Z" fill="#959AB4"/>
<path fill-rule="evenodd" clip-rule="evenodd" d="M15.1866 0.0662663C15.3239 0.00555605 15.4759 -0.013964 15.6241 0.0100789C15.7722 0.0341219 15.9102 0.100692 16.0213 0.201698L24.5465 7.95155C24.6624 8.05673 24.7437 8.19453 24.7798 8.34681C24.8158 8.49909 24.8049 8.65871 24.7484 8.80466C24.692 8.95062 24.5927 9.07607 24.4636 9.16449C24.3345 9.25292 24.1816 9.30019 24.0252 9.30006H18.6003C18.0914 9.30006 17.5875 9.19983 17.1173 9.00508C16.6472 8.81033 16.22 8.52488 15.8601 8.16504C15.5003 7.80519 15.2148 7.37799 15.0201 6.90782C14.8253 6.43766 14.7251 5.93374 14.7251 5.42484V0.774814C14.7251 0.468494 14.9059 0.190655 15.1866 0.0662663ZM16.2753 2.52671V5.42484C16.2753 6.04148 16.5203 6.63285 16.9563 7.06888C17.3923 7.5049 17.9837 7.74986 18.6003 7.74986H22.0204L16.2753 2.52671Z" fill="#959AB4"/>
<path fill-rule="evenodd" clip-rule="evenodd" d="M5.42505 15.1126C5.42505 14.6848 5.77206 14.3378 6.19986 14.3378H18.6003C18.8059 14.3378 19.003 14.4194 19.1484 14.5648C19.2938 14.7102 19.3754 14.9073 19.3754 15.1129C19.3754 15.3185 19.2938 15.5156 19.1484 15.661C19.003 15.8063 18.8059 15.888 18.6003 15.888H6.19986C6.09806 15.888 5.99726 15.8679 5.90322 15.829C5.80918 15.79 5.72374 15.7329 5.65178 15.6608C5.57983 15.5888 5.52276 15.5034 5.48386 15.4093C5.44496 15.3152 5.42497 15.2144 5.42505 15.1126ZM5.42505 19.7626C5.42505 19.3348 5.77206 18.9878 6.19986 18.9878H18.6003C18.8059 18.9878 19.003 19.0695 19.1484 19.2148C19.2938 19.3602 19.3754 19.5573 19.3754 19.7629C19.3754 19.9685 19.2938 20.1656 19.1484 20.311C19.003 20.4564 18.8059 20.538 18.6003 20.538H6.19986C6.09806 20.538 5.99726 20.518 5.90322 20.479C5.80918 20.44 5.72374 20.3829 5.65178 20.3109C5.57983 20.2389 5.52276 20.1534 5.48386 20.0593C5.44496 19.9652 5.42497 19.8644 5.42505 19.7626ZM5.42505 24.4127C5.42505 23.9848 5.77206 23.6378 6.19986 23.6378H18.6003C18.8059 23.6378 19.003 23.7195 19.1484 23.8649C19.2938 24.0102 19.3754 24.2074 19.3754 24.4129C19.3754 24.6185 19.2938 24.8157 19.1484 24.961C19.003 25.1064 18.8059 25.188 18.6003 25.188H6.19986C6.09806 25.188 5.99726 25.168 5.90322 25.129C5.80918 25.09 5.72374 25.0329 5.65178 24.9609C5.57983 24.8889 5.52276 24.8034 5.48386 24.7093C5.44496 24.6153 5.42497 24.5145 5.42505 24.4127Z" fill="#2B3151"/>
</svg>
