<svg width="35" height="30" viewBox="0 0 35 30" fill="none" xmlns="http://www.w3.org/2000/svg">
<path d="M11.428 29.4436C12.9276 29.4436 14.1434 28.2279 14.1434 26.7282C14.1434 25.2285 12.9276 24.0128 11.428 24.0128C9.92828 24.0128 8.71254 25.2285 8.71254 26.7282C8.71254 28.2279 9.92828 29.4436 11.428 29.4436Z" fill="#0B4870"/>
<path d="M31.0152 29.4436C32.5148 29.4436 33.7306 28.2279 33.7306 26.7282C33.7306 25.2285 32.5148 24.0128 31.0152 24.0128C29.5155 24.0128 28.2997 25.2285 28.2997 26.7282C28.2997 28.2279 29.5155 29.4436 31.0152 29.4436Z" fill="#0B4870"/>
<path d="M33.8332 22.2979C33.8332 22.6271 33.6996 22.9267 33.4822 23.1444C33.3713 23.2562 33.2394 23.3448 33.0939 23.4051C32.9485 23.4654 32.7925 23.4961 32.6351 23.4955H12.5906C12.3133 23.4961 12.0427 23.4097 11.817 23.2485C11.5913 23.0874 11.4218 22.8595 11.3323 22.597L11.3104 22.5329L10.8551 21.0995L4.9401 2.52659L4.67445 1.69189C4.47473 1.06108 4.82193 0.387877 5.4532 0.186297C5.75617 0.0901006 6.08494 0.118096 6.36728 0.264133C6.64962 0.410171 6.86245 0.662308 6.95902 0.96516L7.17706 1.64937L7.94932 4.0725L8.71254 6.46875L12.6126 18.719L13.0979 20.2407C13.1809 20.4691 13.3253 20.6701 13.5151 20.8216C13.705 20.9732 13.933 21.0694 14.1741 21.0996H32.635C32.7924 21.0995 32.9482 21.1304 33.0937 21.1906C33.2391 21.2508 33.3712 21.339 33.4825 21.4503C33.5938 21.5616 33.6821 21.6938 33.7423 21.8392C33.8024 21.9846 33.8333 22.1405 33.8332 22.2979Z" fill="#D3D3D3"/>
<path d="M33.8328 7.2117V15.5796C33.8328 17.3128 32.4295 18.7184 30.6962 18.7184H12.6125L8.71289 6.46817H33.5204C33.5954 6.46817 33.6684 6.46157 33.7402 6.44848C33.8011 6.69246 33.8328 6.94837 33.8328 7.2117Z" fill="#2A94F4"/>
<path d="M7.68865 1.19813C7.68865 1.52981 7.55496 1.8294 7.33728 2.04512C7.22646 2.1569 7.09452 2.24553 6.94913 2.30585C6.80374 2.36618 6.64781 2.39698 6.49041 2.39649H1.19824C0.537083 2.39649 0 1.85929 0 1.19813C0 0.866683 0.133692 0.567094 0.351375 0.351381C0.462185 0.239587 0.594124 0.150949 0.739513 0.0906258C0.884902 0.0303024 1.04084 -0.00050165 1.19824 6.17807e-06H6.49041C7.15157 6.17807e-06 7.68865 0.537436 7.68865 1.19813ZM26.2705 9.62417V15.4338C26.2705 16.0945 25.7326 16.6313 25.0717 16.6313C24.7408 16.6313 24.4415 16.4974 24.2259 16.2797C24.114 16.1691 24.0253 16.0374 23.9649 15.8921C23.9045 15.7469 23.8737 15.5911 23.8741 15.4338V9.62417C23.8741 8.96348 24.4109 8.42674 25.0717 8.42674C25.4038 8.42674 25.7031 8.56067 25.9188 8.77835C26.0306 8.88896 26.1192 9.02071 26.1796 9.16592C26.24 9.31113 26.2709 9.46691 26.2705 9.62417ZM15.9266 9.62417V15.4338C15.9266 16.0945 15.3898 16.6313 14.7278 16.6313C14.5706 16.6317 14.4148 16.6008 14.2696 16.5404C14.1243 16.4801 13.9926 16.3914 13.8819 16.2797C13.77 16.1691 13.6813 16.0374 13.6209 15.8921C13.5606 15.7469 13.5297 15.5911 13.5302 15.4338V9.62417C13.5302 8.96348 14.0669 8.42674 14.7277 8.42674C15.0598 8.42674 15.3592 8.56067 15.5759 8.77835C15.6873 8.88916 15.7757 9.02097 15.8359 9.16615C15.8961 9.31133 15.9269 9.46701 15.9266 9.62417ZM21.0207 9.62417V15.4338C21.0207 16.0945 20.4828 16.6313 19.822 16.6313C19.6646 16.6316 19.5087 16.6006 19.3633 16.5403C19.2179 16.4799 19.0859 16.3914 18.9749 16.2797C18.7572 16.0651 18.6244 15.7647 18.6244 15.4338V9.62417C18.6244 8.96348 19.1611 8.42674 19.8219 8.42674C20.1539 8.42674 20.4533 8.56067 20.669 8.77835C20.7808 8.88894 20.8695 9.02069 20.9299 9.1659C20.9903 9.31112 21.0212 9.4669 21.0207 9.62417ZM31.676 9.62417V15.4338C31.676 16.0945 31.1393 16.6313 30.4784 16.6313C30.1476 16.6313 29.847 16.4974 29.6313 16.2797C29.5195 16.1691 29.4308 16.0374 29.3704 15.8921C29.31 15.7469 29.2792 15.5911 29.2797 15.4338V9.62417C29.2797 8.96348 29.8175 8.42674 30.4784 8.42674C30.8093 8.42674 31.1098 8.56067 31.3255 8.77835C31.4369 8.8892 31.5252 9.02103 31.5854 9.1662C31.6455 9.31138 31.6763 9.46703 31.676 9.62417ZM14.9682 22.4017C15.0818 22.5106 15.1727 22.641 15.2354 22.7854C15.2982 22.9297 15.3316 23.0851 15.3337 23.2425C15.3373 23.3999 15.3094 23.5564 15.2519 23.7029C15.1943 23.8495 15.1082 23.9831 14.9985 24.096L12.8616 26.3107C12.4027 26.7863 11.6431 26.7997 11.1674 26.3408C11.0537 26.232 10.9628 26.1015 10.9001 25.9572C10.8373 25.8128 10.804 25.6574 10.8019 25.5C10.7984 25.3426 10.8262 25.1861 10.8838 25.0396C10.9413 24.8931 11.0273 24.7595 11.1369 24.6465L13.2739 22.432C13.7328 21.9563 14.4926 21.9428 14.9682 22.4017ZM31.0921 22.0664C31.2494 22.0636 31.4058 22.0922 31.552 22.1503C31.6982 22.2085 31.8314 22.2951 31.9439 22.4052C32.0574 22.5143 32.148 22.6449 32.2105 22.7895C32.2729 22.934 32.306 23.0895 32.3078 23.2469L32.3531 26.3241C32.3627 26.9848 31.8336 27.5297 31.1726 27.5394C31.0152 27.5423 30.8589 27.5139 30.7127 27.4557C30.5664 27.3976 30.4332 27.3109 30.3209 27.2007C30.2074 27.0916 30.1168 26.961 30.0542 26.8165C29.9917 26.672 29.9586 26.5165 29.9567 26.3591L29.9116 23.282C29.9017 22.6212 30.431 22.0761 31.0921 22.0664ZM34.7179 5.27051C34.7179 5.60149 34.5839 5.90201 34.3661 6.11761C34.1964 6.28947 33.9778 6.40494 33.7402 6.44836C33.6684 6.46145 33.5954 6.46806 33.5204 6.46806H8.71289L7.94966 4.07273H33.5204C34.1811 4.07285 34.7179 4.60981 34.7179 5.27051Z" fill="#0E538C"/>
</svg>
