<svg id="_x33_0" enable-background="new 0 0 62 62" height="512" viewBox="0 0 62 62" width="512" xmlns="http://www.w3.org/2000/svg"><g><g><g><path d="m46 25h-26v-24h26z" fill="#f0bc5e"/></g></g><g><path d="m60 52h-2v-37c0-1.654-1.346-3-3-3h-1v-8c0-2.206-1.794-4-4-4h-38c-2.206 0-4 1.794-4 4v8h-1c-1.654 0-3 1.346-3 3v37h-2c-1.103 0-2 .897-2 2 0 4.411 3.589 8 8 8h46c4.411 0 8-3.589 8-8 0-1.103-.897-2-2-2zm-50-26.556c.591.344 1.268.556 2 .556h4v16c0 1.103.897 2 2 2h26c1.103 0 2-.897 2-2v-16h4c.732 0 1.409-.212 2-.556v22.556h-42zm12 2.556h-2v2h2v2h4v-2h-2v-4h6v1h-2v2h2v3h-2v2h2v4h-2v2h6v-2h-2v-2h2v-2h-2v-8h4v4h-2v2h4v-2h4v-2h-4v-2h6v8h-2v-2h-2v2h-2c-1.103 0-2 .897-2 2v6h-10v-6c0-1.103-.897-2-2-2h-6v-8h4zm22 8v6h-6v-6zm-26 0h6v6h-6zm-8-32c0-1.103.897-2 2-2h38c1.103 0 2 .897 2 2v18c0 1.103-.897 2-2 2h-38c-1.103 0-2-.897-2-2zm-4 11c0-.551.449-1 1-1h1v8 26c0 1.103.897 2 2 2h42c1.103 0 2-.897 2-2v-26-8h1c.551 0 1 .449 1 1v37h-50zm48 45v-4h-2v4h-2v-4h-2v4h-2v-4h-2v4h-36c-3.309 0-6-2.691-6-6h58c0 3.309-2.691 6-6 6z"/><path d="m14 20h2c1.103 0 2-.897 2-2v-10c0-1.103-.897-2-2-2h-2c-1.103 0-2 .897-2 2v10c0 1.103.897 2 2 2zm0-2v-2h2.001v2zm0-4v-2h2.001v2zm2-6v2h-2v-2z"/><path d="m48 8h2v6h-2z"/><path d="m48 16h2v2h-2z"/><path d="m25 5h2v-2h-4v4h2z"/><path d="m41 7h2v-4h-4v2h2z"/><path d="m41 21h-2v2h4v-4h-2z"/><path d="m27 21h-2v-2h-2v4h4z"/><path d="m26 8v10c0 1.103.897 2 2 2h10c1.103 0 2-.897 2-2v-10c0-1.103-.897-2-2-2h-10c-1.103 0-2 .897-2 2zm2 9h3v1h-3zm6-5v-4h1v3c0 1.103.897 2 2 2h1.001v1h-2.001c-1.103 0-2 .897-2 2v2h-1v-1c0-1.103-.897-2-2-2h-3v-1h4c1.103 0 2-.897 2-2zm2 6v-2h2.001v2zm2-7h-1v-3h1zm-6-3v4h-4v-4z"/><path d="m29 9h2v2h-2z"/><path d="m20 38h2v2h-2z"/><path d="m40 38h2v2h-2z"/></g></g></svg>