<svg width="70" height="70" viewBox="0 0 70 70" fill="none" xmlns="http://www.w3.org/2000/svg">
<g clip-path="url(#clip0_303_135)">
<path d="M40.6657 25.6594H43.3126C43.7506 25.6594 44.1707 25.8334 44.4804 26.1431C44.7902 26.4529 44.9642 26.873 44.9642 27.311C44.9642 27.749 44.7902 28.1691 44.4804 28.4788C44.1707 28.7885 43.7506 28.9625 43.3126 28.9625H37.1876C36.6087 29.0187 36.0714 29.2884 35.6805 29.7191C35.2896 30.1498 35.073 30.7106 35.073 31.2922C35.073 31.8739 35.2896 32.4347 35.6805 32.8654C36.0714 33.296 36.6087 33.5657 37.1876 33.6219H39.6376V35C39.6061 35.3249 39.6429 35.6529 39.7456 35.9627C39.8484 36.2725 40.0148 36.5575 40.2342 36.7992C40.4536 37.0409 40.7211 37.234 41.0196 37.3662C41.318 37.4984 41.6409 37.5667 41.9673 37.5667C42.2937 37.5667 42.6166 37.4984 42.915 37.3662C43.2135 37.234 43.481 37.0409 43.7004 36.7992C43.9198 36.5575 44.0862 36.2725 44.189 35.9627C44.2917 35.6529 44.3285 35.3249 44.297 35V33.5344C45.8823 33.3054 47.3209 32.481 48.3201 31.2291C49.3193 29.9772 49.8041 28.3917 49.6759 26.795C49.5477 25.1984 48.8162 23.7105 47.6301 22.634C46.4439 21.5575 44.8923 20.9732 43.2907 21H40.6657C40.2277 21 39.8076 20.826 39.4979 20.5163C39.1882 20.2066 39.0142 19.7865 39.0142 19.3485C39.0142 18.9105 39.1882 18.4904 39.4979 18.1806C39.8076 17.8709 40.2277 17.6969 40.6657 17.6969H46.7689C47.0938 17.7284 47.4217 17.6916 47.7315 17.5889C48.0414 17.4862 48.3263 17.3198 48.568 17.1004C48.8097 16.881 49.0029 16.6134 49.135 16.315C49.2672 16.0165 49.3355 15.6937 49.3355 15.3672C49.3355 15.0408 49.2672 14.718 49.135 14.4195C49.0029 14.121 48.8097 13.8535 48.568 13.6341C48.3263 13.4147 48.0414 13.2483 47.7315 13.1455C47.4217 13.0428 47.0938 13.006 46.7689 13.0375H44.3407V11.6594C44.2846 11.0805 44.0149 10.5432 43.5842 10.1523C43.1535 9.76136 42.5927 9.5448 42.011 9.5448C41.4294 9.5448 40.8686 9.76136 40.4379 10.1523C40.0072 10.5432 39.7375 11.0805 39.6814 11.6594V13.125C38.096 13.3541 36.6575 14.1784 35.6583 15.4303C34.6591 16.6823 34.1743 18.2678 34.3024 19.8644C34.4306 21.4611 35.1622 22.949 36.3483 24.0254C37.5344 25.1019 39.086 25.6862 40.6876 25.6594H40.6657Z" fill="white"/>
<path d="M67.9437 2.05625C66.6307 0.746802 64.8543 0.00794322 63 0H21C19.1457 0.00794322 17.3693 0.746802 16.0563 2.05625C15.4039 2.70361 14.8863 3.47381 14.5334 4.32236C14.1805 5.17091 13.9992 6.08098 14 7V37.3406H7C5.14727 37.3406 3.3701 38.0751 2.05797 39.3831C0.745843 40.6912 0.00578979 42.466 0 44.3188L0 60.6594C0 63.1367 0.984099 65.5125 2.73581 67.2642C4.48751 69.0159 6.86334 70 9.34062 70H58.3406C61.4311 69.9942 64.3934 68.764 66.5787 66.5787C68.764 64.3934 69.9942 61.4311 70 58.3406V7C70.0008 6.08098 69.8195 5.17091 69.4666 4.32236C69.1136 3.47381 68.5961 2.70361 67.9437 2.05625V2.05625ZM4.65938 60.6594V44.3188C4.65936 44.0124 4.72005 43.7091 4.83795 43.4263C4.95584 43.1436 5.1286 42.887 5.34624 42.6714C5.56388 42.4558 5.82208 42.2854 6.10593 42.1702C6.38979 42.055 6.69366 41.9971 7 42H14V60.6594C14 61.2727 13.8792 61.88 13.6445 62.4466C13.4098 63.0133 13.0658 63.5281 12.6321 63.9618C12.1984 64.3955 11.6836 64.7395 11.1169 64.9742C10.5503 65.2089 9.943 65.3297 9.32969 65.3297C8.71637 65.3297 8.10906 65.2089 7.54244 64.9742C6.97581 64.7395 6.46096 64.3955 6.02728 63.9618C5.5936 63.5281 5.24959 63.0133 5.01488 62.4466C4.78018 61.88 4.65938 61.2727 4.65938 60.6594V60.6594ZM65.3188 58.3187C65.3188 60.1753 64.5813 61.9557 63.2685 63.2685C61.9557 64.5813 60.1753 65.3188 58.3187 65.3188H17.3688C18.2053 63.9079 18.6507 62.2996 18.6594 60.6594V7C18.6594 6.37923 18.906 5.78388 19.3449 5.34493C19.7839 4.90598 20.3792 4.65938 21 4.65938H63C63.6208 4.65938 64.2161 4.90598 64.6551 5.34493C65.094 5.78388 65.3406 6.37923 65.3406 7L65.3188 58.3187Z" fill="white"/>
<path d="M53.6593 44.3406H30.3406C30.0157 44.3091 29.6877 44.3459 29.3779 44.4487C29.0681 44.5514 28.7831 44.7178 28.5414 44.9372C28.2997 45.1566 28.1066 45.4241 27.9744 45.7226C27.8422 46.0211 27.7739 46.3439 27.7739 46.6703C27.7739 46.9968 27.8422 47.3196 27.9744 47.6181C28.1066 47.9165 28.2997 48.1841 28.5414 48.4035C28.7831 48.6229 29.0681 48.7893 29.3779 48.892C29.6877 48.9948 30.0157 49.0315 30.3406 49H53.6593C53.9842 49.0315 54.3121 48.9948 54.622 48.892C54.9318 48.7893 55.2168 48.6229 55.4585 48.4035C55.7002 48.1841 55.8933 47.9165 56.0255 47.6181C56.1577 47.3196 56.2259 46.9968 56.2259 46.6703C56.2259 46.3439 56.1577 46.0211 56.0255 45.7226C55.8933 45.4241 55.7002 45.1566 55.4585 44.9372C55.2168 44.7178 54.9318 44.5514 54.622 44.4487C54.3121 44.3459 53.9842 44.3091 53.6593 44.3406Z" fill="white"/>
<path d="M53.6593 56H30.3406C30.0157 55.9684 29.6877 56.0052 29.3779 56.108C29.0681 56.2107 28.7831 56.3771 28.5414 56.5965C28.2997 56.8159 28.1066 57.0834 27.9744 57.3819C27.8422 57.6804 27.7739 58.0032 27.7739 58.3296C27.7739 58.6561 27.8422 58.9789 27.9744 59.2774C28.1066 59.5758 28.2997 59.8434 28.5414 60.0628C28.7831 60.2822 29.0681 60.4486 29.3779 60.5513C29.6877 60.6541 30.0157 60.6908 30.3406 60.6593H53.6593C53.9842 60.6908 54.3121 60.6541 54.622 60.5513C54.9318 60.4486 55.2168 60.2822 55.4585 60.0628C55.7002 59.8434 55.8933 59.5758 56.0255 59.2774C56.1577 58.9789 56.2259 58.6561 56.2259 58.3296C56.2259 58.0032 56.1577 57.6804 56.0255 57.3819C55.8933 57.0834 55.7002 56.8159 55.4585 56.5965C55.2168 56.3771 54.9318 56.2107 54.622 56.108C54.3121 56.0052 53.9842 55.9684 53.6593 56V56Z" fill="white"/>
</g>
<defs>
<clipPath id="clip0_303_135">
<rect width="70" height="70" fill="white"/>
</clipPath>
</defs>
</svg>
