<svg width="29" height="29" viewBox="0 0 29 29" fill="none" xmlns="http://www.w3.org/2000/svg">
<path d="M3.32456 27.6742C3.47467 28.0845 3.85345 28.3497 4.28905 28.3497C4.72465 28.3497 5.10343 28.0845 5.25354 27.6742L6.40953 24.5142H2.16858L3.32456 27.6742ZM5.63015 3.30171C5.81344 3.30171 5.98452 3.35235 6.13175 3.43912V1.02972C6.13175 0.461903 5.66985 0 5.10203 0H3.47608C2.90825 0 2.44635 0.461903 2.44635 1.02972V3.43912C2.59359 3.35235 2.76467 3.30171 2.94796 3.30171H5.63015Z" fill="#EBE287"/>
<path d="M1.40326 14.992V7.3161C1.40326 7.21649 1.45166 7.1253 1.53233 7.07199L1.9574 6.79071V5.11005L0.759332 5.90128C0.283751 6.21482 0.000366211 6.74372 0.000366211 7.3161V15.3638C0.000366211 15.9327 0.461217 16.3949 1.02799 16.3949H1.9574V14.992H1.40326Z" fill="#A3A8C4"/>
<path d="M6.13171 3.43913C5.98447 3.35236 5.81339 3.30171 5.6301 3.30171H2.94791C2.76462 3.30171 2.59354 3.35236 2.44631 3.43913C2.15408 3.61133 1.9574 3.92838 1.9574 4.29215V5.10997V6.79064V14.992V16.3948V23.8126C1.9574 23.894 1.97143 23.9754 2.00019 24.0539L2.16853 24.5141H6.40948L6.57783 24.0539C6.60659 23.9754 6.62062 23.894 6.62062 23.8126V4.29223C6.62062 3.92845 6.42393 3.6114 6.13171 3.43913Z" fill="#988FC4"/>
<path d="M14.5131 12.068H12.6552V13.9667H14.5131V12.068Z" fill="#F5F5FC"/>
<path d="M14.5131 4.70453H12.6552V6.60327H14.5131V4.70453Z" fill="#F5F5FC"/>
<path d="M14.5131 19.4314H12.6552V21.3301H14.5131V19.4314Z" fill="#F5F5FC"/>
<path d="M28.3566 25.8542C28.3566 22.7053 28.3965 22 28.4118 19.7497L28.3965 18.5L25.5164 18.6999C25.4754 18.6999 25.4355 18.6957 25.3965 18.6889C25.3806 19.0622 24.9474 18 24.5702 18H17.3965C17.0091 18 16.7723 19.7777 16.7723 19.3904C16.8965 19 17.0864 18.6889 17.4738 18.6889H27.6629C27.7033 18.6889 28.3967 18.5196 28.4118 18.5L28.3965 18C28.3965 16.4389 28.4118 16.3111 28.4118 15.3521L27.9081 15.3063C28.0684 15.3521 28.3965 15.5 28.4118 15.3521V1.69196C28.4118 0.759036 27.6529 0 26.7199 0H9.88129C8.94837 0 8.18933 0.758965 8.18933 1.69196V24.8638C8.18933 25.7968 8.9483 26.5557 9.88129 26.5557H28.3965C28.3705 26.3254 28.3566 26.0914 28.3566 25.8542ZM14.8843 15.3696H12.2838C11.715 15.3696 11.2522 14.9068 11.2522 14.338V11.6966C11.2522 11.1278 11.715 10.665 12.2838 10.665H14.8843C15.4531 10.665 15.9159 11.1278 15.9159 11.6966V14.3379C15.9158 14.9068 15.4531 15.3696 14.8843 15.3696ZM15.9158 19.0601V21.7014C15.9158 22.2702 15.4531 22.733 14.8842 22.733H12.2837C11.7149 22.733 11.2521 22.2702 11.2521 21.7014V19.0601C11.2521 18.4913 11.7149 18.0285 12.2837 18.0285H14.8842C15.4531 18.0285 15.9158 18.4913 15.9158 19.0601ZM14.8843 8.00617H12.2838C11.715 8.00617 11.2522 7.54336 11.2522 6.97455V4.33326C11.2522 3.76445 11.715 3.30164 12.2838 3.30164H14.8843C15.4531 3.30164 15.9159 3.76445 15.9159 4.33326V6.97455C15.9158 7.54336 15.4531 8.00617 14.8843 8.00617ZM17.4738 20.6698H22.4659C22.8533 20.6698 23.1674 20.9839 23.1674 21.3713C23.1674 21.7586 22.8533 22.0727 22.4659 22.0727H17.4738C17.0864 22.0727 16.7723 21.7586 16.7723 21.3713C16.7723 20.9839 17.0863 20.6698 17.4738 20.6698ZM22.4659 14.7093H17.4738C17.0864 14.7093 16.7723 14.3952 16.7723 14.0078C16.7723 13.6204 17.0864 13.3064 17.4738 13.3064H22.4659C22.8533 13.3064 23.1674 13.6204 23.1674 14.0078C23.1674 14.3952 22.8533 14.7093 22.4659 14.7093ZM24.6475 12.7282H17.4738C17.0864 12.7282 16.7723 12.4142 16.7723 12.0268C16.7723 11.6394 17.0864 11.3253 17.4738 11.3253H24.6475C25.0349 11.3253 25.349 11.6394 25.349 12.0268C25.349 12.4142 25.0349 12.7282 24.6475 12.7282ZM16.7723 6.64438C16.7723 6.25697 17.0864 5.94294 17.4738 5.94294H22.4659C22.8533 5.94294 23.1674 6.25697 23.1674 6.64438C23.1674 7.03179 22.8533 7.34583 22.4659 7.34583H17.4738C17.0863 7.34583 16.7723 7.03179 16.7723 6.64438ZM24.6475 5.3648H17.4738C17.0864 5.3648 16.7723 5.05077 16.7723 4.66336C16.7723 4.27595 17.0864 3.96191 17.4738 3.96191H24.6475C25.0349 3.96191 25.349 4.27595 25.349 4.66336C25.349 5.05077 25.0349 5.3648 24.6475 5.3648Z" fill="#F5F5FC"/>
<path d="M15.9158 4.33325C15.9158 3.76445 15.453 3.30164 14.8842 3.30164H12.2837C11.7149 3.30164 11.2521 3.76445 11.2521 4.33325V6.97455C11.2521 7.54335 11.7149 8.00617 12.2837 8.00617H14.8842C15.453 8.00617 15.9158 7.54335 15.9158 6.97455V4.33325ZM14.5129 6.60328H12.655V4.70453H14.5129V6.60328ZM24.6475 3.96191H17.4737C17.0864 3.96191 16.7723 4.27595 16.7723 4.66335C16.7723 5.05076 17.0864 5.3648 17.4737 5.3648H24.6475C25.0348 5.3648 25.3489 5.05076 25.3489 4.66335C25.3489 4.27595 25.0349 3.96191 24.6475 3.96191ZM17.4737 7.34583H22.4659C22.8532 7.34583 23.1673 7.03179 23.1673 6.64438C23.1673 6.25697 22.8532 5.94293 22.4659 5.94293H17.4737C17.0864 5.94293 16.7723 6.25697 16.7723 6.64438C16.7723 7.03179 17.0863 7.34583 17.4737 7.34583ZM15.9158 11.6966C15.9158 11.1278 15.453 10.665 14.8842 10.665H12.2837C11.7149 10.665 11.2521 11.1277 11.2521 11.6966V14.3379C11.2521 14.9067 11.7149 15.3695 12.2837 15.3695H14.8842C15.453 15.3695 15.9158 14.9067 15.9158 14.3379V11.6966ZM14.5129 13.9667H12.655V12.068H14.5129V13.9667ZM24.6475 11.3253H17.4737C17.0864 11.3253 16.7723 11.6394 16.7723 12.0268C16.7723 12.4142 17.0864 12.7282 17.4737 12.7282H24.6475C25.0348 12.7282 25.3489 12.4142 25.3489 12.0268C25.3489 11.6394 25.0349 11.3253 24.6475 11.3253ZM22.4659 13.3064H17.4737C17.0864 13.3064 16.7723 13.6204 16.7723 14.0078C16.7723 14.3952 17.0864 14.7093 17.4737 14.7093H22.4659C22.8532 14.7093 23.1673 14.3952 23.1673 14.0078C23.1673 13.6204 22.8532 13.3064 22.4659 13.3064ZM14.8842 18.0285H12.2838C11.715 18.0285 11.2521 18.4913 11.2521 19.0601V21.7014C11.2521 22.2702 11.715 22.733 12.2838 22.733H14.8842C15.453 22.733 15.9159 22.2702 15.9159 21.7014V19.0601C15.9158 18.4913 15.453 18.0285 14.8842 18.0285ZM14.5129 21.3301H12.655V19.4314H14.5129V21.3301ZM17.4737 22.0727H22.4659C22.8532 22.0727 23.1673 21.7586 23.1673 21.3713C23.1673 20.9839 22.8532 20.6698 22.4659 20.6698H17.4737C17.0864 20.6698 16.7723 20.9839 16.7723 21.3713C16.7723 21.7586 17.0863 22.0727 17.4737 22.0727Z" fill="#DE8BAE"/>
<path d="M17.4737 18.7986H24.6474C25.0348 18.7986 25.3489 19.1126 25.3489 19.5C25.3489 19.8874 25.0348 20.2014 24.6474 20.2014H17.4737C17.0863 20.2014 16.7722 19.8874 16.7722 19.5C16.7722 19.1126 17.0863 18.7986 17.4737 18.7986Z" fill="#DE8BAE"/>
</svg>
