<svg width="35" height="32" viewBox="0 0 35 32" fill="none" xmlns="http://www.w3.org/2000/svg">
<path d="M1.6 0H28.8C29.684 0 30.4 0.716 30.4 1.6V23.2L28 25.6H0V1.6C0 0.716 0.716 0 1.6 0Z" fill="#B0BEC5"/>
<path d="M28.7999 4H1.59993V24H28.7999V4Z" fill="white"/>
<path d="M18.3999 19.2H21.5999V11.2H18.3999V19.2Z" fill="#2196F3"/>
<path d="M13.5999 19.2H16.7999V13.6H13.5999V19.2Z" fill="#FF9800"/>
<path d="M8.79993 19.2H11.9999L11.9999 8H8.79993L8.79993 19.2Z" fill="#4CAF50"/>
<path d="M30.4519 18.3932L21.1171 27.7283L24.272 30.8831L33.6068 21.548L30.4519 18.3932Z" fill="#F19B2C"/>
<path d="M19.9999 32L21.1175 27.728L24.2719 30.8824L19.9999 32Z" fill="#F0C330"/>
<path d="M20.4887 30.1304L19.9999 32L21.8695 31.5112L20.4887 30.1304Z" fill="#35495D"/>
<path d="M33.8906 18.8024L33.1978 18.1096C32.5178 17.4296 31.4154 17.4296 30.7362 18.1096L29.9906 18.8552L33.145 22.0096L33.8906 21.264C34.5698 20.5848 34.5698 19.4824 33.8906 18.8024Z" fill="#E54D42"/>
<path d="M30.4518 18.3924L29.2023 19.6421L32.3572 22.7968L33.6067 21.5472L30.4518 18.3924Z" fill="#7F8C8D"/>
</svg>
