<svg width="70" height="70" viewBox="0 0 70 70" fill="none" xmlns="http://www.w3.org/2000/svg">
<path d="M14.6016 26.7969C14.1641 27.125 13.4531 27.2344 12.3047 27.2344C11.3203 27.2344 10.3906 27.125 9.51562 26.8516C8.64062 26.5781 7.875 26.3047 7.21875 25.9766L6.01562 29.1484C6.39844 29.3672 7.05469 29.5859 7.875 29.9141C8.69531 30.2422 9.78906 30.4062 11.1016 30.5156V33.7969H14.5469V30.4609C15.4219 30.2969 16.1875 30.0781 16.7891 29.75C17.3906 29.4219 17.8828 29.0391 18.2656 28.5469C18.6484 28.1094 18.9219 27.6172 19.0859 27.0703C19.25 26.5234 19.3594 25.9766 19.3594 25.4297C19.3594 24.6094 19.1953 23.8984 18.9219 23.2969C18.6484 22.6953 18.2656 22.1484 17.7188 21.7109C17.2266 21.2734 16.625 20.8906 15.9141 20.5078C15.2031 20.1797 14.4922 19.8516 13.6719 19.5234C13.125 19.3594 12.6875 19.1953 12.3047 19.0312C11.9219 18.8672 11.5937 18.7031 11.375 18.5391C11.1016 18.375 10.9375 18.2109 10.8281 17.9922C10.7187 17.7734 10.6641 17.5547 10.6641 17.2266C10.6641 16.7344 10.8828 16.3516 11.2656 16.0781C11.6484 15.8047 12.3047 15.6406 13.1797 15.6406C14.0547 15.6406 14.875 15.75 15.6953 15.9141C16.5156 16.0781 17.1719 16.2969 17.7734 16.5703L18.6484 13.2891C18.2656 13.125 17.7188 12.9063 17.0078 12.7422C16.2969 12.5781 15.5313 12.4141 14.5469 12.3047V9.46094H11.1016V12.4141C10.2812 12.5781 9.625 12.7969 9.02344 13.125C8.42187 13.4531 7.98437 13.8359 7.60156 14.2734C7.21875 14.7109 6.94531 15.2578 6.78125 15.8047C6.61719 16.3516 6.50781 16.9531 6.50781 17.5547C6.50781 18.3203 6.67187 19.0312 6.94531 19.5781C7.21875 20.125 7.60156 20.6172 8.09375 21C8.58594 21.3828 9.07813 21.7109 9.67969 21.9844C10.2813 22.2578 10.8281 22.4766 11.4297 22.6953C12.0312 22.9141 12.5781 23.1328 13.0703 23.2969C13.5625 23.5156 13.9453 23.6797 14.2734 23.8984C14.6016 24.1172 14.8203 24.3359 14.9844 24.5547C15.1484 24.8281 15.2578 25.1016 15.2578 25.4297C15.2578 26.0859 15.0391 26.4688 14.6016 26.7969ZM56.3281 3.82812H60.8125V23.625L63.3828 22.9688C63.6016 22.9141 63.7656 22.8594 63.9844 22.8594V0.710938H53.2109V25.6484L56.3281 24.8281V3.82812ZM60.9219 39.9766L60.8672 39.9219V66.1719H56.3281V41.0703C55.2891 42 54.25 42.875 53.2109 43.6953V69.2344H63.9844V40.6328C62.8906 40.9062 61.7422 40.6875 60.9219 39.9766ZM41.0703 19.0859H45.5547V37.8984C46.5938 37.0781 47.6875 36.2578 48.6719 35.4375V15.9688H37.9531V42.9297C38.9922 42.3281 40.0859 41.6719 41.0703 41.0156V19.0859V19.0859ZM45.5547 66.1172H41.0703V51.7891C40.0312 52.3359 38.9922 52.8828 37.9531 53.4297V69.2891H48.7266V47.0859C47.6875 47.7969 46.6484 48.5078 45.6094 49.1641V66.1172H45.5547ZM25.7578 32.2109H30.2422V46.7031C31.2812 46.2656 32.3203 45.7734 33.3594 45.2812V29.0938H22.6406V49.5469C23.6797 49.2187 24.7187 48.8906 25.7578 48.5078V32.2109ZM30.2422 66.1172H25.7578V58.2422C24.7187 58.5703 23.6797 58.8984 22.6406 59.1719V69.2344H33.3594V55.4531C32.3203 55.8906 31.2812 56.3281 30.2422 56.7109V66.1172ZM14.9844 66.1719H10.5V61.7969C9.46094 61.9609 8.42187 62.0703 7.38281 62.2344V69.2891H18.1563V60.375C17.1172 60.5937 16.0781 60.8125 15.0391 61.0312V66.1719H14.9844ZM18.1016 50.8047V39.9766H7.38281V52.8828C8.42187 52.7187 9.46094 52.6094 10.5 52.3906V43.0938H14.9844V51.5703C16.0234 51.3516 17.1172 51.0781 18.1016 50.8047Z" fill="white"/>
<path d="M62.6171 37.9531C62.9999 38.2812 63.6561 38.0625 63.7108 37.5156L64.914 26.1953C64.9686 25.7578 64.5311 25.375 64.0936 25.4843L53.0468 28.3828C52.5546 28.5468 52.3905 29.2031 52.7733 29.5312L55.9999 32.2656C43.1483 45.2812 26.6874 53.1015 6.89052 55.5625C5.79677 55.6718 5.03114 56.7109 5.14052 57.7499C5.24989 58.8437 6.28896 59.664 7.38271 59.5546C17.9921 58.2421 27.8358 55.3984 36.5311 51.1328C44.8436 47.1406 52.4452 41.6718 59.0624 34.9453L62.6171 37.9531Z" fill="white"/>
</svg>
