<svg width="31" height="31" viewBox="0 0 31 31" fill="none" xmlns="http://www.w3.org/2000/svg">
<g clip-path="url(#clip0_190_53)">
<path d="M30.2597 6.75523H24.1985V0.694031L30.2597 6.75523Z" fill="#BCD6EF"/>
<path d="M30.2597 6.75523H24.1985V0.694031L30.2597 6.75523Z" fill="#BCD6EF"/>
<path d="M27.3909 13.3254C27.1133 13.094 26.6969 12.909 26.1417 12.7702V11.3821C26.5118 11.4284 26.882 11.5672 27.2059 11.7985L27.6685 11.1045C27.2059 10.7806 26.6969 10.5955 26.1417 10.5493V10.1791H25.679V10.5493C25.2163 10.5955 24.7999 10.7343 24.5223 11.0119C24.2447 11.2896 24.0596 11.6134 24.0596 12.0761C24.0596 12.4925 24.1984 12.8164 24.4297 13.0478C24.7074 13.2791 25.0775 13.4179 25.6327 13.5567V14.991C25.2163 14.8985 24.7536 14.7134 24.3372 14.3433L23.782 14.991C24.3372 15.4537 24.9387 15.7313 25.5865 15.7776V16.3328H26.0491V15.8239C26.5581 15.7776 26.9283 15.6388 27.2521 15.3612C27.576 15.0836 27.7148 14.7597 27.7148 14.297C27.8074 13.8806 27.6685 13.5567 27.3909 13.3254ZM25.679 12.6776C25.4014 12.5851 25.2163 12.4925 25.1238 12.4C25.0312 12.3075 24.985 12.1687 24.985 12.0299C24.985 11.8448 25.0312 11.706 25.17 11.6134C25.3088 11.5209 25.4477 11.4284 25.679 11.4284V12.6776ZM26.6969 14.806C26.5581 14.8985 26.373 14.991 26.1417 14.991V13.6493C26.4193 13.7418 26.6506 13.8343 26.7432 13.9269C26.8357 14.0194 26.9283 14.1582 26.9283 14.3433C26.882 14.5746 26.8357 14.7134 26.6969 14.806Z" fill="#0FCAAD"/>
<path d="M21.6075 9.85522H0.509033V30.5373H21.6075V9.85522Z" fill="white"/>
<path d="M19.4327 19.5254V28.4552H17.073V21.3761L18.7849 19.5254H19.4327Z" fill="#BCD6EF"/>
<path d="M14.8984 23.6896L16.0089 22.4866V28.4552H13.6492V22.7179L14.8984 23.6896Z" fill="#1FA6F8"/>
<path d="M11.4283 20.9597L12.6313 21.8851V28.4552H10.2253V21.7463L11.4283 20.9597Z" fill="#BCD6EF"/>
<path d="M6.8479 24.1522L9.2076 22.4866V28.4552H6.8479V24.1522Z" fill="#0FCAAD"/>
<path d="M3.42383 26.5582L5.8298 24.8925V28.4552H3.42383V26.5582Z" fill="#1FA6F8"/>
<path d="M7.17166 11.2896H2.59106V13.094H7.17166V11.2896Z" fill="#FF9889"/>
<path d="M19.9882 11.2896H8.00464V13.094H19.9882V11.2896Z" fill="#BCD6EF"/>
<path d="M19.9881 13.7881H2.59106V14.5284H19.9881V13.7881Z" fill="#BCD6EF"/>
<path d="M19.9881 15.0836H2.59106V15.8239H19.9881V15.0836Z" fill="#BCD6EF"/>
<path d="M21.8387 7.17164H0.740234V9.62388H21.8387V7.17164Z" fill="#1FA6F8"/>
<path d="M30.4911 6.66268L24.2911 0.462685H9.25381V6.9403H0.740376C0.601571 6.9403 0.509033 7.03283 0.509033 7.17164C0.509033 11.891 0.509033 25.6791 0.509033 30.306C0.509033 30.4448 0.601571 30.5373 0.740376 30.5373C22.6255 30.4448 22.0702 30.7687 22.0702 30.306V28.5478H30.4911V6.66268ZM24.3837 1.20298L29.7508 6.57015H24.3837V1.20298ZM0.97172 7.40298C4.81202 7.40298 16.9807 7.40298 21.6075 7.40298V9.39254C17.1195 9.39254 4.81202 9.39254 0.97172 9.39254V7.40298ZM21.6075 30.0746H0.97172V9.85522C4.81202 9.85522 16.9807 9.85522 21.6075 9.85522C21.6075 13.5567 21.6075 27.7149 21.6075 30.0746ZM22.0702 28.0851C22.0702 24.3373 22.0702 9.99403 22.0702 7.17164C22.0702 7.03283 21.9777 6.9403 21.8389 6.9403H9.7165V0.925371H24.0135V6.75522C24.0135 6.84776 24.106 6.9403 24.1986 6.9403H30.0284V28.0851H22.0702Z" fill="#222F59"/>
<path d="M17.7672 17.1194L17.8134 17.6746L18.7388 17.5821L14.806 21.7463L11.4283 19.0627C9.43879 20.497 3.05372 24.9851 2.96118 25.0313L3.28506 25.494C5.7373 23.7821 8.97611 21.5149 11.4283 19.803L14.8522 22.5328L19.1552 17.906L19.2015 18.8313H19.7567L19.7104 16.8881L17.7672 17.1194Z" fill="#222F59"/>
<path d="M3.14633 8.37463C3.14633 8.65224 2.91499 8.88358 2.63737 8.88358C2.35976 8.88358 2.12842 8.65224 2.12842 8.37463C2.12842 8.09702 2.35976 7.86567 2.63737 7.86567C2.96125 7.86567 3.14633 8.09702 3.14633 8.37463ZM5.04334 8.37463C5.04334 8.65224 4.812 8.88358 4.53439 8.88358C4.25678 8.88358 4.02543 8.65224 4.02543 8.37463C4.02543 8.09702 4.25678 7.86567 4.53439 7.86567C4.812 7.86567 5.04334 8.09702 5.04334 8.37463ZM6.94036 8.37463C6.94036 8.65224 6.70901 8.88358 6.4314 8.88358C6.15379 8.88358 5.92245 8.65224 5.92245 8.37463C5.92245 8.09702 6.15379 7.86567 6.4314 7.86567C6.70901 7.86567 6.94036 8.09702 6.94036 8.37463Z" fill="white"/>
<path d="M20.4507 8.14328H10.5955V8.60597H20.4507V8.14328Z" fill="white"/>
<path d="M28.409 26.0493H23.2732V26.5119H28.409V26.0493Z" fill="#BCD6EF"/>
<path d="M28.409 24.1522H23.2732V24.6149H28.409V24.1522Z" fill="#BCD6EF"/>
<path d="M28.409 22.2552H23.2732V22.7179H28.409V22.2552Z" fill="#BCD6EF"/>
<path d="M28.409 20.3582H23.2732V20.8209H28.409V20.3582Z" fill="#BCD6EF"/>
<path d="M28.409 18.4612H23.2732V18.9239H28.409V18.4612Z" fill="#BCD6EF"/>
<path d="M21.8389 2.54478H11.3359V3.00746H21.8389V2.54478Z" fill="#BCD6EF"/>
<path d="M21.8389 4.76567H11.3359V5.22836H21.8389V4.76567Z" fill="#BCD6EF"/>
</g>
<defs>
<clipPath id="clip0_190_53">
<rect width="31" height="31" fill="white"/>
</clipPath>
</defs>
</svg>
