<svg width="32" height="31" viewBox="0 0 32 31" fill="none" xmlns="http://www.w3.org/2000/svg">
<path d="M0 29.1288V1.87123C0 1.37495 0.197147 0.898993 0.54807 0.54807C0.898993 0.197147 1.37495 0 1.87123 0H21.0201C21.5164 0 21.9924 0.197147 22.3433 0.54807C22.6942 0.898993 22.8913 1.37495 22.8913 1.87123V26.0134L17.8263 31H1.87123C1.37495 31 0.898993 30.8029 0.54807 30.4519C0.197147 30.101 0 29.6251 0 29.1288Z" fill="#F0F0F2"/>
<path d="M17.8388 31V27.8813C17.8388 27.385 18.0359 26.909 18.3868 26.5581C18.7378 26.2072 19.2137 26.0101 19.71 26.0101H22.8911L17.8388 31Z" fill="#DADADC"/>
<path d="M7.67103 25.798L4.24045 25.7925C4.10825 25.7923 3.98153 25.7397 3.88812 25.6461C3.79471 25.5526 3.74225 25.4257 3.74225 25.2935V24.4203C3.74225 24.3547 3.75518 24.2898 3.78031 24.2292C3.80543 24.1686 3.84226 24.1135 3.88868 24.0672C3.9351 24.0208 3.9902 23.9841 4.05083 23.9591C4.11147 23.934 4.17644 23.9212 4.24203 23.9213L7.67262 23.9268C7.80482 23.927 7.93154 23.9796 8.02495 24.0732C8.11836 24.1667 8.17082 24.2935 8.17082 24.4257V25.299C8.17082 25.3646 8.15789 25.4295 8.13276 25.4901C8.10764 25.5507 8.07081 25.6058 8.02439 25.6521C7.97797 25.6985 7.92287 25.7352 7.86223 25.7602C7.8016 25.7853 7.73663 25.7981 7.67103 25.798Z" fill="#2370B5"/>
<path d="M7.67259 23.9267L4.24201 23.9213C4.23209 23.9213 4.22242 23.9222 4.21266 23.9227L6.73698 23.9267C6.86918 23.927 6.9959 23.9796 7.08931 24.0732C7.18271 24.1667 7.23518 24.2935 7.23518 24.4257V25.299C7.23512 25.4263 7.18635 25.5488 7.09888 25.6413C7.01141 25.7338 6.89185 25.7893 6.76474 25.7965L7.67101 25.798C7.7366 25.7981 7.80157 25.7852 7.86221 25.7602C7.92284 25.7352 7.97794 25.6985 8.02436 25.6521C8.07078 25.6058 8.10761 25.5507 8.13273 25.4901C8.15786 25.4295 8.17079 25.3646 8.17079 25.299V24.4257C8.17079 24.2935 8.11833 24.1667 8.02492 24.0732C7.93151 23.9796 7.80479 23.927 7.67259 23.9267Z" fill="#1067AE"/>
<path d="M8.17084 28.137H8.17029L3.74172 28.1316C3.61765 28.1315 3.49869 28.0821 3.41101 27.9944C3.32333 27.9066 3.27411 27.7876 3.27419 27.6635C3.27426 27.5394 3.32361 27.4205 3.4114 27.3328C3.49918 27.2451 3.6182 27.1959 3.74227 27.196H3.74281L8.17139 27.2014C8.29546 27.2014 8.41442 27.2508 8.5021 27.3386C8.58977 27.4264 8.63899 27.5454 8.63892 27.6695C8.63885 27.7935 8.58949 27.9125 8.50171 28.0002C8.41392 28.0878 8.29491 28.1371 8.17084 28.137Z" fill="#DADADC"/>
<path d="M14.9066 25.798L11.476 25.7925C11.3438 25.7923 11.2171 25.7397 11.1237 25.6461C11.0303 25.5526 10.9778 25.4257 10.9778 25.2935V24.4203C10.9778 24.3547 10.9908 24.2898 11.0159 24.2292C11.041 24.1686 11.0778 24.1135 11.1243 24.0672C11.1707 24.0208 11.2258 23.9841 11.2864 23.9591C11.347 23.934 11.412 23.9212 11.4776 23.9213L14.9082 23.9268C15.0404 23.927 15.1671 23.9796 15.2605 24.0732C15.3539 24.1667 15.4064 24.2935 15.4064 24.4257V25.299C15.4064 25.3646 15.3935 25.4295 15.3683 25.4901C15.3432 25.5507 15.3064 25.6058 15.26 25.6521C15.2135 25.6985 15.1584 25.7352 15.0978 25.7602C15.0372 25.7853 14.9722 25.7981 14.9066 25.798Z" fill="#FED947"/>
<path d="M14.9082 23.9267L11.4776 23.9213C11.4677 23.9213 11.458 23.9222 11.4483 23.9227L13.9726 23.9267C14.1048 23.927 14.2315 23.9796 14.3249 24.0732C14.4183 24.1667 14.4708 24.2935 14.4708 24.4257V25.299C14.4707 25.4263 14.4219 25.5488 14.3345 25.6413C14.247 25.7338 14.1274 25.7893 14.0003 25.7965L14.9066 25.798C14.9722 25.7981 15.0372 25.7852 15.0978 25.7602C15.1584 25.7352 15.2135 25.6985 15.26 25.6521C15.3064 25.6058 15.3432 25.5507 15.3683 25.4901C15.3935 25.4295 15.4064 25.3646 15.4064 25.299V24.4257C15.4064 24.2935 15.3539 24.1667 15.2605 24.0732C15.1671 23.9796 15.0404 23.927 14.9082 23.9267Z" fill="#FED030"/>
<path d="M15.4063 28.137H15.4057L11.1771 28.1316C11.0531 28.1315 10.9341 28.0821 10.8464 27.9943C10.7588 27.9066 10.7096 27.7875 10.7096 27.6635C10.7097 27.5394 10.7591 27.4204 10.8469 27.3328C10.9347 27.2451 11.0537 27.1959 11.1778 27.196H11.1784L15.407 27.2014C15.531 27.2015 15.65 27.2508 15.7377 27.3386C15.8253 27.4264 15.8745 27.5454 15.8745 27.6695C15.8744 27.7936 15.825 27.9125 15.7372 28.0002C15.6494 28.0879 15.5304 28.1371 15.4063 28.137H15.4063ZM13.5351 3.28168H13.5346L7.48427 3.27465C7.3602 3.27458 7.24124 3.22522 7.15356 3.13744C7.06588 3.04966 7.01666 2.93064 7.01674 2.80657C7.01681 2.6825 7.06617 2.56354 7.15395 2.47586C7.24173 2.38818 7.36075 2.33896 7.48482 2.33904H7.48537L13.5357 2.34607C13.6597 2.34614 13.7787 2.3955 13.8664 2.48328C13.9541 2.57106 14.0033 2.69008 14.0032 2.81415C14.0031 2.93822 13.9538 3.05718 13.866 3.14486C13.7782 3.23254 13.6592 3.28176 13.5351 3.28168ZM13.5351 7.02414H13.5348L2.80645 7.0171C2.68238 7.01706 2.5634 6.96774 2.4757 6.87998C2.388 6.79222 2.33875 6.67321 2.33879 6.54914C2.33883 6.42507 2.38816 6.3061 2.47592 6.2184C2.56368 6.1307 2.68268 6.08145 2.80675 6.08149H2.80705L13.5354 6.08853C13.6595 6.08857 13.7785 6.13789 13.8662 6.22565C13.9539 6.31341 14.0031 6.43241 14.0031 6.55648C14.003 6.68055 13.9537 6.79953 13.866 6.88723C13.7782 6.97493 13.6592 7.02418 13.5351 7.02414ZM13.5351 8.89537H13.5348L2.80645 8.88833C2.68238 8.88825 2.56342 8.83889 2.47575 8.7511C2.38807 8.66331 2.33886 8.54429 2.33894 8.42022C2.33902 8.29615 2.38839 8.17719 2.47618 8.08952C2.56396 8.00185 2.68298 7.95264 2.80705 7.95272L13.5354 7.95975C13.6595 7.95979 13.7785 8.00912 13.8662 8.09688C13.9539 8.18464 14.0031 8.30364 14.0031 8.42771C14.003 8.55178 13.9537 8.67075 13.866 8.75846C13.7782 8.84616 13.6592 8.89541 13.5351 8.89537ZM13.5351 10.7666H13.5348L2.80645 10.7596C2.68238 10.7595 2.56342 10.7101 2.47575 10.6223C2.38807 10.5345 2.33886 10.4155 2.33894 10.2914C2.33902 10.1674 2.38839 10.0484 2.47618 9.96075C2.56396 9.87307 2.68298 9.82386 2.80705 9.82394L13.5354 9.83098C13.6595 9.83102 13.7785 9.88035 13.8662 9.9681C13.9539 10.0559 14.0031 10.1749 14.0031 10.2989C14.003 10.423 13.9537 10.542 13.866 10.6297C13.7782 10.7174 13.6592 10.7666 13.5351 10.7666Z" fill="#DADADC"/>
<path d="M5.36397 17.1288H6.29959C6.54773 17.1288 6.7857 17.2273 6.96117 17.4028C7.13663 17.5783 7.2352 17.8162 7.2352 18.0644V22.0563H4.42836V18.0644C4.42836 17.8162 4.52693 17.5783 4.70239 17.4028C4.87786 17.2273 5.11583 17.1288 5.36397 17.1288Z" fill="#FED947"/>
<path d="M6.29961 17.1288H5.364C5.61214 17.1288 5.85011 17.2273 6.02558 17.4028C6.20104 17.5783 6.29961 17.8162 6.29961 18.0644V22.0563H7.23523V18.0644C7.23522 17.8162 7.13665 17.5783 6.96119 17.4028C6.78573 17.2273 6.54775 17.1288 6.29961 17.1288Z" fill="#FED030"/>
<path d="M10.9778 15.2575H11.9134C12.1616 15.2575 12.3995 15.3561 12.575 15.5316C12.7505 15.707 12.849 15.945 12.849 16.1931V22.0563H10.0422V16.1931C10.0422 15.945 10.1408 15.707 10.3162 15.5316C10.4917 15.3561 10.7297 15.2575 10.9778 15.2575Z" fill="#2370B5"/>
<path d="M11.9134 15.2575H10.9778C11.226 15.2575 11.4639 15.3561 11.6394 15.5316C11.8149 15.707 11.9134 15.945 11.9134 16.1931V22.0563H12.8491V16.1931C12.8491 15.945 12.7505 15.707 12.575 15.5316C12.3996 15.3561 12.1616 15.2575 11.9134 15.2575Z" fill="#1067AE"/>
<path d="M16.5914 12.4507H17.527C17.7752 12.4507 18.0131 12.5493 18.1886 12.7247C18.3641 12.9002 18.4626 13.1382 18.4626 13.3863V22.0563H15.6558V13.3863C15.6558 13.1382 15.7544 12.9002 15.9298 12.7247C16.1053 12.5493 16.3433 12.4507 16.5914 12.4507Z" fill="#FED947"/>
<path d="M17.527 12.4507H16.5914C16.8396 12.4507 17.0775 12.5493 17.253 12.7247C17.4285 12.9002 17.527 13.1382 17.527 13.3863V22.0563H18.4627V13.3863C18.4627 13.1382 18.3641 12.9002 18.1886 12.7247C18.0132 12.5493 17.7752 12.4507 17.527 12.4507Z" fill="#FED030"/>
<path d="M20.3651 22.5244H20.365L2.68186 22.5166C2.55779 22.5166 2.43881 22.4673 2.35109 22.3795C2.26338 22.2918 2.21412 22.1728 2.21414 22.0487C2.21417 21.9246 2.26348 21.8057 2.35122 21.718C2.43897 21.6302 2.55797 21.581 2.68204 21.581H2.68222L20.3653 21.5888C20.4894 21.5888 20.6084 21.6381 20.6961 21.7259C20.7838 21.8136 20.8331 21.9326 20.833 22.0567C20.833 22.1808 20.7837 22.2997 20.696 22.3875C20.6082 22.4752 20.4892 22.5244 20.3651 22.5244Z" fill="#DADADC"/>
<path d="M22.457 12.4666L20.8484 14.0752L24.6187 17.8456L26.2273 16.237L22.457 12.4666Z" fill="#8B8893"/>
<path d="M22.457 12.4666L21.8597 13.0639L24.1279 15.3322C24.2023 15.4066 24.2613 15.4949 24.3016 15.5921C24.3419 15.6893 24.3626 15.7935 24.3626 15.8987C24.3626 16.0039 24.3419 16.108 24.3016 16.2052C24.2613 16.3024 24.2023 16.3908 24.1279 16.4652L23.6831 16.91L24.6188 17.8456L26.2274 16.2369L22.457 12.4666Z" fill="#787681"/>
<path d="M24.87 16.4882L24.87 16.4882C25.19 16.1682 25.624 15.9884 26.0765 15.9884C26.529 15.9884 26.963 16.1682 27.283 16.4882L30.5002 19.7054C30.8202 20.0254 31 20.4594 31 20.9119C31 21.3644 30.8202 21.7984 30.5002 22.1184L30.5002 22.1184C30.1803 22.4384 29.7463 22.6181 29.2938 22.6181C28.8413 22.6181 28.4073 22.4384 28.0873 22.1184L24.87 18.9011C24.5501 18.5811 24.3703 18.1472 24.3703 17.6946C24.3703 17.2421 24.5501 16.8082 24.87 16.4882L24.87 16.4882Z" fill="#B28B6A"/>
<path d="M30.5002 19.7054L27.2829 16.4882C27.0056 16.2109 26.6412 16.0376 26.2511 15.9974C25.8609 15.9572 25.4689 16.0526 25.1408 16.2675C25.2384 16.3317 25.3292 16.4056 25.4117 16.4882L28.6289 19.7054C28.7874 19.8639 28.9131 20.0519 28.9988 20.2589C29.0845 20.466 29.1287 20.6878 29.1287 20.9119C29.1287 21.1359 29.0845 21.3578 28.9988 21.5648C28.9131 21.7718 28.7874 21.9599 28.6289 22.1184C28.5464 22.2009 28.4556 22.2749 28.3581 22.339C28.6861 22.5539 29.0782 22.6493 29.4683 22.6091C29.8584 22.569 30.2228 22.3956 30.5002 22.1184C30.6586 21.9599 30.7843 21.7718 30.87 21.5648C30.9558 21.3578 30.9999 21.1359 30.9999 20.9119C30.9999 20.6878 30.9558 20.466 30.87 20.2589C30.7843 20.0519 30.6586 19.8639 30.5002 19.7054Z" fill="#A17855"/>
<path d="M18.4085 17.0949C22.2825 17.0949 25.4229 13.9544 25.4229 10.0805C25.4229 6.20653 22.2825 3.06606 18.4085 3.06606C14.5346 3.06606 11.3941 6.20653 11.3941 10.0805C11.3941 13.9544 14.5346 17.0949 18.4085 17.0949Z" fill="#8B8893"/>
<path d="M23.3686 5.12053C22.6374 4.38782 21.7527 3.82642 20.7784 3.47675C19.8041 3.12709 18.7643 2.99787 17.734 3.09841C19.4695 3.26617 21.0802 4.07423 22.2523 5.36505C23.4243 6.65587 24.0737 8.33692 24.0737 10.0805C24.0737 11.824 23.4243 13.505 22.2523 14.7959C21.0802 16.0867 19.4695 16.8947 17.734 17.0625C19.1722 17.2014 20.6183 16.8928 21.8745 16.1789C23.1307 15.4649 24.1358 14.3805 24.7524 13.0737C25.3689 11.7669 25.5669 10.3017 25.3192 8.87812C25.0716 7.45458 24.3903 6.14226 23.3686 5.12053Z" fill="#787681"/>
<path d="M21.7598 13.4317C21.0969 14.0945 20.2524 14.5459 19.333 14.7288C18.4137 14.9117 17.4607 14.8178 16.5947 14.4591C15.7286 14.1003 14.9884 13.4929 14.4676 12.7135C13.9468 11.934 13.6689 11.0177 13.6689 10.0803C13.6689 9.14291 13.9468 8.22657 14.4676 7.44715C14.9884 6.66774 15.7286 6.06026 16.5947 5.70153C17.4607 5.34281 18.4137 5.24895 19.333 5.43182C20.2524 5.6147 21.0969 6.0661 21.7598 6.72893C22.2036 7.16694 22.556 7.68875 22.7965 8.26406C23.0371 8.83937 23.1609 9.45673 23.1609 10.0803C23.1609 10.7039 23.0371 11.3212 22.7965 11.8965C22.556 12.4719 22.2036 12.9937 21.7598 13.4317Z" fill="#52BBE9"/>
<path d="M21.7598 6.72893C21.2072 6.17684 20.5267 5.76993 19.7787 5.54442C19.0308 5.31892 18.2388 5.28182 17.4731 5.43641C18.5462 5.65187 19.5115 6.23228 20.2051 7.079C20.8987 7.92571 21.2776 8.98647 21.2775 10.081C21.2775 11.1755 20.8984 12.2362 20.2047 13.0828C19.511 13.9294 18.5456 14.5097 17.4724 14.725C18.0837 14.8473 18.713 14.8486 19.3248 14.7291C20.1676 14.5634 20.9496 14.1717 21.5871 13.5958C22.2245 13.02 22.6933 12.2817 22.9435 11.4599C23.1936 10.6381 23.2156 9.76374 23.0071 8.93041C22.7986 8.09708 22.3675 7.33611 21.7598 6.72894L21.7598 6.72893Z" fill="#1CABE1"/>
<path d="M19.3247 10.7683V14.7291C18.7104 14.8499 18.0782 14.8481 17.4646 14.7236C16.851 14.5991 16.2681 14.3544 15.7495 14.0036V10.7683C15.7495 10.5202 15.8481 10.2822 16.0236 10.1068C16.199 9.93136 16.437 9.83276 16.6851 9.83267H18.3891C18.6372 9.83276 18.8752 9.93136 19.0506 10.1068C19.2261 10.2822 19.3247 10.5202 19.3247 10.7683Z" fill="#FED947"/>
<path d="M18.389 9.83267H16.9322C17.1803 9.83276 17.4183 9.93136 17.5937 10.1068C17.7692 10.2822 17.8678 10.5202 17.8678 10.7683V14.7291C17.8052 14.7413 17.7422 14.7515 17.6792 14.7612C18.2254 14.8458 18.7821 14.8349 19.3246 14.7291V10.7683C19.3245 10.5202 19.2259 10.2822 19.0505 10.1068C18.8751 9.93136 18.6371 9.83276 18.389 9.83267Z" fill="#FED030"/>
<path d="M19.6166 7.96581C19.6164 8.08977 19.567 8.2086 19.4793 8.29619C19.3916 8.38379 19.2727 8.43299 19.1488 8.433H19.1481L13.9673 8.42614C14.089 8.09741 14.2472 7.78337 14.4389 7.4899L19.1494 7.49738C19.2108 7.49738 19.2717 7.50951 19.3285 7.53307C19.3852 7.55662 19.4368 7.59115 19.4802 7.63466C19.5236 7.67817 19.558 7.72982 19.5814 7.78665C19.6048 7.84347 19.6167 7.90436 19.6166 7.96581Z" fill="white"/>
</svg>
