<svg width="38" height="33" viewBox="0 0 38 33" fill="none" xmlns="http://www.w3.org/2000/svg">
<path d="M24.7925 9.50958C25.3999 9.50958 25.9824 9.26827 26.4121 8.83882C26.8416 8.40909 27.0829 7.82657 27.0829 7.21922C27.0829 6.61186 26.8416 6.02934 26.4121 5.59961C25.9824 5.17016 25.3999 4.92885 24.7925 4.92885C24.1852 4.92885 23.6027 5.17016 23.1729 5.59961C22.7435 6.02935 22.5022 6.61186 22.5022 7.21922C22.5022 7.82657 22.7435 8.40909 23.1729 8.83882C23.6027 9.26827 24.1852 9.50958 24.7925 9.50958ZM24.7925 5.58321C25.2264 5.58321 25.6426 5.75558 25.9494 6.06232C26.2562 6.36906 26.4285 6.78537 26.4285 7.21922C26.4285 7.65306 26.2562 8.06933 25.9494 8.37611C25.6427 8.68289 25.2264 8.85522 24.7925 8.85522C24.3587 8.85522 23.9424 8.68285 23.6356 8.37611C23.3289 8.06937 23.1565 7.65306 23.1565 7.21922C23.1565 6.78537 23.3289 6.3691 23.6356 6.06232C23.9424 5.75554 24.3587 5.58321 24.7925 5.58321ZM33.6265 20.2417V0.413867C33.6265 0.327098 33.592 0.243844 33.5307 0.182488C33.4693 0.121132 33.3861 0.0866699 33.2993 0.0866699H1.23394C1.0531 0.0866699 0.906738 0.23303 0.906738 0.413867V27.7676C0.906738 27.8543 0.941211 27.9376 1.00256 27.999C1.0639 28.0603 1.14717 28.0948 1.23394 28.0948H25.211C25.9495 30.025 27.6001 31.4614 29.6138 31.9271C31.6276 32.3924 33.7409 31.8257 35.2519 30.4152C36.7625 29.0051 37.473 26.9356 37.147 24.8947C36.821 22.8535 35.5014 21.1082 33.6264 20.2388L33.6265 20.2417ZM32.9721 0.743682V19.9747C32.3393 19.762 31.6765 19.653 31.0089 19.6521C30.8643 19.6521 30.7235 19.6638 30.5815 19.6738L25.0349 13.5435C24.973 13.4745 24.8848 13.4354 24.7922 13.4354C24.701 13.4447 24.6151 13.4833 24.5474 13.5452L19.5617 19.1549L11.952 10.2776C11.8901 10.2051 11.7998 10.1634 11.7046 10.1631C11.6082 10.1578 11.5156 10.2005 11.4565 10.277L1.56059 21.7368V0.740037L32.9721 0.743682ZM1.56113 27.443V22.7387L11.7039 10.9932L19.3083 19.8653C19.3697 19.9372 19.4594 19.979 19.5537 19.9798C19.6492 19.986 19.7416 19.9448 19.8012 19.87L24.7936 14.2539L29.7892 19.775C28.1082 20.1043 26.6393 21.1157 25.7316 22.5685C24.8239 24.021 24.5593 25.785 25.0004 27.44L1.56113 27.443ZM31.0089 31.4348C29.8453 31.4333 28.7112 31.0673 27.7662 30.3881C26.8214 29.7088 26.1132 28.7506 25.7411 27.6478L25.7358 27.6346V27.6349C25.1962 26.036 25.4136 24.2785 26.3259 22.859C27.2386 21.4395 28.7472 20.5126 30.4258 20.3396H30.4606C30.6411 20.322 30.8237 20.3115 31.0089 20.3115C31.7507 20.3106 32.4851 20.4591 33.1684 20.748L33.1769 20.7512C34.7612 21.4254 35.9438 22.7953 36.3796 24.461C36.8155 26.1266 36.4556 27.9001 35.4048 29.2642C34.3539 30.6278 32.7305 31.4284 31.0089 31.4315L31.0089 31.4348ZM34.3595 25.8724C34.3595 25.9592 34.325 26.0425 34.2637 26.1038C34.2023 26.1652 34.1191 26.1996 34.0323 26.1996H31.3361V28.8952C31.3361 29.0758 31.1897 29.2224 31.0089 29.2224C30.8281 29.2224 30.6817 29.0758 30.6817 28.8952V26.1964H27.9855C27.805 26.1964 27.6583 26.0501 27.6583 25.8692C27.6583 25.6884 27.805 25.542 27.9855 25.542H30.6817V22.8465C30.6817 22.6659 30.8281 22.5193 31.0089 22.5193C31.1897 22.5193 31.3361 22.6659 31.3361 22.8465V25.542H34.0323C34.1191 25.542 34.2023 25.5765 34.2637 25.6379C34.325 25.6992 34.3595 25.7825 34.3595 25.8692V25.8724Z" fill="black"/>
</svg>
