<svg width="32" height="32" viewBox="0 0 32 32" fill="none" xmlns="http://www.w3.org/2000/svg">
<path d="M25.3332 13.3333C24.9795 13.3333 24.6404 13.4738 24.3904 13.7238C24.1403 13.9739 23.9998 14.313 23.9998 14.6666V19.1733L22.0265 17.2C21.3297 16.5087 20.388 16.1208 19.4065 16.1208C18.425 16.1208 17.4833 16.5087 16.7865 17.2L15.8532 18.1466L12.5465 14.8266C11.8497 14.1354 10.908 13.7475 9.9265 13.7475C8.945 13.7475 8.00327 14.1354 7.3065 14.8266L5.33317 16.8133V9.33329C5.33317 8.97967 5.47365 8.64053 5.72369 8.39048C5.97374 8.14044 6.31288 7.99996 6.6665 7.99996H17.3332C17.6868 7.99996 18.0259 7.85948 18.276 7.60943C18.526 7.35939 18.6665 7.02025 18.6665 6.66663C18.6665 6.313 18.526 5.97387 18.276 5.72382C18.0259 5.47377 17.6868 5.33329 17.3332 5.33329H6.6665C5.60564 5.33329 4.58822 5.75472 3.83808 6.50487C3.08793 7.25501 2.6665 8.27243 2.6665 9.33329V25.6266C2.67002 26.6086 3.06167 27.5494 3.75604 28.2438C4.45042 28.9381 5.39118 29.3298 6.37317 29.3333H22.9598C23.3211 29.3304 23.6802 29.2765 24.0265 29.1733V29.1733C24.7964 28.9573 25.4742 28.4948 25.9559 27.8565C26.4376 27.2182 26.6966 26.4396 26.6932 25.64V14.6666C26.6932 14.4893 26.6579 14.3137 26.5892 14.1501C26.5205 13.9866 26.4199 13.8384 26.2933 13.7143C26.1666 13.5901 26.0165 13.4924 25.8516 13.427C25.6867 13.3616 25.5105 13.3297 25.3332 13.3333ZM6.6665 26.6666C6.31288 26.6666 5.97374 26.5261 5.72369 26.2761C5.47365 26.0261 5.33317 25.6869 5.33317 25.3333V20.5733L9.1865 16.72C9.38137 16.5262 9.64502 16.4174 9.91984 16.4174C10.1947 16.4174 10.4583 16.5262 10.6532 16.72L20.6132 26.6666H6.6665ZM23.9998 25.3333C23.9913 25.5915 23.9079 25.8416 23.7598 26.0533L17.7332 20L18.6798 19.0666C18.7754 18.9691 18.8895 18.8916 19.0154 18.8386C19.1414 18.7857 19.2766 18.7585 19.4132 18.7585C19.5498 18.7585 19.685 18.7857 19.8109 18.8386C19.9368 18.8916 20.0509 18.9691 20.1465 19.0666L23.9998 22.9466V25.3333ZM27.9998 5.33329H26.6665V3.99996C26.6665 3.64634 26.526 3.3072 26.276 3.05715C26.0259 2.8071 25.6868 2.66663 25.3332 2.66663C24.9795 2.66663 24.6404 2.8071 24.3904 3.05715C24.1403 3.3072 23.9998 3.64634 23.9998 3.99996V5.33329H22.6665C22.3129 5.33329 21.9737 5.47377 21.7237 5.72382C21.4736 5.97387 21.3332 6.313 21.3332 6.66663C21.3332 7.02025 21.4736 7.35939 21.7237 7.60943C21.9737 7.85948 22.3129 7.99996 22.6665 7.99996H23.9998V9.33329C23.9998 9.68691 24.1403 10.0261 24.3904 10.2761C24.6404 10.5261 24.9795 10.6666 25.3332 10.6666C25.6868 10.6666 26.0259 10.5261 26.276 10.2761C26.526 10.0261 26.6665 9.68691 26.6665 9.33329V7.99996H27.9998C28.3535 7.99996 28.6926 7.85948 28.9426 7.60943C29.1927 7.35939 29.3332 7.02025 29.3332 6.66663C29.3332 6.313 29.1927 5.97387 28.9426 5.72382C28.6926 5.47377 28.3535 5.33329 27.9998 5.33329V5.33329Z" fill="black"/>
</svg>
