<svg width="31" height="31" viewBox="0 0 31 31" fill="none" xmlns="http://www.w3.org/2000/svg">
<path d="M0.163895 13.2277V17.7723L3.53197 18.0969C3.85092 19.5729 4.4425 20.9765 5.27635 22.2355L3.12605 24.8324L6.3315 28.0378L8.92838 25.8875C10.1912 26.7144 11.5934 27.3054 13.067 27.6319L13.3916 31H17.7723L18.0969 27.6319C19.5705 27.3054 20.9727 26.7144 22.2355 25.8875L24.8324 28.0378L28.0378 24.8324L25.8875 22.2355C26.7214 20.9765 27.313 19.5729 27.6319 18.0969L31 17.7723V13.2277L27.6319 12.9031C27.3054 11.4295 26.7144 10.0273 25.8875 8.76449L28.0378 6.1676L24.8324 2.96215L22.2355 5.11246C20.9765 4.27861 19.5729 3.68702 18.0969 3.36807L17.7723 0H13.3916L13.067 3.36807C11.591 3.68702 10.1874 4.27861 8.92838 5.11246L6.3315 2.96215L3.12605 6.1676L5.27635 8.76449C4.44953 10.0273 3.85851 11.4295 3.53197 12.9031L0.163895 13.2277ZM6.37215 15.5C6.37215 13.6907 6.90868 11.922 7.9139 10.4175C8.91911 8.91314 10.3479 7.74059 12.0195 7.04819C13.6911 6.35578 15.5305 6.17462 17.305 6.5276C19.0796 6.88059 20.7097 7.75187 21.9891 9.03126C23.2685 10.3107 24.1397 11.9407 24.4927 13.7153C24.8457 15.4899 24.6645 17.3292 23.9721 19.0009C23.2797 20.6725 22.1072 22.1012 20.6028 23.1064C19.0984 24.1116 17.3297 24.6482 15.5203 24.6482C13.0941 24.6481 10.7673 23.6842 9.0517 21.9686C7.33611 20.253 6.37225 17.9262 6.37215 15.5Z" fill="#00ACEA"/>
<path d="M15.5205 24.6482C10.4681 24.6482 6.37235 20.5524 6.37235 15.5C6.37235 10.4476 10.4681 6.35182 15.5205 6.35182C20.5729 6.35182 24.6687 10.4476 24.6687 15.5C24.6687 20.5524 20.5729 24.6482 15.5205 24.6482Z" fill="#00EFD1"/>
</svg>
