<svg width="31" height="31" viewBox="0 0 31 31" fill="none" xmlns="http://www.w3.org/2000/svg">
<path d="M22.1378 20.3212C22.0167 20.6442 21.8955 20.9268 21.7744 21.2094C21.6937 21.4113 21.6937 21.6132 21.8148 21.7747L23.2279 23.8742C23.3894 24.1164 23.349 24.3991 23.1472 24.6009L21.2495 26.4986C21.0477 26.7004 20.765 26.7408 20.5228 26.5793L18.4233 25.1662C18.3022 25.0047 18.1003 25.0047 17.8984 25.0854C17.6158 25.2066 17.2928 25.3681 17.0102 25.4488C16.8083 25.5296 16.6872 25.6911 16.6468 25.8929L16.1623 28.3558C16.1219 28.6385 15.8797 28.8 15.597 28.8H12.8919C12.6093 28.8 12.367 28.5981 12.3266 28.3558L11.8421 25.8929C11.8018 25.6911 11.6806 25.5296 11.4788 25.4488C11.1558 25.3277 10.8731 25.2066 10.5905 25.0854C10.3886 25.0047 10.1868 25.0047 10.0253 25.1258L7.92576 26.5389C7.68351 26.7004 7.40088 26.6601 7.19901 26.4582L5.34175 24.6009C5.13988 24.3991 5.0995 24.1164 5.261 23.8742L6.67413 21.7747C6.79526 21.6132 6.79526 21.4113 6.71451 21.2094C6.59338 20.9268 6.43188 20.6038 6.35113 20.3212C6.27038 20.1193 6.10888 19.9982 5.90701 19.9578L3.44413 19.4733C3.1615 19.4329 3 19.1907 3 18.9081V16.2029C3 15.9203 3.20188 15.6781 3.44413 15.6377L5.90701 15.1532C6.10888 15.1128 6.27038 14.9917 6.35113 14.7898C6.47226 14.4668 6.59338 14.1842 6.71451 13.9015C6.79526 13.6997 6.79526 13.4978 6.67413 13.3363L5.30138 11.2772C5.13988 11.0349 5.18025 10.7523 5.38213 10.5504L7.27976 8.65279C7.48163 8.45091 7.76426 8.41054 8.00651 8.57204L10.106 9.98517C10.2675 10.1063 10.4694 10.1063 10.6713 10.0255C10.9539 9.90442 11.2769 9.74292 11.5595 9.66217C11.7614 9.58142 11.8825 9.41992 11.9229 9.21804L12.4074 6.75516C12.4478 6.47253 12.69 6.31104 12.9726 6.31104H15.6778C15.9604 6.31104 16.2027 6.51291 16.243 6.75516L16.7275 9.21804C16.7679 9.41992 16.889 9.58142 17.0909 9.66217C17.4139 9.78329 17.6965 9.90442 17.9792 10.0255C18.181 10.1063 18.3829 10.1063 18.5444 9.98517L20.6439 8.57204C20.8862 8.41054 21.1688 8.45091 21.3707 8.65279L23.2683 10.5504C23.4702 10.7523 23.5105 11.0349 23.349 11.2772L21.9359 13.3767C21.8148 13.5382 21.8148 13.74 21.8955 13.9419C22.0167 14.2245 22.1782 14.5475 22.2589 14.8302C22.3397 15.0321 22.5012 15.1532 22.703 15.1936L25.1659 15.6781C25.4485 15.7184 25.61 15.9607 25.61 16.2433V18.9484C25.61 19.2311 25.4082 19.4733 25.1659 19.5137L22.703 19.9982C22.38 19.9982 22.2185 20.1193 22.1378 20.3212V20.3212Z" fill="#47D681"/>
<path d="M17.1309 25.1258L17.4136 25.3276C17.2924 25.368 17.1713 25.4084 17.0502 25.4891C16.8483 25.5699 16.7272 25.7314 16.6868 25.9333L16.2023 28.3961C16.1619 28.6788 15.9197 28.8403 15.6371 28.8403H14.3047C14.5873 28.8403 14.7892 28.6384 14.8699 28.3961L15.3544 25.9333C15.3948 25.7314 15.5563 25.5699 15.7178 25.4891C16.0408 25.368 16.3234 25.2469 16.6061 25.1258C16.7272 25.0046 16.9694 25.0046 17.1309 25.1258V25.1258Z" fill="#3FC977"/>
<path d="M17.011 9.70211C17.1321 9.74249 17.2532 9.78286 17.3744 9.86361L17.0917 10.0655C16.9302 10.1866 16.7284 10.1866 16.5265 10.1059C16.2439 9.94436 15.9209 9.82324 15.6382 9.74249C15.4364 9.66174 15.3152 9.50024 15.2748 9.29836L14.7903 6.83548C14.75 6.55286 14.5077 6.39136 14.2251 6.39136H15.5575C15.8401 6.39136 16.0824 6.59323 16.1227 6.83548L16.6072 9.29836C16.688 9.45986 16.8091 9.62136 17.011 9.70211Z" fill="#F7AE4D"/>
<path d="M25.5299 16.2432V18.9483C25.5299 19.231 25.328 19.4732 25.0454 19.5136L22.5825 19.9981C22.3806 20.0385 22.2191 20.1596 22.1384 20.3615C22.0173 20.6845 21.8961 20.9671 21.775 21.2497C21.6943 21.4516 21.6943 21.6535 21.8154 21.815L23.2285 23.9145C23.39 24.1567 23.3496 24.4393 23.1478 24.6412L21.2501 26.5389C21.0483 26.7407 20.7656 26.7407 20.5234 26.6196L20.1196 26.337L21.8154 24.6412C22.0173 24.4393 22.0173 24.1567 21.8961 23.9145L20.483 21.7746C20.3619 21.6131 20.3619 21.4112 20.4426 21.2093C20.5638 20.9267 20.7253 20.6037 20.806 20.3211C20.8868 20.1192 21.0483 19.9981 21.2501 19.9577L23.713 19.4732C23.9956 19.4328 24.1975 19.1906 24.1975 18.908V16.2028C24.1975 15.9202 23.9956 15.678 23.713 15.6376L21.2501 15.1531C21.0483 15.1127 20.8868 14.9916 20.806 14.7897C20.7253 14.4667 20.5638 14.1841 20.4426 13.9015C20.3619 13.74 20.3619 13.4977 20.483 13.3362L21.8961 11.2367C22.0576 10.9944 22.0173 10.7118 21.8154 10.5099L20.16 8.85457L20.5638 8.57194C20.806 8.41044 21.0886 8.45082 21.2905 8.65269L23.1881 10.5503C23.39 10.7522 23.39 11.0348 23.2689 11.2771L21.8558 13.3766C21.7346 13.5381 21.7346 13.7803 21.8154 13.9418C21.9769 14.2245 22.098 14.5475 22.1788 14.8301C22.2595 15.032 22.421 15.1531 22.6229 15.1935L25.0858 15.678C25.328 15.7183 25.5299 15.9606 25.5299 16.2432V16.2432Z" fill="#3FC977"/>
<path d="M20.0875 18.5279C20.6091 15.3144 18.4268 12.2865 15.2133 11.7649C11.9997 11.2433 8.97182 13.4256 8.45025 16.6391C7.92868 19.8527 10.1109 22.8806 13.3245 23.4022C16.538 23.9237 19.5659 21.7415 20.0875 18.5279Z" fill="white"/>
<path d="M28.7592 4.4535V12.1248C28.7592 12.9323 28.1132 13.5783 27.3057 13.5783H20.6034C20.4015 13.5783 20.24 13.659 20.0785 13.7801L17.3734 16.4853C17.01 16.8487 16.364 16.6064 16.364 16.0815V14.305C16.364 13.9013 16.041 13.5783 15.6373 13.5783H15.5565C14.749 13.5783 14.103 12.9323 14.103 12.1248V4.4535C14.103 3.646 14.749 3 15.5565 3H27.2653C27.6691 3 27.9921 3.1615 28.2747 3.40375C28.5573 3.646 28.7592 4.04975 28.7592 4.4535V4.4535Z" fill="#FB545C"/>
<path d="M28.7584 4.4535V12.1248C28.7584 12.9323 28.1124 13.5783 27.3049 13.5783H26.0936C26.9011 13.5783 27.5471 12.9323 27.5471 12.1248V4.4535C27.5471 4.04975 27.3856 3.646 27.0626 3.40375C26.8203 3.1615 26.457 3 26.0532 3H27.2645C27.6682 3 27.9912 3.1615 28.2739 3.40375C28.5565 3.646 28.7584 4.04975 28.7584 4.4535Z" fill="#ED4354"/>
<path d="M18.6666 8.00639C18.6666 8.77352 18.0206 9.41952 17.2535 9.41952C16.4863 9.41952 15.8403 8.77352 15.8403 8.00639C15.8403 7.23926 16.4863 6.59326 17.2535 6.59326C18.0206 6.59326 18.6666 7.23926 18.6666 8.00639ZM22.8656 8.00639C22.8656 8.77352 22.2196 9.41952 21.4525 9.41952C20.6853 9.41952 20.0393 8.77352 20.0393 8.00639C20.0393 7.23926 20.6853 6.59326 21.4525 6.59326C22.2196 6.59326 22.8656 7.23926 22.8656 8.00639ZM27.0242 8.00639C27.0242 8.77352 26.3782 9.41952 25.6111 9.41952C24.844 9.41952 24.198 8.77352 24.198 8.00639C24.198 7.23926 24.844 6.59326 25.6111 6.59326C26.3782 6.59326 27.0242 7.23926 27.0242 8.00639Z" fill="white"/>
</svg>
