<svg width="31" height="31" viewBox="0 0 31 31" fill="none" xmlns="http://www.w3.org/2000/svg">
<path d="M28.25 2H2.75C2.33579 2 2 2.33579 2 2.75V28.25C2 28.6642 2.33579 29 2.75 29H28.25C28.6642 29 29 28.6642 29 28.25V2.75C29 2.33579 28.6642 2 28.25 2Z" fill="#EBF3FE"/>
<path d="M29 2.75V6.5H16.25C16.1513 6.49943 16.0534 6.51835 15.9621 6.55567C15.8707 6.593 15.7876 6.64799 15.7175 6.7175L12.9425 9.5H2V2.75C2 2.55109 2.07902 2.36032 2.21967 2.21967C2.36032 2.07902 2.55109 2 2.75 2H28.25C28.4489 2 28.6397 2.07902 28.7803 2.21967C28.921 2.36032 29 2.55109 29 2.75Z" fill="#48BDFF"/>
<path d="M5.75098 6.5C6.16519 6.5 6.50098 6.16421 6.50098 5.75C6.50098 5.33579 6.16519 5 5.75098 5C5.33676 5 5.00098 5.33579 5.00098 5.75C5.00098 6.16421 5.33676 6.5 5.75098 6.5Z" fill="#EBF3FE"/>
<path d="M8.74951 6.5C9.16373 6.5 9.49951 6.16421 9.49951 5.75C9.49951 5.33579 9.16373 5 8.74951 5C8.3353 5 7.99951 5.33579 7.99951 5.75C7.99951 6.16421 8.3353 6.5 8.74951 6.5Z" fill="#EBF3FE"/>
<path d="M11.7505 6.5C12.1647 6.5 12.5005 6.16421 12.5005 5.75C12.5005 5.33579 12.1647 5 11.7505 5C11.3363 5 11.0005 5.33579 11.0005 5.75C11.0005 6.16421 11.3363 6.5 11.7505 6.5Z" fill="#EBF3FE"/>
<path d="M9.5 19.25C9.30109 19.25 9.11032 19.171 8.96967 19.0303C8.82902 18.8897 8.75 18.6989 8.75 18.5C8.75 16.7098 9.46116 14.9929 10.727 13.727C11.9929 12.4612 13.7098 11.75 15.5 11.75C15.6989 11.75 15.8897 11.829 16.0303 11.9697C16.171 12.1103 16.25 12.3011 16.25 12.5C16.25 12.6989 16.171 12.8897 16.0303 13.0303C15.8897 13.171 15.6989 13.25 15.5 13.25C14.1076 13.25 12.7723 13.8031 11.7877 14.7877C10.8031 15.7723 10.25 17.1076 10.25 18.5C10.25 18.6989 10.171 18.8897 10.0303 19.0303C9.88968 19.171 9.69891 19.25 9.5 19.25ZM15.5 25.25C15.3011 25.25 15.1103 25.171 14.9697 25.0303C14.829 24.8897 14.75 24.6989 14.75 24.5C14.75 24.3011 14.829 24.1103 14.9697 23.9697C15.1103 23.829 15.3011 23.75 15.5 23.75C16.8924 23.75 18.2277 23.1969 19.2123 22.2123C20.1969 21.2277 20.75 19.8924 20.75 18.5C20.75 18.3011 20.829 18.1103 20.9697 17.9697C21.1103 17.829 21.3011 17.75 21.5 17.75C21.6989 17.75 21.8897 17.829 22.0303 17.9697C22.171 18.1103 22.25 18.3011 22.25 18.5C22.25 20.2902 21.5388 22.0071 20.273 23.273C19.0071 24.5388 17.2902 25.25 15.5 25.25Z" fill="#2D98F6"/>
<path d="M19.7446 15.005C19.6459 15.0056 19.548 14.9867 19.4567 14.9494C19.3653 14.912 19.2822 14.8571 19.2121 14.7875C18.7246 14.3 18.1458 13.9132 17.5088 13.6493C16.8718 13.3855 16.1891 13.2497 15.4996 13.2497C14.8101 13.2497 14.1274 13.3855 13.4904 13.6493C12.8534 13.9132 12.2746 14.3 11.7871 14.7875C11.6436 14.9104 11.4591 14.9746 11.2703 14.9673C11.0816 14.96 10.9025 14.8818 10.7689 14.7482C10.6354 14.6146 10.5571 14.4356 10.5498 14.2468C10.5425 14.0581 10.6067 13.8735 10.7296 13.73C11.9952 12.466 13.7108 11.756 15.4996 11.756C17.2884 11.756 19.004 12.466 20.2696 13.73C20.4093 13.8706 20.4877 14.0607 20.4877 14.2588C20.4877 14.4569 20.4093 14.647 20.2696 14.7875C20.1299 14.9261 19.9414 15.0042 19.7446 15.005ZM15.4996 25.25C14.613 25.2521 13.7349 25.0782 12.9161 24.7383C12.0973 24.3984 11.3541 23.8994 10.7296 23.27C10.6378 23.2071 10.5611 23.1246 10.5051 23.0284C10.4492 22.9321 10.4153 22.8247 10.4061 22.7138C10.3968 22.6028 10.4123 22.4912 10.4516 22.3871C10.4908 22.2829 10.5527 22.1888 10.6328 22.1115C10.7129 22.0342 10.8092 21.9757 10.9147 21.9403C11.0203 21.9049 11.1323 21.8934 11.2429 21.9067C11.3534 21.9199 11.4595 21.9576 11.5537 22.017C11.6478 22.0764 11.7275 22.156 11.7871 22.25C12.2753 22.7432 12.8564 23.1348 13.4969 23.402C14.1373 23.6692 14.8244 23.8068 15.5184 23.8068C16.2123 23.8068 16.8994 23.6692 17.5398 23.402C18.1803 23.1348 18.7614 22.7432 19.2496 22.25C19.3168 22.1715 19.3996 22.1078 19.4926 22.0627C19.5857 22.0177 19.687 21.9924 19.7903 21.9884C19.8936 21.9845 19.9966 22.0019 20.0928 22.0396C20.1891 22.0773 20.2765 22.1345 20.3496 22.2076C20.4227 22.2806 20.4799 22.3681 20.5176 22.4643C20.5553 22.5605 20.5727 22.6635 20.5687 22.7668C20.5647 22.8701 20.5394 22.9715 20.4944 23.0645C20.4494 23.1576 20.3856 23.2403 20.3071 23.3075C19.6734 23.9322 18.9224 24.4255 18.0973 24.7588C17.2723 25.0922 16.3894 25.2591 15.4996 25.25V25.25ZM22.9996 19.25C22.8028 19.2492 22.6143 19.1711 22.4746 19.0325L21.4996 18.0575L20.5321 19.0325C20.3916 19.1722 20.2015 19.2506 20.0034 19.2506C19.8052 19.2506 19.6151 19.1722 19.4746 19.0325C19.4043 18.9628 19.3485 18.8799 19.3104 18.7885C19.2724 18.6971 19.2528 18.5991 19.2528 18.5C19.2528 18.401 19.2724 18.303 19.3104 18.2116C19.3485 18.1202 19.4043 18.0373 19.4746 17.9675L20.9746 16.4675C21.1151 16.3279 21.3052 16.2494 21.5034 16.2494C21.7015 16.2494 21.8916 16.3279 22.0321 16.4675L23.5321 17.9675C23.6024 18.0373 23.6582 18.1202 23.6963 18.2116C23.7343 18.303 23.7539 18.401 23.7539 18.5C23.7539 18.5991 23.7343 18.6971 23.6963 18.7885C23.6582 18.8799 23.6024 18.9628 23.5321 19.0325C23.462 19.1021 23.3789 19.157 23.2875 19.1944C23.1962 19.2317 23.0983 19.2506 22.9996 19.25ZM9.4996 20.75C9.30285 20.7492 9.1143 20.6711 8.9746 20.5325L7.4746 19.0325C7.33337 18.8923 7.25364 18.7017 7.25293 18.5027C7.25223 18.3037 7.33062 18.1125 7.47085 17.9713C7.61108 17.8301 7.80168 17.7503 8.0007 17.7496C8.19972 17.7489 8.39087 17.8273 8.5321 17.9675L9.4996 18.9425L10.4746 17.9675C10.6151 17.8279 10.8052 17.7494 11.0034 17.7494C11.2015 17.7494 11.3916 17.8279 11.5321 17.9675C11.6024 18.0373 11.6582 18.1202 11.6963 18.2116C11.7343 18.303 11.7539 18.401 11.7539 18.5C11.7539 18.5991 11.7343 18.6971 11.6963 18.7885C11.6582 18.8799 11.6024 18.9628 11.5321 19.0325L10.0321 20.5325C9.96202 20.6021 9.87891 20.657 9.78753 20.6944C9.69615 20.7317 9.59831 20.7506 9.4996 20.75Z" fill="#2D98F6"/>
</svg>
