<svg width="20" height="29" viewBox="0 0 20 29" fill="none" xmlns="http://www.w3.org/2000/svg">
<path d="M0 27.6769V4.2186C0 3.48907 0.593594 2.89548 1.32313 2.89548H18.628C19.3575 2.89548 19.9511 3.48907 19.9511 4.2186V27.6769C19.9511 28.4064 19.3575 29 18.628 29H1.31859C0.589062 29 0 28.4064 0 27.6769Z" fill="#5E5E61"/>
<path d="M18.456 4.42703V24.4325L15.3385 27.5455H1.49097V4.42703H18.456Z" fill="#F9F9F9"/>
<path d="M18.4559 24.4325L15.3384 27.5455V24.4325H18.4559Z" fill="#E1E2E0"/>
<path d="M11.7226 1.69016C11.7069 1.23668 11.5158 0.80698 11.1895 0.491672C10.8632 0.176363 10.4273 8.33714e-05 9.97351 0C9.02647 0 8.26069 0.752188 8.22444 1.69016H6.17179C5.80929 1.69016 5.51929 1.98469 5.51929 2.34266V4.80766C5.51929 5.17016 5.81382 5.46016 6.17179 5.46016H13.7752C14.1377 5.46016 14.4277 5.16562 14.4277 4.80766V2.34266C14.4277 1.98016 14.1332 1.69016 13.7752 1.69016H11.7226ZM9.73335 2.70062C9.36632 2.61453 9.08085 2.30187 9.01741 1.93484C8.90866 1.31406 9.37991 0.783906 9.97351 0.783906C10.5127 0.783906 10.9477 1.21891 10.9477 1.75813C10.9477 2.36984 10.3723 2.85016 9.73335 2.70062Z" fill="#67C1E8"/>
<path d="M2.5332 6.84219H9.16242V7.59438H2.5332V6.84219ZM2.5332 8.58673H9.16242V9.33891H2.5332V8.58673ZM2.5332 10.3358H9.16242V11.088H2.5332V10.3358ZM2.5332 12.0803H9.16242V12.8325H2.5332V12.0803ZM2.5332 13.8249H17.4138V14.577H2.5332V13.8249ZM2.5332 15.5739H17.4138V16.3261H2.5332V15.5739ZM2.5332 17.3184H17.4138V18.0706H2.5332V17.3184ZM2.5332 19.063H17.4138V19.8152H2.5332V19.063Z" fill="#E1E2E0"/>
<path d="M10.1365 9.55641H11.3735V12.8325H10.1365V9.55641Z" fill="#A488B7"/>
<path d="M12.0396 8.30125H13.2766V12.828H12.0396V8.30125Z" fill="#7CA3C2"/>
<path d="M13.9426 6.84219H15.1797V12.8325H13.9426V6.84219Z" fill="#DA4765"/>
<path d="M15.8459 8.93109H17.083V12.8325H15.8459V8.93109Z" fill="#59CBEF"/>
<path d="M9.01714 23.3994C9.01714 23.7636 8.94541 24.1242 8.80605 24.4606C8.66668 24.7971 8.46242 25.1028 8.20491 25.3603C7.9474 25.6178 7.64169 25.8221 7.30524 25.9614C6.96879 26.1008 6.60819 26.1725 6.24401 26.1725C5.5085 26.1721 4.80307 25.8805 4.28198 25.3614L6.24401 23.3994L8.20151 21.4419C8.45995 21.6982 8.66509 22.0031 8.80508 22.3391C8.94507 22.675 9.01714 23.0354 9.01714 23.3994Z" fill="#A488B7"/>
<path d="M6.24408 20.6263V23.3994L4.28205 25.3614C4.02419 25.104 3.81978 24.7981 3.68058 24.4614C3.54138 24.1247 3.47014 23.7637 3.47095 23.3994C3.47095 22.6639 3.76312 21.9585 4.28318 21.4385C4.80325 20.9184 5.5086 20.6263 6.24408 20.6263Z" fill="#ED9155"/>
<path d="M8.20164 21.4419L6.24414 23.3994V20.6263C7.00992 20.6263 7.7032 20.9389 8.20164 21.4419Z" fill="#DA4765"/>
</svg>
