<svg width="35" height="31" viewBox="0 0 35 31" fill="none" xmlns="http://www.w3.org/2000/svg">
<path d="M0 17.5501L8.64 21.8701V30.5101L0 26.1901V21.8701V17.5501Z" fill="#60C5B8"/>
<path fill-rule="evenodd" clip-rule="evenodd" d="M0 17.55L8.64 21.87L17.28 17.55L8.64 13.23L0 17.55Z" fill="#576D7E"/>
<path d="M17.28 17.5501L8.64 21.8701V30.5101L17.28 26.1901V21.8701V17.5501Z" fill="#25B39E"/>
<path d="M17.28 17.5501L25.92 21.8701V30.5101L17.28 26.1901V21.8701V17.5501Z" fill="#78C8F0"/>
<path fill-rule="evenodd" clip-rule="evenodd" d="M17.28 17.55L25.92 21.87L34.56 17.55L25.92 13.23L17.28 17.55Z" fill="#19A9DF"/>
<path d="M34.56 17.5501L25.92 21.8701V30.5101L34.56 26.1901V21.8701V17.5501Z" fill="#4BBFEB"/>
<path d="M8.64 4.59137L17.28 8.91137V17.5514L8.64 13.2314V8.91137V4.59137Z" fill="#FCD062"/>
<path fill-rule="evenodd" clip-rule="evenodd" d="M8.64 4.58999L17.28 8.90999L25.92 4.58999L17.28 0.269989L8.64 4.58999Z" fill="#F05542"/>
<path d="M25.92 4.59137L17.28 8.91137V17.5514L25.92 13.2314V8.91137V4.59137Z" fill="#F8B84E"/>
</svg>
