<svg width="32" height="32" viewBox="0 0 32 32" fill="none" xmlns="http://www.w3.org/2000/svg">
<path fill-rule="evenodd" clip-rule="evenodd" d="M27.9862 8.14837C28.1551 8.82549 28.324 9.50255 28.495 10.1792L28.4931 10.1799C28.6052 10.6223 28.7225 11.0635 28.8396 11.5045C28.8933 11.7064 28.9469 11.9082 29 12.1101V12.7703C28.9733 12.8739 28.9487 12.9784 28.9242 13.083C28.87 13.3139 28.8157 13.5451 28.7373 13.7675C27.7776 16.4941 24.4583 17.2477 22.4359 15.2024C22.3588 15.1244 22.2864 15.0414 22.2105 14.9544C22.1718 14.91 22.1322 14.8646 22.0905 14.8182C21.2987 15.8078 20.3008 16.37 19.0435 16.3688C17.7874 16.3675 16.7908 15.8034 16.0009 14.8131C15.2103 15.804 14.2131 16.3675 12.9563 16.3688C11.692 16.3707 10.6915 15.797 9.91372 14.8258C9.8989 14.838 9.88759 14.8469 9.87866 14.8539C9.86384 14.8655 9.8556 14.872 9.84885 14.8799C9.82589 14.9066 9.80338 14.9335 9.78089 14.9605C9.74917 14.9985 9.71751 15.0364 9.68476 15.0732C9.14035 15.6838 8.47764 16.108 7.67374 16.2746C5.93301 16.6353 4.25907 15.8231 3.46534 14.2293C3.10982 13.5144 2.87641 12.7557 3.06975 11.9518C3.40712 10.5507 3.76001 9.15345 4.11292 7.75617C4.23371 7.27794 4.3545 6.79969 4.47467 6.32128C4.68709 5.47668 5.29256 5.00095 6.16452 5.00095C12.7229 4.99968 19.2807 4.99968 25.8385 5.00095C26.7123 5.00095 27.3159 5.47477 27.5283 6.31938C27.682 6.92897 27.8341 7.5387 27.9862 8.14837ZM21.9026 17.1638C22.0317 17.0894 22.122 17.0582 22.2645 17.1466V17.146C23.8227 18.1146 25.4585 18.2571 27.1648 17.5823C27.2043 17.5667 27.2448 17.5537 27.2921 17.5386C27.318 17.5303 27.3458 17.5214 27.3766 17.5111V17.7807V25.9298C27.3766 27.093 26.7171 27.7487 25.5481 27.7487H19.557H19.246V21.2609H12.7614V27.7487H12.4644C11.793 27.7487 11.1216 27.7488 10.4503 27.7489C9.10769 27.749 7.76519 27.7491 6.42242 27.7487C5.29352 27.7487 4.62763 27.0803 4.62763 25.9469V17.7725V17.5136C4.70767 17.5413 4.78546 17.5691 4.86191 17.5965C5.01932 17.6528 5.17099 17.7071 5.32468 17.7534C6.88161 18.2234 8.34949 18.0122 9.72579 17.1562C9.85871 17.0735 9.95029 17.0735 10.0877 17.153C11.9931 18.2565 13.9062 18.2577 15.8136 17.1587C15.9611 17.0735 16.054 17.0818 16.1971 17.1638C18.0968 18.2545 20.0022 18.2533 21.9026 17.1638Z" fill="black"/>
</svg>
