<svg width="64" height="64" viewBox="0 0 64 64" fill="none" xmlns="http://www.w3.org/2000/svg">
<path fill-rule="evenodd" clip-rule="evenodd" d="M55.9724 16.2967C56.3102 17.651 56.648 19.0051 56.99 20.3584L56.9862 20.3598C57.2104 21.2446 57.445 22.127 57.6792 23.009C57.7866 23.4128 57.8938 23.8164 58 24.2202V25.5406C57.9466 25.7478 57.8974 25.9568 57.8484 26.166C57.74 26.6278 57.6314 27.0902 57.4746 27.535C55.5552 32.9882 48.9166 34.4954 44.8718 30.4048C44.7176 30.2488 44.5728 30.0828 44.421 29.9088C44.3436 29.82 44.2644 29.7292 44.181 29.6364C42.5974 31.6156 40.6016 32.74 38.087 32.7376C35.5748 32.735 33.5816 31.6068 32.0018 29.6262C30.4206 31.608 28.4262 32.735 25.9126 32.7376C23.384 32.7414 21.383 31.594 19.8274 29.6516C19.7978 29.676 19.7752 29.6938 19.7573 29.7078C19.7277 29.731 19.7112 29.744 19.6977 29.7598C19.6518 29.8132 19.6068 29.867 19.5618 29.921C19.4983 29.997 19.435 30.0728 19.3695 30.1464C18.2807 31.3676 16.9553 32.216 15.3475 32.5492C11.866 33.2706 8.51814 31.6462 6.93068 28.4586C6.21964 27.0288 5.75282 25.5114 6.1395 23.9036C6.81424 21.1014 7.52002 18.3069 8.22584 15.5123C8.46742 14.5559 8.709 13.5994 8.94934 12.6426C9.37418 10.9534 10.5851 10.0019 12.329 10.0019C25.4458 9.99937 38.5614 9.99937 51.677 10.0019C53.4246 10.0019 54.6318 10.9495 55.0566 12.6388C55.364 13.8579 55.6682 15.0774 55.9724 16.2967ZM43.8052 34.3276C44.0634 34.1788 44.244 34.1164 44.529 34.2932V34.292C47.6454 36.2292 50.917 36.5142 54.3296 35.1646C54.4086 35.1334 54.4896 35.1074 54.5842 35.0772C54.636 35.0606 54.6916 35.0428 54.7532 35.0222V35.5614V51.8596C54.7532 54.186 53.4342 55.4974 51.0962 55.4974H39.114H38.492V42.5218H25.5228V55.4974H24.9288C23.586 55.4974 22.2432 55.4976 20.9006 55.4978C18.2154 55.498 15.5304 55.4982 12.8448 55.4974C10.587 55.4974 9.25526 54.1606 9.25526 51.8938V35.545V35.0272C9.41534 35.0826 9.57092 35.1382 9.72382 35.193C10.0386 35.3056 10.342 35.4142 10.6494 35.5068C13.7632 36.4468 16.699 36.0244 19.4516 34.3124C19.7174 34.147 19.9006 34.147 20.1754 34.306C23.9862 36.513 27.8124 36.5154 31.6272 34.3174C31.9222 34.147 32.108 34.1636 32.3942 34.3276C36.1936 36.509 40.0044 36.5066 43.8052 34.3276Z" fill="white"/>
</svg>
