<svg width="32" height="32" viewBox="0 0 32 32" fill="none" xmlns="http://www.w3.org/2000/svg">
<path d="M26 2H6C5.20435 2 4.44129 2.31607 3.87868 2.87868C3.31607 3.44129 3 4.20435 3 5V12C3.00421 12.6981 3.19104 13.3829 3.5419 13.9863C3.89276 14.5898 4.39545 15.091 5 15.44V27C5 27.7956 5.31607 28.5587 5.87868 29.1213C6.44129 29.6839 7.20435 30 8 30H24C24.7956 30 25.5587 29.6839 26.1213 29.1213C26.6839 28.5587 27 27.7956 27 27V15.44C27.6046 15.091 28.1072 14.5898 28.4581 13.9863C28.809 13.3829 28.9958 12.6981 29 12V5C29 4.20435 28.6839 3.44129 28.1213 2.87868C27.5587 2.31607 26.7956 2 26 2ZM27 5V10H23V4H26C26.2652 4 26.5196 4.10536 26.7071 4.29289C26.8946 4.48043 27 4.73478 27 5ZM5 12H9C9 12.5304 8.78929 13.0391 8.41421 13.4142C8.03914 13.7893 7.53043 14 7 14C6.46957 14 5.96086 13.7893 5.58579 13.4142C5.21071 13.0391 5 12.5304 5 12ZM15 12C15 12.5304 14.7893 13.0391 14.4142 13.4142C14.0391 13.7893 13.5304 14 13 14C12.4696 14 11.9609 13.7893 11.5858 13.4142C11.2107 13.0391 11 12.5304 11 12H15ZM21 12C21 12.5304 20.7893 13.0391 20.4142 13.4142C20.0391 13.7893 19.5304 14 19 14C18.4696 14 17.9609 13.7893 17.5858 13.4142C17.2107 13.0391 17 12.5304 17 12H21ZM21 10H17V4H21V10ZM15 10H11V4H15V10ZM5 5C5 4.73478 5.10536 4.48043 5.29289 4.29289C5.48043 4.10536 5.73478 4 6 4H9V10H5V5ZM14 28V21H18V28H14ZM25 27C25 27.2652 24.8946 27.5196 24.7071 27.7071C24.5196 27.8946 24.2652 28 24 28H20V20C20 19.7348 19.8946 19.4804 19.7071 19.2929C19.5196 19.1054 19.2652 19 19 19H13C12.7348 19 12.4804 19.1054 12.2929 19.2929C12.1054 19.4804 12 19.7348 12 20V28H8C7.73478 28 7.48043 27.8946 7.29289 27.7071C7.10536 27.5196 7 27.2652 7 27V16C7.56947 15.9968 8.13169 15.872 8.64905 15.634C9.16642 15.396 9.627 15.0503 10 14.62C10.3754 15.0456 10.837 15.3865 11.3542 15.62C11.8715 15.8535 12.4325 15.9742 13 15.9742C13.5675 15.9742 14.1285 15.8535 14.6458 15.62C15.163 15.3865 15.6246 15.0456 16 14.62C16.3754 15.0456 16.837 15.3865 17.3542 15.62C17.8715 15.8535 18.4325 15.9742 19 15.9742C19.5675 15.9742 20.1285 15.8535 20.6458 15.62C21.163 15.3865 21.6246 15.0456 22 14.62C22.373 15.0503 22.8336 15.396 23.3509 15.634C23.8683 15.872 24.4305 15.9968 25 16V27ZM25 14C24.4696 14 23.9609 13.7893 23.5858 13.4142C23.2107 13.0391 23 12.5304 23 12H27C27 12.5304 26.7893 13.0391 26.4142 13.4142C26.0391 13.7893 25.5304 14 25 14Z" fill="black"/>
</svg>
