<svg width="27" height="31" viewBox="0 0 27 31" fill="none" xmlns="http://www.w3.org/2000/svg">
<path d="M26.6124 6.10462H21.2232C20.9847 6.10462 20.7939 5.91385 20.7939 5.67539V0.286156L26.6124 6.10462Z" fill="#BCD6EF"/>
<path d="M19.2677 2.4323H9.20459V3.95846H19.2677V2.4323Z" fill="#1FA6F8"/>
<path d="M24.8 12.2092L25.2292 13.7831L24.0846 14.9277L22.5108 14.4985L22.0815 12.9246L23.2262 11.78L24.8 12.2092Z" fill="#1FA6F8"/>
<path d="M20.937 13.7831L19.7924 14.9277L19.0293 14.7369V11.8277L20.5078 12.2092L20.937 13.7831Z" fill="#0FCAAD"/>
<path d="M24.9906 18.1708H20.5076V18.9338H24.9906V18.1708Z" fill="#BCD6EF"/>
<path d="M24.9906 20.3169H20.5076V21.08H24.9906V20.3169Z" fill="#BCD6EF"/>
<path d="M24.9906 22.4631H20.5076V23.2262H24.9906V22.4631Z" fill="#BCD6EF"/>
<path d="M14.0215 3.1H10.5876V3.33846H14.0215V3.1Z" fill="white"/>
<path d="M16.5015 3.1H15.1184V3.33846H16.5015V3.1Z" fill="white"/>
<path d="M19.1246 10.9215H13.7354C13.4969 10.9215 13.3062 10.7308 13.3062 10.4923V5.10308L19.1246 10.9215Z" fill="#1FA6F8"/>
<path d="M11.5891 7.20154H1.7168V8.96615H11.5891V7.20154Z" fill="#1FA6F8"/>
<path d="M6.43851 19.3154L6.00928 17.7415L7.15389 16.5969L8.72774 17.0262L9.15697 18.5523L7.96466 19.6969L6.43851 19.3154Z" fill="#1FA6F8"/>
<path d="M4.86449 18.5523L3.67218 19.6969L2.14603 19.3154L1.7168 17.7415L2.86141 16.5969L4.43526 17.0262L4.86449 18.5523Z" fill="#BCD6EF"/>
<path d="M17.3125 17.0262L17.694 18.5523L16.5494 19.6969L15.0232 19.3154L14.594 17.7415L15.7386 16.5969L17.3125 17.0262Z" fill="#0FCAAD"/>
<path d="M13.02 17.0262L13.4015 18.5523L12.2569 19.6969L10.7307 19.3154L10.3015 17.7415L11.4461 16.5969L13.02 17.0262Z" fill="#BCD6EF"/>
<path d="M17.4554 22.9877H13.5923V23.7508H17.4554V22.9877Z" fill="#BCD6EF"/>
<path d="M17.4554 25.1338H13.5923V25.8969H17.4554V25.1338Z" fill="#BCD6EF"/>
<path d="M17.4554 27.28H13.5923V28.0431H17.4554V27.28Z" fill="#BCD6EF"/>
<path d="M12.3046 22.1292H10.7307V28.9015H12.3046V22.1292Z" fill="#FF9889"/>
<path d="M26.8031 4.91231C20.0308 -1.86 22.5108 0.62 21.9385 0.0476923L21.8431 0H7.53539V4.81692H0V31H19.2677C19.2677 29.14 19.2677 27.5662 19.2677 26.1831H26.7554C26.8031 21.7954 26.8031 15.5954 26.8031 4.91231ZM21.9862 0.810769L25.9446 4.76923H21.9862V0.810769ZM18.4569 9.58615H14.4508V5.62769C14.88 6.00923 18.0277 9.20462 18.4569 9.58615ZM18.7908 30.5231H0.476923V5.29385C1.86 5.29385 -4.53077 5.29385 13.9738 5.29385V9.82462C13.9738 9.96769 14.0692 10.0631 14.2123 10.0631H18.7908V26.1831V30.5231ZM19.2677 25.7062C19.2677 15.9292 19.2677 18.0754 19.2677 9.72923L14.3554 4.81692H8.01231V0.476923H21.5092V5.00769C21.5092 5.15077 21.6046 5.24615 21.7477 5.24615H26.3262V25.7062H19.2677Z" fill="#222F59"/>
<path d="M9.44299 23.0831H7.86914V28.9492H9.44299V23.0831Z" fill="#222F59"/>
<path d="M6.53381 23.9892H4.95996V28.9015H6.53381V23.9892Z" fill="#BCD6EF"/>
<path d="M3.67248 24.9431H2.09863V28.9015H3.67248V24.9431Z" fill="#0FCAAD"/>
<path d="M6.4384 7.96461H3.05225V8.20308H6.4384V7.96461Z" fill="white"/>
<path d="M8.82318 7.96461H7.48779V8.20308H8.82318V7.96461Z" fill="white"/>
<path d="M12.1137 10.2538H1.7168V10.7308H12.1137V10.2538Z" fill="#BCD6EF"/>
<path d="M14.5937 11.7323H1.7168V12.2092H14.5937V11.7323Z" fill="#BCD6EF"/>
<path d="M17.4553 13.2585H1.7168V13.7354H17.4553V13.2585Z" fill="#BCD6EF"/>
<path d="M17.4553 14.7369H1.7168V15.2138H17.4553V14.7369Z" fill="#BCD6EF"/>
</svg>
