<svg width="31" height="31" viewBox="0 0 31 31" fill="none" xmlns="http://www.w3.org/2000/svg">
<path d="M30.9276 22.3889C30.9276 23.3024 30.5647 24.1785 29.9188 24.8245C29.2728 25.4704 28.3967 25.8333 27.4832 25.8333H6.81651C5.90299 25.8333 5.02688 25.4704 4.38093 24.8245C3.73497 24.1785 3.37207 23.3024 3.37207 22.3889V5.4362C3.37207 3.534 8.35876 1.90735e-06 10.261 1.90735e-06H26.2992C28.9634 1.90735e-06 30.9276 1.99175 30.9276 4.62848V22.3889Z" fill="#F4900C"/>
<path d="M29.2054 25.8333C29.2054 26.7469 28.8425 27.623 28.1965 28.2689C27.5505 28.9149 26.6744 29.2778 25.7609 29.2778H8.53868C7.62516 29.2778 6.74905 28.9149 6.10309 28.2689C5.45714 27.623 5.09424 26.7469 5.09424 25.8333V5.16667C5.09424 1.61975 5.07616 1.72222 9.3998 1.72222H25.7609C26.6744 1.72222 27.5505 2.08512 28.1965 2.73108C28.8425 3.37704 29.2054 4.25314 29.2054 5.16667V25.8333Z" fill="#CCD6DD"/>
<path d="M27.4832 26.6944C27.4832 27.3796 27.211 28.0367 26.7265 28.5211C26.2421 29.0056 25.585 29.2778 24.8998 29.2778H5.9554C5.27026 29.2778 4.61318 29.0056 4.12871 28.5211C3.64424 28.0367 3.37207 27.3796 3.37207 26.6944V6.02778C3.37207 5.34264 3.64424 4.68555 4.12871 4.20109C4.61318 3.71662 5.27026 3.44444 5.9554 3.44444H24.8998C25.585 3.44444 26.2421 3.71662 26.7265 4.20109C27.211 4.68555 27.4832 5.34264 27.4832 6.02778V26.6944Z" fill="#E1E8ED"/>
<path d="M27.4832 27.5556C27.4832 28.4691 27.1203 29.3452 26.4743 29.9911C25.8283 30.6371 24.9522 31 24.0387 31H7.6776C6.76408 31 5.88797 30.6371 5.24201 29.9911C4.59605 29.3452 4.23315 28.4691 4.23315 27.5556V8.61111C4.23315 7.69759 4.59605 6.82148 5.24201 6.17552C5.88797 5.52956 6.76408 5.16667 7.6776 5.16667H24.0387C24.9522 5.16667 25.8283 5.52956 26.4743 6.17552C27.1203 6.82148 27.4832 7.69759 27.4832 8.61111V27.5556Z" fill="#FFAC33"/>
<path d="M25.7609 27.5556C25.7609 28.4691 25.398 29.3452 24.7521 29.9911C24.1061 30.6371 23.23 31 22.3165 31H7.6776C6.76408 31 5.88797 30.6371 5.24201 29.9911C4.59605 29.3452 4.23315 28.4691 4.23315 27.5556V10.3333C4.23315 9.41981 4.59605 8.5437 5.24201 7.89774C5.88797 7.25178 6.76408 6.88889 7.6776 6.88889H22.605C24.5072 6.88889 25.7609 8.14267 25.7609 10.0449V27.5556Z" fill="#FFCC4D"/>
<path d="M7.67763 5.16667C6.22493 5.16667 6.18704 3.51161 6.81651 2.79861C7.53296 1.98831 8.64638 1.72222 10.6381 1.72222H11.9832V0H9.64182C6.22493 0 3.37207 2.15278 3.37207 4.62847V27.5556C3.37207 28.4691 3.73497 29.3452 4.38092 29.9911C5.02688 30.6371 5.90299 31 6.81651 31H8.53874V5.16667H7.67763Z" fill="#F4900C"/>
<path d="M7.28229 28.3986C7.28229 29.0031 6.70793 29.4931 5.99924 29.4931C5.2914 29.4931 4.71704 29.0031 4.71704 28.3986C4.71704 27.7949 5.2914 27.3041 5.99924 27.3041C6.70793 27.3041 7.28229 27.7949 7.28229 28.3986Z" fill="#662113"/>
<path d="M5.86417 27.7889C5.45169 27.8363 5.18217 28.111 4.98928 28.4167C4.72492 28.8343 4.12128 29.2778 3.37211 29.2778C2.42144 29.2778 1.64989 28.7 1.64989 27.9861C1.64989 27.2714 2.42144 26.6944 3.37211 26.6944V24.9748C1.50694 24.9929 0 26.3319 0 27.9861C0 29.6506 1.52589 31 3.40828 31C5.00478 31 6.29042 30.1001 6.76747 28.7869C7.00514 28.1334 6.36361 27.7338 5.86417 27.7889Z" fill="#66757F"/>
<path d="M7.28229 21.5097C7.28229 22.1142 6.70793 22.6042 5.99924 22.6042C5.2914 22.6042 4.71704 22.1142 4.71704 21.5097C4.71704 20.9061 5.2914 20.4152 5.99924 20.4152C6.70793 20.4152 7.28229 20.9061 7.28229 21.5097Z" fill="#662113"/>
<path d="M5.86417 20.9C5.45169 20.9474 5.18217 21.2221 4.98928 21.5278C4.72492 21.9454 4.12128 22.3889 3.37211 22.3889C2.42144 22.3889 1.64989 21.8111 1.64989 21.0972C1.64989 20.3825 2.42144 19.8056 3.37211 19.8056V18.0859C1.50694 18.104 0 19.443 0 21.0972C0 22.7617 1.52589 24.1111 3.40828 24.1111C5.00478 24.1111 6.29042 23.2112 6.76747 21.8981C7.00514 21.2445 6.36361 20.8449 5.86417 20.9Z" fill="#66757F"/>
<path d="M7.28229 14.6208C7.28229 15.2253 6.70793 15.7153 5.99924 15.7153C5.2914 15.7153 4.71704 15.2253 4.71704 14.6208C4.71704 14.0172 5.2914 13.5263 5.99924 13.5263C6.70793 13.5263 7.28229 14.0172 7.28229 14.6208Z" fill="#662113"/>
<path d="M5.86417 14.0111C5.45169 14.0585 5.18217 14.3332 4.98928 14.6389C4.72492 15.0565 4.12128 15.5 3.37211 15.5C2.42144 15.5 1.64989 14.9222 1.64989 14.2083C1.64989 13.4936 2.42144 12.9167 3.37211 12.9167V11.197C1.50694 11.2151 0 12.5541 0 14.2083C0 15.8729 1.52589 17.2222 3.40828 17.2222C5.00478 17.2222 6.29042 16.3224 6.76747 15.0092C7.00514 14.3556 6.36361 13.956 5.86417 14.0111Z" fill="#66757F"/>
<path d="M7.28229 7.73191C7.28229 8.33641 6.70793 8.82639 5.99924 8.82639C5.2914 8.82639 4.71704 8.33641 4.71704 7.73191C4.71704 7.12827 5.2914 6.63744 5.99924 6.63744C6.70793 6.63744 7.28229 7.12827 7.28229 7.73191Z" fill="#662113"/>
<path d="M5.86417 7.12225C5.45169 7.16961 5.18217 7.44431 4.98928 7.75C4.72492 8.16764 4.12128 8.61111 3.37211 8.61111C2.42144 8.61111 1.64989 8.03331 1.64989 7.31945C1.64989 6.60472 2.42144 6.02778 3.37211 6.02778V4.30814C1.50694 4.32622 0 5.66525 0 7.31945C0 8.98397 1.52589 10.3333 3.40828 10.3333C5.00478 10.3333 6.29042 9.43347 6.76747 8.12028C7.00514 7.4667 6.36361 7.06714 5.86417 7.12225Z" fill="#66757F"/>
</svg>
