<svg width="31" height="31" viewBox="0 0 31 31" fill="none" xmlns="http://www.w3.org/2000/svg">
<g clip-path="url(#clip0_205_636)">
<path fill-rule="evenodd" clip-rule="evenodd" d="M3.52881 9.05392L27.4952 21.9592ZM27.4681 9.05588L3.46875 21.979Z" fill="#546E7A"/>
<path d="M3.52881 9.05392L27.4952 21.9592M27.4681 9.05588L3.46875 21.979" stroke="#455A64" stroke-dasharray="1 1"/>
<path d="M15.5 1.69534V29.3531" stroke="#455A64" stroke-dasharray="1 1"/>
<path fill-rule="evenodd" clip-rule="evenodd" d="M2.90625 21.5547V9.4603ZM3.5311 8.33463L14.8693 1.35719ZM16.088 1.33058L27.4394 8.31576ZM28.0938 9.42979V21.5847ZM27.4568 22.6731L16.1302 29.6433ZM14.8674 29.6433L3.49912 22.6475Z" fill="#546E7A"/>
<path d="M2.90625 21.5547V9.4603M3.5311 8.33463L14.8693 1.35719M16.088 1.33058L27.4394 8.31576M28.0938 9.42979V21.5847M27.4568 22.6731L16.1302 29.6433M14.8674 29.6433L3.49912 22.6475" stroke="#455A64" stroke-dasharray="1 1"/>
<path d="M15.5 1.69534C15.9013 1.69534 16.2266 1.37005 16.2266 0.968781C16.2266 0.567511 15.9013 0.242218 15.5 0.242218C15.0987 0.242218 14.7734 0.567511 14.7734 0.968781C14.7734 1.37005 15.0987 1.69534 15.5 1.69534Z" stroke="#455A64" stroke-linecap="round" stroke-linejoin="round"/>
<path d="M15.5 30.7578C15.9013 30.7578 16.2266 30.4325 16.2266 30.0313C16.2266 29.63 15.9013 29.3047 15.5 29.3047C15.0987 29.3047 14.7734 29.63 14.7734 30.0313C14.7734 30.4325 15.0987 30.7578 15.5 30.7578Z" stroke="#455A64" stroke-linecap="round" stroke-linejoin="round"/>
<path d="M28.0938 7.99222C27.6925 7.99222 27.3672 8.31751 27.3672 8.71878C27.3672 9.12005 27.6925 9.44534 28.0938 9.44534C28.495 9.44534 28.8203 9.12005 28.8203 8.71878C28.8203 8.31751 28.495 7.99222 28.0938 7.99222Z" stroke="#455A64" stroke-linecap="round" stroke-linejoin="round"/>
<path d="M2.90625 7.99222C2.50498 7.99222 2.17969 8.31751 2.17969 8.71878C2.17969 9.12005 2.50498 9.44534 2.90625 9.44534C3.30752 9.44534 3.63281 9.12005 3.63281 8.71878C3.63281 8.31751 3.30752 7.99222 2.90625 7.99222Z" stroke="#455A64" stroke-linecap="round" stroke-linejoin="round"/>
<path d="M28.0938 21.5547C27.6925 21.5547 27.3672 21.88 27.3672 22.2813C27.3672 22.6825 27.6925 23.0078 28.0938 23.0078C28.495 23.0078 28.8203 22.6825 28.8203 22.2813C28.8203 21.88 28.495 21.5547 28.0938 21.5547Z" stroke="#455A64" stroke-linecap="round" stroke-linejoin="round"/>
<path d="M2.90625 21.5547C2.50498 21.5547 2.17969 21.88 2.17969 22.2813C2.17969 22.6825 2.50498 23.0078 2.90625 23.0078C3.30752 23.0078 3.63281 22.6825 3.63281 22.2813C3.63281 21.88 3.30752 21.5547 2.90625 21.5547Z" stroke="#455A64" stroke-linecap="round" stroke-linejoin="round"/>
<path d="M6.12057 15.0156H10.3482C10.5797 15.0151 10.809 15.0604 11.023 15.1488C11.237 15.2371 11.4314 15.3669 11.595 15.5307C11.7587 15.6944 11.8884 15.8889 11.9766 16.1029C12.0649 16.3169 12.11 16.5463 12.1094 16.7778V21.7974H4.35938V16.7773C4.35887 16.5459 4.40407 16.3166 4.4924 16.1027C4.58073 15.8888 4.71044 15.6945 4.87408 15.5308C5.03772 15.3672 5.23208 15.2375 5.44599 15.1491C5.65989 15.0608 5.88914 15.0156 6.12057 15.0161V15.0156Z" fill="#263238"/>
<path d="M8.71875 14.5312C10.0563 14.5312 11.1406 13.4469 11.1406 12.1094C11.1406 10.7718 10.0563 9.6875 8.71875 9.6875C7.38119 9.6875 6.29688 10.7718 6.29688 12.1094C6.29688 13.4469 7.38119 14.5312 8.71875 14.5312Z" fill="#FFC107"/>
<path d="M22.7656 14.5312C24.1032 14.5312 25.1875 13.4469 25.1875 12.1094C25.1875 10.7718 24.1032 9.6875 22.7656 9.6875C21.4281 9.6875 20.3438 10.7718 20.3438 12.1094C20.3438 13.4469 21.4281 14.5312 22.7656 14.5312Z" fill="#FFC107"/>
<path d="M20.6518 15.0156H24.8794C25.1109 15.0151 25.3403 15.0604 25.5542 15.1488C25.7682 15.2371 25.9626 15.3669 26.1263 15.5307C26.2899 15.6944 26.4196 15.8889 26.5079 16.1029C26.5962 16.3169 26.6413 16.5463 26.6406 16.7778V21.7974H18.8906V16.7773C18.8901 16.5459 18.9353 16.3166 19.0237 16.1027C19.112 15.8888 19.2417 15.6945 19.4053 15.5308C19.569 15.3672 19.7633 15.2375 19.9772 15.1491C20.1911 15.0608 20.4204 15.0156 20.6518 15.0161V15.0156Z" fill="#263238"/>
<path d="M15.5 13.0781C17.1051 13.0781 18.4062 11.777 18.4062 10.1719C18.4062 8.5668 17.1051 7.26562 15.5 7.26562C13.8949 7.26562 12.5938 8.5668 12.5938 10.1719C12.5938 11.777 13.8949 13.0781 15.5 13.0781Z" fill="#FFC107"/>
<path d="M10.2809 15.0156C10.2091 15.259 10.1724 15.5113 10.1719 15.765V21.7969H11.1406V15.765C11.1406 15.5857 11.1745 15.4172 11.2239 15.2564C10.9582 15.1002 10.6559 15.0172 10.3477 15.0156H10.2809V15.0156ZM20.6523 15.0156C20.3312 15.0156 20.0347 15.1072 19.7761 15.2559C19.825 15.4172 19.8594 15.5857 19.8594 15.7645V21.7969H20.8281V15.765C20.8281 15.5048 20.7889 15.2539 20.7191 15.0156H20.6523V15.0156Z" fill="#455A64"/>
<path d="M12.8577 13.5625H18.1423C18.4316 13.5619 18.7182 13.6184 18.9856 13.7288C19.253 13.8393 19.496 14.0014 19.7006 14.2061C19.9051 14.4107 20.0672 14.6536 20.1776 14.9211C20.288 15.1885 20.3445 15.4752 20.3438 15.7645V22.7657H10.6563V15.7645C10.6556 15.4752 10.712 15.1885 10.8224 14.9211C10.9328 14.6536 11.0949 14.4107 11.2995 14.2061C11.504 14.0014 11.747 13.8393 12.0144 13.7288C12.2818 13.6184 12.5684 13.5619 12.8577 13.5625V13.5625Z" fill="#263238"/>
<path d="M13.0781 16.4688H12.5938V22.7657H13.0781V16.4688Z" fill="#455A64"/>
<path d="M18.4062 16.4688H17.9219V22.7657H18.4062V16.4688Z" fill="#455A64"/>
<path d="M6.29688 17.4375H5.8125V21.7969H6.29688V17.4375Z" fill="#455A64"/>
<path d="M25.1875 17.4375H24.7031V21.7969H25.1875V17.4375Z" fill="#455A64"/>
</g>
<defs>
<clipPath id="clip0_205_636">
<rect width="31" height="31" fill="white"/>
</clipPath>
</defs>
</svg>
