<svg width="31" height="31" viewBox="0 0 31 31" fill="none" xmlns="http://www.w3.org/2000/svg">
<g clip-path="url(#clip0_205_775)">
<path d="M15.5001 5.16667C21.207 5.16667 25.8334 4.01007 25.8334 2.58333C25.8334 1.1566 21.207 0 15.5001 0C9.79314 0 5.16675 1.1566 5.16675 2.58333C5.16675 4.01007 9.79314 5.16667 15.5001 5.16667Z" fill="#42A5F5"/>
<path d="M24.5417 5.22479V6.38729C24.1284 6.86521 21.0801 7.75 15.5001 7.75C9.92008 7.75 6.87175 6.86521 6.45841 6.38729V5.22479C6.0052 5.05818 5.57197 4.84156 5.16675 4.57896V10.3333C5.16675 12.8456 14.4409 12.9167 15.5001 12.9167C16.5592 12.9167 25.8334 12.8456 25.8334 10.3333V4.59187C25.4276 4.85 24.9944 5.06228 24.5417 5.22479V5.22479ZM24.5417 10.2623C24.1284 10.7402 21.0736 11.625 15.5001 11.625C9.92654 11.625 6.87175 10.7402 6.45841 10.2623V7.84687C9.04175 8.99646 14.6863 9.04167 15.5001 9.04167C16.3138 9.04167 21.9584 8.99646 24.5417 7.84687V10.2623Z" fill="#424242"/>
<path d="M9.04167 25.2263V26.4792H0V23.8958C0 23.7245 0.068043 23.5603 0.18916 23.4392C0.310277 23.318 0.474548 23.25 0.645833 23.25H2.58333L4.52083 24.5417H8.39583C8.48401 24.5415 8.57128 24.5594 8.65227 24.5943C8.73327 24.6291 8.80627 24.6802 8.86677 24.7443C8.92728 24.8085 8.97401 24.8843 9.00409 24.9672C9.03417 25.0501 9.04696 25.1382 9.04167 25.2263ZM0 27.7708H9.04167V30.3542C9.04167 30.5255 8.97362 30.6897 8.85251 30.8108C8.73139 30.932 8.56712 31 8.39583 31H0.645833C0.474548 31 0.310277 30.932 0.18916 30.8108C0.068043 30.6897 0 30.5255 0 30.3542V27.7708ZM20.0208 25.2263V26.4792H10.9792V23.8958C10.9792 23.7245 11.0472 23.5603 11.1683 23.4392C11.2894 23.318 11.4537 23.25 11.625 23.25H13.5625L15.5 24.5417H19.375C19.4632 24.5415 19.5504 24.5594 19.6314 24.5943C19.7124 24.6291 19.7854 24.6802 19.8459 24.7443C19.9064 24.8085 19.9532 24.8843 19.9833 24.9672C20.0133 25.0501 20.0261 25.1382 20.0208 25.2263ZM10.9792 27.7708H20.0208V30.3542C20.0208 30.5255 19.9528 30.6897 19.8317 30.8108C19.7106 30.932 19.5463 31 19.375 31H11.625C11.4537 31 11.2894 30.932 11.1683 30.8108C11.0472 30.6897 10.9792 30.5255 10.9792 30.3542V27.7708ZM31 25.2263V26.4792H21.9583V23.8958C21.9583 23.7245 22.0264 23.5603 22.1475 23.4392C22.2686 23.318 22.4329 23.25 22.6042 23.25H24.5417L26.4792 24.5417H30.3542C30.4423 24.5415 30.5296 24.5594 30.6106 24.5943C30.6916 24.6291 30.7646 24.6802 30.8251 24.7443C30.8856 24.8085 30.9323 24.8843 30.9624 24.9672C30.9925 25.0501 31.0053 25.1382 31 25.2263ZM21.9583 27.7708H31V30.3542C31 30.5255 30.932 30.6897 30.8108 30.8108C30.6897 30.932 30.5255 31 30.3542 31H22.6042C22.4329 31 22.2686 30.932 22.1475 30.8108C22.0264 30.6897 21.9583 30.5255 21.9583 30.3542V27.7708Z" fill="#42A5F5"/>
<path d="M26.4792 17.4375H16.1458V14.8542C16.1458 14.6829 16.0778 14.5186 15.9567 14.3975C15.8356 14.2764 15.6713 14.2083 15.5 14.2083C15.3287 14.2083 15.1644 14.2764 15.0433 14.3975C14.9222 14.5186 14.8542 14.6829 14.8542 14.8542V17.4375H4.52083C4.34955 17.4375 4.18528 17.5055 4.06416 17.6267C3.94304 17.7478 3.875 17.912 3.875 18.0833V21.3125C3.875 21.4838 3.94304 21.6481 4.06416 21.7692C4.18528 21.8903 4.34955 21.9583 4.52083 21.9583C4.69212 21.9583 4.85639 21.8903 4.97751 21.7692C5.09862 21.6481 5.16667 21.4838 5.16667 21.3125V18.7292H14.8542V21.3125C14.8542 21.4838 14.9222 21.6481 15.0433 21.7692C15.1644 21.8903 15.3287 21.9583 15.5 21.9583C15.6713 21.9583 15.8356 21.8903 15.9567 21.7692C16.0778 21.6481 16.1458 21.4838 16.1458 21.3125V18.7292H25.8333V21.3125C25.8333 21.4838 25.9014 21.6481 26.0225 21.7692C26.1436 21.8903 26.3079 21.9583 26.4792 21.9583C26.6505 21.9583 26.8147 21.8903 26.9358 21.7692C27.057 21.6481 27.125 21.4838 27.125 21.3125V18.0833C27.125 17.912 27.057 17.7478 26.9358 17.6267C26.8147 17.5055 26.6505 17.4375 26.4792 17.4375Z" fill="#424242"/>
</g>
<defs>
<clipPath id="clip0_205_775">
<rect width="31" height="31" fill="white"/>
</clipPath>
</defs>
</svg>
