<svg width="31" height="31" viewBox="0 0 31 31" fill="none" xmlns="http://www.w3.org/2000/svg">
<g clip-path="url(#clip0_207_1128)">
<path d="M25.5609 0.96875V30.0312H5.43994V3.875L8.34619 0.96875H25.5609Z" fill="#E9EDF3"/>
<path d="M8.34619 0.96875V3.875H5.43994L8.34619 0.96875Z" fill="#D5DBE2"/>
<path d="M23.0083 17.2583H7.99268V18.2271H23.0083V17.2583Z" fill="#D5DBE2"/>
<path d="M23.0083 19.1328H7.99268V20.1016H23.0083V19.1328Z" fill="#D5DBE2"/>
<path d="M23.0083 15.3838H7.99268V16.3525H23.0083V15.3838Z" fill="#D5DBE2"/>
<path d="M23.0083 13.5093H7.99268V14.478H23.0083V13.5093Z" fill="#D5DBE2"/>
<path d="M10.8021 10.0304V10.3246H10.3839V10.0165C9.96108 9.96593 9.60245 9.79122 9.31299 9.52467L9.64377 9.11552C9.8598 9.31338 10.1034 9.45124 10.3839 9.51096V8.61448C9.81848 8.46737 9.43694 8.26529 9.43694 7.7227C9.43694 7.22641 9.81848 6.84486 10.3839 6.77594V6.49548H10.8021V6.78044C11.1928 6.822 11.501 6.97807 11.7675 7.208L11.4549 7.63086C11.2526 7.45614 11.032 7.3367 10.8021 7.28613V8.15025C11.432 8.29285 11.8501 8.50888 11.8501 9.06965C11.8502 9.59834 11.4687 9.98439 10.8021 10.0304ZM10.384 8.04006V7.27697C10.1588 7.33224 10.0162 7.49301 10.0162 7.67222C10.0161 7.85614 10.1356 7.95273 10.384 8.04006ZM11.2757 9.12472C11.2757 8.91339 11.1286 8.81685 10.8021 8.72027V9.53857C11.1147 9.5018 11.2757 9.32704 11.2757 9.12472Z" fill="#D5DBE2"/>
<path d="M23.0083 11.6346H7.99268V12.6034H23.0083V11.6346Z" fill="#D5DBE2"/>
<path d="M23.0083 9.76013H14.0474V10.7289H23.0083V9.76013Z" fill="#D5DBE2"/>
<path d="M23.0083 7.88562H14.0474V8.85437H23.0083V7.88562Z" fill="#D5DBE2"/>
<path d="M23.0083 6.01111H14.0474V6.97986H23.0083V6.01111Z" fill="#D5DBE2"/>
<path d="M21.4243 30.0312H28.5781C29.3807 30.0312 30.0313 29.3807 30.0313 28.5781V16.9531C30.0313 16.1506 29.3807 15.5 28.5781 15.5H21.4243C20.6218 15.5 19.9712 16.1506 19.9712 16.9531V28.5781C19.9712 29.3807 20.6218 30.0312 21.4243 30.0312Z" fill="#223531"/>
<path d="M28.5781 17.2908H21.4243V19.2283H28.5781V17.2908Z" fill="#E9EDF3"/>
<path d="M22.8774 20.7792H21.4243V22.2323H22.8774V20.7792Z" fill="#E9EDF3"/>
<path d="M25.7275 20.7792H24.2744V22.2323H25.7275V20.7792Z" fill="#E9EDF3"/>
<path d="M28.5781 20.7792H27.125V22.2323H28.5781V20.7792Z" fill="#E9EDF3"/>
<path d="M22.8774 23.7833H21.4243V25.2365H22.8774V23.7833Z" fill="#E9EDF3"/>
<path d="M25.7275 23.7833H24.2744V25.2365H25.7275V23.7833Z" fill="#E9EDF3"/>
<path d="M28.5781 23.7833H27.125V25.2365H28.5781V23.7833Z" fill="#E9EDF3"/>
<path d="M22.8774 26.7874H21.4243V28.2405H22.8774V26.7874Z" fill="#E9EDF3"/>
<path d="M25.7275 26.7874H24.2744V28.2405H25.7275V26.7874Z" fill="#E9EDF3"/>
<path d="M28.5781 26.7874H27.125V28.2405H28.5781V26.7874Z" fill="#E9EDF3"/>
<path d="M11.3429 27.1247L10.4216 24.8335L2.62248 17.0343C2.24418 16.656 1.63077 16.656 1.25247 17.0343C0.874176 17.4126 0.874176 18.026 1.25247 18.4043L9.05164 26.2035L11.3429 27.1247Z" fill="#D5DBE2"/>
<path d="M10.4208 24.8334L11.3421 27.1245L9.05103 26.2032L10.4208 24.8334Z" fill="#223531"/>
<path d="M1.25251 17.0342C1.63085 16.6559 2.24422 16.6559 2.62252 17.0342L3.99252 18.4043L2.62252 19.7743L1.25251 18.4043C0.874164 18.026 0.874164 17.4126 1.25251 17.0342Z" fill="#223531"/>
</g>
<defs>
<clipPath id="clip0_207_1128">
<rect width="31" height="31" fill="white"/>
</clipPath>
</defs>
</svg>
