<svg width="29" height="31" viewBox="0 0 29 31" fill="none" xmlns="http://www.w3.org/2000/svg">
<path d="M26.3221 4.15922e-09L24.4508 4.3662V29.1288C24.4508 29.3745 24.4025 29.6178 24.3084 29.8449C24.2144 30.0719 24.0766 30.2782 23.9028 30.452C23.729 30.6257 23.5227 30.7636 23.2957 30.8576C23.0687 30.9516 22.8253 31 22.5796 31H2.05847L3.9297 27.6137V1.87123C3.92968 1.62549 3.97807 1.38216 4.0721 1.15512C4.16614 0.928085 4.30397 0.721796 4.47773 0.548033C4.6515 0.37427 4.85778 0.236438 5.08482 0.142405C5.31185 0.0483732 5.55519 -1.638e-05 5.80093 4.15922e-09H26.3221Z" fill="#F0F0F2"/>
<path d="M20.4588 26.6338H0V29.1288C0 29.6251 0.197147 30.101 0.54807 30.4519C0.898993 30.8029 1.37495 31 1.87123 31H22.6419" fill="#DADADC"/>
<path d="M20.5211 26.6338V29.0352C20.5211 29.5563 20.7281 30.0561 21.0966 30.4245C21.4651 30.793 21.9648 31 22.4859 31C23.007 31 23.5068 30.793 23.8752 30.4245C24.2437 30.0561 24.4507 29.5563 24.4507 29.0352V26.6338" fill="#F0F0F2"/>
<path d="M26.4272 0C26.9514 0 27.4541 0.208226 27.8247 0.578871C28.1954 0.949516 28.4036 1.45222 28.4036 1.97639V4.3662H24.4508V1.97639C24.4508 1.71685 24.5019 1.45985 24.6012 1.22006C24.7006 0.980272 24.8462 0.762396 25.0297 0.578871C25.2132 0.395347 25.4311 0.249767 25.6709 0.150444C25.9107 0.0511208 26.1677 0 26.4272 0Z" fill="#DADADC"/>
<path d="M20.6575 2.80684H7.79279C7.27607 2.80684 6.85718 3.22573 6.85718 3.74246V5.05232C6.85718 5.56904 7.27607 5.98793 7.79279 5.98793H20.6575C21.1742 5.98793 21.5931 5.56904 21.5931 5.05232V3.74246C21.5931 3.22573 21.1742 2.80684 20.6575 2.80684Z" fill="#DADADC"/>
<path d="M19.0295 17.2039C19.1771 17.6865 18.5107 18.2777 18.5024 18.7563C18.4938 19.2524 19.1338 19.8671 18.9752 20.3263C18.8151 20.7901 17.9302 20.8795 17.6352 21.2717C17.3431 21.66 17.5031 22.5363 17.0966 22.8208C16.7043 23.0952 15.9389 22.6493 15.4563 22.7969C14.9737 22.9444 14.5885 23.7421 14.1098 23.7339C13.6137 23.7254 13.2562 22.9094 12.797 22.7509C12.3332 22.5907 11.5495 23.0114 11.1574 22.7165C10.7691 22.4244 10.956 21.5569 10.6715 21.1505C10.397 20.7582 9.51398 20.6409 9.3664 20.1582C9.21889 19.6756 9.88529 19.0845 9.89353 18.6059C9.90213 18.1097 9.26211 17.4951 9.42073 17.0359C9.58084 16.572 10.4657 16.4826 10.7608 16.0904C11.0529 15.7022 10.8929 14.8259 11.2994 14.5414C11.6917 14.2669 12.4571 14.7129 12.9396 14.5653C13.4222 14.4177 13.8074 13.62 14.2862 13.6283C14.7823 13.6368 15.1397 14.4528 15.599 14.6113C16.0628 14.7715 16.8464 14.3508 17.2386 14.6457C17.6268 14.9378 17.4399 15.8053 17.7245 16.2117C17.9989 16.604 18.882 16.7213 19.0295 17.2039Z" fill="white"/>
<path d="M19.0295 17.2039C18.882 16.7214 17.999 16.604 17.7244 16.2117C17.4399 15.8052 17.6268 14.9378 17.2385 14.6457C16.8464 14.3507 16.0628 14.7715 15.5989 14.6113C15.1397 14.4527 14.7823 13.6368 14.2862 13.6283C13.9412 13.6223 13.645 14.0346 13.3257 14.3209C13.4548 14.4514 13.5864 13.6269 13.7277 13.6757C14.1915 13.8359 14.9752 14.3508 15.3674 14.6457C15.7556 14.9378 15.5687 15.8052 15.8532 16.2117C16.1277 16.604 17.0107 16.7213 17.1583 17.2039C17.3058 17.6865 16.6394 18.2777 16.6312 18.7563C16.6226 19.2524 17.2626 19.8671 17.104 20.3263C16.9439 20.7901 16.059 20.8795 15.7639 21.2717C15.4719 21.66 15.6318 22.5363 15.2253 22.8207C14.8331 23.0953 14.0676 23.5849 13.5851 23.7325C13.4501 23.7737 13.3228 22.9302 13.199 23.0413C13.4893 23.3351 13.7663 23.728 14.1098 23.7339C14.5885 23.7421 14.9737 22.9444 15.4563 22.7969C15.9389 22.6493 16.7043 23.0953 17.0965 22.8207C17.503 22.5363 17.3431 21.66 17.6352 21.2717C17.9302 20.8796 18.8151 20.7901 18.9753 20.3263C19.1338 19.8671 18.4939 19.2524 18.5024 18.7563C18.5106 18.2777 19.177 17.6866 19.0295 17.2039H19.0295Z" fill="#E1E1E3"/>
<path d="M14.1182 24.2018L14.1017 24.2016C13.6255 24.1934 13.2931 23.8312 13.026 23.5402C12.9039 23.4072 12.7367 23.225 12.6443 23.1931C12.5485 23.1601 12.3015 23.2007 12.1213 23.2303C11.7342 23.2941 11.2524 23.3734 10.8761 23.0902C10.5026 22.8093 10.4457 22.3269 10.3999 21.9394C10.3771 21.7459 10.3487 21.5051 10.2882 21.4187C10.2351 21.3429 10.0178 21.2345 9.85909 21.1553C9.50312 20.9777 9.06014 20.7567 8.91898 20.295C8.77783 19.8333 9.02147 19.4023 9.21726 19.0561C9.30458 18.9016 9.42415 18.6903 9.42571 18.5978C9.42758 18.4923 9.31649 18.2768 9.22724 18.1036C9.04841 17.7568 8.82592 17.325 8.97836 16.8832C9.13212 16.438 9.57591 16.2343 9.93244 16.0708C10.0985 15.9946 10.326 15.8903 10.3869 15.8092C10.4457 15.7312 10.4823 15.4866 10.5092 15.308C10.5679 14.9174 10.641 14.4312 11.0311 14.1581C11.409 13.8937 11.8613 13.9837 12.2604 14.0635C12.4546 14.1022 12.6964 14.1503 12.8028 14.118C12.9092 14.0854 13.0827 13.9103 13.2221 13.7695C13.5049 13.4838 13.8252 13.1604 14.2777 13.1604L14.2941 13.1605C14.7703 13.1688 15.1027 13.531 15.3699 13.822C15.4919 13.955 15.6591 14.1372 15.7515 14.1691C15.8472 14.2021 16.0943 14.1615 16.2745 14.1318C16.6617 14.0681 17.1435 13.9888 17.5197 14.2719C17.8933 14.5528 17.9501 15.0352 17.9959 15.4228C18.0187 15.6163 18.0471 15.8571 18.1076 15.9434C18.1607 16.0193 18.378 16.1277 18.5368 16.2069C18.8927 16.3845 19.3356 16.6055 19.4768 17.0671C19.618 17.5289 19.3743 17.9598 19.1785 18.3061C19.0912 18.4605 18.9717 18.6719 18.9701 18.7644C18.9683 18.8698 19.0793 19.0853 19.1686 19.2586C19.3474 19.6055 19.5698 20.0372 19.4174 20.479C19.2637 20.9242 18.82 21.1278 18.4634 21.2914C18.2973 21.3675 18.0699 21.4719 18.0089 21.5529C17.9502 21.631 17.9134 21.8756 17.8867 22.0542C17.8279 22.4448 17.7549 22.931 17.3647 23.204C16.9868 23.4685 16.5345 23.3784 16.1354 23.2986C15.9412 23.26 15.6994 23.2119 15.593 23.2442C15.4866 23.2768 15.3131 23.4519 15.1737 23.5927C14.8909 23.8784 14.5706 24.2018 14.1181 24.2018H14.1182Z" fill="#52BBE9"/>
<path d="M18.9701 18.7644C18.9717 18.6719 19.0913 18.4605 19.1785 18.3061C19.3743 17.9599 19.618 17.5289 19.4767 17.0671C19.3356 16.6055 18.8927 16.3845 18.5368 16.2069C18.378 16.1277 18.1607 16.0193 18.1076 15.9434C18.0471 15.8571 18.0187 15.6163 17.996 15.4228C17.9501 15.0352 17.8933 14.5528 17.5197 14.272C17.1435 13.9888 16.6617 14.0681 16.2745 14.1318C16.0943 14.1615 15.8472 14.2021 15.7515 14.1691C15.6591 14.1372 15.4919 13.955 15.3698 13.822C15.1027 13.531 14.7704 13.1688 14.2941 13.1605C14.2886 13.1605 14.2832 13.1604 14.2777 13.1604C13.8866 13.1604 13.5943 13.4021 13.3395 13.6521C13.3952 13.7094 13.448 13.7669 13.4986 13.822C13.6207 13.955 13.7878 14.1372 13.8803 14.1691C13.976 14.2021 14.223 14.1616 14.4033 14.1318C14.7904 14.0681 15.2722 13.9888 15.6485 14.272C16.022 14.5528 16.0789 15.0352 16.1247 15.4228C16.1475 15.6163 16.1759 15.8571 16.2364 15.9434C16.2894 16.0193 16.5068 16.1277 16.6655 16.2069C17.0214 16.3845 17.4644 16.6055 17.6055 17.0671C17.7468 17.5289 17.5031 17.9599 17.3074 18.3061C17.22 18.4605 17.1005 18.6719 17.0989 18.7644C17.097 18.8698 17.2081 19.0853 17.2974 19.2586C17.4762 19.6055 17.6986 20.0372 17.5461 20.479C17.3925 20.9242 16.9487 21.1278 16.5921 21.2914C16.426 21.3675 16.1987 21.4719 16.1377 21.5529C16.0789 21.631 16.0422 21.8756 16.0154 22.0542C15.9567 22.4448 15.8836 22.931 15.4935 23.204C15.1155 23.4685 14.6633 23.3784 14.2642 23.2986C14.07 23.26 13.8282 23.2119 13.7218 23.2442C13.6154 23.2768 13.4419 23.4519 13.3025 23.5927C13.2641 23.6314 13.225 23.6708 13.1851 23.7101C13.424 23.9555 13.7155 24.195 14.1016 24.2016L14.1181 24.2018C14.5706 24.2018 14.8909 23.8784 15.1737 23.5927C15.3131 23.4519 15.4866 23.2768 15.593 23.2442C15.6995 23.2119 15.9412 23.2599 16.1354 23.2986C16.5345 23.3784 16.9868 23.4686 17.3647 23.204C17.7548 22.931 17.8279 22.4448 17.8866 22.0542C17.9134 21.8756 17.9501 21.631 18.0089 21.5529C18.0699 21.4719 18.2973 21.3675 18.4634 21.2914C18.8199 21.1278 19.2637 20.9242 19.4174 20.479C19.5698 20.0372 19.3474 19.6055 19.1686 19.2586C19.0793 19.0853 18.9683 18.8698 18.9701 18.7644Z" fill="#1CABE1"/>
<path d="M13.4883 20.3155C13.4268 20.3156 13.366 20.3035 13.3092 20.28C13.2525 20.2565 13.2009 20.222 13.1575 20.1785L12.2436 19.2646C12.1559 19.1769 12.1066 19.0579 12.1066 18.9338C12.1066 18.8097 12.1559 18.6907 12.2436 18.603C12.3313 18.5153 12.4503 18.466 12.5744 18.466C12.6985 18.466 12.8175 18.5153 12.9052 18.603L13.4883 19.1861L15.4908 17.1837C15.5342 17.1402 15.5858 17.1058 15.6426 17.0823C15.6993 17.0588 15.7602 17.0467 15.8216 17.0467C15.883 17.0467 15.9439 17.0588 16.0006 17.0823C16.0574 17.1058 16.109 17.1403 16.1524 17.1837C16.1958 17.2272 16.2303 17.2788 16.2538 17.3355C16.2773 17.3923 16.2894 17.4531 16.2894 17.5145C16.2894 17.576 16.2773 17.6368 16.2538 17.6936C16.2302 17.7503 16.1958 17.8019 16.1523 17.8453L13.8191 20.1785C13.7757 20.222 13.7241 20.2565 13.6674 20.28C13.6106 20.3035 13.5498 20.3156 13.4883 20.3155H13.4883Z" fill="white"/>
<path d="M21.644 9.26258H6.75199C6.62792 9.26258 6.50893 9.21329 6.4212 9.12556C6.33347 9.03783 6.28418 8.91884 6.28418 8.79477C6.28418 8.6707 6.33347 8.55171 6.4212 8.46398C6.50893 8.37625 6.62792 8.32697 6.75199 8.32697H21.644C21.768 8.32697 21.887 8.37625 21.9748 8.46398C22.0625 8.55171 22.1118 8.6707 22.1118 8.79477C22.1118 8.91884 22.0625 9.03783 21.9748 9.12556C21.887 9.21329 21.768 9.26258 21.644 9.26258ZM21.644 12.0694H6.75199C6.62792 12.0694 6.50893 12.0201 6.4212 11.9324C6.33347 11.8447 6.28418 11.7257 6.28418 11.6016C6.28418 11.4775 6.33347 11.3586 6.4212 11.2708C6.50893 11.1831 6.62792 11.1338 6.75199 11.1338H21.644C21.768 11.1338 21.887 11.1831 21.9748 11.2708C22.0625 11.3586 22.1118 11.4775 22.1118 11.6016C22.1118 11.7257 22.0625 11.8447 21.9748 11.9324C21.887 12.0201 21.768 12.0694 21.644 12.0694Z" fill="#DADADC"/>
</svg>
