<svg width="26" height="31" viewBox="0 0 26 31" fill="none" xmlns="http://www.w3.org/2000/svg">
<path d="M22.3543 27.2636V0.997994C22.3543 0.446836 21.9074 0 21.3563 0H0.997994C0.446836 0 0 0.446836 0 0.997994V27.2636C0 27.8147 0.446836 28.2616 0.997994 28.2616H21.3562C21.9074 28.2616 22.3543 27.8147 22.3543 27.2636V27.2636Z" fill="#9DC6FB"/>
<path d="M21.5331 0H19.6624C20.2135 0 20.6603 0.446836 20.6603 0.997994V27.2636C20.6603 27.8147 20.2135 28.2616 19.6624 28.2616H21.5331C22.0842 28.2616 22.5311 27.8147 22.5311 27.2636V0.997994C22.5311 0.446836 22.0842 0 21.5331 0V0Z" fill="#80B4FB"/>
<path d="M25.0015 30.002V3.73641C25.0015 3.18525 24.5546 2.73841 24.0035 2.73841H3.64521C3.09405 2.73841 2.64722 3.18525 2.64722 3.73641V30.002C2.64722 30.5532 3.09405 31 3.64521 31H24.0035C24.5547 31 25.0015 30.5532 25.0015 30.002Z" fill="#E7ECF6"/>
<path d="M15.8163 10.3282H11.3528V14.7917C13.8179 14.7917 15.8163 12.7934 15.8163 10.3282Z" fill="#E28086"/>
<path d="M15.8162 10.3282C15.8162 7.8631 13.8178 5.86469 11.3527 5.86469C8.88751 5.86469 6.88916 7.86304 6.88916 10.3282C6.88916 12.7934 8.88751 14.7917 11.3527 14.7917V10.3282H15.8162Z" fill="#95D6A4"/>
<path d="M22.8399 8.05297H18.6389C18.3805 8.05297 18.1711 7.84354 18.1711 7.58519C18.1711 7.32684 18.3806 7.1174 18.6389 7.1174H22.8399C23.0983 7.1174 23.3076 7.32684 23.3076 7.58519C23.3077 7.84348 23.0983 8.05297 22.8399 8.05297Z" fill="#407093"/>
<path d="M22.8399 10.4718H18.6389C18.3805 10.4718 18.1711 10.2623 18.1711 10.004C18.1711 9.74563 18.3806 9.53619 18.6389 9.53619H22.8399C23.0983 9.53619 23.3076 9.74563 23.3076 10.004C23.3077 10.2623 23.0983 10.4718 22.8399 10.4718Z" fill="#407093"/>
<path d="M22.8399 12.8906H18.6389C18.3805 12.8906 18.1711 12.6812 18.1711 12.4228C18.1711 12.1645 18.3806 11.955 18.6389 11.955H22.8399C23.0983 11.955 23.3076 12.1645 23.3076 12.4228C23.3076 12.6812 23.0983 12.8906 22.8399 12.8906Z" fill="#407093"/>
<path d="M9.08725 28.2616H7.07631C6.97296 28.2616 6.88916 28.1778 6.88916 28.0744V19.1453C6.88916 19.042 6.97296 18.9582 7.07631 18.9582H9.08725C9.19061 18.9582 9.2744 19.042 9.2744 19.1453V28.0744C9.27434 28.1778 9.19061 28.2616 9.08725 28.2616Z" fill="#ECBE6B"/>
<path d="M13.4137 28.2616H11.4027C11.2994 28.2616 11.2156 28.1778 11.2156 28.0744V20.8957C11.2156 20.7923 11.2994 20.7085 11.4027 20.7085H13.4137C13.517 20.7085 13.6008 20.7923 13.6008 20.8957V28.0744C13.6008 28.1778 13.517 28.2616 13.4137 28.2616Z" fill="#ECBE6B"/>
<path d="M17.7401 28.2616H15.7291C15.6258 28.2616 15.542 28.1778 15.542 28.0744V23.1275C15.542 23.0241 15.6258 22.9403 15.7291 22.9403H17.7401C17.8434 22.9403 17.9272 23.0241 17.9272 23.1275V28.0744C17.9272 28.1778 17.8434 28.2616 17.7401 28.2616Z" fill="#ECBE6B"/>
<path d="M22.8396 19.426H16.7346C16.4762 19.426 16.2668 19.2166 16.2668 18.9583C16.2668 18.6999 16.4763 18.4905 16.7346 18.4905H22.8396C23.098 18.4905 23.3074 18.6999 23.3074 18.9583C23.3075 19.2165 23.098 19.426 22.8396 19.426Z" fill="#407093"/>
<path d="M22.8399 21.8448H20.9246C20.6662 21.8448 20.4568 21.6354 20.4568 21.377C20.4568 21.1187 20.6662 20.9093 20.9246 20.9093H22.8399C23.0983 20.9093 23.3076 21.1187 23.3076 21.377C23.3077 21.6354 23.0983 21.8448 22.8399 21.8448Z" fill="#407093"/>
<path d="M22.8399 24.2637H20.9246C20.6662 24.2637 20.4568 24.0542 20.4568 23.7959C20.4568 23.5375 20.6662 23.3281 20.9246 23.3281H22.8399C23.0983 23.3281 23.3076 23.5375 23.3076 23.7959C23.3077 24.0542 23.0983 24.2637 22.8399 24.2637Z" fill="#407093"/>
<path d="M22.8399 26.6825H20.9246C20.6662 26.6825 20.4568 26.4731 20.4568 26.2147C20.4568 25.9564 20.6662 25.7469 20.9246 25.7469H22.8399C23.0983 25.7469 23.3076 25.9564 23.3076 26.2147C23.3077 26.4731 23.0983 26.6825 22.8399 26.6825Z" fill="#407093"/>
<path d="M24.1803 2.73841H22.3096C22.8607 2.73841 23.3076 3.18525 23.3076 3.73641V30.002C23.3076 30.5532 22.8607 31 22.3096 31H24.1803C24.7314 31 25.1783 30.5532 25.1783 30.002V3.73641C25.1782 3.18525 24.7314 2.73841 24.1803 2.73841V2.73841Z" fill="#D8E2F1"/>
<path d="M0.875 3.73641V28.2538C0.965518 28.2646 0.841578 28.2616 2.64309 28.2616V3.73641C2.64309 3.18525 3.08993 2.73841 3.64108 2.73841H1.87299C1.32178 2.73841 0.875 3.18525 0.875 3.73641V3.73641Z" fill="#80B4FB"/>
</svg>
