<svg width="71" height="40" viewBox="0 0 71 40" fill="none" xmlns="http://www.w3.org/2000/svg">
<g clip-path="url(#clip0_798_671)">
<path d="M17.6176 6.62896C17.6176 5.41332 16.631 4.42676 15.4154 4.42676H2.2022C0.986587 4.42676 0 5.41332 0 6.62896C0 7.84456 0.986587 8.83115 2.2022 8.83115H15.4154C16.631 8.83115 17.6176 7.84456 17.6176 6.62896Z" fill="#FFC107"/>
<path d="M15.4153 13.2363H6.60649C5.39086 13.2363 4.4043 14.2229 4.4043 15.4385C4.4043 16.6541 5.39086 17.6407 6.60649 17.6407H15.4153C16.6309 17.6407 17.6175 16.6541 17.6175 15.4385C17.6175 14.2229 16.6309 13.2363 15.4153 13.2363Z" fill="#FFC107"/>
<path d="M15.4152 22.0449H11.0108C9.79519 22.0449 8.80859 23.0315 8.80859 24.2471C8.80859 25.4628 9.79519 26.4494 11.0108 26.4494H15.4152C16.6308 26.4494 17.6174 25.4628 17.6174 24.2471C17.6174 23.0315 16.6308 22.0449 15.4152 22.0449Z" fill="#FFC107"/>
<path d="M70.1575 20.9125L63.551 9.90147C63.1546 9.23628 62.4367 8.83105 61.6616 8.83105H46.2461C45.0306 8.83105 44.0439 9.81765 44.0439 11.0333V33.0553C44.0439 34.2709 45.0306 35.2575 46.2461 35.2575H68.2681C69.4839 35.2575 70.4706 34.2709 70.4706 33.0553V22.0443C70.4706 21.6435 70.3647 21.2515 70.1575 20.9125Z" fill="#F44336"/>
<path d="M52.853 13.2363H60.4152L65.7006 22.0451H52.853V13.2363Z" fill="#FAFAFA"/>
<path d="M46.2463 0.0224609H15.4156C14.2 0.0224609 13.2134 1.00905 13.2134 2.22466V33.0555C13.2134 34.2711 14.2 35.2577 15.4156 35.2577H48.4488V2.22466C48.4488 1.00905 47.4621 0.0224609 46.2463 0.0224609Z" fill="#FFC107"/>
<path d="M59.4595 37.4591C61.8923 37.4591 63.8638 35.4874 63.8638 33.0548C63.8638 30.6222 61.8923 28.6504 59.4595 28.6504C57.0271 28.6504 55.0552 30.6222 55.0552 33.0548C55.0552 35.4874 57.0271 37.4591 59.4595 37.4591Z" fill="#FAFAFA"/>
<path d="M59.4595 39.6624C55.817 39.6624 52.853 36.6984 52.853 33.0558C52.853 29.4133 55.817 26.4492 59.4595 26.4492C63.102 26.4492 66.066 29.4133 66.066 33.0558C66.066 36.6984 63.102 39.6624 59.4595 39.6624ZM59.4595 30.8536C58.2483 30.8536 57.2574 31.8445 57.2574 33.0558C57.2574 34.2672 58.2483 35.258 59.4595 35.258C60.671 35.258 61.6617 34.2672 61.6617 33.0558C61.6617 31.8445 60.671 30.8536 59.4595 30.8536Z" fill="#455A64"/>
<path d="M48.4488 35.258H15.4156C14.2 35.258 13.2134 34.2715 13.2134 33.0558V26.4492H48.4488V35.258Z" fill="#F44336"/>
<path d="M28.6285 37.4591C31.0611 37.4591 33.0329 35.4874 33.0329 33.0548C33.0329 30.6222 31.0611 28.6504 28.6285 28.6504C26.1959 28.6504 24.2241 30.6222 24.2241 33.0548C24.2241 35.4874 26.1959 37.4591 28.6285 37.4591Z" fill="#FAFAFA"/>
<path d="M28.6286 39.6624C24.986 39.6624 22.022 36.6984 22.022 33.0558C22.022 29.4133 24.986 26.4492 28.6286 26.4492C32.2711 26.4492 35.2352 29.4133 35.2352 33.0558C35.2352 36.6984 32.2711 39.6624 28.6286 39.6624ZM28.6286 30.8536C27.413 30.8536 26.4264 31.8445 26.4264 33.0558C26.4264 34.2672 27.413 35.258 28.6286 35.258C29.8442 35.258 30.8308 34.2672 30.8308 33.0558C30.8308 31.8445 29.8442 30.8536 28.6286 30.8536Z" fill="#455A64"/>
</g>
<defs>
<clipPath id="clip0_798_671">
<rect width="70.6306" height="40" fill="white"/>
</clipPath>
</defs>
</svg>
