<svg width="70" height="70" viewBox="0 0 70 70" fill="none" xmlns="http://www.w3.org/2000/svg">
<g clip-path="url(#clip0_310_145)">
<path d="M68.9725 20.7149L60.2225 11.9649C59.993 11.7355 59.7007 11.5793 59.3825 11.516C59.0642 11.4527 58.7344 11.4852 58.4346 11.6093C58.1348 11.7335 57.8786 11.9438 57.6983 12.2136C57.518 12.4833 57.4218 12.8005 57.4218 13.125V15.8594H54.1405V6.5625C54.1388 4.9676 53.5044 3.43853 52.3767 2.31077C51.2489 1.183 49.7198 0.548648 48.1249 0.546875H21.8749C20.28 0.548648 18.751 1.183 17.6232 2.31077C16.4954 3.43853 15.8611 4.9676 15.8593 6.5625V42.1094H12.578V39.375C12.578 39.0505 12.4818 38.7333 12.3015 38.4636C12.1213 38.1938 11.865 37.9835 11.5653 37.8593C11.2655 37.7352 10.9356 37.7027 10.6174 37.766C10.2991 37.8293 10.0068 37.9855 9.77736 38.2149L1.02736 46.9649C0.719711 47.2726 0.546875 47.6899 0.546875 48.125C0.546875 48.5601 0.719711 48.9774 1.02736 49.2851L9.77736 58.0351C10.7516 59.0725 12.6238 58.2914 12.578 56.875V54.1406H15.8593V63.4375C15.8611 65.0324 16.4954 66.5615 17.6232 67.6892C18.751 68.817 20.28 69.4514 21.8749 69.4531H48.1249C49.7198 69.4514 51.2489 68.817 52.3767 67.6892C53.5044 66.5615 54.1388 65.0324 54.1405 63.4375V27.8906H57.4218V30.625C57.3761 32.0418 59.2482 32.8222 60.2225 31.7851L68.9725 23.0351C69.2801 22.7274 69.453 22.3101 69.453 21.875C69.453 21.4399 69.2801 21.0226 68.9725 20.7149V20.7149ZM21.8749 3.82812H48.1249C48.8499 3.82896 49.5449 4.11731 50.0575 4.62992C50.5701 5.14254 50.8585 5.83755 50.8593 6.5625V9.29688H19.1405V6.5625C19.1414 5.83755 19.4297 5.14254 19.9423 4.62992C20.455 4.11731 21.15 3.82896 21.8749 3.82812V3.82812ZM48.1249 66.1719H21.8749C21.15 66.171 20.455 65.8827 19.9423 65.3701C19.4297 64.8575 19.1414 64.1624 19.1405 63.4375V60.7031H50.8593V63.4375C50.8585 64.1624 50.5701 64.8575 50.0575 65.3701C49.5449 65.8827 48.8499 66.171 48.1249 66.1719V66.1719ZM60.703 26.6641V26.25C60.703 25.8149 60.5302 25.3976 60.2225 25.0899C59.9148 24.7822 59.4975 24.6094 59.0624 24.6094H45.9374C45.5023 24.6094 45.085 24.7822 44.7773 25.0899C44.4696 25.3976 44.2968 25.8149 44.2968 26.25C44.2968 26.6851 44.4696 27.1024 44.7773 27.4101C45.085 27.7178 45.5023 27.8906 45.9374 27.8906H50.8593V57.4219H19.1405V54.1406H24.0624C24.4975 54.1406 24.9148 53.9678 25.2225 53.6601C25.5302 53.3524 25.703 52.9351 25.703 52.5C25.703 52.0649 25.5302 51.6476 25.2225 51.3399C24.9148 51.0322 24.4975 50.8594 24.0624 50.8594H10.9374C10.5023 50.8594 10.085 51.0322 9.77733 51.3399C9.46965 51.6476 9.2968 52.0649 9.2968 52.5V52.9141L4.50768 48.125L9.2968 43.3359V43.75C9.2968 44.1851 9.46965 44.6024 9.77733 44.9101C10.085 45.2178 10.5023 45.3906 10.9374 45.3906H24.0624C24.4975 45.3906 24.9148 45.2178 25.2225 44.9101C25.5302 44.6024 25.703 44.1851 25.703 43.75C25.703 43.3149 25.5302 42.8976 25.2225 42.5899C24.9148 42.2822 24.4975 42.1094 24.0624 42.1094H19.1405V12.5781H50.8593V15.8594H45.9374C45.5023 15.8594 45.085 16.0322 44.7773 16.3399C44.4696 16.6476 44.2968 17.0649 44.2968 17.5C44.2968 17.9351 44.4696 18.3524 44.7773 18.6601C45.085 18.9678 45.5023 19.1406 45.9374 19.1406H59.0624C59.4975 19.1406 59.9148 18.9678 60.2225 18.6601C60.5302 18.3524 60.703 17.9351 60.703 17.5V17.0859L65.4922 21.875L60.703 26.6641Z" fill="white"/>
<path d="M32.8125 27.8906H38.2812C38.7162 27.8911 39.1333 28.0641 39.4408 28.3717C39.7484 28.6792 39.9214 29.0963 39.9219 29.5312C39.9219 29.9664 40.0947 30.3837 40.4024 30.6913C40.7101 30.999 41.1274 31.1719 41.5625 31.1719C41.9976 31.1719 42.4149 30.999 42.7226 30.6913C43.0303 30.3837 43.2031 29.9664 43.2031 29.5312C43.2017 28.2263 42.6827 26.9753 41.7599 26.0526C40.8372 25.1298 39.5862 24.6108 38.2812 24.6094H36.6406V21.875C36.6406 21.4399 36.4678 21.0226 36.1601 20.7149C35.8524 20.4072 35.4351 20.2344 35 20.2344C34.5649 20.2344 34.1476 20.4072 33.8399 20.7149C33.5322 21.0226 33.3594 21.4399 33.3594 21.875V24.6094H32.8125C31.2171 24.6094 29.687 25.2432 28.5588 26.3713C27.4307 27.4995 26.7969 29.0296 26.7969 30.625C26.7969 32.2204 27.4307 33.7505 28.5588 34.8787C29.687 36.0068 31.2171 36.6406 32.8125 36.6406H37.1875C37.9127 36.6406 38.6082 36.9287 39.121 37.4415C39.6338 37.9543 39.9219 38.6498 39.9219 39.375C39.9219 40.1002 39.6338 40.7957 39.121 41.3085C38.6082 41.8213 37.9127 42.1094 37.1875 42.1094H31.7188C31.2838 42.1089 30.8667 41.9359 30.5592 41.6283C30.2516 41.3208 30.0786 40.9037 30.0781 40.4688C30.0781 40.0336 29.9053 39.6163 29.5976 39.3087C29.2899 39.001 28.8726 38.8281 28.4375 38.8281C28.0024 38.8281 27.5851 39.001 27.2774 39.3087C26.9697 39.6163 26.7969 40.0336 26.7969 40.4688C26.7983 41.7737 27.3173 43.0247 28.2401 43.9474C29.1628 44.8702 30.4138 45.3892 31.7188 45.3906H33.3594V48.125C33.3594 48.5601 33.5322 48.9774 33.8399 49.2851C34.1476 49.5928 34.5649 49.7656 35 49.7656C35.4351 49.7656 35.8524 49.5928 36.1601 49.2851C36.4678 48.9774 36.6406 48.5601 36.6406 48.125V45.3906H37.1875C38.7829 45.3906 40.313 44.7568 41.4412 43.6287C42.5693 42.5005 43.2031 40.9704 43.2031 39.375C43.2031 37.7796 42.5693 36.2495 41.4412 35.1213C40.313 33.9932 38.7829 33.3594 37.1875 33.3594H32.8125C32.0873 33.3594 31.3918 33.0713 30.879 32.5585C30.3662 32.0457 30.0781 31.3502 30.0781 30.625C30.0781 29.8998 30.3662 29.2043 30.879 28.6915C31.3918 28.1787 32.0873 27.8906 32.8125 27.8906V27.8906Z" fill="white"/>
</g>
<defs>
<clipPath id="clip0_310_145">
<rect width="70" height="70" fill="white"/>
</clipPath>
</defs>
</svg>
