<svg width="70" height="70" viewBox="0 0 70 70" fill="none" xmlns="http://www.w3.org/2000/svg">
<g clip-path="url(#clip0_303_124)">
<path d="M67.9492 10.2539H67.2656V6.15234C67.2656 2.75994 64.5057 0 61.1133 0H33.7695C30.3771 0 27.6172 2.75994 27.6172 6.15234V26.6602C27.6172 30.0526 30.3771 32.8125 33.7695 32.8125H61.1133C64.5057 32.8125 67.2656 30.0526 67.2656 26.6602V22.5586H67.9492C69.0818 22.5586 70 21.6404 70 20.5078V12.3047C70 11.1721 69.0818 10.2539 67.9492 10.2539ZM63.1641 26.6602C63.1641 27.791 62.2441 28.7109 61.1133 28.7109H33.7695C32.6387 28.7109 31.7188 27.791 31.7188 26.6602V6.15234C31.7188 5.02154 32.6387 4.10156 33.7695 4.10156H61.1133C62.2441 4.10156 63.1641 5.02154 63.1641 6.15234V10.2539H61.1133C57.7209 10.2539 54.9609 13.0138 54.9609 16.4062C54.9609 19.7987 57.7209 22.5586 61.1133 22.5586H63.1641V26.6602ZM65.8984 18.457H61.1133C59.9825 18.457 59.0625 17.5371 59.0625 16.4062C59.0625 15.2754 59.9825 14.3555 61.1133 14.3555H65.8984V18.457Z" fill="white"/>
<path d="M40.332 47.4414H39.6484V43.3398C39.6484 39.9474 36.8885 37.1875 33.4961 37.1875H6.15234C2.75994 37.1875 0 39.9474 0 43.3398V63.8477C0 67.2401 2.75994 70 6.15234 70H33.4961C36.8885 70 39.6484 67.2401 39.6484 63.8477V59.7461H40.332C41.4646 59.7461 42.3828 58.8279 42.3828 57.6953V49.4922C42.3828 48.3596 41.4646 47.4414 40.332 47.4414ZM35.5469 63.8477C35.5469 64.9785 34.6269 65.8984 33.4961 65.8984H6.15234C5.02154 65.8984 4.10156 64.9785 4.10156 63.8477V43.3398C4.10156 42.209 5.02154 41.2891 6.15234 41.2891H33.4961C34.6269 41.2891 35.5469 42.209 35.5469 43.3398V47.4414H33.4961C30.1037 47.4414 27.3438 50.2013 27.3438 53.5938C27.3438 56.9862 30.1037 59.7461 33.4961 59.7461H35.5469V63.8477ZM38.2812 55.6445H33.4961C32.3653 55.6445 31.4453 54.7246 31.4453 53.5938C31.4453 52.4629 32.3653 51.543 33.4961 51.543H38.2812V55.6445Z" fill="white"/>
<path d="M56.875 37.8711C55.7424 37.8711 54.8242 38.7893 54.8242 39.9219V51.543H48.6719C47.5393 51.543 46.6211 52.4612 46.6211 53.5938C46.6211 54.7263 47.5393 55.6445 48.6719 55.6445H56.875C58.0076 55.6445 58.9258 54.7263 58.9258 53.5938V39.9219C58.9258 38.7893 58.0076 37.8711 56.875 37.8711Z" fill="white"/>
<path d="M13.125 32.1289C14.2576 32.1289 15.1758 31.2107 15.1758 30.0781V18.457H21.3281C22.4607 18.457 23.3789 17.5388 23.3789 16.4062C23.3789 15.2737 22.4607 14.3555 21.3281 14.3555H13.125C11.9924 14.3555 11.0742 15.2737 11.0742 16.4062V30.0781C11.0742 31.2107 11.9924 32.1289 13.125 32.1289Z" fill="white"/>
</g>
<defs>
<clipPath id="clip0_303_124">
<rect width="70" height="70" fill="white"/>
</clipPath>
</defs>
</svg>
