<svg width="31" height="31" viewBox="0 0 31 31" fill="none" xmlns="http://www.w3.org/2000/svg">
<path d="M8.99493 7.51266L12.8021 10.9033C12.9793 11.0619 13.2086 11.1498 13.4463 11.1503H27.1251V28.055C27.145 28.4284 27.0167 28.7945 26.7682 29.0738C26.5197 29.3532 26.171 29.5232 25.7979 29.5469H2.7804C2.40727 29.5232 2.05857 29.3532 1.81006 29.0738C1.56156 28.7945 1.43332 28.4284 1.45321 28.055V8.71875C1.43337 8.35409 1.55884 7.99642 1.80214 7.72407C2.04544 7.45172 2.38675 7.28687 2.75134 7.26562H8.35071C8.58849 7.26612 8.81778 7.35404 8.99493 7.51266V7.51266Z" fill="#FDBF00"/>
<path d="M23.7344 27.6094H3.39062V1.45312H23.7344V27.6094Z" fill="#D7E6EF"/>
<path d="M21.7969 11.1406H29.5469V8.23438C29.5469 7.97745 29.4448 7.73104 29.2631 7.54937C29.0815 7.36769 28.8351 7.26562 28.5781 7.26562H25.6719L21.7969 11.1406Z" fill="#FDBF00"/>
<path d="M6.78125 4.35938H27.125V11.1406H6.78125V4.35938Z" fill="#F7FCFF"/>
<path d="M12.4435 7.51266L16.0375 10.9033C16.1997 11.0611 16.4168 11.1496 16.643 11.1503H29.5467V28.055C29.5751 28.4185 29.4594 28.7786 29.2248 29.0576C28.9901 29.3367 28.6552 29.5124 28.2922 29.5469H6.58252C6.21955 29.5124 5.88464 29.3367 5.64998 29.0576C5.41532 28.7786 5.29968 28.4185 5.32799 28.055V8.71875C5.29976 8.36397 5.41262 8.01238 5.64206 7.74031C5.8715 7.46824 6.19901 7.29767 6.55346 7.26562H11.8331C12.0609 7.26606 12.2796 7.35458 12.4435 7.51266V7.51266Z" fill="#FFDA2D"/>
<path d="M17.4375 26.6406C20.9152 26.6406 23.7344 23.8214 23.7344 20.3438C23.7344 16.8661 20.9152 14.0469 17.4375 14.0469C13.9598 14.0469 11.1406 16.8661 11.1406 20.3438C11.1406 23.8214 13.9598 26.6406 17.4375 26.6406Z" fill="#F7FCFF"/>
<path d="M25.1875 6.29688H15.5C15.3715 6.29688 15.2483 6.34791 15.1575 6.43875C15.0667 6.52958 15.0156 6.65279 15.0156 6.78125C15.0156 6.90971 15.0667 7.03292 15.1575 7.12375C15.2483 7.21459 15.3715 7.26562 15.5 7.26562H25.1875C25.316 7.26562 25.4392 7.21459 25.53 7.12375C25.6208 7.03292 25.6719 6.90971 25.6719 6.78125C25.6719 6.65279 25.6208 6.52958 25.53 6.43875C25.4392 6.34791 25.316 6.29688 25.1875 6.29688ZM25.1875 8.23438H17.9219C17.7934 8.23438 17.6702 8.28541 17.5794 8.37624C17.4885 8.46708 17.4375 8.59029 17.4375 8.71875C17.4375 8.84721 17.4885 8.97042 17.5794 9.06126C17.6702 9.15209 17.7934 9.20312 17.9219 9.20312H25.1875C25.316 9.20312 25.4392 9.15209 25.53 9.06126C25.6208 8.97042 25.6719 8.84721 25.6719 8.71875C25.6719 8.59029 25.6208 8.46708 25.53 8.37624C25.4392 8.28541 25.316 8.23438 25.1875 8.23438Z" fill="#D7E6EF"/>
<path d="M20.8281 18.4062H19.375V16.9531C19.375 16.6962 19.2729 16.4498 19.0913 16.2681C18.9096 16.0864 18.6632 15.9844 18.4062 15.9844H16.4688C16.2118 15.9844 15.9654 16.0864 15.7837 16.2681C15.6021 16.4498 15.5 16.6962 15.5 16.9531V18.4062H14.0469C13.9184 18.4062 13.7952 18.4573 13.7044 18.5481C13.6135 18.639 13.5625 18.7622 13.5625 18.8906C13.5625 19.0191 13.6135 19.1423 13.7044 19.2331C13.7952 19.324 13.9184 19.375 14.0469 19.375H15.0592L15.4613 23.778C15.4722 23.8987 15.528 24.011 15.6177 24.0926C15.7073 24.1742 15.8244 24.2192 15.9456 24.2188H18.9391C19.0603 24.2192 19.1774 24.1742 19.267 24.0926C19.3567 24.011 19.4125 23.8987 19.4234 23.778L19.8158 19.375H20.8281C20.9566 19.375 21.0798 19.324 21.1706 19.2331C21.2615 19.1423 21.3125 19.0191 21.3125 18.8906C21.3125 18.7622 21.2615 18.639 21.1706 18.5481C21.0798 18.4573 20.9566 18.4062 20.8281 18.4062ZM16.4688 16.9531H18.4062V18.4062H16.4688V16.9531Z" fill="#44394A"/>
</svg>
