<svg width="31" height="31" viewBox="0 0 31 31" fill="none" xmlns="http://www.w3.org/2000/svg">
<path d="M31 9.99023V20.041C31 21.04 30.1826 21.8574 29.1836 21.8574C28.1846 21.8574 25.5508 21.04 25.5508 20.041V9.08203H30.0918C30.6005 9.08203 31 9.4815 31 9.99023Z" fill="#D8D8FC"/>
<path d="M29.1836 21.8574H21.918V1.81641C21.918 0.817383 24.5518 0 25.5508 0C26.5498 0 27.3672 0.817383 27.3672 1.81641V20.041C27.3672 21.04 28.1846 21.8574 29.1836 21.8574Z" fill="#A3A3D1"/>
<path d="M6.47852 0C4.97076 0 3.75391 1.21685 3.75391 2.72461V29.1836H16.8502C17.7038 30.237 19.8291 31 21.0098 31C22.4811 31 23.7344 29.7829 23.7344 28.2754V1.81641C23.7344 0.817383 24.5518 0 25.5508 0H6.47852Z" fill="#F2F2FC"/>
<path d="M25.5508 0C24.5518 0 23.7344 0.817383 23.7344 1.81641V28.2754C23.7344 29.7829 22.4811 31 21.0098 31C19.8291 31 17.7038 30.237 16.8502 29.1836H13.7441V0H25.5508Z" fill="#D8D8FC"/>
<path d="M20.0999 19.1328C20.0999 19.6345 19.6931 20.041 19.1917 20.041C18.69 20.041 18.2834 19.6345 18.2834 19.1328C18.2834 18.6312 18.69 18.2246 19.1917 18.2246C19.6931 18.2246 20.0999 18.6312 20.0999 19.1328Z" fill="#25D9F8"/>
<path d="M20.0999 22.7656C20.0999 23.2673 19.6931 23.6738 19.1917 23.6738C18.69 23.6738 18.2834 23.2673 18.2834 22.7656C18.2834 22.264 18.69 21.8574 19.1917 21.8574C19.6931 21.8574 20.0999 22.264 20.0999 22.7656Z" fill="#25D9F8"/>
<path d="M16.4688 19.1328C16.4688 19.6413 16.0693 20.041 15.5605 20.041H8.29492C7.78619 20.041 7.38672 19.6413 7.38672 19.1328C7.38672 18.6241 7.78619 18.2246 8.29492 18.2246H15.5605C16.0693 18.2246 16.4688 18.6241 16.4688 19.1328Z" fill="#76E2F8"/>
<path d="M16.4688 22.7656C16.4688 23.2741 16.0693 23.6738 15.5605 23.6738H8.29492C7.78619 23.6738 7.38672 23.2741 7.38672 22.7656C7.38672 22.2569 7.78619 21.8574 8.29492 21.8574H15.5605C16.0693 21.8574 16.4688 22.2569 16.4688 22.7656Z" fill="#76E2F8"/>
<path d="M13.7441 3.63281C12.2364 3.63281 11.0195 4.84966 11.0195 6.35742C11.0195 7.86518 12.2364 9.08203 13.7441 9.08203C15.2519 9.08203 16.4688 7.86518 16.4688 6.35742C16.4688 4.84966 15.2519 3.63281 13.7441 3.63281Z" fill="#FFB99C"/>
<path d="M18.2852 11.8066V15.5C18.2852 16.0087 17.8857 16.4082 17.377 16.4082H10.1113C9.60259 16.4082 9.20312 16.0087 9.20312 15.5V11.8066C9.20312 10.3171 10.4382 9.08203 11.9277 9.08203H15.5605C17.0501 9.08203 18.2852 10.3171 18.2852 11.8066Z" fill="#4BB9EC"/>
<path d="M13.7441 9.08203V3.63281C15.2519 3.63281 16.4688 4.84966 16.4688 6.35742C16.4688 7.86518 15.2519 9.08203 13.7441 9.08203Z" fill="#FF9468"/>
<path d="M18.2852 11.8066V15.5C18.2852 16.0087 17.8857 16.4082 17.377 16.4082H13.7441V9.08203H15.5605C17.0501 9.08203 18.2852 10.3171 18.2852 11.8066Z" fill="#0095FF"/>
<path d="M15.5605 23.6738H13.7441V21.8574H15.5605C16.0693 21.8574 16.4688 22.2569 16.4688 22.7656C16.4688 23.2741 16.0693 23.6738 15.5605 23.6738Z" fill="#25D9F8"/>
<path d="M15.5605 20.041H13.7441V18.2246H15.5605C16.0693 18.2246 16.4688 18.6241 16.4688 19.1328C16.4688 19.6413 16.0693 20.041 15.5605 20.041Z" fill="#25D9F8"/>
<path d="M21.0098 31H1.81641C0.817383 31 0 30.1826 0 29.1836V28.2754C0 27.7667 0.399467 27.3672 0.908203 27.3672H18.2852V28.2754C18.2852 29.7829 19.502 31 21.0098 31Z" fill="#D8D8FC"/>
<path d="M21.0098 31H13.7441V27.3672H18.2852V28.2754C18.2852 29.7829 19.502 31 21.0098 31Z" fill="#A3A3D1"/>
</svg>
