<svg width="21" height="31" viewBox="0 0 21 31" fill="none" xmlns="http://www.w3.org/2000/svg">
<path fill-rule="evenodd" clip-rule="evenodd" d="M0.846924 13.6058H17.7091V30.2975C17.7091 30.6845 17.3936 31 17.0066 31H1.5494C1.16244 31 0.846924 30.6839 0.846924 30.2975V13.6058Z" fill="#4FB379"/>
<path fill-rule="evenodd" clip-rule="evenodd" d="M17.7091 15.6781V16.0926H0.846924V15.6781H17.7091Z" fill="#5DA668"/>
<path fill-rule="evenodd" clip-rule="evenodd" d="M0.11377 15.6034L0.847097 17.3282V15.6781L0.11377 15.6034Z" fill="#5DA668"/>
<path fill-rule="evenodd" clip-rule="evenodd" d="M18.4426 15.6034L17.7092 17.3282V15.6781L18.4426 15.6034Z" fill="#5DA668"/>
<path fill-rule="evenodd" clip-rule="evenodd" d="M0.318226 13.6058H18.2385C18.4133 13.6058 18.5562 13.7487 18.5562 13.924V15.3604C18.5562 15.5352 18.4133 15.6781 18.2385 15.6781H0.318226C0.142877 15.6781 0 15.5352 0 15.3604V13.924C0 13.7487 0.142877 13.6058 0.318226 13.6058Z" fill="#4FB379"/>
<path fill-rule="evenodd" clip-rule="evenodd" d="M0.846924 13.6058H17.7091L16.6035 5.22313C16.5239 4.62023 16.1061 4.11745 15.4978 4.11745H3.05827C2.4505 4.11745 2.03215 4.62077 1.9526 5.22313L0.846924 13.6058Z" fill="#67BB87"/>
<path fill-rule="evenodd" clip-rule="evenodd" d="M2.76709 12.525H15.7889L14.9349 6.44083C14.8738 6.003 14.5507 5.63823 14.0814 5.63823H4.47512C4.00536 5.63823 3.6828 6.003 3.62111 6.44083L2.76709 12.525Z" fill="#4FB379"/>
<path fill-rule="evenodd" clip-rule="evenodd" d="M2.80933 15.6781H3.50044V17.6626H2.80933V15.6781Z" fill="#4FB379"/>
<path fill-rule="evenodd" clip-rule="evenodd" d="M3.50049 15.6781L3.87229 16.0926L3.50049 17.6626V15.6781Z" fill="#5DA668"/>
<path fill-rule="evenodd" clip-rule="evenodd" d="M15.7468 15.6781H15.0557V17.6626H15.7468V15.6781Z" fill="#4FB379"/>
<path fill-rule="evenodd" clip-rule="evenodd" d="M15.0556 15.6781L14.6838 16.0926L15.0556 17.6626V15.6781Z" fill="#5DA668"/>
<path fill-rule="evenodd" clip-rule="evenodd" d="M9.62373 15.6781H8.93262V17.6626H9.62373V15.6781Z" fill="#4FB379"/>
<path fill-rule="evenodd" clip-rule="evenodd" d="M4.77386 6.67734C4.16285 7.39984 3.47173 9.02994 2.92241 12.525H2.76709L3.62111 6.44083C3.6828 6.003 4.00536 5.63823 4.47512 5.63823C7.67687 5.63823 10.8792 5.63823 14.0814 5.63823H14.1031L14.1247 5.63931L14.1464 5.64039L14.1675 5.64202L14.1886 5.64472L14.2092 5.64743L14.2297 5.65068L14.2503 5.65447L14.2703 5.6588L14.2903 5.66367L14.3098 5.66908L14.3288 5.67449L14.3483 5.68044L14.3672 5.68748L14.3856 5.69451L14.404 5.70209L14.4224 5.70967L14.4403 5.71833L14.4576 5.72699L14.4749 5.73619L14.4922 5.74539L14.5084 5.75567L14.5252 5.76595L14.5415 5.77678L14.5572 5.7876L14.5729 5.79897L14.5885 5.81087L14.6037 5.82332L14.6183 5.83523V5.83577L14.6329 5.84876L14.647 5.86175L14.6611 5.87528C14.6703 5.88448 14.6795 5.89368 14.6881 5.90288V5.90342L14.7011 5.91749V5.91803L14.7141 5.93264C14.7266 5.94726 14.7385 5.96295 14.7504 5.97864L14.7617 5.99434L14.7731 6.01058C14.7801 6.0214 14.7872 6.03222 14.7942 6.04359L14.8045 6.06037L14.8142 6.07768L14.8234 6.095L14.8332 6.11286L14.8418 6.13072L14.8505 6.14858L14.8586 6.16698L14.8662 6.18538L14.8738 6.20378V6.20433L14.8808 6.22273L14.8878 6.24167V6.24221L14.8938 6.26115L14.9003 6.28064L14.9057 6.30012L14.9111 6.3196L14.916 6.33963L14.9203 6.35965L14.9246 6.37967L14.9284 6.3997L14.9322 6.42026L14.9349 6.44083L15.7889 12.525H15.6336C15.0843 9.02994 14.3932 7.39984 13.7822 6.67734H4.77386ZM9.27828 18.5415C11.0485 18.5415 12.4838 19.9768 12.4838 21.7471C12.4838 23.5179 11.0485 24.9532 9.27828 24.9532C7.50747 24.9532 6.07221 23.5179 6.07221 21.7471C6.07221 19.9768 7.50747 18.5415 9.27828 18.5415Z" fill="#5DA668"/>
<path fill-rule="evenodd" clip-rule="evenodd" d="M9.27841 18.7575C10.9291 18.7575 12.268 20.0959 12.268 21.7471C12.268 23.3983 10.9291 24.7367 9.27841 24.7367C7.62721 24.7367 6.28882 23.3983 6.28882 21.7471C6.28882 20.0959 7.62721 18.7575 9.27841 18.7575Z" fill="#FFE356"/>
<path fill-rule="evenodd" clip-rule="evenodd" d="M7.51787 20.9921L8.60514 20.6961L8.90172 21.7833L8.65006 21.6394L8.16514 22.4799H8.91146H8.16514C7.79713 23.1234 8.26527 23.5482 8.99589 23.5482H8.02335C7.6759 23.5482 7.37824 23.3756 7.20451 23.0752C7.03079 22.7748 7.03079 22.4306 7.20451 22.1303L7.77602 21.1399L7.51787 20.9921Z" fill="#56BF5D"/>
<path fill-rule="evenodd" clip-rule="evenodd" d="M9.50942 23.7674L8.70898 22.974L9.50293 22.1741L9.50401 22.4799H10.391C11.1303 22.5389 11.2294 21.9181 10.9063 21.3574L11.3522 22.1303C11.5254 22.4306 11.5254 22.7748 11.3522 23.0752C11.1785 23.3756 10.8803 23.5482 10.5334 23.5482H9.50834L9.50942 23.7674Z" fill="#56BF5D"/>
<path fill-rule="evenodd" clip-rule="evenodd" d="M10.0966 19.9562L10.5831 20.7984L10.8494 20.643L10.5626 21.733L9.47258 21.4456L9.71287 21.3055L9.27829 20.5516C8.75062 19.5969 8.112 20.5624 8.08765 20.6003L8.45945 19.9562C8.63264 19.6553 8.93138 19.4832 9.27829 19.4832C9.6252 19.4832 9.9234 19.6553 10.0966 19.9562Z" fill="#56BF5D"/>
<path fill-rule="evenodd" clip-rule="evenodd" d="M8.02752 9.05104L7.55884 7.82739L8.26727 7.41283C8.26727 7.41283 8.50323 8.34802 8.5606 8.92494C8.57413 9.06349 8.48483 9.18905 8.34953 9.22152C8.21369 9.25345 8.07731 9.18147 8.02752 9.05104ZM8.70673 8.51309L8.4069 7.23748L9.16512 6.92196C9.16512 6.92196 9.27336 7.88043 9.25226 8.46005C9.24739 8.5986 9.14185 8.71117 9.0033 8.72524C8.86421 8.73877 8.7392 8.64893 8.70673 8.51309Z" fill="#F0BA7D"/>
<path fill-rule="evenodd" clip-rule="evenodd" d="M19.1086 0L13.281 2.84455C11.7407 3.53729 10.194 4.31067 8.66401 5.03642C8.56334 5.08458 8.49245 5.15278 8.43075 5.24586L6.98249 7.42799C6.9327 7.50213 6.91593 7.5871 6.90943 7.67586L6.779 9.30866C6.779 9.31299 6.77846 9.31624 6.77792 9.32111C6.68592 10.0577 7.26717 9.83633 7.31642 9.6507L7.73098 8.09637C7.77048 7.947 7.85978 7.8328 7.99454 7.75649L10.7309 6.22111C10.8266 6.16753 10.9376 6.17348 11.0274 6.23788C11.1162 6.30175 11.1579 6.40512 11.1378 6.51281L10.8402 8.10178C10.8337 8.13804 10.8337 8.17051 10.8407 8.20677C10.9419 8.71117 11.4994 8.39782 11.6558 8.02222C11.6601 8.01248 11.6639 8.00382 11.6693 7.99462L12.972 5.64364C13.0429 5.51592 13.1473 5.42987 13.2859 5.38549L20.5104 3.05995L19.1086 0Z" fill="#FED298"/>
<path fill-rule="evenodd" clip-rule="evenodd" d="M9.38927 9.73675L10.0788 9.23614L11.2337 9.59008L11.7148 10.6178L11.5828 11.4794L10.9853 11.9654L10.424 11.5703L9.70966 11.9486L8.8275 11.2575L8.35449 11.3869L8.53904 10.3072L9.1165 9.99598L9.62956 10.1859L9.38927 9.73675Z" fill="#FEFEFE"/>
<path d="M10.4365 8.02222C10.4365 7.98596 10.4657 7.95674 10.5014 7.95674C10.5377 7.95674 10.5669 7.98596 10.5669 8.02222V8.77612C10.5669 8.81238 10.5377 8.8416 10.5014 8.8416C10.4657 8.8416 10.4365 8.81238 10.4365 8.77612V8.02222ZM9.47314 8.37563C9.47314 8.33991 9.50237 8.31068 9.53863 8.31068C9.57435 8.31068 9.60357 8.33991 9.60357 8.37563V9.13006C9.60357 9.16632 9.57435 9.19501 9.53863 9.19501C9.50237 9.19501 9.47314 9.16632 9.47314 9.13006V8.37563Z" fill="#FEFEFE"/>
<path fill-rule="evenodd" clip-rule="evenodd" d="M11.041 9.53109L11.3917 10.7087L10.5534 11.2012L10.1562 10.5101L9.80221 10.6054L9.28373 10.5015L9.81952 11.2272L9.13653 11.2965L8.82588 10.89L8.44974 10.8305L8.35449 11.3869L8.8275 11.2575L9.70966 11.9486L10.424 11.5703L10.9853 11.9654L11.5828 11.4794L11.7148 10.6178L11.2337 9.59008L11.041 9.53109Z" fill="#ECF0F1"/>
</svg>
