<svg width="31" height="31" viewBox="0 0 31 31" fill="none" xmlns="http://www.w3.org/2000/svg">
<g clip-path="url(#clip0_208_1202)">
<path d="M30.1954 13.3342V17.6658L26.9852 17.9752C26.6812 19.382 26.1173 20.7198 25.3225 21.9198L27.372 24.3949L24.3169 27.4501L21.8417 25.4006C20.6381 26.1887 19.3016 26.752 17.8971 27.0632L17.5877 30.2734H13.4124L13.103 27.0632C11.6984 26.752 10.3619 26.1887 9.15834 25.4006L6.68318 27.4501L3.62799 24.3949L5.6775 21.9198C4.88274 20.7198 4.31888 19.382 4.01488 17.9752L0.804688 17.6658V13.3342L4.01488 13.0248C4.32611 11.6203 4.88943 10.2838 5.6775 9.08021L3.62799 6.60506L6.68318 3.54986L9.15834 5.59938C10.3583 4.80461 11.6961 4.24076 13.103 3.93676L13.4124 0.726562H17.5877L17.8971 3.93676C19.3039 4.24076 20.6417 4.80461 21.8417 5.59938L24.3169 3.54986L27.372 6.60506L25.3225 9.08021C26.1106 10.2838 26.6739 11.6203 26.9852 13.0248L30.1954 13.3342ZM24.2781 15.5C24.2781 13.7755 23.7667 12.0897 22.8086 10.6558C21.8505 9.22189 20.4888 8.10431 18.8955 7.44437C17.3022 6.78442 15.5491 6.61175 13.8577 6.94818C12.1663 7.28462 10.6127 8.11506 9.39324 9.33448C8.17381 10.5539 7.34337 12.1075 7.00693 13.7989C6.6705 15.4903 6.84317 17.2435 7.50312 18.8368C8.16306 20.43 9.28065 21.7918 10.7145 22.7499C12.1484 23.708 13.8342 24.2194 15.5588 24.2194C17.8712 24.2193 20.089 23.3006 21.7242 21.6654C23.3593 20.0302 24.278 17.8125 24.2781 15.5Z" fill="#00ACEA"/>
<path d="M15.5587 24.2194C20.3743 24.2194 24.2781 20.3156 24.2781 15.5C24.2781 10.6844 20.3743 6.78064 15.5587 6.78064C10.7431 6.78064 6.83936 10.6844 6.83936 15.5C6.83936 20.3156 10.7431 24.2194 15.5587 24.2194Z" fill="#00EFD1"/>
<path d="M19.4461 11.4777C18.5157 10.5199 17.2296 10 15.916 10C13.1248 10 10.8809 12.2713 10.9083 15.0351C10.9083 15.9108 11.1546 16.7591 11.565 17.5253L10.8535 20.125L13.5079 19.4409C14.2468 19.8513 15.0677 20.0429 15.8886 20.0429C18.6525 20.0429 20.8964 17.7716 20.8964 15.0078C20.8964 13.6669 20.3765 12.4081 19.4461 11.4777ZM15.916 19.1946C15.1772 19.1946 14.4383 19.003 13.8089 18.6199L13.6447 18.5378L12.0576 18.9483L12.4681 17.3885L12.3586 17.2243C11.1546 15.2814 11.7292 12.7091 13.6995 11.5051C15.6697 10.301 18.2147 10.8757 19.4187 12.846C20.6228 14.8162 20.0481 17.3612 18.0778 18.5652C17.4485 18.9757 16.6822 19.1946 15.916 19.1946ZM18.3241 16.1571L18.0231 16.0203C18.0231 16.0203 17.5853 15.8287 17.3116 15.6919C17.2843 15.6919 17.2569 15.6645 17.2296 15.6645C17.1474 15.6645 17.0927 15.6919 17.038 15.7193C17.038 15.7193 17.0106 15.7466 16.6275 16.1845C16.6001 16.2392 16.5454 16.2665 16.4907 16.2665H16.4633C16.436 16.2665 16.3812 16.2392 16.3538 16.2118L16.2171 16.1571C15.916 16.0203 15.6424 15.8561 15.4235 15.6372C15.3687 15.5824 15.2866 15.5277 15.2319 15.473C15.0403 15.2814 14.8488 15.0625 14.712 14.8162L14.6846 14.7615C14.6572 14.7341 14.6572 14.7068 14.6299 14.652C14.6299 14.5973 14.6299 14.5426 14.6572 14.5152C14.6572 14.5152 14.7667 14.3784 14.8488 14.2963C14.9035 14.2415 14.9309 14.1595 14.9856 14.1047C15.0403 14.0226 15.0677 13.9132 15.0403 13.8311C15.013 13.6943 14.6846 12.9554 14.6025 12.7912C14.5478 12.7091 14.4931 12.6818 14.411 12.6544H14.3288C14.2741 12.6544 14.1921 12.6544 14.1099 12.6544C14.0552 12.6544 14.0005 12.6818 13.9458 12.6818L13.9184 12.7091C13.8636 12.7365 13.8089 12.7912 13.7542 12.8186C13.6995 12.8733 13.6721 12.928 13.6174 12.9828C13.4258 13.229 13.3163 13.5301 13.3163 13.8311C13.3163 14.05 13.3711 14.2689 13.4532 14.4605L13.4806 14.5426C13.7268 15.0625 14.0552 15.5277 14.4931 15.9382L14.6025 16.0476C14.6846 16.1297 14.7667 16.1845 14.8214 16.2665C15.3961 16.7591 16.0528 17.1149 16.7917 17.3064C16.8738 17.3338 16.9833 17.3338 17.0653 17.3612C17.1474 17.3612 17.2569 17.3612 17.339 17.3612C17.4758 17.3612 17.64 17.3064 17.7495 17.2517C17.8316 17.197 17.8863 17.197 17.941 17.1422L17.9958 17.0875C18.0505 17.0328 18.1052 17.0054 18.1599 16.9507C18.2147 16.896 18.2694 16.8412 18.2968 16.7865C18.3515 16.677 18.3788 16.5402 18.4062 16.4034C18.4062 16.3487 18.4062 16.2665 18.4062 16.2118C18.4062 16.2118 18.3788 16.1845 18.3241 16.1571Z" fill="white"/>
</g>
<defs>
<clipPath id="clip0_208_1202">
<rect width="31" height="31" fill="white"/>
</clipPath>
</defs>
</svg>
