<svg width="31" height="31" viewBox="0 0 31 31" fill="none" xmlns="http://www.w3.org/2000/svg">
<g clip-path="url(#clip0_314_393)">
<path d="M23.0375 5.71817C22.7269 5.71817 22.4743 5.46551 22.4743 5.15496V2.39578L22.4137 2.33523H11.2416C11.884 3.22896 12.2627 4.32414 12.2627 5.50631C12.2627 8.50914 9.81979 10.952 6.81703 10.952C5.93298 10.952 5.09756 10.7401 4.35864 10.3647V30.3762C4.3587 30.7208 4.63795 31 4.98246 31H25.2336C25.578 31 25.8573 30.7208 25.8573 30.3762V27.6567H15.2227C14.7402 27.6567 14.3477 27.2642 14.3477 26.7816V8.61927C14.3477 8.13671 14.7402 7.74419 15.2227 7.74419H25.8573V5.77871L25.7967 5.71817H23.0375Z" fill="#DFF6FD"/>
<path d="M7.35262 30.3762V10.9257C7.17637 10.9429 6.99776 10.952 6.81703 10.952C5.93298 10.952 5.09756 10.7401 4.35864 10.3647V30.3762C4.35864 30.7208 4.63788 31 4.9824 31H7.97638C7.63187 31 7.35262 30.7208 7.35262 30.3762V30.3762Z" fill="#C8EFFE"/>
<path d="M6.81705 11.0125C9.85807 11.0125 12.3233 8.54727 12.3233 5.50625C12.3233 2.46523 9.85807 0 6.81705 0C3.77603 0 1.31079 2.46523 1.31079 5.50625C1.31079 8.54727 3.77603 11.0125 6.81705 11.0125Z" fill="#FFE177"/>
<path d="M4.30471 5.50625C4.30471 2.98411 6.00045 0.858191 8.31401 0.206041C7.83805 0.0718691 7.33593 0 6.81705 0C3.77602 0 1.31079 2.46523 1.31079 5.50625C1.31079 8.54728 3.77602 11.0125 6.81705 11.0125C7.33593 11.0125 7.83805 10.9406 8.31401 10.8065C6.00051 10.1544 4.30471 8.02839 4.30471 5.50625V5.50625Z" fill="#FFD15B"/>
<path d="M7.52917 5.05215H6.10468C5.78378 5.05215 5.52277 4.79107 5.52277 4.47024V4.16811C5.52277 3.84721 5.78384 3.58619 6.10468 3.58619H7.52917C7.85007 3.58619 8.11108 3.84727 8.11108 4.16811C8.11108 4.41895 8.31434 4.62221 8.56519 4.62221C8.81603 4.62221 9.01929 4.41895 9.01929 4.16811C9.01929 3.34649 8.35079 2.67799 7.52917 2.67799H7.271V2.18235C7.271 1.9315 7.06774 1.72825 6.81689 1.72825C6.56605 1.72825 6.36279 1.9315 6.36279 2.18235V2.67799H6.10462C5.283 2.67799 4.6145 3.34649 4.6145 4.16811V4.47024C4.6145 5.29186 5.283 5.96035 6.10462 5.96035H7.52911C7.85001 5.96035 8.11102 6.22143 8.11102 6.54227V6.8444C8.11102 7.1653 7.84995 7.42632 7.52911 7.42632H6.10462C5.78372 7.42632 5.52271 7.16524 5.52271 6.8444C5.52271 6.59355 5.31945 6.3903 5.0686 6.3903C4.81776 6.3903 4.6145 6.59355 4.6145 6.8444C4.6145 7.66602 5.283 8.33452 6.10462 8.33452H6.36279V8.83015C6.36279 9.081 6.56605 9.28426 6.81689 9.28426C7.06774 9.28426 7.271 9.081 7.271 8.83015V8.33452H7.52917C8.35079 8.33452 9.01929 7.66602 9.01929 6.8444V6.54227C9.01935 5.72065 8.35085 5.05215 7.52917 5.05215V5.05215Z" fill="#FE860A"/>
<path d="M28.7537 27.7173H15.2227C14.706 27.7173 14.2871 27.2984 14.2871 26.7816V8.61927C14.2871 8.10256 14.706 7.68364 15.2227 7.68364H28.7537C29.2704 7.68364 29.6893 8.1025 29.6893 8.61927V26.7816C29.6893 27.2984 29.2704 27.7173 28.7537 27.7173Z" fill="#60B7FF"/>
<path d="M17.2811 26.7816V25.6599H16.2748C16.1025 25.6599 15.9629 25.5203 15.9629 25.348V23.8715C15.9629 23.6993 16.1025 23.5596 16.2748 23.5596H17.2811V21.9793H16.2748C16.1025 21.9793 15.9629 21.8397 15.9629 21.6674V20.1909C15.9629 20.0187 16.1025 19.8791 16.2748 19.8791H17.2811V18.2987H16.2748C16.1025 18.2987 15.9629 18.1591 15.9629 17.9868V16.5103C15.9629 16.3381 16.1025 16.1985 16.2748 16.1985H17.2811V14.8861H16.2124C15.9615 14.8861 15.7583 14.6829 15.7583 14.432C15.7583 14.1812 15.9615 13.9779 16.2124 13.9779H17.2811V12.8947H16.5243C16.1019 12.8947 15.7583 12.5511 15.7583 12.1287V9.92085C15.7583 9.49847 16.1019 9.15487 16.5243 9.15487H17.2811V8.61933C17.2811 8.10262 17.7 7.6837 18.2167 7.6837H15.2227C14.706 7.6837 14.2871 8.10256 14.2871 8.61933V26.7817C14.2871 27.2984 14.706 27.7173 15.2227 27.7173H18.2167C17.7 27.7173 17.2811 27.2984 17.2811 26.7816V26.7816Z" fill="#26A6FE"/>
<path d="M18.9307 14.8861H16.2124C15.9616 14.8861 15.7583 14.6829 15.7583 14.432C15.7583 14.1812 15.9616 13.9779 16.2124 13.9779H18.9307C19.1815 13.9779 19.3848 14.1812 19.3848 14.432C19.3848 14.6829 19.1815 14.8861 18.9307 14.8861Z" fill="#FFE177"/>
<path d="M23.3474 14.8861H20.6292C20.3783 14.8861 20.175 14.6829 20.175 14.432C20.175 14.1812 20.3783 13.9779 20.6292 13.9779H23.3474C23.5982 13.9779 23.8015 14.1812 23.8015 14.432C23.8015 14.6829 23.5982 14.8861 23.3474 14.8861Z" fill="#FFE177"/>
<path d="M27.7641 14.8861H25.0459C24.7951 14.8861 24.5918 14.6829 24.5918 14.432C24.5918 14.1812 24.7951 13.9779 25.0459 13.9779H27.7641C28.015 13.9779 28.2183 14.1812 28.2183 14.432C28.2183 14.6829 28.0149 14.8861 27.7641 14.8861Z" fill="#FFE177"/>
<path d="M15.9629 17.9868V16.5103C15.9629 16.3381 16.1025 16.1985 16.2748 16.1985H18.3692C18.5415 16.1985 18.6811 16.3381 18.6811 16.5103V17.9868C18.6811 18.1591 18.5415 18.2987 18.3692 18.2987H16.2748C16.1025 18.2987 15.9629 18.1591 15.9629 17.9868Z" fill="white"/>
<path d="M16.9609 17.9868V16.5103C16.9609 16.3381 17.1005 16.1985 17.2728 16.1985H16.2748C16.1025 16.1985 15.9629 16.3381 15.9629 16.5103V17.9868C15.9629 18.1591 16.1025 18.2987 16.2748 18.2987H17.2728C17.1005 18.2987 16.9609 18.1591 16.9609 17.9868Z" fill="#F2FBFF"/>
<path d="M20.3796 17.9868V16.5103C20.3796 16.3381 20.5193 16.1985 20.6915 16.1985H22.786C22.9582 16.1985 23.0978 16.3381 23.0978 16.5103V17.9868C23.0978 18.1591 22.9582 18.2987 22.786 18.2987H20.6915C20.5193 18.2987 20.3796 18.1591 20.3796 17.9868Z" fill="white"/>
<path d="M21.3776 17.9868V16.5103C21.3776 16.3381 21.5173 16.1985 21.6895 16.1985H20.6915C20.5193 16.1985 20.3796 16.3381 20.3796 16.5103V17.9868C20.3796 18.1591 20.5193 18.2987 20.6915 18.2987H21.6895C21.5173 18.2987 21.3776 18.1591 21.3776 17.9868Z" fill="#F2FBFF"/>
<path d="M24.7964 17.9868V16.5103C24.7964 16.3381 24.936 16.1985 25.1083 16.1985H27.2027C27.375 16.1985 27.5146 16.3381 27.5146 16.5103V17.9868C27.5146 18.1591 27.375 18.2987 27.2027 18.2987H25.1083C24.936 18.2987 24.7964 18.1591 24.7964 17.9868Z" fill="white"/>
<path d="M25.7944 17.9868V16.5103C25.7944 16.3381 25.934 16.1985 26.1063 16.1985H25.1083C24.936 16.1985 24.7964 16.3381 24.7964 16.5103V17.9868C24.7964 18.1591 24.936 18.2987 25.1083 18.2987H26.1063C25.934 18.2987 25.7944 18.1591 25.7944 17.9868Z" fill="#F2FBFF"/>
<path d="M20.3796 21.6674V20.1909C20.3796 20.0187 20.5193 19.8791 20.6915 19.8791H22.786C22.9582 19.8791 23.0978 20.0187 23.0978 20.1909V21.6674C23.0978 21.8397 22.9582 21.9793 22.786 21.9793H20.6915C20.5193 21.9793 20.3796 21.8397 20.3796 21.6674Z" fill="white"/>
<path d="M21.3776 21.6674V20.1909C21.3776 20.0187 21.5173 19.8791 21.6895 19.8791H20.6915C20.5193 19.8791 20.3796 20.0187 20.3796 20.1909V21.6674C20.3796 21.8397 20.5193 21.9793 20.6915 21.9793H21.6895C21.5173 21.9793 21.3776 21.8397 21.3776 21.6674Z" fill="#F2FBFF"/>
<path d="M24.7964 20.1909V25.3481C24.7964 25.5203 24.936 25.6599 25.1083 25.6599H27.2027C27.375 25.6599 27.5146 25.5203 27.5146 25.3481V20.1909C27.5146 20.0187 27.375 19.8791 27.2027 19.8791H25.1083C24.936 19.8791 24.7964 20.0187 24.7964 20.1909Z" fill="white"/>
<path d="M25.7944 25.3481V20.1909C25.7944 20.0187 25.934 19.8791 26.1063 19.8791H25.1083C24.936 19.8791 24.7964 20.0187 24.7964 20.1909V25.3481C24.7964 25.5203 24.936 25.6599 25.1083 25.6599H26.1063C25.934 25.6599 25.7944 25.5203 25.7944 25.3481Z" fill="#F2FBFF"/>
<path d="M15.9629 21.6674V20.1909C15.9629 20.0187 16.1025 19.8791 16.2748 19.8791H18.3692C18.5415 19.8791 18.6811 20.0187 18.6811 20.1909V21.6674C18.6811 21.8397 18.5415 21.9793 18.3692 21.9793H16.2748C16.1025 21.9793 15.9629 21.8397 15.9629 21.6674Z" fill="white"/>
<path d="M16.9609 21.6674V20.1909C16.9609 20.0187 17.1005 19.8791 17.2728 19.8791H16.2748C16.1025 19.8791 15.9629 20.0187 15.9629 20.1909V21.6674C15.9629 21.8397 16.1025 21.9793 16.2748 21.9793H17.2728C17.1005 21.9793 16.9609 21.8397 16.9609 21.6674Z" fill="#F2FBFF"/>
<path d="M15.9629 25.3481V23.8716C15.9629 23.6993 16.1025 23.5597 16.2748 23.5597H18.3692C18.5415 23.5597 18.6811 23.6993 18.6811 23.8716V25.3481C18.6811 25.5203 18.5415 25.6599 18.3692 25.6599H16.2748C16.1025 25.6599 15.9629 25.5203 15.9629 25.3481Z" fill="white"/>
<path d="M16.9609 25.3481V23.8716C16.9609 23.6993 17.1005 23.5597 17.2728 23.5597H16.2748C16.1025 23.5597 15.9629 23.6993 15.9629 23.8716V25.3481C15.9629 25.5203 16.1025 25.6599 16.2748 25.6599H17.2728C17.1005 25.6599 16.9609 25.5203 16.9609 25.3481Z" fill="#F2FBFF"/>
<path d="M20.3796 25.3481V23.8716C20.3796 23.6993 20.5193 23.5597 20.6915 23.5597H22.786C22.9582 23.5597 23.0978 23.6993 23.0978 23.8716V25.3481C23.0978 25.5203 22.9582 25.6599 22.786 25.6599H20.6915C20.5193 25.6599 20.3796 25.5203 20.3796 25.3481Z" fill="white"/>
<path d="M21.3776 25.3481V23.8716C21.3776 23.6993 21.5173 23.5597 21.6895 23.5597H20.6915C20.5193 23.5597 20.3796 23.6993 20.3796 23.8716V25.3481C20.3796 25.5203 20.5193 25.6599 20.6915 25.6599H21.6895C21.5173 25.6599 21.3776 25.5203 21.3776 25.3481Z" fill="#F2FBFF"/>
<path d="M16.2124 12.1287V9.92079C16.2124 9.74853 16.352 9.60891 16.5243 9.60891H27.4522C27.6245 9.60891 27.7641 9.74853 27.7641 9.92079V12.1287C27.7641 12.3009 27.6245 12.4406 27.4522 12.4406H16.5243C16.352 12.4406 16.2124 12.3009 16.2124 12.1287V12.1287Z" fill="white"/>
<path d="M18.0212 11.4426C17.849 11.4426 17.7094 11.303 17.7094 11.1307V9.60891H16.5243C16.352 9.60891 16.2124 9.74853 16.2124 9.92079V12.1287C16.2124 12.3009 16.352 12.4406 16.5243 12.4406H27.4522C27.6245 12.4406 27.7641 12.3009 27.7641 12.1287V11.4426H18.0212Z" fill="#F2FBFF"/>
<path d="M27.4521 12.8947H16.5243C16.1019 12.8947 15.7583 12.5511 15.7583 12.1288V9.92085C15.7583 9.49847 16.102 9.15487 16.5243 9.15487H27.4521C27.8745 9.15487 28.2181 9.49853 28.2181 9.92085V12.1288C28.2182 12.5511 27.8745 12.8947 27.4521 12.8947ZM16.6665 11.9865H27.31V10.063H16.6665V11.9865Z" fill="#8AC9FE"/>
<path d="M11.7882 14.1453H7.26685C7.016 14.1453 6.81274 13.942 6.81274 13.6912C6.81274 13.4403 7.016 13.2371 7.26685 13.2371H11.7882C12.039 13.2371 12.2423 13.4403 12.2423 13.6912C12.2423 13.942 12.039 14.1453 11.7882 14.1453Z" fill="#8AC9FE"/>
<path d="M11.7882 16.2998H9.26245C9.01161 16.2998 8.80835 16.0965 8.80835 15.8457C8.80835 15.5948 9.01161 15.3916 9.26245 15.3916H11.7882C12.039 15.3916 12.2423 15.5948 12.2423 15.8457C12.2423 16.0965 12.039 16.2998 11.7882 16.2998Z" fill="#8AC9FE"/>
<path d="M7.79669 16.2998H7.26685C7.016 16.2998 6.81274 16.0965 6.81274 15.8457C6.81274 15.5948 7.016 15.3916 7.26685 15.3916H7.79669C8.04754 15.3916 8.25079 15.5948 8.25079 15.8457C8.25079 16.0965 8.04754 16.2998 7.79669 16.2998Z" fill="#8AC9FE"/>
<path d="M11.7882 18.4543H7.26685C7.016 18.4543 6.81274 18.2511 6.81274 18.0002C6.81274 17.7494 7.016 17.5461 7.26685 17.5461H11.7882C12.039 17.5461 12.2423 17.7494 12.2423 18.0002C12.2423 18.2511 12.039 18.4543 11.7882 18.4543Z" fill="#8AC9FE"/>
<path d="M11.7882 20.6088H7.26685C7.016 20.6088 6.81274 20.4056 6.81274 20.1547C6.81274 19.9039 7.016 19.7006 7.26685 19.7006H11.7882C12.039 19.7006 12.2423 19.9039 12.2423 20.1547C12.2423 20.4056 12.039 20.6088 11.7882 20.6088Z" fill="#8AC9FE"/>
<path d="M11.7882 22.7634H7.26685C7.016 22.7634 6.81274 22.5601 6.81274 22.3093C6.81274 22.0584 7.016 21.8552 7.26685 21.8552H11.7882C12.039 21.8552 12.2423 22.0584 12.2423 22.3093C12.2423 22.5601 12.039 22.7634 11.7882 22.7634Z" fill="#8AC9FE"/>
<path d="M11.7882 26.0169H11.3208C11.07 26.0169 10.8667 25.8136 10.8667 25.5628C10.8667 25.3119 11.07 25.1087 11.3208 25.1087H11.7882C12.039 25.1087 12.2423 25.3119 12.2423 25.5628C12.2423 25.8136 12.039 26.0169 11.7882 26.0169Z" fill="#8AC9FE"/>
<path d="M9.86546 26.0169H7.26685C7.016 26.0169 6.81274 25.8136 6.81274 25.5628C6.81274 25.3119 7.016 25.1087 7.26685 25.1087H9.86546C10.1163 25.1087 10.3196 25.3119 10.3196 25.5628C10.3196 25.8136 10.1163 26.0169 9.86546 26.0169Z" fill="#8AC9FE"/>
<path d="M11.7882 28.1714H7.26685C7.016 28.1714 6.81274 27.9681 6.81274 27.7173C6.81274 27.4664 7.016 27.2632 7.26685 27.2632H11.7882C12.039 27.2632 12.2423 27.4664 12.2423 27.7173C12.2423 27.9681 12.039 28.1714 11.7882 28.1714Z" fill="#8AC9FE"/>
<path d="M22.4138 2.33523V5.15502C22.4138 5.49953 22.6931 5.77877 23.0376 5.77877H25.8574L22.4138 2.33523Z" fill="#8AC9FE"/>
<path d="M20.0512 5.50201H14.2871C14.0363 5.50201 13.833 5.29876 13.833 5.04791C13.833 4.79707 14.0363 4.59381 14.2871 4.59381H20.0512C20.3021 4.59381 20.5053 4.79707 20.5053 5.04791C20.5053 5.29876 20.3021 5.50201 20.0512 5.50201Z" fill="#8AC9FE"/>
</g>
<defs>
<clipPath id="clip0_314_393">
<rect width="31" height="31" fill="white"/>
</clipPath>
</defs>
</svg>
