<svg width="30" height="31" viewBox="0 0 30 31" fill="none" xmlns="http://www.w3.org/2000/svg">
<path d="M22.6679 18.8937C22.3767 17.6964 21.692 16.6316 20.7234 15.8699C19.7547 15.1083 18.5584 14.694 17.3262 14.6934C16.6442 15.6205 15.7537 16.3742 14.7267 16.8937C13.6996 17.4132 12.5648 17.6839 11.4138 17.6839C10.2629 17.6839 9.12808 17.4132 8.10103 16.8937C7.07399 16.3742 6.18349 15.6205 5.50147 14.6934C4.04263 14.6942 2.64377 15.2741 1.61221 16.3056C0.580657 17.3372 0.00078629 18.7361 0 20.1949V31H22.8277V30.9543L22.6679 18.8937Z" fill="#00ACEA"/>
<path d="M11.4063 0C12.6155 0.000752716 13.7974 0.360069 14.8024 1.03251C15.8074 1.70495 16.5905 2.66032 17.0525 3.7778C17.5146 4.89528 17.6349 6.12468 17.3983 7.31053C17.1616 8.49639 16.5786 9.58544 15.723 10.44C14.8674 11.2945 13.7777 11.8761 12.5915 12.1113C11.4054 12.3465 10.1761 12.2246 9.05922 11.7612C7.94232 11.2977 6.98793 10.5135 6.31674 9.50762C5.64555 8.50175 5.2877 7.31945 5.28845 6.11021C5.29047 4.48898 5.93591 2.93485 7.08301 1.78918C8.2301 0.643508 9.78504 -1.25401e-06 11.4063 0Z" fill="#EDB288"/>
<path d="M23.581 18.8252C25.1955 18.8252 26.7438 19.4666 27.8855 20.6082C29.0271 21.7498 29.6684 23.2981 29.6684 24.9126C29.6684 26.5271 29.0271 28.0754 27.8855 29.217C26.7438 30.3587 25.1955 31 23.581 31C23.3267 31.0002 23.0726 30.9849 22.8201 30.9543C21.3621 30.7703 20.0198 30.0652 19.041 28.969C18.0622 27.8729 17.5128 26.4597 17.4943 24.9903C17.4757 23.5208 17.9893 22.0942 18.9401 20.9738C19.891 19.8533 21.215 19.1145 22.6679 18.8937C22.9701 18.8477 23.2754 18.8248 23.581 18.8252Z" fill="#00EFD1"/>
<path d="M23.5809 21.5417C22.9148 21.5417 22.2617 21.7261 21.6939 22.0744L21.7015 21.5265C21.7049 21.345 21.6365 21.1696 21.511 21.0384C21.3856 20.9072 21.2133 20.8311 21.0318 20.8265H21.0166C20.8375 20.8261 20.6654 20.8961 20.5374 21.0213C20.4093 21.1465 20.3355 21.317 20.3318 21.4961L20.2938 23.6191C20.2906 23.7921 20.3533 23.9598 20.4691 24.0884C20.585 24.2169 20.7453 24.2967 20.9177 24.3115L23.1624 24.5093C23.3441 24.5255 23.5247 24.4688 23.6645 24.3518C23.8044 24.2348 23.892 24.067 23.9081 23.8854C23.9243 23.7037 23.8676 23.5231 23.7506 23.3833C23.6336 23.2434 23.4658 23.1558 23.2842 23.1397L22.6907 23.0864C22.9713 22.9628 23.2743 22.8981 23.5809 22.8962C25.118 22.8962 25.9398 24.2658 25.9398 25.255C25.9398 26.2442 25.118 27.6139 23.5809 27.6139C22.0591 27.6139 21.2221 26.2214 21.2221 25.255C21.2221 25.0734 21.1499 24.8992 21.0215 24.7708C20.8931 24.6424 20.7189 24.5702 20.5372 24.5702C20.3556 24.5702 20.1814 24.6424 20.053 24.7708C19.9246 24.8992 19.8524 25.0734 19.8524 25.255C19.8524 27.0584 21.3514 28.9836 23.5809 28.9836C25.8104 28.9836 27.3095 27.0584 27.3095 25.255C27.3095 23.4516 25.8104 21.5417 23.5809 21.5417Z" fill="#083863"/>
</svg>
