<svg width="31" height="31" viewBox="0 0 31 31" fill="none" xmlns="http://www.w3.org/2000/svg">
<path d="M12.555 20.8717C12.0221 19.8448 9.62448 19.3702 9.62448 19.3702C7.02339 18.7841 5.33776 17.2437 5.33776 17.2437C3.68605 15.9844 3.24042 13.8919 3.18714 12.2111C3.15323 11.1552 3.28401 10.0992 3.53104 9.07234C4.40292 5.43469 2.08276 4.32547 2.08276 4.32547L3.14354 2.12641C8.92698 3.87984 12.555 0 12.555 0C12.555 0 16.1781 3.87984 21.9664 2.12156L23.0271 4.32062C23.0271 4.32062 20.707 5.42984 21.5789 9.0675C21.8259 10.0944 21.9567 11.1503 21.9228 12.2063C21.8695 13.887 21.4239 15.9795 19.7721 17.2437C19.7721 17.2437 18.0865 18.7841 15.4854 19.3702C15.4806 19.3702 13.0829 19.8497 12.555 20.8717Z" fill="#DA4765"/>
<path d="M14.8944 14.1534L13.7561 10.6369C13.7174 10.5158 13.7658 10.3898 13.8675 10.3172C14.536 9.8425 14.938 9.00938 14.7975 8.09875C14.6425 7.11063 13.8191 6.3211 12.8261 6.20485C12.5061 6.16606 12.1815 6.19562 11.8737 6.29158C11.566 6.38754 11.2821 6.5477 11.0408 6.7615C10.7996 6.9753 10.6064 7.23786 10.4741 7.53184C10.3419 7.82581 10.2735 8.14451 10.2735 8.46688C10.2735 9.22735 10.6464 9.90063 11.2228 10.3123C11.3294 10.3898 11.3827 10.5206 11.3391 10.6466L10.2057 14.1534C10.1233 14.415 10.3171 14.6814 10.5883 14.6814H14.5069C14.7878 14.6814 14.9816 14.415 14.8944 14.1534Z" fill="#E9E9E9"/>
<path d="M28.9221 17.1711V19.9611C28.9221 20.6828 28.8785 21.3997 28.7913 22.1117L27.9485 29.0189C27.9388 29.1158 27.9291 29.2127 27.9291 29.3095V31H17.7476V29.76C17.7476 29.3725 17.6507 28.9898 17.4715 28.6508L15.006 23.9766C14.7541 23.497 14.4538 23.0417 14.1148 22.6203L10.5304 18.1689C10.2739 17.8501 10.1544 17.4426 10.198 17.0358C10.2416 16.629 10.4447 16.2561 10.7629 15.9989C11.0817 15.7425 11.4891 15.623 11.8959 15.6665C12.3027 15.7101 12.6756 15.9133 12.9329 16.2314L15.5969 19.5397C15.6502 19.6075 15.7616 19.5688 15.7616 19.4816V8.58313C15.7616 7.73063 16.4543 7.04282 17.3019 7.04282C18.1544 7.04282 18.8423 7.73547 18.8423 8.58313V16.2944C18.8423 16.367 18.9052 16.43 18.9779 16.43C19.0505 16.43 19.1135 16.367 19.1135 16.2944V14.4441C19.1135 13.5916 19.8062 12.9038 20.6538 12.9038C21.5063 12.9038 22.1941 13.5964 22.1941 14.4441V17.205C22.1941 17.2777 22.2571 17.3406 22.3298 17.3406C22.4024 17.3406 22.4654 17.2777 22.4654 17.205V15.8342C22.4654 14.9817 23.158 14.2939 24.0057 14.2939H24.0105C24.863 14.2939 25.5508 14.9866 25.5508 15.8342V18.0527C25.5508 18.1253 25.6138 18.1883 25.6865 18.1883C25.7591 18.1883 25.8221 18.1253 25.8221 18.0527V17.1711C25.8221 16.3186 26.5148 15.6308 27.3624 15.6308H27.3673C28.2294 15.6308 28.9221 16.3234 28.9221 17.1711Z" fill="#FFCC66"/>
</svg>
