<svg width="70" height="70" viewBox="0 0 70 70" fill="none" xmlns="http://www.w3.org/2000/svg">
<path d="M13.125 13.125C13.125 8.29251 17.0425 4.375 21.875 4.375C26.7075 4.375 30.625 8.29251 30.625 13.125C30.625 15.9458 29.2902 18.4549 27.2178 20.055C27.1554 20.101 27.0935 20.1475 27.0319 20.1946C25.5858 21.2513 23.8032 21.875 21.875 21.875C17.0425 21.875 13.125 17.9575 13.125 13.125ZM21.875 8.75C19.4588 8.75 17.5 10.7088 17.5 13.125C17.5 15.5412 19.4588 17.5 21.875 17.5C24.2912 17.5 26.25 15.5412 26.25 13.125C26.25 10.7088 24.2912 8.75 21.875 8.75ZM42.7822 20.055C40.7098 18.4549 39.375 15.9458 39.375 13.125C39.375 8.29251 43.2925 4.375 48.125 4.375C52.9576 4.375 56.875 8.29251 56.875 13.125C56.875 17.9575 52.9576 21.875 48.125 21.875C46.1969 21.875 44.4141 21.2513 42.9681 20.1946C42.9065 20.1475 42.8446 20.101 42.7822 20.055ZM48.125 8.75C45.7087 8.75 43.75 10.7088 43.75 13.125C43.75 15.5412 45.7087 17.5 48.125 17.5C50.5413 17.5 52.5 15.5412 52.5 13.125C52.5 10.7088 50.5413 8.75 48.125 8.75ZM10.9374 26.25H22.6219C22.1382 27.6184 21.875 29.091 21.875 30.625H10.9374C9.72943 30.625 8.75 31.6044 8.75 32.8125C8.75 36.3865 10.1698 39.0369 12.4167 40.8404C13.4498 41.6696 14.687 42.3412 16.0856 42.8293C15.0698 43.9119 14.2717 45.2012 13.7614 46.627C12.2741 46.0219 10.898 45.2314 9.67816 44.2523C6.38299 41.6074 4.375 37.6954 4.375 32.8125C4.375 29.1883 7.31308 26.25 10.9374 26.25ZM27.4206 26.25C26.6761 27.537 26.25 29.0312 26.25 30.625C26.25 34.3155 28.5347 37.4724 31.7669 38.7583C32.7671 39.1562 33.858 39.375 35 39.375C36.142 39.375 37.233 39.1562 38.2331 38.7583C41.4653 37.4723 43.75 34.3155 43.75 30.625C43.75 29.0312 43.3239 27.537 42.5794 26.25C41.0665 23.6346 38.2387 21.875 35 21.875C31.7613 21.875 28.9335 23.6346 27.4206 26.25ZM34.0184 26.3606C34.334 26.2882 34.6625 26.25 35 26.25C35.3375 26.25 35.666 26.2882 35.9816 26.3606C37.9252 26.8061 39.375 28.5463 39.375 30.625C39.375 30.9625 39.3368 31.291 39.2644 31.6066C38.8189 33.5502 37.0787 35 35 35C32.9213 35 31.1811 33.5502 30.7356 31.6066C30.6632 31.2911 30.625 30.9625 30.625 30.625C30.625 28.5463 32.0748 26.8061 34.0184 26.3606ZM57.5833 40.8404C56.5504 41.6696 55.3131 42.3412 53.9144 42.8293C54.9303 43.9119 55.7283 45.2012 56.2384 46.627C57.7259 46.0219 59.1019 45.2314 60.3221 44.2523C63.6169 41.6074 65.625 37.6954 65.625 32.8125C65.625 29.1881 62.6867 26.25 59.0625 26.25H47.3782C47.8616 27.6184 48.125 29.091 48.125 30.625H59.0625C60.2704 30.625 61.25 31.6044 61.25 32.8125C61.25 36.3865 59.8303 39.0369 57.5833 40.8404ZM45.9375 43.75C48.6758 43.75 51.0221 45.4269 52.0061 47.81C52.3241 48.5813 52.5 49.4266 52.5 50.3125C52.5 55.1954 50.4919 59.1076 47.1971 61.7523C43.9539 64.3554 39.6072 65.625 35 65.625C30.3928 65.625 26.0462 64.3554 22.8032 61.7523C19.508 59.1076 17.5 55.1954 17.5 50.3125C17.5 49.4266 17.6757 48.5813 17.994 47.81C18.9778 45.4269 21.3243 43.75 24.0624 43.75H45.9375ZM45.9375 48.125H24.0624C22.8544 48.125 21.875 49.1046 21.875 50.3125C21.875 53.8864 23.2948 56.5368 25.5417 58.3402C27.8407 60.1856 31.1504 61.25 35 61.25C38.8497 61.25 42.1593 60.1856 44.4583 58.3402C46.7053 56.5368 48.125 53.8864 48.125 50.3125C48.125 49.1046 47.1454 48.125 45.9375 48.125Z" fill="white"/>
</svg>
