<svg width="70" height="70" viewBox="0 0 70 70" fill="none" xmlns="http://www.w3.org/2000/svg">
<path d="M60.4101 46.76C61.9501 45.5 63.0001 43.47 63.0001 41.3C63.0001 37.45 59.8501 34.3 56.0001 34.3C52.1501 34.3 49.0001 37.45 49.0001 41.3C49.0001 43.47 50.0501 45.5 51.5901 46.76C49.3501 48.16 47.8101 50.47 47.6001 53.27L36.4001 44.8V35.7H42.0001C42.7701 35.7 43.4001 35.07 43.4001 34.3V24.5C43.4001 21.49 41.7901 18.83 39.4101 17.36C40.9501 16.1 42.0001 14.07 42.0001 11.9C42.0001 8.04999 38.8501 4.89999 35.0001 4.89999C31.1501 4.89999 28.0001 8.04999 28.0001 11.9C28.0001 14.07 29.0501 16.1 30.5901 17.36C28.2101 18.83 26.6001 21.49 26.6001 24.5V34.3C26.6001 35.07 27.2301 35.7 28.0001 35.7H33.6001V44.8L22.4001 53.2C22.1901 50.47 20.6501 48.09 18.4101 46.69C19.9501 45.5 21.0001 43.47 21.0001 41.3C21.0001 37.45 17.8501 34.3 14.0001 34.3C10.1501 34.3 7.0001 37.45 7.0001 41.3C7.0001 43.47 8.0501 45.5 9.5901 46.76C7.2101 48.23 5.6001 50.89 5.6001 53.9V63.7C5.6001 64.47 6.2301 65.1 7.0001 65.1H21.0001C21.7701 65.1 22.4001 64.47 22.4001 63.7V56.7L35.0001 47.25L47.6001 56.7V63.7C47.6001 64.47 48.2301 65.1 49.0001 65.1H63.0001C63.7701 65.1 64.4001 64.47 64.4001 63.7V53.9C64.4001 50.89 62.7901 48.23 60.4101 46.76ZM14.0001 37.1C16.3101 37.1 18.2001 38.99 18.2001 41.3C18.2001 43.61 16.3101 45.5 14.0001 45.5C11.6901 45.5 9.8001 43.61 9.8001 41.3C9.8001 38.99 11.6901 37.1 14.0001 37.1ZM19.6001 62.3H8.4001V53.9C8.4001 50.82 10.9201 48.3 14.0001 48.3C17.0801 48.3 19.6001 50.82 19.6001 53.9V62.3ZM35.0001 7.69999C37.3101 7.69999 39.2001 9.58999 39.2001 11.9C39.2001 14.21 37.3101 16.1 35.0001 16.1C32.6901 16.1 30.8001 14.21 30.8001 11.9C30.8001 9.58999 32.6901 7.69999 35.0001 7.69999ZM29.4001 32.9V24.5C29.4001 21.42 31.9201 18.9 35.0001 18.9C38.0801 18.9 40.6001 21.42 40.6001 24.5V32.9H29.4001ZM56.0001 37.1C58.3101 37.1 60.2001 38.99 60.2001 41.3C60.2001 43.61 58.3101 45.5 56.0001 45.5C53.6901 45.5 51.8001 43.61 51.8001 41.3C51.8001 38.99 53.6901 37.1 56.0001 37.1ZM61.6001 62.3H50.4001V53.9C50.4001 50.82 52.9201 48.3 56.0001 48.3C59.0801 48.3 61.6001 50.82 61.6001 53.9V62.3Z" fill="white"/>
</svg>
