<svg width="70" height="70" viewBox="0 0 70 70" fill="none" xmlns="http://www.w3.org/2000/svg">
<path d="M4.70306 32.2875C5.44681 38.85 6.289 46.2437 12.9171 52.8828C16.8656 56.8312 20.2999 57.8375 23.3952 57.8375C25.0028 57.7899 26.6026 57.5959 28.1749 57.2578C29.3193 57.0219 30.4773 56.8575 31.6421 56.7656C32.0812 57.1379 32.4941 57.5399 32.8781 57.9688C33.1243 58.3014 33.4437 58.5731 33.8116 58.7627C34.1795 58.9523 34.5861 59.0549 34.9999 59.0625C35.4138 59.0549 35.8203 58.9523 36.1882 58.7627C36.5561 58.5731 36.8755 58.3014 37.1218 57.9688C37.5055 57.5502 37.9146 57.1557 38.3468 56.7875C39.5153 56.8786 40.677 57.043 41.8249 57.2797C43.3937 57.6171 44.9898 57.8112 46.5937 57.8594C49.6999 57.8594 53.1562 56.8531 57.0718 52.9047C63.7109 46.2437 64.5312 38.8281 65.2968 32.2875C65.3843 31.5109 65.4718 30.7453 65.5703 30.0016C65.7358 29.2787 65.7148 28.5257 65.5094 27.8132C65.304 27.1007 64.9209 26.4521 64.396 25.9283C63.8711 25.4045 63.2217 25.0227 62.5087 24.8188C61.7958 24.6149 61.0427 24.5955 60.3203 24.7625L58.0343 25.0359C54.704 25.3233 51.4082 25.9239 48.1906 26.8297C46.2254 22.6721 43.709 18.7982 40.7093 15.3125C40.1515 14.6125 39.6156 13.9344 39.0906 13.2562C38.6417 12.5729 38.0365 12.0061 37.3252 11.6029C36.6139 11.1997 35.8169 10.9716 34.9999 10.9375C34.184 10.9704 33.3876 11.1968 32.6763 11.5981C31.9651 11.9994 31.3594 12.564 30.9093 13.2453C30.3843 13.9234 29.8156 14.6016 29.2906 15.2906C26.2792 18.7902 23.7519 22.6787 21.7765 26.8516C18.5587 25.9464 15.263 25.3459 11.9327 25.0578L9.64681 24.7844C8.92783 24.6377 8.18434 24.6633 7.47716 24.8591C6.76998 25.0549 6.1192 25.4153 5.57806 25.9109C5.08486 26.4575 4.72852 27.1133 4.53837 27.8245C4.34821 28.5357 4.32969 29.2818 4.48431 30.0016C4.52806 30.7453 4.61556 31.5109 4.70306 32.2875ZM58.2968 27.2016L60.6156 26.9281C61.0084 26.8455 61.4146 26.8496 61.8056 26.9403C62.1967 27.031 62.5632 27.206 62.8796 27.4531C63.1374 27.7662 63.3214 28.1332 63.4179 28.527C63.5145 28.9209 63.5212 29.3314 63.4374 29.7281C63.3499 30.4828 63.2515 31.2594 63.164 32.0359C62.464 38.2266 61.6656 45.2375 55.5734 51.3297C50.3015 56.6125 46.3968 55.8797 42.2734 55.1031L40.7312 54.8297C41.1468 54.5344 41.5406 54.2281 41.9781 53.9328C42.4156 53.6375 42.9953 53.2438 43.4984 52.8391C43.9588 53.1743 44.3774 53.5636 44.7453 53.9984C44.9222 54.229 45.1835 54.3799 45.4717 54.4179C45.7599 54.4558 46.0514 54.3777 46.282 54.2008C46.5126 54.0238 46.6635 53.7625 46.7014 53.4743C46.7394 53.1861 46.6613 52.8947 46.4843 52.6641C46.1126 52.2277 45.7066 51.8217 45.2702 51.45C46.2702 50.5942 47.1594 49.6168 47.9171 48.5406C48.3479 48.8631 48.7438 49.2296 49.0984 49.6344C49.1822 49.758 49.2904 49.8631 49.4163 49.9432C49.5423 50.0234 49.6833 50.077 49.8308 50.1006C49.9782 50.1242 50.1289 50.1173 50.2736 50.0805C50.4183 50.0436 50.5539 49.9775 50.6721 49.8863C50.7903 49.795 50.8885 49.6805 50.9608 49.5499C51.033 49.4192 51.0778 49.2751 51.0922 49.1265C51.1067 48.9779 51.0906 48.8279 51.0449 48.6858C50.9992 48.5436 50.9249 48.4123 50.8265 48.3C50.297 47.6684 49.6865 47.1094 49.0109 46.6375C49.4955 45.5534 49.8622 44.4203 50.1046 43.2578C51.4011 43.5352 52.5609 44.2543 53.3859 45.2922C53.5628 45.5228 53.8241 45.6737 54.1123 45.7116C54.4005 45.7496 54.692 45.6715 54.9226 45.4945C55.1532 45.3176 55.3041 45.0563 55.342 44.7681C55.38 44.4799 55.3019 44.1884 55.1249 43.9578C53.9874 42.5574 52.4183 41.5728 50.6624 41.1578L52.4999 39.375C55.2671 37.8984 57.6296 40.8734 57.7281 40.9937C57.8122 41.1151 57.9201 41.2182 58.0452 41.2967C58.1703 41.3753 58.31 41.4277 58.4559 41.4508C58.6017 41.4739 58.7508 41.4672 58.894 41.4311C59.0372 41.395 59.1717 41.3303 59.2892 41.2408C59.4067 41.1514 59.5049 41.0391 59.5779 40.9106C59.6508 40.7822 59.697 40.6403 59.7136 40.4936C59.7303 40.3468 59.717 40.1982 59.6746 40.0567C59.6323 39.9152 59.5617 39.7838 59.4671 39.6703C58.3442 38.2473 56.757 37.264 54.9827 36.8922L56.6015 35.2734C56.8052 35.0685 56.9196 34.7913 56.9196 34.5023C56.9196 34.2134 56.8052 33.9362 56.6015 33.7313C56.4998 33.6287 56.3788 33.5474 56.2456 33.4918C56.1123 33.4363 55.9693 33.4077 55.8249 33.4077C55.6805 33.4077 55.5376 33.4363 55.4043 33.4918C55.271 33.5474 55.1501 33.6287 55.0484 33.7313L53.4624 35.3281C53.3348 34.5572 53.0679 33.816 52.6749 33.1406C52.6119 33.0012 52.5203 32.8765 52.4061 32.7746C52.2918 32.6728 52.1575 32.5961 52.0117 32.5494C51.866 32.5027 51.7121 32.4872 51.5599 32.5037C51.4078 32.5203 51.2608 32.5686 51.1285 32.6455C50.9962 32.7224 50.8815 32.8263 50.7919 32.9503C50.7022 33.0743 50.6396 33.2158 50.608 33.3655C50.5764 33.5153 50.5767 33.67 50.6087 33.8197C50.6406 33.9693 50.7037 34.1106 50.7937 34.2344C51.1508 34.7498 51.3565 35.3549 51.3875 35.9812C51.4184 36.6076 51.2733 37.23 50.9687 37.7781L50.5968 38.15C50.5926 34.9805 50.0565 31.8342 49.0109 28.8422C52.0473 28.0191 55.1514 27.47 58.2859 27.2016H58.2968ZM31.0077 16.6359C31.5656 15.9359 32.1015 15.2469 32.6374 14.5578C32.9033 14.1616 33.2525 13.8281 33.6605 13.5806C34.0685 13.3331 34.5256 13.1777 34.9999 13.125C35.4761 13.1802 35.9343 13.339 36.3425 13.5904C36.7507 13.8417 37.0988 14.1794 37.3624 14.5797C37.8874 15.2687 38.4562 15.9578 39.0031 16.6578C43.3781 22.2031 48.4202 28.4922 48.4202 38.325C48.4202 46.8672 44.6687 49.4375 40.6984 52.15C39.0252 53.1995 37.4799 54.4401 36.0937 55.8469V52.0297C37.1874 48.475 41.5624 48.9781 41.7593 49.0109C42.0383 49.0494 42.3213 48.9787 42.5495 48.8137C42.7777 48.6487 42.9334 48.402 42.9843 48.125C43.0216 47.8379 42.9435 47.5477 42.7672 47.3181C42.5908 47.0885 42.3307 46.9381 42.0437 46.9C39.9425 46.6335 37.818 47.1685 36.0937 48.3984V45.0516C37.1874 41.5078 41.5624 42.0109 41.7593 42.0328C42.0464 42.0701 42.3366 41.992 42.5662 41.8157C42.7958 41.6393 42.9462 41.3792 42.9843 41.0922C43.0216 40.8051 42.9435 40.5149 42.7672 40.2853C42.5908 40.0557 42.3307 39.9053 42.0437 39.8672C39.9355 39.6164 37.8104 40.1711 36.0937 41.4203V38.0734C37.1874 34.5297 41.5624 35.0219 41.7593 35.0547C42.0464 35.0919 42.3366 35.0139 42.5662 34.8375C42.7958 34.6612 42.9462 34.4011 42.9843 34.1141C43.0216 33.827 42.9435 33.5368 42.7672 33.3072C42.5908 33.0775 42.3307 32.9272 42.0437 32.8891C39.9355 32.6383 37.8104 33.193 36.0937 34.4422V31.0953C37.1874 27.5516 41.5624 28.0547 41.7593 28.0766C42.0494 28.1143 42.3426 28.0352 42.5744 27.8568C42.8061 27.6783 42.9575 27.4151 42.9953 27.125C43.033 26.8349 42.9539 26.5417 42.7754 26.31C42.597 26.0782 42.3338 25.9268 42.0437 25.8891C39.9327 25.6446 37.8073 26.2072 36.0937 27.4641V24.5438C36.0937 24.2537 35.9785 23.9755 35.7733 23.7704C35.5682 23.5652 35.29 23.45 34.9999 23.45C34.7099 23.45 34.4317 23.5652 34.2265 23.7704C34.0214 23.9755 33.9062 24.2537 33.9062 24.5438V27.4641C32.1852 26.2152 30.0568 25.6606 27.9452 25.9109C27.6552 25.9501 27.3925 26.1029 27.2151 26.3357C27.0377 26.5685 26.96 26.8623 26.9992 27.1523C27.0383 27.4424 27.1911 27.7051 27.4239 27.8825C27.6567 28.0599 27.9505 28.1376 28.2406 28.0984C28.4265 28.0984 32.8452 27.5516 33.9062 31.1172V34.4641C32.1852 33.2152 30.0568 32.6606 27.9452 32.9109C27.6552 32.9501 27.3925 33.1029 27.2151 33.3357C27.0377 33.5685 26.96 33.8623 26.9992 34.1523C27.0383 34.4424 27.1911 34.7051 27.4239 34.8825C27.6567 35.0599 27.9505 35.1376 28.2406 35.0984C28.4374 35 32.8124 34.5078 33.9062 38.0734V41.4203C32.1852 40.1714 30.0568 39.6169 27.9452 39.8672C27.6552 39.9063 27.3925 40.0591 27.2151 40.2919C27.0377 40.5248 26.96 40.8185 26.9992 41.1086C27.0383 41.3987 27.1911 41.6613 27.4239 41.8387C27.6567 42.0162 27.9505 42.0938 28.2406 42.0547C28.4265 42.0547 32.8452 41.4969 33.9062 45.0734V48.4203C32.1852 47.1714 30.0568 46.6169 27.9452 46.8672C27.6552 46.9063 27.3925 47.0591 27.2151 47.292C27.0377 47.5248 26.96 47.8185 26.9992 48.1086C27.0383 48.3987 27.1911 48.6613 27.4239 48.8387C27.6567 49.0162 27.9505 49.0938 28.2406 49.0547C28.4265 49.0547 32.8452 48.4969 33.9062 52.0734V55.8906C32.5188 54.4787 30.9738 53.231 29.3015 52.1719C25.3312 49.4594 21.5796 46.8891 21.5796 38.3469C21.5796 28.4375 26.589 22.1813 31.0077 16.6359ZM7.13119 27.4531C7.44757 27.206 7.81411 27.031 8.20517 26.9403C8.59624 26.8496 9.0024 26.8455 9.39525 26.9281L11.714 27.2016C14.8494 27.4818 17.9534 28.0418 20.989 28.875C19.9434 31.867 19.4073 35.0133 19.4031 38.1828L19.0312 37.8109C18.7265 37.2628 18.5815 36.6404 18.6124 36.0141C18.6433 35.3878 18.849 34.7826 19.2062 34.2672C19.2962 34.1434 19.3592 34.0021 19.3912 33.8525C19.4232 33.7028 19.4234 33.5481 19.3919 33.3984C19.3603 33.2486 19.2977 33.1071 19.208 32.9831C19.1184 32.8591 19.0037 32.7553 18.8714 32.6783C18.7391 32.6014 18.5921 32.5531 18.4399 32.5366C18.2878 32.52 18.1339 32.5356 17.9881 32.5822C17.8424 32.6289 17.708 32.7056 17.5938 32.8075C17.4796 32.9093 17.388 33.034 17.3249 33.1734C16.9319 33.8488 16.6651 34.59 16.5374 35.3609L14.9406 33.7531C14.8389 33.6506 14.7179 33.5692 14.5846 33.5137C14.4513 33.4582 14.3084 33.4296 14.164 33.4296C14.0196 33.4296 13.8767 33.4582 13.7434 33.5137C13.6101 33.5692 13.4891 33.6506 13.3874 33.7531C13.1837 33.9581 13.0694 34.2353 13.0694 34.5242C13.0694 34.8132 13.1837 35.0904 13.3874 35.2953L15.0171 36.925C13.2401 37.2907 11.6487 38.2704 10.5218 39.6922C10.3613 39.9237 10.2962 40.2082 10.3403 40.4865C10.3843 40.7647 10.534 41.0152 10.7582 41.1859C10.9824 41.3565 11.2638 41.434 11.5437 41.4023C11.8236 41.3706 12.0805 41.2321 12.2609 41.0156C12.3593 40.8844 14.7109 37.9094 17.489 39.3969L19.3265 41.2344C17.5706 41.6494 16.0015 42.6339 14.864 44.0344C14.6888 44.2651 14.6122 44.5559 14.6512 44.843C14.6902 45.1301 14.8414 45.39 15.0718 45.5656C15.2598 45.7115 15.4902 45.7922 15.7281 45.7953C15.8969 45.7966 16.0638 45.7587 16.2156 45.6847C16.3674 45.6107 16.5 45.5026 16.6031 45.3687C17.4443 44.3229 18.6241 43.6034 19.939 43.3344C20.1764 44.4982 20.5433 45.6318 21.0327 46.7141C20.3543 47.1825 19.7433 47.7419 19.2171 48.3766C19.0407 48.6059 18.9624 48.8959 18.9993 49.1828C19.0362 49.4698 19.1853 49.7305 19.414 49.9078C19.6049 50.056 19.8395 50.1367 20.0812 50.1375C20.2482 50.1371 20.4129 50.0984 20.5627 50.0245C20.7125 49.9506 20.8434 49.8433 20.9452 49.7109C21.2975 49.3079 21.6896 48.9414 22.1156 48.6172C22.8801 49.6913 23.7726 50.6682 24.7734 51.5266C24.337 51.8983 23.9311 52.3043 23.5593 52.7406C23.3829 52.97 23.3046 53.2599 23.3415 53.5469C23.3784 53.8339 23.5275 54.0946 23.7562 54.2719C23.9471 54.42 24.1817 54.5008 24.4234 54.5016C24.5904 54.5012 24.7551 54.4625 24.9049 54.3886C25.0547 54.3146 25.1855 54.2074 25.2874 54.075C25.661 53.6417 26.083 53.2527 26.5452 52.9156C27.0484 53.2875 27.5624 53.6375 28.0656 54.0094C28.5687 54.3813 28.8968 54.6109 29.3124 54.9172C28.7984 54.9937 28.2734 55.0812 27.7702 55.1797C23.6468 55.9562 19.7421 56.6781 14.4702 51.4062C8.37806 45.3141 7.57962 38.2812 6.87962 32.1125C6.78119 31.3359 6.69369 30.5594 6.60619 29.8047C6.50576 29.3988 6.50091 28.9752 6.59201 28.5671C6.68311 28.1591 6.86768 27.7777 7.13119 27.4531Z" fill="white"/>
</svg>
