<svg width="70" height="70" viewBox="0 0 70 70" fill="none" xmlns="http://www.w3.org/2000/svg">
<path d="M67.2002 42.8347C66.6505 42.8347 66.2028 42.387 66.2028 41.8373C66.2028 41.6254 66.2718 41.434 66.4127 41.2514C66.7852 40.7709 66.8042 40.1051 66.4611 39.604C66.1187 39.103 65.4884 38.8808 64.9081 39.0516C60.6293 40.3229 56.6166 36.8689 57.059 32.5828C57.0973 32.2014 56.9776 31.8206 56.7268 31.5294C56.4766 31.2389 56.1176 31.0632 55.7349 31.044C54.3704 30.9771 53.3019 29.8539 53.3019 28.4861C53.3019 27.7059 53.7369 27.2679 53.2576 26.5268C53.0347 26.1829 52.6724 25.9533 52.2657 25.9C51.556 25.8063 50.7877 25.7585 49.9817 25.7585C43.0665 25.7585 36.7826 29.603 33.578 35.5596C32.2416 33.9402 30.2875 32.6025 27.9451 31.6494C29.1781 30.6551 29.984 29.1512 29.984 27.4477C29.984 25.2519 28.6659 23.3664 26.7844 22.5155C27.4848 21.5895 27.926 20.4578 27.9653 19.2192C27.9981 18.9266 27.9905 18.5268 27.9796 17.9109C27.9775 17.8322 27.9701 17.7542 27.9549 17.6771C26.0854 7.78204 19.7662 7.01372 17.8741 7.01372C17.2998 7.01372 16.9574 7.07518 16.9574 7.07518C16.4104 7.1736 15.9641 7.58856 15.8349 8.12924C15.7063 8.67076 15.9005 9.23804 16.3442 9.57306C17.5329 10.4713 18.4223 11.4687 18.9877 12.5378C19.3333 13.1925 18.7929 13.9905 18.0375 13.9905H16.0003C13.2194 13.9905 10.9567 16.2532 10.9567 19.034V19.7887C10.9567 20.8585 11.2969 21.8474 11.8673 22.6646C10.1378 23.5711 8.94224 25.3634 8.94224 27.4477C8.94224 29.1435 9.74094 30.6411 10.9643 31.6357C6.8442 33.3045 3.99984 36.1626 3.47524 39.5486H2.80016C2.39066 39.5486 2.00104 39.7284 1.73504 40.0394C1.46918 40.3512 1.35298 40.7641 1.41724 41.1681L4.67798 61.7996C4.78524 62.4805 5.37184 62.9815 6.0609 62.9815H14.9566C14.966 62.9817 14.9744 62.9863 14.9838 62.9863C15.0007 62.9863 15.0182 62.9821 15.0353 62.9815H19.439C19.4474 62.9817 19.4543 62.9863 19.4627 62.9863C19.4711 62.9863 19.4779 62.9817 19.4863 62.9815H23.549C23.5661 62.9821 23.5836 62.9863 23.6005 62.9863C23.6099 62.9863 23.6182 62.9817 23.6275 62.9815H32.8542C33.5433 62.9815 34.1292 62.4805 34.2372 61.8003L35.2032 55.6926C36.5411 57.4377 38.1852 58.9387 40.0717 60.1234C43.0343 61.9931 46.4613 62.9815 49.9817 62.9815C60.2479 62.9815 68.6002 54.6294 68.6002 44.2347C68.6002 43.4615 67.9733 42.8347 67.2002 42.8347ZM13.7567 19.034C13.7567 17.7967 14.763 16.7905 16.0003 16.7905H18.0375C20.9134 16.7905 22.7891 13.7389 21.4629 11.2294C21.4021 11.1146 21.3385 11.0004 21.2729 10.887C22.8232 11.9533 24.3968 14.0431 25.1817 18.0824C25.1885 18.4454 25.1898 18.6634 25.1885 18.7926C25.1748 18.8713 25.168 18.9519 25.168 19.034C25.168 20.6707 23.8478 22.0014 22.217 22.0275H15.953C14.7381 22.0016 13.7567 21.0098 13.7567 19.7887V19.034ZM14.3625 30.0678C12.9173 30.0678 11.7422 28.8928 11.7422 27.4477C11.7422 26.0025 12.9173 24.8275 14.3625 24.8275C16.0208 24.8275 24.7051 24.8273 24.5637 24.8275C26.0088 24.8275 27.184 26.0025 27.184 27.4477C27.184 28.8928 26.0088 30.0678 24.5637 30.0678C24.4219 30.0678 13.8414 30.0678 14.3625 30.0678ZM19.294 32.8678H19.6539C25.516 32.9188 30.6873 35.3035 32.2609 38.6408C32.1972 38.8389 32.1429 39.0376 32.0865 39.2363C32.0655 39.3102 32.0417 39.3837 32.0218 39.4573C32.0135 39.4878 32.003 39.5182 31.9951 39.5486H6.33224C7.29444 35.8562 12.8256 32.919 19.294 32.8678ZM31.6581 60.1815H25.2847L27.4354 48.6384C27.5776 47.8782 27.0759 47.1475 26.3157 47.006C25.5514 46.863 24.8241 47.3655 24.6833 48.1257L22.437 60.1815H20.8627V48.382C20.8627 47.6088 20.2359 46.982 19.4627 46.982C18.6896 46.982 18.0627 47.6088 18.0627 48.382V60.1815H16.1473L13.901 48.1257C13.7602 47.3662 13.0315 46.859 12.2685 47.006C11.5084 47.1475 11.0067 47.8782 11.1488 48.6384L13.2996 60.1815H7.2572L4.43998 42.3486H31.4741C31.4659 42.4203 31.4692 42.4999 31.4619 42.572C31.4037 43.1491 31.3641 43.7373 31.3641 44.3639C31.3641 47.0042 31.9693 49.6908 32.9644 51.9224L31.6581 60.1815ZM49.9817 60.1815C46.991 60.1815 44.081 59.3428 41.5634 57.7541C39.0012 56.1449 36.9667 53.8528 35.6789 51.1232C34.6734 49.0027 34.1641 46.7284 34.1641 44.3639C34.1641 35.5831 41.3046 28.5585 49.9817 28.5585C50.1581 28.5585 50.3317 28.5613 50.5026 28.566C50.5368 30.9196 52.0838 32.9143 54.2343 33.5966C54.4326 38.4296 58.5438 42.2748 63.4123 42.1107C63.5176 43.5805 64.463 44.8218 65.7694 45.3551C65.2567 53.6169 58.3715 60.1815 49.9817 60.1815Z" fill="white"/>
<path d="M52.0051 41.4039C51.0201 41.4039 50.219 42.1996 50.219 43.1778C50.219 44.1629 51.0201 44.9648 52.0051 44.9648C52.9903 44.9648 53.7921 44.1629 53.7921 43.1778C53.7921 42.1996 52.9903 41.4039 52.0051 41.4039ZM52.0051 44.2039C51.4466 44.2039 50.9921 43.7438 50.9921 43.1778C50.9921 42.6289 51.4563 42.1648 52.0051 42.1648C52.5644 42.1648 53.019 42.6194 53.019 43.1778C53.019 43.7438 52.5644 44.2039 52.0051 44.2039ZM42.3912 36.6836C40.4442 36.6836 38.8604 38.2614 38.8604 40.2007C38.8604 42.1477 40.4442 43.7315 42.3912 43.7315C44.3311 43.7315 45.9089 42.1477 45.9089 40.2007C45.9089 38.2614 44.3311 36.6836 42.3912 36.6836ZM43.8089 47.7579C42.6741 47.7579 41.7512 48.6808 41.7512 49.8155C41.7512 50.9571 42.6741 51.8854 43.8089 51.8854C44.9505 51.8854 45.8788 50.9571 45.8788 49.8155C45.8788 48.6808 44.9505 47.7579 43.8089 47.7579ZM43.8089 50.5579C43.3994 50.5579 43.0788 50.2319 43.0788 49.8155C43.0788 49.406 43.3994 49.0854 43.8089 49.0854C44.2183 49.0854 44.5512 49.4129 44.5512 49.8155C44.5512 50.225 44.2183 50.5579 43.8089 50.5579ZM55.8456 47.3197C54.8394 47.3197 54.0204 48.1442 54.0204 49.1579C54.0204 50.1717 54.8394 50.9961 55.8456 50.9961C56.8593 50.9961 57.6838 50.1717 57.6838 49.1579C57.6838 48.1442 56.8593 47.3197 55.8456 47.3197ZM55.8456 50.1197C55.3151 50.1197 54.8838 49.6884 54.8838 49.1579C54.8838 48.6275 55.3151 48.1961 55.8456 48.1961C56.3741 48.1961 56.8204 48.6363 56.8204 49.1579C56.8204 49.6794 56.3741 50.1197 55.8456 50.1197ZM51.0987 33.2289C51.0987 32.2225 50.2681 31.4035 49.2475 31.4035C48.2413 31.4035 47.4223 32.2225 47.4223 33.2289C47.4223 34.2495 48.2413 35.0799 49.2475 35.0799C50.2681 35.0799 51.0987 34.2495 51.0987 33.2289ZM49.2475 34.2035C48.7246 34.2035 48.2987 33.766 48.2987 33.2289C48.2987 32.697 48.7157 32.2799 49.2475 32.2799C49.7848 32.2799 50.2223 32.7058 50.2223 33.2289C50.2223 33.766 49.7848 34.2035 49.2475 34.2035Z" fill="white"/>
</svg>
